G04 #@! TF.GenerationSoftware,KiCad,Pcbnew,7.0.0*
G04 #@! TF.CreationDate,2023-03-02T16:39:17-08:00*
G04 #@! TF.ProjectId,KYBERNETES-CHASSIS-SHIELD,4b594245-524e-4455-9445-532d43484153,rev?*
G04 #@! TF.SameCoordinates,Original*
G04 #@! TF.FileFunction,Legend,Bot*
G04 #@! TF.FilePolarity,Positive*
%FSLAX46Y46*%
G04 Gerber Fmt 4.6, Leading zero omitted, Abs format (unit mm)*
G04 Created by KiCad (PCBNEW 7.0.0) date 2023-03-02 16:39:17*
%MOMM*%
%LPD*%
G01*
G04 APERTURE LIST*
G04 Aperture macros list*
%AMRoundRect*
0 Rectangle with rounded corners*
0 $1 Rounding radius*
0 $2 $3 $4 $5 $6 $7 $8 $9 X,Y pos of 4 corners*
0 Add a 4 corners polygon primitive as box body*
4,1,4,$2,$3,$4,$5,$6,$7,$8,$9,$2,$3,0*
0 Add four circle primitives for the rounded corners*
1,1,$1+$1,$2,$3*
1,1,$1+$1,$4,$5*
1,1,$1+$1,$6,$7*
1,1,$1+$1,$8,$9*
0 Add four rect primitives between the rounded corners*
20,1,$1+$1,$2,$3,$4,$5,0*
20,1,$1+$1,$4,$5,$6,$7,0*
20,1,$1+$1,$6,$7,$8,$9,0*
20,1,$1+$1,$8,$9,$2,$3,0*%
G04 Aperture macros list end*
%ADD10C,0.150000*%
%ADD11R,1.600000X1.600000*%
%ADD12O,1.600000X1.600000*%
%ADD13R,1.700000X1.700000*%
%ADD14O,1.700000X1.700000*%
%ADD15RoundRect,0.250000X0.625000X-0.350000X0.625000X0.350000X-0.625000X0.350000X-0.625000X-0.350000X0*%
%ADD16O,1.750000X1.200000*%
%ADD17RoundRect,0.250000X-0.625000X0.350000X-0.625000X-0.350000X0.625000X-0.350000X0.625000X0.350000X0*%
%ADD18C,3.200000*%
%ADD19O,1.727200X1.727200*%
%ADD20R,1.727200X1.727200*%
%ADD21RoundRect,0.250000X-0.350000X-0.625000X0.350000X-0.625000X0.350000X0.625000X-0.350000X0.625000X0*%
%ADD22O,1.200000X1.750000*%
G04 APERTURE END LIST*
D10*
X178853380Y-64181786D02*
X179853380Y-64848452D01*
X178853380Y-64848452D02*
X179853380Y-64181786D01*
X179567666Y-65181786D02*
X179567666Y-65657976D01*
X179853380Y-65086548D02*
X178853380Y-65419881D01*
X178853380Y-65419881D02*
X179853380Y-65753214D01*
X179853380Y-66610357D02*
X179853380Y-66038929D01*
X179853380Y-66324643D02*
X178853380Y-66324643D01*
X178853380Y-66324643D02*
X178996238Y-66229405D01*
X178996238Y-66229405D02*
X179091476Y-66134167D01*
X179091476Y-66134167D02*
X179139095Y-66038929D01*
X178470000Y-62879881D02*
X125130000Y-62879881D01*
X178470000Y-62879881D02*
X178470000Y-127395881D01*
X125130000Y-62879881D02*
X125130000Y-128919881D01*
X178470000Y-127395881D02*
X176946000Y-128919881D01*
X165770000Y-128919881D02*
X176946000Y-128919881D01*
X126400000Y-128919881D02*
X128940000Y-131459881D01*
X125130000Y-128919881D02*
X126400000Y-128919881D01*
X163230000Y-131459881D02*
X165770000Y-128919881D01*
X128940000Y-131459881D02*
X163230000Y-131459881D01*
%LPC*%
D11*
X139129999Y-105054999D03*
D12*
X139129999Y-107594999D03*
X139129999Y-110134999D03*
X139129999Y-112674999D03*
X146749999Y-112674999D03*
X146749999Y-110134999D03*
X146749999Y-107594999D03*
X146749999Y-105054999D03*
D13*
X143249999Y-77575118D03*
D14*
X140709999Y-77575118D03*
X138169999Y-77575118D03*
D15*
X169650000Y-114100000D03*
D16*
X169649999Y-112099999D03*
X169649999Y-110099999D03*
X169649999Y-108099999D03*
D15*
X169650000Y-125175000D03*
D16*
X169649999Y-123174999D03*
X169649999Y-121174999D03*
X169649999Y-119174999D03*
D17*
X133875000Y-116825000D03*
D16*
X133874999Y-118824999D03*
X133874999Y-120824999D03*
X133874999Y-122824999D03*
D18*
X127670000Y-76849881D03*
X175930000Y-78119881D03*
D19*
X127669999Y-90819880D03*
D18*
X160690000Y-128919881D03*
X132750000Y-128919881D03*
D19*
X127669999Y-98439880D03*
X127669999Y-100979880D03*
X155609999Y-129046880D03*
X127669999Y-113679880D03*
X127669999Y-116219880D03*
X127669999Y-118759880D03*
X127669999Y-121299880D03*
X127669999Y-123839880D03*
X127669999Y-126379880D03*
X175929999Y-86755880D03*
X175929999Y-126379880D03*
X175929999Y-123839880D03*
X175929999Y-121299880D03*
X175929999Y-118759880D03*
X175929999Y-116219880D03*
X175929999Y-113679880D03*
X175929999Y-111139880D03*
X175929999Y-108599880D03*
X175929999Y-104535880D03*
X175929999Y-101995880D03*
X175929999Y-99455880D03*
X175929999Y-96915880D03*
X175929999Y-94375880D03*
X175929999Y-91835880D03*
D20*
X175929999Y-89295880D03*
X127669999Y-103519880D03*
X127669999Y-106059880D03*
X150529999Y-129046880D03*
D19*
X127669999Y-93359880D03*
X155609999Y-126506880D03*
X153069999Y-129046880D03*
X127669999Y-95899880D03*
X150529999Y-126506880D03*
X153069999Y-126506880D03*
X175929999Y-81675880D03*
X175929999Y-84215880D03*
X127669999Y-108599880D03*
D21*
X147775000Y-77950000D03*
D22*
X149774999Y-77949999D03*
X151774999Y-77949999D03*
X153774999Y-77949999D03*
X155774999Y-77949999D03*
D21*
X149775000Y-85450000D03*
D22*
X151774999Y-85449999D03*
D13*
X133089999Y-81275118D03*
D14*
X135629999Y-81275118D03*
X138169999Y-81275118D03*
X140709999Y-81275118D03*
X143249999Y-81275118D03*
D13*
X160309999Y-81250118D03*
D14*
X162849999Y-81250118D03*
X165389999Y-81250118D03*
X167929999Y-81250118D03*
X170469999Y-81250118D03*
D17*
X133875000Y-105860000D03*
D16*
X133874999Y-107859999D03*
X133874999Y-109859999D03*
X133874999Y-111859999D03*
D13*
X170464999Y-77550118D03*
D14*
X167924999Y-77550118D03*
X165384999Y-77550118D03*
M02*
