G04 #@! TF.GenerationSoftware,KiCad,Pcbnew,7.0.0*
G04 #@! TF.CreationDate,2023-03-01T21:53:21-08:00*
G04 #@! TF.ProjectId,KYBERNETES-CHASSIS-SHIELD,4b594245-524e-4455-9445-532d43484153,rev?*
G04 #@! TF.SameCoordinates,Original*
G04 #@! TF.FileFunction,Paste,Top*
G04 #@! TF.FilePolarity,Positive*
%FSLAX46Y46*%
G04 Gerber Fmt 4.6, Leading zero omitted, Abs format (unit mm)*
G04 Created by KiCad (PCBNEW 7.0.0) date 2023-03-01 21:53:21*
%MOMM*%
%LPD*%
G01*
G04 APERTURE LIST*
G04 Aperture macros list*
%AMRoundRect*
0 Rectangle with rounded corners*
0 $1 Rounding radius*
0 $2 $3 $4 $5 $6 $7 $8 $9 X,Y pos of 4 corners*
0 Add a 4 corners polygon primitive as box body*
4,1,4,$2,$3,$4,$5,$6,$7,$8,$9,$2,$3,0*
0 Add four circle primitives for the rounded corners*
1,1,$1+$1,$2,$3*
1,1,$1+$1,$4,$5*
1,1,$1+$1,$6,$7*
1,1,$1+$1,$8,$9*
0 Add four rect primitives between the rounded corners*
20,1,$1+$1,$2,$3,$4,$5,0*
20,1,$1+$1,$4,$5,$6,$7,0*
20,1,$1+$1,$6,$7,$8,$9,0*
20,1,$1+$1,$8,$9,$2,$3,0*%
G04 Aperture macros list end*
%ADD10RoundRect,0.150000X0.150000X-0.662500X0.150000X0.662500X-0.150000X0.662500X-0.150000X-0.662500X0*%
%ADD11RoundRect,0.237500X0.250000X0.237500X-0.250000X0.237500X-0.250000X-0.237500X0.250000X-0.237500X0*%
%ADD12RoundRect,0.237500X-0.250000X-0.237500X0.250000X-0.237500X0.250000X0.237500X-0.250000X0.237500X0*%
%ADD13RoundRect,0.237500X-0.237500X0.250000X-0.237500X-0.250000X0.237500X-0.250000X0.237500X0.250000X0*%
%ADD14RoundRect,0.237500X0.237500X-0.250000X0.237500X0.250000X-0.237500X0.250000X-0.237500X-0.250000X0*%
%ADD15RoundRect,0.250000X1.500000X1.000000X-1.500000X1.000000X-1.500000X-1.000000X1.500000X-1.000000X0*%
%ADD16RoundRect,0.237500X-0.237500X0.300000X-0.237500X-0.300000X0.237500X-0.300000X0.237500X0.300000X0*%
%ADD17RoundRect,0.150000X-0.150000X0.662500X-0.150000X-0.662500X0.150000X-0.662500X0.150000X0.662500X0*%
%ADD18RoundRect,0.237500X0.300000X0.237500X-0.300000X0.237500X-0.300000X-0.237500X0.300000X-0.237500X0*%
%ADD19RoundRect,0.250000X-1.500000X-1.000000X1.500000X-1.000000X1.500000X1.000000X-1.500000X1.000000X0*%
%ADD20RoundRect,0.150000X0.150000X-0.512500X0.150000X0.512500X-0.150000X0.512500X-0.150000X-0.512500X0*%
%ADD21RoundRect,0.100000X-0.637500X-0.100000X0.637500X-0.100000X0.637500X0.100000X-0.637500X0.100000X0*%
G04 APERTURE END LIST*
D10*
X146205000Y-100812500D03*
X147475000Y-100812500D03*
X147475000Y-94437500D03*
X146205000Y-94437500D03*
D11*
X157900000Y-102675000D03*
X156075000Y-102675000D03*
D12*
X168250000Y-102675000D03*
X170075000Y-102675000D03*
D13*
X133550000Y-85325000D03*
X133550000Y-87150000D03*
D11*
X141125000Y-92375000D03*
X139300000Y-92375000D03*
D12*
X144400000Y-102675000D03*
X146225000Y-102675000D03*
D11*
X138775000Y-118850000D03*
X136950000Y-118850000D03*
D14*
X133300000Y-90565000D03*
X133300000Y-88740000D03*
D15*
X171270000Y-71240000D03*
X164770000Y-71240000D03*
D16*
X148850000Y-105060000D03*
X148850000Y-106785000D03*
D11*
X136700000Y-93925000D03*
X134875000Y-93925000D03*
D17*
X152475000Y-94412500D03*
X151205000Y-94412500D03*
X151205000Y-100787500D03*
X152475000Y-100787500D03*
D10*
X131855000Y-100812500D03*
X133125000Y-100812500D03*
X133125000Y-94437500D03*
X131855000Y-94437500D03*
D18*
X140875000Y-87150000D03*
X139150000Y-87150000D03*
D19*
X149280000Y-71280000D03*
X155780000Y-71280000D03*
D11*
X138775000Y-120825000D03*
X136950000Y-120825000D03*
D12*
X139300000Y-93950000D03*
X141125000Y-93950000D03*
D10*
X156080000Y-100812500D03*
X157350000Y-100812500D03*
X157350000Y-94437500D03*
X156080000Y-94437500D03*
D14*
X144325000Y-92562500D03*
X144325000Y-90737500D03*
D20*
X135150000Y-86975000D03*
X137050000Y-86975000D03*
X136100000Y-84700000D03*
D15*
X144050000Y-71290000D03*
X137550000Y-71290000D03*
D21*
X135137500Y-88775000D03*
X135137500Y-89425000D03*
X135137500Y-90075000D03*
X135137500Y-90725000D03*
X140862500Y-90725000D03*
X140862500Y-90075000D03*
X140862500Y-89425000D03*
X140862500Y-88775000D03*
D11*
X133675000Y-102650000D03*
X131850000Y-102650000D03*
D14*
X171525000Y-92562500D03*
X171525000Y-90737500D03*
D12*
X141025000Y-102675000D03*
X142850000Y-102675000D03*
X134875000Y-92350000D03*
X136700000Y-92350000D03*
D10*
X142880000Y-100812500D03*
X144150000Y-100812500D03*
X144150000Y-94437500D03*
X142880000Y-94437500D03*
X170080000Y-100812500D03*
X171350000Y-100812500D03*
X171350000Y-94437500D03*
X170080000Y-94437500D03*
D13*
X151025000Y-90725000D03*
X151025000Y-92550000D03*
D14*
X157530000Y-92562500D03*
X157530000Y-90737500D03*
M02*
