G04 #@! TF.GenerationSoftware,KiCad,Pcbnew,7.0.0*
G04 #@! TF.CreationDate,2023-03-01T21:53:21-08:00*
G04 #@! TF.ProjectId,KYBERNETES-CHASSIS-SHIELD,4b594245-524e-4455-9445-532d43484153,rev?*
G04 #@! TF.SameCoordinates,Original*
G04 #@! TF.FileFunction,Copper,L4,Bot*
G04 #@! TF.FilePolarity,Positive*
%FSLAX46Y46*%
G04 Gerber Fmt 4.6, Leading zero omitted, Abs format (unit mm)*
G04 Created by KiCad (PCBNEW 7.0.0) date 2023-03-01 21:53:21*
%MOMM*%
%LPD*%
G01*
G04 APERTURE LIST*
G04 Aperture macros list*
%AMRoundRect*
0 Rectangle with rounded corners*
0 $1 Rounding radius*
0 $2 $3 $4 $5 $6 $7 $8 $9 X,Y pos of 4 corners*
0 Add a 4 corners polygon primitive as box body*
4,1,4,$2,$3,$4,$5,$6,$7,$8,$9,$2,$3,0*
0 Add four circle primitives for the rounded corners*
1,1,$1+$1,$2,$3*
1,1,$1+$1,$4,$5*
1,1,$1+$1,$6,$7*
1,1,$1+$1,$8,$9*
0 Add four rect primitives between the rounded corners*
20,1,$1+$1,$2,$3,$4,$5,0*
20,1,$1+$1,$4,$5,$6,$7,0*
20,1,$1+$1,$6,$7,$8,$9,0*
20,1,$1+$1,$8,$9,$2,$3,0*%
G04 Aperture macros list end*
G04 #@! TA.AperFunction,ComponentPad*
%ADD10R,1.600000X1.600000*%
G04 #@! TD*
G04 #@! TA.AperFunction,ComponentPad*
%ADD11O,1.600000X1.600000*%
G04 #@! TD*
G04 #@! TA.AperFunction,ComponentPad*
%ADD12R,1.700000X1.700000*%
G04 #@! TD*
G04 #@! TA.AperFunction,ComponentPad*
%ADD13O,1.700000X1.700000*%
G04 #@! TD*
G04 #@! TA.AperFunction,ComponentPad*
%ADD14RoundRect,0.250000X0.625000X-0.350000X0.625000X0.350000X-0.625000X0.350000X-0.625000X-0.350000X0*%
G04 #@! TD*
G04 #@! TA.AperFunction,ComponentPad*
%ADD15O,1.750000X1.200000*%
G04 #@! TD*
G04 #@! TA.AperFunction,ComponentPad*
%ADD16RoundRect,0.250000X-0.625000X0.350000X-0.625000X-0.350000X0.625000X-0.350000X0.625000X0.350000X0*%
G04 #@! TD*
G04 #@! TA.AperFunction,ComponentPad*
%ADD17O,1.727200X1.727200*%
G04 #@! TD*
G04 #@! TA.AperFunction,ComponentPad*
%ADD18R,1.727200X1.727200*%
G04 #@! TD*
G04 #@! TA.AperFunction,ComponentPad*
%ADD19RoundRect,0.250000X-0.350000X-0.625000X0.350000X-0.625000X0.350000X0.625000X-0.350000X0.625000X0*%
G04 #@! TD*
G04 #@! TA.AperFunction,ComponentPad*
%ADD20O,1.200000X1.750000*%
G04 #@! TD*
G04 #@! TA.AperFunction,ViaPad*
%ADD21C,0.600000*%
G04 #@! TD*
G04 #@! TA.AperFunction,Conductor*
%ADD22C,0.254000*%
G04 #@! TD*
G04 #@! TA.AperFunction,Conductor*
%ADD23C,1.270000*%
G04 #@! TD*
G04 APERTURE END LIST*
D10*
X139129999Y-105054999D03*
D11*
X139129999Y-107594999D03*
X139129999Y-110134999D03*
X139129999Y-112674999D03*
X146749999Y-112674999D03*
X146749999Y-110134999D03*
X146749999Y-107594999D03*
X146749999Y-105054999D03*
D12*
X143249999Y-77575118D03*
D13*
X140709999Y-77575118D03*
X138169999Y-77575118D03*
D14*
X169650000Y-114100000D03*
D15*
X169649999Y-112099999D03*
X169649999Y-110099999D03*
X169649999Y-108099999D03*
D14*
X169650000Y-125175000D03*
D15*
X169649999Y-123174999D03*
X169649999Y-121174999D03*
X169649999Y-119174999D03*
D16*
X133875000Y-116825000D03*
D15*
X133874999Y-118824999D03*
X133874999Y-120824999D03*
X133874999Y-122824999D03*
D17*
X127669999Y-90819880D03*
X127669999Y-98439880D03*
X127669999Y-100979880D03*
X155609999Y-129046880D03*
X127669999Y-113679880D03*
X127669999Y-116219880D03*
X127669999Y-118759880D03*
X127669999Y-121299880D03*
X127669999Y-123839880D03*
X127669999Y-126379880D03*
X175929999Y-86755880D03*
X175929999Y-126379880D03*
X175929999Y-123839880D03*
X175929999Y-121299880D03*
X175929999Y-118759880D03*
X175929999Y-116219880D03*
X175929999Y-113679880D03*
X175929999Y-111139880D03*
X175929999Y-108599880D03*
X175929999Y-104535880D03*
X175929999Y-101995880D03*
X175929999Y-99455880D03*
X175929999Y-96915880D03*
X175929999Y-94375880D03*
X175929999Y-91835880D03*
D18*
X175929999Y-89295880D03*
X127669999Y-103519880D03*
X127669999Y-106059880D03*
X150529999Y-129046880D03*
D17*
X127669999Y-93359880D03*
X155609999Y-126506880D03*
X153069999Y-129046880D03*
X127669999Y-95899880D03*
X150529999Y-126506880D03*
X153069999Y-126506880D03*
X175929999Y-81675880D03*
X175929999Y-84215880D03*
X127669999Y-108599880D03*
D19*
X147775000Y-77950000D03*
D20*
X149774999Y-77949999D03*
X151774999Y-77949999D03*
X153774999Y-77949999D03*
X155774999Y-77949999D03*
D19*
X149775000Y-85450000D03*
D20*
X151774999Y-85449999D03*
D12*
X133089999Y-81275118D03*
D13*
X135629999Y-81275118D03*
X138169999Y-81275118D03*
X140709999Y-81275118D03*
X143249999Y-81275118D03*
D12*
X160309999Y-81250118D03*
D13*
X162849999Y-81250118D03*
X165389999Y-81250118D03*
X167929999Y-81250118D03*
X170469999Y-81250118D03*
D16*
X133875000Y-105860000D03*
D15*
X133874999Y-107859999D03*
X133874999Y-109859999D03*
X133874999Y-111859999D03*
D12*
X170464999Y-77550118D03*
D13*
X167924999Y-77550118D03*
X165384999Y-77550118D03*
D21*
X160300000Y-86430000D03*
X138025000Y-93950000D03*
X146200000Y-93050000D03*
X140875000Y-88100000D03*
X152475000Y-93050000D03*
X133550000Y-84275000D03*
X133125000Y-93075000D03*
X158600000Y-90725000D03*
X136440000Y-90720000D03*
X145375000Y-90750000D03*
X171525000Y-89650000D03*
X138050000Y-87150000D03*
X138025000Y-92325000D03*
X156521250Y-81371250D03*
X139250000Y-89250000D03*
X148900000Y-89600000D03*
X149900000Y-106675000D03*
X145050000Y-100825000D03*
X158200000Y-100825000D03*
X133975000Y-100800000D03*
X150325000Y-100800000D03*
X172225000Y-100825000D03*
X148325000Y-100825000D03*
X152475000Y-102300000D03*
X159250000Y-102975000D03*
X141025000Y-101625000D03*
X168250000Y-101625000D03*
D22*
X138865000Y-107860000D02*
X139130000Y-107595000D01*
X133875000Y-107860000D02*
X138865000Y-107860000D01*
X138855000Y-109860000D02*
X139130000Y-110135000D01*
X133875000Y-109860000D02*
X138855000Y-109860000D01*
X173725119Y-121299881D02*
X175930000Y-121299881D01*
X169650000Y-123175000D02*
X171850000Y-123175000D01*
X171850000Y-123175000D02*
X173725119Y-121299881D01*
X173665119Y-118759881D02*
X175930000Y-118759881D01*
X169650000Y-121175000D02*
X171250000Y-121175000D01*
X171250000Y-121175000D02*
X173665119Y-118759881D01*
X146750000Y-112675000D02*
X146750000Y-117700000D01*
X130000000Y-119750000D02*
X130925000Y-118825000D01*
X127670000Y-123839881D02*
X128935119Y-123839881D01*
X128935119Y-123839881D02*
X130000000Y-122775000D01*
X130925000Y-118825000D02*
X133875000Y-118825000D01*
X133875000Y-118825000D02*
X145625000Y-118825000D01*
X130000000Y-119750000D02*
X130000000Y-122775000D01*
X145625000Y-118825000D02*
X146750000Y-117700000D01*
X148300000Y-108225000D02*
X147670000Y-107595000D01*
X128850000Y-126379881D02*
X127670000Y-126379881D01*
X145925000Y-120825000D02*
X148300000Y-118450000D01*
X132075000Y-120825000D02*
X131400000Y-121500000D01*
X131400000Y-123825000D02*
X128850000Y-126375000D01*
X131400000Y-121500000D02*
X131400000Y-123825000D01*
X147670000Y-107595000D02*
X146750000Y-107595000D01*
X133875000Y-120825000D02*
X132075000Y-120825000D01*
X133875000Y-120825000D02*
X145925000Y-120825000D01*
X128850000Y-126375000D02*
X128850000Y-126379881D01*
X148300000Y-118450000D02*
X148300000Y-108225000D01*
X175930000Y-116219881D02*
X173794881Y-116219881D01*
X171675000Y-114100000D02*
X169650000Y-114100000D01*
X173794881Y-116219881D02*
X171675000Y-114100000D01*
X175930000Y-113679881D02*
X173854881Y-113679881D01*
X173854881Y-113679881D02*
X172275000Y-112100000D01*
X172275000Y-112100000D02*
X169650000Y-112100000D01*
X158470000Y-88260000D02*
X160300000Y-86430000D01*
X146160000Y-85850000D02*
X148570000Y-88260000D01*
X132130000Y-83320000D02*
X132130000Y-85030000D01*
X132950000Y-85850000D02*
X146160000Y-85850000D01*
X133090000Y-82360000D02*
X132130000Y-83320000D01*
X132130000Y-85030000D02*
X132950000Y-85850000D01*
X133090000Y-81275119D02*
X133090000Y-82360000D01*
X148570000Y-88260000D02*
X158470000Y-88260000D01*
D23*
X145980000Y-83800000D02*
X135650000Y-83800000D01*
X135630000Y-83780000D02*
X135650000Y-83800000D01*
X155760000Y-83810000D02*
X162820000Y-83810000D01*
X147775000Y-82005000D02*
X147775000Y-77950000D01*
X162820000Y-83810000D02*
X162850000Y-83780000D01*
X153955000Y-82005000D02*
X155760000Y-83810000D01*
X147775000Y-82005000D02*
X153955000Y-82005000D01*
X135630000Y-81275119D02*
X135630000Y-83780000D01*
X147775000Y-82005000D02*
X145980000Y-83800000D01*
X162850000Y-83780000D02*
X162850000Y-81250119D01*
X138170000Y-74550000D02*
X155770000Y-74550000D01*
X165390000Y-81250119D02*
X167930000Y-81250119D01*
X155775000Y-74555000D02*
X155770000Y-74550000D01*
X165385000Y-81245119D02*
X165390000Y-81250119D01*
X138170000Y-75455000D02*
X138170000Y-74550000D01*
X138170000Y-81275119D02*
X140710000Y-81275119D01*
X165385000Y-77550119D02*
X165385000Y-81245119D01*
X138170000Y-77575119D02*
X138170000Y-75455000D01*
X160889881Y-77550119D02*
X160490000Y-77950000D01*
X165385000Y-77550119D02*
X160889881Y-77550119D01*
X155775000Y-77950000D02*
X160490000Y-77950000D01*
X138170000Y-81275119D02*
X138170000Y-77575119D01*
X155775000Y-77950000D02*
X155775000Y-74555000D01*
D22*
X154990000Y-79840000D02*
X156521250Y-81371250D01*
X151775000Y-79425000D02*
X152190000Y-79840000D01*
X151775000Y-77950000D02*
X151775000Y-79425000D01*
X152190000Y-79840000D02*
X154990000Y-79840000D01*
X148900000Y-89600000D02*
X139608000Y-89600000D01*
X139608000Y-89600000D02*
X139604000Y-89604000D01*
X139250000Y-89250000D02*
X139604000Y-89604000D01*
X152475000Y-102300000D02*
X154525000Y-104350000D01*
X154525000Y-104350000D02*
X169500000Y-104350000D01*
X173749881Y-108599881D02*
X175930000Y-108599881D01*
X169500000Y-104350000D02*
X173749881Y-108599881D01*
X172900000Y-104535881D02*
X175930000Y-104535881D01*
X171339119Y-102975000D02*
X172900000Y-104535881D01*
X159250000Y-102975000D02*
X171339119Y-102975000D01*
X141025000Y-101625000D02*
X168250000Y-101625000D01*
X175559119Y-101625000D02*
X175930000Y-101995881D01*
X168250000Y-101625000D02*
X175559119Y-101625000D01*
D23*
X143250000Y-80910000D02*
X143250000Y-81275119D01*
X140710000Y-78370000D02*
X143250000Y-80910000D01*
X140710000Y-77575119D02*
X140710000Y-78370000D01*
X167925000Y-77550119D02*
X167925000Y-78365000D01*
X170470000Y-80910000D02*
X170470000Y-81250119D01*
X170360000Y-81140119D02*
X170470000Y-81250119D01*
X167925000Y-78365000D02*
X170470000Y-80910000D01*
M02*
