G04 #@! TF.GenerationSoftware,KiCad,Pcbnew,7.0.0*
G04 #@! TF.CreationDate,2023-03-01T21:53:21-08:00*
G04 #@! TF.ProjectId,KYBERNETES-CHASSIS-SHIELD,4b594245-524e-4455-9445-532d43484153,rev?*
G04 #@! TF.SameCoordinates,Original*
G04 #@! TF.FileFunction,Copper,L3,Inr*
G04 #@! TF.FilePolarity,Positive*
%FSLAX46Y46*%
G04 Gerber Fmt 4.6, Leading zero omitted, Abs format (unit mm)*
G04 Created by KiCad (PCBNEW 7.0.0) date 2023-03-01 21:53:21*
%MOMM*%
%LPD*%
G01*
G04 APERTURE LIST*
G04 Aperture macros list*
%AMRoundRect*
0 Rectangle with rounded corners*
0 $1 Rounding radius*
0 $2 $3 $4 $5 $6 $7 $8 $9 X,Y pos of 4 corners*
0 Add a 4 corners polygon primitive as box body*
4,1,4,$2,$3,$4,$5,$6,$7,$8,$9,$2,$3,0*
0 Add four circle primitives for the rounded corners*
1,1,$1+$1,$2,$3*
1,1,$1+$1,$4,$5*
1,1,$1+$1,$6,$7*
1,1,$1+$1,$8,$9*
0 Add four rect primitives between the rounded corners*
20,1,$1+$1,$2,$3,$4,$5,0*
20,1,$1+$1,$4,$5,$6,$7,0*
20,1,$1+$1,$6,$7,$8,$9,0*
20,1,$1+$1,$8,$9,$2,$3,0*%
G04 Aperture macros list end*
G04 #@! TA.AperFunction,ComponentPad*
%ADD10R,1.600000X1.600000*%
G04 #@! TD*
G04 #@! TA.AperFunction,ComponentPad*
%ADD11O,1.600000X1.600000*%
G04 #@! TD*
G04 #@! TA.AperFunction,ComponentPad*
%ADD12R,1.700000X1.700000*%
G04 #@! TD*
G04 #@! TA.AperFunction,ComponentPad*
%ADD13O,1.700000X1.700000*%
G04 #@! TD*
G04 #@! TA.AperFunction,ComponentPad*
%ADD14RoundRect,0.250000X0.625000X-0.350000X0.625000X0.350000X-0.625000X0.350000X-0.625000X-0.350000X0*%
G04 #@! TD*
G04 #@! TA.AperFunction,ComponentPad*
%ADD15O,1.750000X1.200000*%
G04 #@! TD*
G04 #@! TA.AperFunction,ComponentPad*
%ADD16RoundRect,0.250000X-0.625000X0.350000X-0.625000X-0.350000X0.625000X-0.350000X0.625000X0.350000X0*%
G04 #@! TD*
G04 #@! TA.AperFunction,ComponentPad*
%ADD17O,1.727200X1.727200*%
G04 #@! TD*
G04 #@! TA.AperFunction,ComponentPad*
%ADD18R,1.727200X1.727200*%
G04 #@! TD*
G04 #@! TA.AperFunction,ComponentPad*
%ADD19RoundRect,0.250000X-0.350000X-0.625000X0.350000X-0.625000X0.350000X0.625000X-0.350000X0.625000X0*%
G04 #@! TD*
G04 #@! TA.AperFunction,ComponentPad*
%ADD20O,1.200000X1.750000*%
G04 #@! TD*
G04 #@! TA.AperFunction,ViaPad*
%ADD21C,0.600000*%
G04 #@! TD*
G04 APERTURE END LIST*
D10*
X139129999Y-105054999D03*
D11*
X139129999Y-107594999D03*
X139129999Y-110134999D03*
X139129999Y-112674999D03*
X146749999Y-112674999D03*
X146749999Y-110134999D03*
X146749999Y-107594999D03*
X146749999Y-105054999D03*
D12*
X143249999Y-77575118D03*
D13*
X140709999Y-77575118D03*
X138169999Y-77575118D03*
D14*
X169650000Y-114100000D03*
D15*
X169649999Y-112099999D03*
X169649999Y-110099999D03*
X169649999Y-108099999D03*
D14*
X169650000Y-125175000D03*
D15*
X169649999Y-123174999D03*
X169649999Y-121174999D03*
X169649999Y-119174999D03*
D16*
X133875000Y-116825000D03*
D15*
X133874999Y-118824999D03*
X133874999Y-120824999D03*
X133874999Y-122824999D03*
D17*
X127669999Y-90819880D03*
X127669999Y-98439880D03*
X127669999Y-100979880D03*
X155609999Y-129046880D03*
X127669999Y-113679880D03*
X127669999Y-116219880D03*
X127669999Y-118759880D03*
X127669999Y-121299880D03*
X127669999Y-123839880D03*
X127669999Y-126379880D03*
X175929999Y-86755880D03*
X175929999Y-126379880D03*
X175929999Y-123839880D03*
X175929999Y-121299880D03*
X175929999Y-118759880D03*
X175929999Y-116219880D03*
X175929999Y-113679880D03*
X175929999Y-111139880D03*
X175929999Y-108599880D03*
X175929999Y-104535880D03*
X175929999Y-101995880D03*
X175929999Y-99455880D03*
X175929999Y-96915880D03*
X175929999Y-94375880D03*
X175929999Y-91835880D03*
D18*
X175929999Y-89295880D03*
X127669999Y-103519880D03*
X127669999Y-106059880D03*
X150529999Y-129046880D03*
D17*
X127669999Y-93359880D03*
X155609999Y-126506880D03*
X153069999Y-129046880D03*
X127669999Y-95899880D03*
X150529999Y-126506880D03*
X153069999Y-126506880D03*
X175929999Y-81675880D03*
X175929999Y-84215880D03*
X127669999Y-108599880D03*
D19*
X147775000Y-77950000D03*
D20*
X149774999Y-77949999D03*
X151774999Y-77949999D03*
X153774999Y-77949999D03*
X155774999Y-77949999D03*
D19*
X149775000Y-85450000D03*
D20*
X151774999Y-85449999D03*
D12*
X133089999Y-81275118D03*
D13*
X135629999Y-81275118D03*
X138169999Y-81275118D03*
X140709999Y-81275118D03*
X143249999Y-81275118D03*
D12*
X160309999Y-81250118D03*
D13*
X162849999Y-81250118D03*
X165389999Y-81250118D03*
X167929999Y-81250118D03*
X170469999Y-81250118D03*
D16*
X133875000Y-105860000D03*
D15*
X133874999Y-107859999D03*
X133874999Y-109859999D03*
X133874999Y-111859999D03*
D12*
X170464999Y-77550118D03*
D13*
X167924999Y-77550118D03*
X165384999Y-77550118D03*
D21*
X160300000Y-86430000D03*
X138025000Y-93950000D03*
X146200000Y-93050000D03*
X140875000Y-88100000D03*
X152475000Y-93050000D03*
X133550000Y-84275000D03*
X133125000Y-93075000D03*
X158600000Y-90725000D03*
X136440000Y-90720000D03*
X145375000Y-90750000D03*
X171525000Y-89650000D03*
X138050000Y-87150000D03*
X138025000Y-92325000D03*
X156521250Y-81371250D03*
X139250000Y-89250000D03*
X148900000Y-89600000D03*
X149900000Y-106675000D03*
X145050000Y-100825000D03*
X158200000Y-100825000D03*
X133975000Y-100800000D03*
X150325000Y-100800000D03*
X172225000Y-100825000D03*
X148325000Y-100825000D03*
X152475000Y-102300000D03*
X159250000Y-102975000D03*
X141025000Y-101625000D03*
X168250000Y-101625000D03*
G04 #@! TA.AperFunction,Conductor*
G36*
X137852665Y-91538852D02*
G01*
X137852662Y-91538852D01*
X137845745Y-91539632D01*
X137839182Y-91541928D01*
X137839175Y-91541930D01*
X137682043Y-91596913D01*
X137682036Y-91596915D01*
X137675478Y-91599211D01*
X137669590Y-91602910D01*
X137669587Y-91602912D01*
X137528638Y-91691476D01*
X137528633Y-91691479D01*
X137522738Y-91695184D01*
X137517813Y-91700108D01*
X137517809Y-91700112D01*
X137400112Y-91817809D01*
X137400108Y-91817813D01*
X137395184Y-91822738D01*
X137391479Y-91828633D01*
X137391476Y-91828638D01*
X137302912Y-91969587D01*
X137302910Y-91969590D01*
X137299211Y-91975478D01*
X137296915Y-91982036D01*
X137296913Y-91982043D01*
X137241930Y-92139175D01*
X137241928Y-92139182D01*
X137239632Y-92145745D01*
X137219435Y-92325000D01*
X137220215Y-92331923D01*
X137233531Y-92450112D01*
X137239632Y-92504255D01*
X137241928Y-92510819D01*
X137241930Y-92510824D01*
X137296913Y-92667956D01*
X137299211Y-92674522D01*
X137395184Y-92827262D01*
X137522738Y-92954816D01*
X137675478Y-93050789D01*
X137845745Y-93110368D01*
X138025000Y-93130565D01*
X138204255Y-93110368D01*
X138374522Y-93050789D01*
X138527262Y-92954816D01*
X138654816Y-92827262D01*
X138750789Y-92674522D01*
X138810368Y-92504255D01*
X138830565Y-92325000D01*
X138810368Y-92145745D01*
X138750789Y-91975478D01*
X138654816Y-91822738D01*
X138527262Y-91695184D01*
X138374522Y-91599211D01*
X138367959Y-91596914D01*
X138367956Y-91596913D01*
X138210824Y-91541930D01*
X138210819Y-91541928D01*
X138204255Y-91539632D01*
X138197335Y-91538852D01*
X138197334Y-91538852D01*
X138074392Y-91525000D01*
X141900000Y-91525000D01*
X141900000Y-94875000D01*
X131374000Y-94875000D01*
X131312000Y-94858387D01*
X131266613Y-94813000D01*
X131250000Y-94751000D01*
X131250000Y-93075000D01*
X132319435Y-93075000D01*
X132339632Y-93254255D01*
X132341928Y-93260819D01*
X132341930Y-93260824D01*
X132396913Y-93417956D01*
X132399211Y-93424522D01*
X132495184Y-93577262D01*
X132622738Y-93704816D01*
X132775478Y-93800789D01*
X132945745Y-93860368D01*
X133125000Y-93880565D01*
X133304255Y-93860368D01*
X133474522Y-93800789D01*
X133627262Y-93704816D01*
X133754816Y-93577262D01*
X133850789Y-93424522D01*
X133910368Y-93254255D01*
X133930565Y-93075000D01*
X133910368Y-92895745D01*
X133850789Y-92725478D01*
X133754816Y-92572738D01*
X133627262Y-92445184D01*
X133474522Y-92349211D01*
X133467959Y-92346914D01*
X133467956Y-92346913D01*
X133310824Y-92291930D01*
X133310819Y-92291928D01*
X133304255Y-92289632D01*
X133297335Y-92288852D01*
X133297334Y-92288852D01*
X133131923Y-92270215D01*
X133125000Y-92269435D01*
X133118077Y-92270215D01*
X132952665Y-92288852D01*
X132952662Y-92288852D01*
X132945745Y-92289632D01*
X132939182Y-92291928D01*
X132939175Y-92291930D01*
X132782043Y-92346913D01*
X132782036Y-92346915D01*
X132775478Y-92349211D01*
X132769590Y-92352910D01*
X132769587Y-92352912D01*
X132628638Y-92441476D01*
X132628633Y-92441479D01*
X132622738Y-92445184D01*
X132617813Y-92450108D01*
X132617809Y-92450112D01*
X132500112Y-92567809D01*
X132500108Y-92567813D01*
X132495184Y-92572738D01*
X132491479Y-92578633D01*
X132491476Y-92578638D01*
X132402912Y-92719587D01*
X132402910Y-92719590D01*
X132399211Y-92725478D01*
X132396915Y-92732036D01*
X132396913Y-92732043D01*
X132341930Y-92889175D01*
X132341928Y-92889182D01*
X132339632Y-92895745D01*
X132338852Y-92902662D01*
X132338852Y-92902665D01*
X132322580Y-93047087D01*
X132319435Y-93075000D01*
X131250000Y-93075000D01*
X131250000Y-91525000D01*
X137975608Y-91525000D01*
X137852665Y-91538852D01*
G37*
G04 #@! TD.AperFunction*
G04 #@! TA.AperFunction,Conductor*
G36*
X172238000Y-66611613D02*
G01*
X172283387Y-66657000D01*
X172300000Y-66719000D01*
X172300000Y-88993560D01*
X172286485Y-89049855D01*
X172248885Y-89093878D01*
X172195398Y-89116033D01*
X172137682Y-89111491D01*
X172088319Y-89081241D01*
X172032190Y-89025112D01*
X172027262Y-89020184D01*
X171874522Y-88924211D01*
X171867959Y-88921914D01*
X171867956Y-88921913D01*
X171710824Y-88866930D01*
X171710819Y-88866928D01*
X171704255Y-88864632D01*
X171697335Y-88863852D01*
X171697334Y-88863852D01*
X171531923Y-88845215D01*
X171525000Y-88844435D01*
X171518077Y-88845215D01*
X171352665Y-88863852D01*
X171352662Y-88863852D01*
X171345745Y-88864632D01*
X171339182Y-88866928D01*
X171339175Y-88866930D01*
X171182043Y-88921913D01*
X171182036Y-88921915D01*
X171175478Y-88924211D01*
X171169590Y-88927910D01*
X171169587Y-88927912D01*
X171028638Y-89016476D01*
X171028633Y-89016479D01*
X171022738Y-89020184D01*
X171017813Y-89025108D01*
X171017809Y-89025112D01*
X170900112Y-89142809D01*
X170900108Y-89142813D01*
X170895184Y-89147738D01*
X170891479Y-89153633D01*
X170891476Y-89153638D01*
X170802912Y-89294587D01*
X170802910Y-89294590D01*
X170799211Y-89300478D01*
X170796915Y-89307036D01*
X170796913Y-89307043D01*
X170741930Y-89464175D01*
X170741928Y-89464182D01*
X170739632Y-89470745D01*
X170738852Y-89477662D01*
X170738852Y-89477665D01*
X170720215Y-89643077D01*
X170719435Y-89650000D01*
X170720215Y-89656923D01*
X170734738Y-89785824D01*
X170739632Y-89829255D01*
X170741928Y-89835819D01*
X170741930Y-89835824D01*
X170789611Y-89972087D01*
X170799211Y-89999522D01*
X170802912Y-90005412D01*
X170878124Y-90125112D01*
X170895184Y-90152262D01*
X171022738Y-90279816D01*
X171175478Y-90375789D01*
X171345745Y-90435368D01*
X171525000Y-90455565D01*
X171704255Y-90435368D01*
X171874522Y-90375789D01*
X172027262Y-90279816D01*
X172088319Y-90218758D01*
X172137682Y-90188509D01*
X172195398Y-90183967D01*
X172248885Y-90206122D01*
X172286485Y-90250145D01*
X172300000Y-90306440D01*
X172300000Y-94751000D01*
X172283387Y-94813000D01*
X172238000Y-94858387D01*
X172176000Y-94875000D01*
X141900000Y-94875000D01*
X141900000Y-91525000D01*
X138074392Y-91525000D01*
X138031923Y-91520215D01*
X138025000Y-91519435D01*
X138018077Y-91520215D01*
X137975608Y-91525000D01*
X136445015Y-91525000D01*
X136619255Y-91505368D01*
X136789522Y-91445789D01*
X136942262Y-91349816D01*
X137069816Y-91222262D01*
X137165789Y-91069522D01*
X137225368Y-90899255D01*
X137242185Y-90750000D01*
X144569435Y-90750000D01*
X144589632Y-90929255D01*
X144591928Y-90935819D01*
X144591930Y-90935824D01*
X144642524Y-91080412D01*
X144649211Y-91099522D01*
X144652912Y-91105412D01*
X144725767Y-91221361D01*
X144745184Y-91252262D01*
X144872738Y-91379816D01*
X145025478Y-91475789D01*
X145195745Y-91535368D01*
X145375000Y-91555565D01*
X145554255Y-91535368D01*
X145724522Y-91475789D01*
X145877262Y-91379816D01*
X146004816Y-91252262D01*
X146100789Y-91099522D01*
X146160368Y-90929255D01*
X146180565Y-90750000D01*
X146177748Y-90725000D01*
X157794435Y-90725000D01*
X157814632Y-90904255D01*
X157816928Y-90910819D01*
X157816930Y-90910824D01*
X157871913Y-91067956D01*
X157874211Y-91074522D01*
X157970184Y-91227262D01*
X158097738Y-91354816D01*
X158250478Y-91450789D01*
X158420745Y-91510368D01*
X158600000Y-91530565D01*
X158779255Y-91510368D01*
X158949522Y-91450789D01*
X159102262Y-91354816D01*
X159229816Y-91227262D01*
X159325789Y-91074522D01*
X159385368Y-90904255D01*
X159405565Y-90725000D01*
X159385368Y-90545745D01*
X159325789Y-90375478D01*
X159229816Y-90222738D01*
X159102262Y-90095184D01*
X159088403Y-90086476D01*
X158955412Y-90002912D01*
X158949522Y-89999211D01*
X158942959Y-89996914D01*
X158942956Y-89996913D01*
X158785824Y-89941930D01*
X158785819Y-89941928D01*
X158779255Y-89939632D01*
X158772335Y-89938852D01*
X158772334Y-89938852D01*
X158606923Y-89920215D01*
X158600000Y-89919435D01*
X158593077Y-89920215D01*
X158427665Y-89938852D01*
X158427662Y-89938852D01*
X158420745Y-89939632D01*
X158414182Y-89941928D01*
X158414175Y-89941930D01*
X158257043Y-89996913D01*
X158257036Y-89996915D01*
X158250478Y-89999211D01*
X158244590Y-90002910D01*
X158244587Y-90002912D01*
X158103638Y-90091476D01*
X158103633Y-90091479D01*
X158097738Y-90095184D01*
X158092813Y-90100108D01*
X158092809Y-90100112D01*
X157975112Y-90217809D01*
X157975108Y-90217813D01*
X157970184Y-90222738D01*
X157966479Y-90228633D01*
X157966476Y-90228638D01*
X157877912Y-90369587D01*
X157877910Y-90369590D01*
X157874211Y-90375478D01*
X157871915Y-90382036D01*
X157871913Y-90382043D01*
X157816930Y-90539175D01*
X157816928Y-90539182D01*
X157814632Y-90545745D01*
X157813852Y-90552662D01*
X157813852Y-90552665D01*
X157795778Y-90713077D01*
X157794435Y-90725000D01*
X146177748Y-90725000D01*
X146160368Y-90570745D01*
X146100789Y-90400478D01*
X146004816Y-90247738D01*
X145877262Y-90120184D01*
X145848739Y-90102262D01*
X145730412Y-90027912D01*
X145724522Y-90024211D01*
X145717959Y-90021914D01*
X145717956Y-90021913D01*
X145560824Y-89966930D01*
X145560819Y-89966928D01*
X145554255Y-89964632D01*
X145547335Y-89963852D01*
X145547334Y-89963852D01*
X145381923Y-89945215D01*
X145375000Y-89944435D01*
X145368077Y-89945215D01*
X145202665Y-89963852D01*
X145202662Y-89963852D01*
X145195745Y-89964632D01*
X145189182Y-89966928D01*
X145189175Y-89966930D01*
X145032043Y-90021913D01*
X145032036Y-90021915D01*
X145025478Y-90024211D01*
X145019590Y-90027910D01*
X145019587Y-90027912D01*
X144878638Y-90116476D01*
X144878633Y-90116479D01*
X144872738Y-90120184D01*
X144867813Y-90125108D01*
X144867809Y-90125112D01*
X144750112Y-90242809D01*
X144750108Y-90242813D01*
X144745184Y-90247738D01*
X144741479Y-90253633D01*
X144741476Y-90253638D01*
X144652912Y-90394587D01*
X144652910Y-90394590D01*
X144649211Y-90400478D01*
X144646915Y-90407036D01*
X144646913Y-90407043D01*
X144591930Y-90564175D01*
X144591928Y-90564182D01*
X144589632Y-90570745D01*
X144569435Y-90750000D01*
X137242185Y-90750000D01*
X137245565Y-90720000D01*
X137225368Y-90540745D01*
X137165789Y-90370478D01*
X137069816Y-90217738D01*
X136942262Y-90090184D01*
X136789522Y-89994211D01*
X136782959Y-89991914D01*
X136782956Y-89991913D01*
X136625824Y-89936930D01*
X136625819Y-89936928D01*
X136619255Y-89934632D01*
X136612335Y-89933852D01*
X136612334Y-89933852D01*
X136446923Y-89915215D01*
X136440000Y-89914435D01*
X136433077Y-89915215D01*
X136267665Y-89933852D01*
X136267662Y-89933852D01*
X136260745Y-89934632D01*
X136254182Y-89936928D01*
X136254175Y-89936930D01*
X136097043Y-89991913D01*
X136097036Y-89991915D01*
X136090478Y-89994211D01*
X136084590Y-89997910D01*
X136084587Y-89997912D01*
X135943638Y-90086476D01*
X135943633Y-90086479D01*
X135937738Y-90090184D01*
X135932813Y-90095108D01*
X135932809Y-90095112D01*
X135815112Y-90212809D01*
X135815108Y-90212813D01*
X135810184Y-90217738D01*
X135806479Y-90223633D01*
X135806476Y-90223638D01*
X135717912Y-90364587D01*
X135717910Y-90364590D01*
X135714211Y-90370478D01*
X135711915Y-90377036D01*
X135711913Y-90377043D01*
X135656930Y-90534175D01*
X135656928Y-90534182D01*
X135654632Y-90540745D01*
X135634435Y-90720000D01*
X135654632Y-90899255D01*
X135656928Y-90905819D01*
X135656930Y-90905824D01*
X135711913Y-91062956D01*
X135714211Y-91069522D01*
X135810184Y-91222262D01*
X135937738Y-91349816D01*
X136090478Y-91445789D01*
X136260745Y-91505368D01*
X136434985Y-91525000D01*
X131250000Y-91525000D01*
X131250000Y-89250000D01*
X138444435Y-89250000D01*
X138464632Y-89429255D01*
X138466928Y-89435819D01*
X138466930Y-89435824D01*
X138481571Y-89477665D01*
X138524211Y-89599522D01*
X138620184Y-89752262D01*
X138747738Y-89879816D01*
X138900478Y-89975789D01*
X139070745Y-90035368D01*
X139250000Y-90055565D01*
X139429255Y-90035368D01*
X139599522Y-89975789D01*
X139752262Y-89879816D01*
X139879816Y-89752262D01*
X139975489Y-89600000D01*
X148094435Y-89600000D01*
X148095215Y-89606923D01*
X148111590Y-89752262D01*
X148114632Y-89779255D01*
X148116928Y-89785819D01*
X148116930Y-89785824D01*
X148170477Y-89938852D01*
X148174211Y-89949522D01*
X148177912Y-89955412D01*
X148265736Y-90095184D01*
X148270184Y-90102262D01*
X148397738Y-90229816D01*
X148550478Y-90325789D01*
X148720745Y-90385368D01*
X148900000Y-90405565D01*
X149079255Y-90385368D01*
X149249522Y-90325789D01*
X149402262Y-90229816D01*
X149529816Y-90102262D01*
X149625789Y-89949522D01*
X149685368Y-89779255D01*
X149705565Y-89600000D01*
X149685368Y-89420745D01*
X149625789Y-89250478D01*
X149529816Y-89097738D01*
X149402262Y-88970184D01*
X149329096Y-88924211D01*
X149255412Y-88877912D01*
X149249522Y-88874211D01*
X149242959Y-88871914D01*
X149242956Y-88871913D01*
X149085824Y-88816930D01*
X149085819Y-88816928D01*
X149079255Y-88814632D01*
X149072335Y-88813852D01*
X149072334Y-88813852D01*
X148906923Y-88795215D01*
X148900000Y-88794435D01*
X148893077Y-88795215D01*
X148727665Y-88813852D01*
X148727662Y-88813852D01*
X148720745Y-88814632D01*
X148714182Y-88816928D01*
X148714175Y-88816930D01*
X148557043Y-88871913D01*
X148557036Y-88871915D01*
X148550478Y-88874211D01*
X148544590Y-88877910D01*
X148544587Y-88877912D01*
X148403638Y-88966476D01*
X148403633Y-88966479D01*
X148397738Y-88970184D01*
X148392813Y-88975108D01*
X148392809Y-88975112D01*
X148275112Y-89092809D01*
X148275108Y-89092813D01*
X148270184Y-89097738D01*
X148266479Y-89103633D01*
X148266476Y-89103638D01*
X148177912Y-89244587D01*
X148177910Y-89244590D01*
X148174211Y-89250478D01*
X148171915Y-89257036D01*
X148171913Y-89257043D01*
X148116930Y-89414175D01*
X148116928Y-89414182D01*
X148114632Y-89420745D01*
X148113852Y-89427662D01*
X148113852Y-89427665D01*
X148095229Y-89592956D01*
X148094435Y-89600000D01*
X139975489Y-89600000D01*
X139975789Y-89599522D01*
X140035368Y-89429255D01*
X140055565Y-89250000D01*
X140035368Y-89070745D01*
X139975789Y-88900478D01*
X139879816Y-88747738D01*
X139752262Y-88620184D01*
X139599522Y-88524211D01*
X139592959Y-88521914D01*
X139592956Y-88521913D01*
X139435824Y-88466930D01*
X139435819Y-88466928D01*
X139429255Y-88464632D01*
X139422335Y-88463852D01*
X139422334Y-88463852D01*
X139256923Y-88445215D01*
X139250000Y-88444435D01*
X139243077Y-88445215D01*
X139077665Y-88463852D01*
X139077662Y-88463852D01*
X139070745Y-88464632D01*
X139064182Y-88466928D01*
X139064175Y-88466930D01*
X138907043Y-88521913D01*
X138907036Y-88521915D01*
X138900478Y-88524211D01*
X138894590Y-88527910D01*
X138894587Y-88527912D01*
X138753638Y-88616476D01*
X138753633Y-88616479D01*
X138747738Y-88620184D01*
X138742813Y-88625108D01*
X138742809Y-88625112D01*
X138625112Y-88742809D01*
X138625108Y-88742813D01*
X138620184Y-88747738D01*
X138616479Y-88753633D01*
X138616476Y-88753638D01*
X138527912Y-88894587D01*
X138527910Y-88894590D01*
X138524211Y-88900478D01*
X138521915Y-88907036D01*
X138521913Y-88907043D01*
X138466930Y-89064175D01*
X138466928Y-89064182D01*
X138464632Y-89070745D01*
X138463852Y-89077662D01*
X138463852Y-89077665D01*
X138460926Y-89103638D01*
X138444435Y-89250000D01*
X131250000Y-89250000D01*
X131250000Y-87150000D01*
X137244435Y-87150000D01*
X137264632Y-87329255D01*
X137266928Y-87335819D01*
X137266930Y-87335824D01*
X137321913Y-87492956D01*
X137324211Y-87499522D01*
X137420184Y-87652262D01*
X137547738Y-87779816D01*
X137700478Y-87875789D01*
X137870745Y-87935368D01*
X138050000Y-87955565D01*
X138229255Y-87935368D01*
X138399522Y-87875789D01*
X138552262Y-87779816D01*
X138679816Y-87652262D01*
X138775789Y-87499522D01*
X138835368Y-87329255D01*
X138855565Y-87150000D01*
X138835368Y-86970745D01*
X138775789Y-86800478D01*
X138679816Y-86647738D01*
X138552262Y-86520184D01*
X138399522Y-86424211D01*
X138392959Y-86421914D01*
X138392956Y-86421913D01*
X138235824Y-86366930D01*
X138235819Y-86366928D01*
X138229255Y-86364632D01*
X138222335Y-86363852D01*
X138222334Y-86363852D01*
X138056923Y-86345215D01*
X138050000Y-86344435D01*
X138043077Y-86345215D01*
X137877665Y-86363852D01*
X137877662Y-86363852D01*
X137870745Y-86364632D01*
X137864182Y-86366928D01*
X137864175Y-86366930D01*
X137707043Y-86421913D01*
X137707036Y-86421915D01*
X137700478Y-86424211D01*
X137694590Y-86427910D01*
X137694587Y-86427912D01*
X137553638Y-86516476D01*
X137553633Y-86516479D01*
X137547738Y-86520184D01*
X137542813Y-86525108D01*
X137542809Y-86525112D01*
X137425112Y-86642809D01*
X137425108Y-86642813D01*
X137420184Y-86647738D01*
X137416479Y-86653633D01*
X137416476Y-86653638D01*
X137327912Y-86794587D01*
X137327910Y-86794590D01*
X137324211Y-86800478D01*
X137321915Y-86807036D01*
X137321913Y-86807043D01*
X137266930Y-86964175D01*
X137266928Y-86964182D01*
X137264632Y-86970745D01*
X137263852Y-86977662D01*
X137263852Y-86977665D01*
X137245215Y-87143077D01*
X137244435Y-87150000D01*
X131250000Y-87150000D01*
X131250000Y-86119518D01*
X148925000Y-86119518D01*
X148925353Y-86126114D01*
X148930573Y-86174667D01*
X148934111Y-86189641D01*
X148978547Y-86308777D01*
X148986962Y-86324189D01*
X149062498Y-86425092D01*
X149074907Y-86437501D01*
X149175810Y-86513037D01*
X149191222Y-86521452D01*
X149310358Y-86565888D01*
X149325332Y-86569426D01*
X149373885Y-86574646D01*
X149380482Y-86575000D01*
X149383674Y-86575000D01*
X149396549Y-86571549D01*
X149400000Y-86558674D01*
X150150000Y-86558674D01*
X150153450Y-86571549D01*
X150166326Y-86575000D01*
X150169518Y-86575000D01*
X150176114Y-86574646D01*
X150224667Y-86569426D01*
X150239641Y-86565888D01*
X150358777Y-86521452D01*
X150374189Y-86513037D01*
X150475092Y-86437501D01*
X150487501Y-86425092D01*
X150563037Y-86324189D01*
X150571451Y-86308780D01*
X150585311Y-86271619D01*
X150616781Y-86224398D01*
X150665992Y-86196141D01*
X150722638Y-86192766D01*
X150774855Y-86214980D01*
X150811710Y-86258130D01*
X150844989Y-86322682D01*
X150848642Y-86327327D01*
X150929385Y-86430000D01*
X150974908Y-86487886D01*
X151133744Y-86625519D01*
X151315756Y-86730604D01*
X151514367Y-86799344D01*
X151722398Y-86829254D01*
X151932330Y-86819254D01*
X152136576Y-86769704D01*
X152327753Y-86682396D01*
X152498952Y-86560486D01*
X152623370Y-86430000D01*
X159494435Y-86430000D01*
X159495215Y-86436923D01*
X159510732Y-86574646D01*
X159514632Y-86609255D01*
X159516928Y-86615819D01*
X159516930Y-86615824D01*
X159571262Y-86771095D01*
X159574211Y-86779522D01*
X159670184Y-86932262D01*
X159797738Y-87059816D01*
X159950478Y-87155789D01*
X160120745Y-87215368D01*
X160300000Y-87235565D01*
X160479255Y-87215368D01*
X160649522Y-87155789D01*
X160802262Y-87059816D01*
X160929816Y-86932262D01*
X161025789Y-86779522D01*
X161085368Y-86609255D01*
X161105565Y-86430000D01*
X161085368Y-86250745D01*
X161025789Y-86080478D01*
X160929816Y-85927738D01*
X160802262Y-85800184D01*
X160649522Y-85704211D01*
X160642959Y-85701914D01*
X160642956Y-85701913D01*
X160485824Y-85646930D01*
X160485819Y-85646928D01*
X160479255Y-85644632D01*
X160472335Y-85643852D01*
X160472334Y-85643852D01*
X160306923Y-85625215D01*
X160300000Y-85624435D01*
X160293077Y-85625215D01*
X160127665Y-85643852D01*
X160127662Y-85643852D01*
X160120745Y-85644632D01*
X160114182Y-85646928D01*
X160114175Y-85646930D01*
X159957043Y-85701913D01*
X159957036Y-85701915D01*
X159950478Y-85704211D01*
X159944590Y-85707910D01*
X159944587Y-85707912D01*
X159803638Y-85796476D01*
X159803633Y-85796479D01*
X159797738Y-85800184D01*
X159792813Y-85805108D01*
X159792809Y-85805112D01*
X159675112Y-85922809D01*
X159675108Y-85922813D01*
X159670184Y-85927738D01*
X159666479Y-85933633D01*
X159666476Y-85933638D01*
X159577912Y-86074587D01*
X159577910Y-86074590D01*
X159574211Y-86080478D01*
X159571915Y-86087036D01*
X159571913Y-86087043D01*
X159516930Y-86244175D01*
X159516928Y-86244182D01*
X159514632Y-86250745D01*
X159494435Y-86430000D01*
X152623370Y-86430000D01*
X152643986Y-86408378D01*
X152757613Y-86231572D01*
X152835725Y-86036457D01*
X152875500Y-85830085D01*
X152875500Y-85122575D01*
X152860528Y-84965782D01*
X152801316Y-84764125D01*
X152705011Y-84577318D01*
X152575092Y-84412114D01*
X152416256Y-84274481D01*
X152234244Y-84169396D01*
X152228660Y-84167463D01*
X152228655Y-84167461D01*
X152041214Y-84102587D01*
X152041208Y-84102585D01*
X152035633Y-84100656D01*
X152029794Y-84099816D01*
X152029788Y-84099815D01*
X151833441Y-84071585D01*
X151833435Y-84071584D01*
X151827602Y-84070746D01*
X151821716Y-84071026D01*
X151821710Y-84071026D01*
X151623567Y-84080465D01*
X151623565Y-84080465D01*
X151617670Y-84080746D01*
X151611942Y-84082135D01*
X151611932Y-84082137D01*
X151419160Y-84128904D01*
X151419155Y-84128905D01*
X151413424Y-84130296D01*
X151408054Y-84132747D01*
X151408052Y-84132749D01*
X151227621Y-84215149D01*
X151227614Y-84215152D01*
X151222247Y-84217604D01*
X151217437Y-84221028D01*
X151217432Y-84221032D01*
X151055865Y-84336083D01*
X151055859Y-84336087D01*
X151051048Y-84339514D01*
X151046974Y-84343786D01*
X151046969Y-84343791D01*
X150910088Y-84487348D01*
X150910082Y-84487355D01*
X150906014Y-84491622D01*
X150902826Y-84496581D01*
X150902820Y-84496590D01*
X150804736Y-84649211D01*
X150753937Y-84694028D01*
X150687165Y-84705460D01*
X150624350Y-84680095D01*
X150584239Y-84625504D01*
X150571452Y-84591221D01*
X150563037Y-84575810D01*
X150487501Y-84474907D01*
X150475092Y-84462498D01*
X150374189Y-84386962D01*
X150358777Y-84378547D01*
X150239641Y-84334111D01*
X150224667Y-84330573D01*
X150176114Y-84325353D01*
X150169518Y-84325000D01*
X150166326Y-84325000D01*
X150153450Y-84328450D01*
X150150000Y-84341326D01*
X150150000Y-86558674D01*
X149400000Y-86558674D01*
X149400000Y-85841326D01*
X149396549Y-85828450D01*
X149383674Y-85825000D01*
X148941326Y-85825000D01*
X148928450Y-85828450D01*
X148925000Y-85841326D01*
X148925000Y-86119518D01*
X131250000Y-86119518D01*
X131250000Y-85058674D01*
X148925000Y-85058674D01*
X148928450Y-85071549D01*
X148941326Y-85075000D01*
X149383674Y-85075000D01*
X149396549Y-85071549D01*
X149400000Y-85058674D01*
X149400000Y-84341326D01*
X149396549Y-84328450D01*
X149383674Y-84325000D01*
X149380482Y-84325000D01*
X149373885Y-84325353D01*
X149325332Y-84330573D01*
X149310358Y-84334111D01*
X149191222Y-84378547D01*
X149175810Y-84386962D01*
X149074907Y-84462498D01*
X149062498Y-84474907D01*
X148986962Y-84575810D01*
X148978547Y-84591222D01*
X148934111Y-84710358D01*
X148930573Y-84725332D01*
X148925353Y-84773885D01*
X148925000Y-84780482D01*
X148925000Y-85058674D01*
X131250000Y-85058674D01*
X131250000Y-82169697D01*
X131739500Y-82169697D01*
X131739501Y-82172991D01*
X131739853Y-82176269D01*
X131739854Y-82176280D01*
X131745079Y-82224887D01*
X131745080Y-82224892D01*
X131745909Y-82232602D01*
X131748619Y-82239868D01*
X131748620Y-82239872D01*
X131772555Y-82304044D01*
X131796204Y-82367450D01*
X131801518Y-82374549D01*
X131801519Y-82374550D01*
X131867715Y-82462977D01*
X131882454Y-82482665D01*
X131997669Y-82568915D01*
X132132517Y-82619210D01*
X132192127Y-82625619D01*
X133987872Y-82625618D01*
X134047483Y-82619210D01*
X134182331Y-82568915D01*
X134297546Y-82482665D01*
X134383796Y-82367450D01*
X134434091Y-82232602D01*
X134440500Y-82172992D01*
X134440499Y-81881307D01*
X134457883Y-81817993D01*
X134505163Y-81772429D01*
X134569080Y-81757396D01*
X134631712Y-81777107D01*
X134675498Y-81826038D01*
X134688198Y-81851543D01*
X134694206Y-81861246D01*
X134810149Y-82014781D01*
X134817847Y-82023225D01*
X134960027Y-82152838D01*
X134969131Y-82159714D01*
X135132715Y-82261001D01*
X135142928Y-82266087D01*
X135240908Y-82304044D01*
X135252253Y-82305494D01*
X135255000Y-82294393D01*
X136005000Y-82294393D01*
X136007746Y-82305494D01*
X136019091Y-82304044D01*
X136117071Y-82266087D01*
X136127284Y-82261001D01*
X136290868Y-82159714D01*
X136299972Y-82152838D01*
X136442152Y-82023225D01*
X136449850Y-82014781D01*
X136565793Y-81861246D01*
X136571795Y-81851552D01*
X136656283Y-81681876D01*
X136694707Y-81636606D01*
X136749773Y-81614390D01*
X136808854Y-81620323D01*
X136858404Y-81653044D01*
X136887058Y-81705051D01*
X136894693Y-81733546D01*
X136894696Y-81733556D01*
X136896097Y-81738782D01*
X136898385Y-81743689D01*
X136898386Y-81743691D01*
X136993678Y-81948046D01*
X136993681Y-81948052D01*
X136995965Y-81952949D01*
X136999064Y-81957376D01*
X136999066Y-81957378D01*
X137128399Y-82142085D01*
X137128402Y-82142089D01*
X137131505Y-82146520D01*
X137298599Y-82313614D01*
X137303031Y-82316717D01*
X137303033Y-82316719D01*
X137447260Y-82417708D01*
X137492170Y-82449154D01*
X137706337Y-82549022D01*
X137934592Y-82610182D01*
X138170000Y-82630778D01*
X138405408Y-82610182D01*
X138633663Y-82549022D01*
X138847830Y-82449154D01*
X139041401Y-82313614D01*
X139208495Y-82146520D01*
X139338424Y-81960961D01*
X139382743Y-81922095D01*
X139440000Y-81908084D01*
X139497257Y-81922095D01*
X139541575Y-81960961D01*
X139668395Y-82142080D01*
X139668401Y-82142087D01*
X139671505Y-82146520D01*
X139838599Y-82313614D01*
X139843031Y-82316717D01*
X139843033Y-82316719D01*
X139987260Y-82417708D01*
X140032170Y-82449154D01*
X140246337Y-82549022D01*
X140474592Y-82610182D01*
X140710000Y-82630778D01*
X140945408Y-82610182D01*
X141173663Y-82549022D01*
X141387830Y-82449154D01*
X141581401Y-82313614D01*
X141748495Y-82146520D01*
X141878424Y-81960961D01*
X141922743Y-81922095D01*
X141980000Y-81908084D01*
X142037257Y-81922095D01*
X142081575Y-81960961D01*
X142208395Y-82142080D01*
X142208401Y-82142087D01*
X142211505Y-82146520D01*
X142378599Y-82313614D01*
X142383031Y-82316717D01*
X142383033Y-82316719D01*
X142527260Y-82417708D01*
X142572170Y-82449154D01*
X142786337Y-82549022D01*
X143014592Y-82610182D01*
X143250000Y-82630778D01*
X143485408Y-82610182D01*
X143713663Y-82549022D01*
X143927830Y-82449154D01*
X144121401Y-82313614D01*
X144288495Y-82146520D01*
X144424035Y-81952949D01*
X144523903Y-81738782D01*
X144585063Y-81510527D01*
X144597248Y-81371250D01*
X155715685Y-81371250D01*
X155716465Y-81378173D01*
X155731377Y-81510527D01*
X155735882Y-81550505D01*
X155738178Y-81557069D01*
X155738180Y-81557074D01*
X155791184Y-81708549D01*
X155795461Y-81720772D01*
X155799162Y-81726662D01*
X155877635Y-81851552D01*
X155891434Y-81873512D01*
X156018988Y-82001066D01*
X156171728Y-82097039D01*
X156341995Y-82156618D01*
X156521250Y-82176815D01*
X156700505Y-82156618D01*
X156734573Y-82144697D01*
X158959500Y-82144697D01*
X158959501Y-82147991D01*
X158959853Y-82151269D01*
X158959854Y-82151280D01*
X158965079Y-82199887D01*
X158965080Y-82199892D01*
X158965909Y-82207602D01*
X158968619Y-82214868D01*
X158968620Y-82214872D01*
X159002217Y-82304950D01*
X159016204Y-82342450D01*
X159021518Y-82349549D01*
X159021519Y-82349550D01*
X159096082Y-82449154D01*
X159102454Y-82457665D01*
X159217669Y-82543915D01*
X159352517Y-82594210D01*
X159412127Y-82600619D01*
X161207872Y-82600618D01*
X161267483Y-82594210D01*
X161402331Y-82543915D01*
X161517546Y-82457665D01*
X161603796Y-82342450D01*
X161654091Y-82207602D01*
X161660500Y-82147992D01*
X161660499Y-81856307D01*
X161677883Y-81792993D01*
X161725163Y-81747429D01*
X161789080Y-81732396D01*
X161851712Y-81752107D01*
X161895498Y-81801038D01*
X161908198Y-81826543D01*
X161914206Y-81836246D01*
X162030149Y-81989781D01*
X162037847Y-81998225D01*
X162180027Y-82127838D01*
X162189131Y-82134714D01*
X162352715Y-82236001D01*
X162362928Y-82241087D01*
X162460908Y-82279044D01*
X162472253Y-82280494D01*
X162475000Y-82269393D01*
X163225000Y-82269393D01*
X163227746Y-82280494D01*
X163239091Y-82279044D01*
X163337071Y-82241087D01*
X163347284Y-82236001D01*
X163510868Y-82134714D01*
X163519972Y-82127838D01*
X163662152Y-81998225D01*
X163669850Y-81989781D01*
X163785793Y-81836246D01*
X163791795Y-81826552D01*
X163876283Y-81656876D01*
X163914707Y-81611606D01*
X163969773Y-81589390D01*
X164028854Y-81595323D01*
X164078404Y-81628044D01*
X164107058Y-81680051D01*
X164114693Y-81708546D01*
X164114696Y-81708556D01*
X164116097Y-81713782D01*
X164118385Y-81718689D01*
X164118386Y-81718691D01*
X164213678Y-81923046D01*
X164213681Y-81923052D01*
X164215965Y-81927949D01*
X164219064Y-81932376D01*
X164219066Y-81932378D01*
X164348399Y-82117085D01*
X164348402Y-82117089D01*
X164351505Y-82121520D01*
X164518599Y-82288614D01*
X164523031Y-82291717D01*
X164523033Y-82291719D01*
X164631188Y-82367450D01*
X164712170Y-82424154D01*
X164717070Y-82426439D01*
X164717072Y-82426440D01*
X164768815Y-82450568D01*
X164926337Y-82524022D01*
X165154592Y-82585182D01*
X165390000Y-82605778D01*
X165625408Y-82585182D01*
X165853663Y-82524022D01*
X166067830Y-82424154D01*
X166261401Y-82288614D01*
X166428495Y-82121520D01*
X166558424Y-81935961D01*
X166602743Y-81897095D01*
X166660000Y-81883084D01*
X166717257Y-81897095D01*
X166761575Y-81935961D01*
X166888395Y-82117080D01*
X166888401Y-82117087D01*
X166891505Y-82121520D01*
X167058599Y-82288614D01*
X167063031Y-82291717D01*
X167063033Y-82291719D01*
X167171188Y-82367450D01*
X167252170Y-82424154D01*
X167257070Y-82426439D01*
X167257072Y-82426440D01*
X167308815Y-82450568D01*
X167466337Y-82524022D01*
X167694592Y-82585182D01*
X167930000Y-82605778D01*
X168165408Y-82585182D01*
X168393663Y-82524022D01*
X168607830Y-82424154D01*
X168801401Y-82288614D01*
X168968495Y-82121520D01*
X169098424Y-81935961D01*
X169142743Y-81897095D01*
X169200000Y-81883084D01*
X169257257Y-81897095D01*
X169301575Y-81935961D01*
X169428395Y-82117080D01*
X169428401Y-82117087D01*
X169431505Y-82121520D01*
X169598599Y-82288614D01*
X169603031Y-82291717D01*
X169603033Y-82291719D01*
X169711188Y-82367450D01*
X169792170Y-82424154D01*
X169797070Y-82426439D01*
X169797072Y-82426440D01*
X169848815Y-82450568D01*
X170006337Y-82524022D01*
X170234592Y-82585182D01*
X170470000Y-82605778D01*
X170705408Y-82585182D01*
X170933663Y-82524022D01*
X171147830Y-82424154D01*
X171341401Y-82288614D01*
X171508495Y-82121520D01*
X171644035Y-81927949D01*
X171743903Y-81713782D01*
X171805063Y-81485527D01*
X171825659Y-81250119D01*
X171805063Y-81014711D01*
X171743903Y-80786456D01*
X171644035Y-80572290D01*
X171508495Y-80378718D01*
X171341401Y-80211624D01*
X171336970Y-80208521D01*
X171336966Y-80208518D01*
X171152259Y-80079185D01*
X171152257Y-80079183D01*
X171147830Y-80076084D01*
X171142933Y-80073800D01*
X171142927Y-80073797D01*
X170938572Y-79978505D01*
X170938570Y-79978504D01*
X170933663Y-79976216D01*
X170928438Y-79974816D01*
X170928430Y-79974813D01*
X170710634Y-79916456D01*
X170710630Y-79916455D01*
X170705408Y-79915056D01*
X170700020Y-79914584D01*
X170700017Y-79914584D01*
X170475395Y-79894932D01*
X170470000Y-79894460D01*
X170464605Y-79894932D01*
X170239982Y-79914584D01*
X170239977Y-79914584D01*
X170234592Y-79915056D01*
X170229371Y-79916454D01*
X170229365Y-79916456D01*
X170011569Y-79974813D01*
X170011557Y-79974817D01*
X170006337Y-79976216D01*
X170001432Y-79978502D01*
X170001427Y-79978505D01*
X169797081Y-80073794D01*
X169797077Y-80073796D01*
X169792171Y-80076084D01*
X169787738Y-80079187D01*
X169787731Y-80079192D01*
X169603034Y-80208518D01*
X169603029Y-80208521D01*
X169598599Y-80211624D01*
X169594775Y-80215447D01*
X169594769Y-80215453D01*
X169435334Y-80374888D01*
X169435328Y-80374894D01*
X169431505Y-80378718D01*
X169428402Y-80383148D01*
X169428399Y-80383153D01*
X169301575Y-80564278D01*
X169257257Y-80603144D01*
X169200000Y-80617155D01*
X169142743Y-80603144D01*
X169098425Y-80564278D01*
X169072331Y-80527012D01*
X168968495Y-80378718D01*
X168801401Y-80211624D01*
X168796970Y-80208521D01*
X168796966Y-80208518D01*
X168612259Y-80079185D01*
X168612257Y-80079183D01*
X168607830Y-80076084D01*
X168602933Y-80073800D01*
X168602927Y-80073797D01*
X168398572Y-79978505D01*
X168398570Y-79978504D01*
X168393663Y-79976216D01*
X168388438Y-79974816D01*
X168388430Y-79974813D01*
X168170634Y-79916456D01*
X168170630Y-79916455D01*
X168165408Y-79915056D01*
X168160020Y-79914584D01*
X168160017Y-79914584D01*
X167935395Y-79894932D01*
X167930000Y-79894460D01*
X167924605Y-79894932D01*
X167699982Y-79914584D01*
X167699977Y-79914584D01*
X167694592Y-79915056D01*
X167689371Y-79916454D01*
X167689365Y-79916456D01*
X167471569Y-79974813D01*
X167471557Y-79974817D01*
X167466337Y-79976216D01*
X167461432Y-79978502D01*
X167461427Y-79978505D01*
X167257081Y-80073794D01*
X167257077Y-80073796D01*
X167252171Y-80076084D01*
X167247738Y-80079187D01*
X167247731Y-80079192D01*
X167063034Y-80208518D01*
X167063029Y-80208521D01*
X167058599Y-80211624D01*
X167054775Y-80215447D01*
X167054769Y-80215453D01*
X166895334Y-80374888D01*
X166895328Y-80374894D01*
X166891505Y-80378718D01*
X166888402Y-80383148D01*
X166888399Y-80383153D01*
X166761575Y-80564278D01*
X166717257Y-80603144D01*
X166660000Y-80617155D01*
X166602743Y-80603144D01*
X166558425Y-80564278D01*
X166532331Y-80527012D01*
X166428495Y-80378718D01*
X166261401Y-80211624D01*
X166256970Y-80208521D01*
X166256966Y-80208518D01*
X166072259Y-80079185D01*
X166072257Y-80079183D01*
X166067830Y-80076084D01*
X166062933Y-80073800D01*
X166062927Y-80073797D01*
X165858572Y-79978505D01*
X165858570Y-79978504D01*
X165853663Y-79976216D01*
X165848438Y-79974816D01*
X165848430Y-79974813D01*
X165630634Y-79916456D01*
X165630630Y-79916455D01*
X165625408Y-79915056D01*
X165620020Y-79914584D01*
X165620017Y-79914584D01*
X165395395Y-79894932D01*
X165390000Y-79894460D01*
X165384605Y-79894932D01*
X165159982Y-79914584D01*
X165159977Y-79914584D01*
X165154592Y-79915056D01*
X165149371Y-79916454D01*
X165149365Y-79916456D01*
X164931569Y-79974813D01*
X164931557Y-79974817D01*
X164926337Y-79976216D01*
X164921432Y-79978502D01*
X164921427Y-79978505D01*
X164717081Y-80073794D01*
X164717077Y-80073796D01*
X164712171Y-80076084D01*
X164707738Y-80079187D01*
X164707731Y-80079192D01*
X164523034Y-80208518D01*
X164523029Y-80208521D01*
X164518599Y-80211624D01*
X164514775Y-80215447D01*
X164514769Y-80215453D01*
X164355334Y-80374888D01*
X164355328Y-80374894D01*
X164351505Y-80378718D01*
X164348402Y-80383148D01*
X164348399Y-80383153D01*
X164219073Y-80567850D01*
X164219068Y-80567857D01*
X164215965Y-80572290D01*
X164213677Y-80577196D01*
X164213675Y-80577200D01*
X164118386Y-80781546D01*
X164118383Y-80781551D01*
X164116097Y-80786456D01*
X164114696Y-80791681D01*
X164114693Y-80791692D01*
X164107058Y-80820186D01*
X164078403Y-80872193D01*
X164028854Y-80904914D01*
X163969773Y-80910847D01*
X163914707Y-80888631D01*
X163876283Y-80843361D01*
X163791795Y-80673685D01*
X163785793Y-80663991D01*
X163669850Y-80510456D01*
X163662152Y-80502012D01*
X163519972Y-80372399D01*
X163510868Y-80365523D01*
X163347284Y-80264236D01*
X163337071Y-80259150D01*
X163239091Y-80221193D01*
X163227746Y-80219743D01*
X163225000Y-80230845D01*
X163225000Y-82269393D01*
X162475000Y-82269393D01*
X162475000Y-80230845D01*
X162472253Y-80219743D01*
X162460908Y-80221193D01*
X162362928Y-80259150D01*
X162352715Y-80264236D01*
X162189131Y-80365523D01*
X162180027Y-80372399D01*
X162037847Y-80502012D01*
X162030149Y-80510456D01*
X161914206Y-80663991D01*
X161908198Y-80673694D01*
X161895498Y-80699200D01*
X161851712Y-80748130D01*
X161789080Y-80767842D01*
X161725163Y-80752809D01*
X161677884Y-80707245D01*
X161660499Y-80643927D01*
X161660499Y-80355558D01*
X161660499Y-80352247D01*
X161654091Y-80292636D01*
X161603796Y-80157788D01*
X161517546Y-80042573D01*
X161427030Y-79974813D01*
X161409431Y-79961638D01*
X161409430Y-79961637D01*
X161402331Y-79956323D01*
X161295442Y-79916456D01*
X161274752Y-79908739D01*
X161274750Y-79908738D01*
X161267483Y-79906028D01*
X161259770Y-79905198D01*
X161259767Y-79905198D01*
X161211180Y-79899974D01*
X161211169Y-79899973D01*
X161207873Y-79899619D01*
X161204550Y-79899619D01*
X159415439Y-79899619D01*
X159415420Y-79899619D01*
X159412128Y-79899620D01*
X159408850Y-79899972D01*
X159408838Y-79899973D01*
X159360231Y-79905198D01*
X159360225Y-79905199D01*
X159352517Y-79906028D01*
X159345252Y-79908737D01*
X159345246Y-79908739D01*
X159225980Y-79953223D01*
X159225978Y-79953223D01*
X159217669Y-79956323D01*
X159210572Y-79961635D01*
X159210568Y-79961638D01*
X159109550Y-80037260D01*
X159109546Y-80037263D01*
X159102454Y-80042573D01*
X159097144Y-80049665D01*
X159097141Y-80049669D01*
X159021519Y-80150687D01*
X159021516Y-80150691D01*
X159016204Y-80157788D01*
X159013104Y-80166097D01*
X159013104Y-80166099D01*
X158968620Y-80285366D01*
X158968619Y-80285369D01*
X158965909Y-80292636D01*
X158965079Y-80300346D01*
X158965079Y-80300351D01*
X158959855Y-80348938D01*
X158959854Y-80348950D01*
X158959500Y-80352246D01*
X158959500Y-80355567D01*
X158959500Y-80355568D01*
X158959500Y-82144679D01*
X158959500Y-82144697D01*
X156734573Y-82144697D01*
X156870772Y-82097039D01*
X157023512Y-82001066D01*
X157151066Y-81873512D01*
X157247039Y-81720772D01*
X157306618Y-81550505D01*
X157326815Y-81371250D01*
X157306618Y-81191995D01*
X157247039Y-81021728D01*
X157151066Y-80868988D01*
X157023512Y-80741434D01*
X156955477Y-80698685D01*
X156876662Y-80649162D01*
X156870772Y-80645461D01*
X156864209Y-80643164D01*
X156864206Y-80643163D01*
X156707074Y-80588180D01*
X156707069Y-80588178D01*
X156700505Y-80585882D01*
X156693585Y-80585102D01*
X156693584Y-80585102D01*
X156528173Y-80566465D01*
X156521250Y-80565685D01*
X156514327Y-80566465D01*
X156348915Y-80585102D01*
X156348912Y-80585102D01*
X156341995Y-80585882D01*
X156335432Y-80588178D01*
X156335425Y-80588180D01*
X156178293Y-80643163D01*
X156178286Y-80643165D01*
X156171728Y-80645461D01*
X156165840Y-80649160D01*
X156165837Y-80649162D01*
X156024888Y-80737726D01*
X156024883Y-80737729D01*
X156018988Y-80741434D01*
X156014063Y-80746358D01*
X156014059Y-80746362D01*
X155896362Y-80864059D01*
X155896358Y-80864063D01*
X155891434Y-80868988D01*
X155887729Y-80874883D01*
X155887726Y-80874888D01*
X155799162Y-81015837D01*
X155799160Y-81015840D01*
X155795461Y-81021728D01*
X155793165Y-81028286D01*
X155793163Y-81028293D01*
X155738180Y-81185425D01*
X155738178Y-81185432D01*
X155735882Y-81191995D01*
X155715685Y-81371250D01*
X144597248Y-81371250D01*
X144605659Y-81275119D01*
X144585063Y-81039711D01*
X144523903Y-80811456D01*
X144424035Y-80597290D01*
X144288495Y-80403718D01*
X144121401Y-80236624D01*
X144116970Y-80233521D01*
X144116966Y-80233518D01*
X143932259Y-80104185D01*
X143932257Y-80104183D01*
X143927830Y-80101084D01*
X143922933Y-80098800D01*
X143922927Y-80098797D01*
X143718572Y-80003505D01*
X143718570Y-80003504D01*
X143713663Y-80001216D01*
X143708438Y-79999816D01*
X143708430Y-79999813D01*
X143490634Y-79941456D01*
X143490630Y-79941455D01*
X143485408Y-79940056D01*
X143480020Y-79939584D01*
X143480017Y-79939584D01*
X143255395Y-79919932D01*
X143250000Y-79919460D01*
X143244605Y-79919932D01*
X143019982Y-79939584D01*
X143019977Y-79939584D01*
X143014592Y-79940056D01*
X143009371Y-79941454D01*
X143009365Y-79941456D01*
X142791569Y-79999813D01*
X142791557Y-79999817D01*
X142786337Y-80001216D01*
X142781432Y-80003502D01*
X142781427Y-80003505D01*
X142577081Y-80098794D01*
X142577077Y-80098796D01*
X142572171Y-80101084D01*
X142567738Y-80104187D01*
X142567731Y-80104192D01*
X142383034Y-80233518D01*
X142383029Y-80233521D01*
X142378599Y-80236624D01*
X142374775Y-80240447D01*
X142374769Y-80240453D01*
X142215334Y-80399888D01*
X142215328Y-80399894D01*
X142211505Y-80403718D01*
X142208402Y-80408148D01*
X142208399Y-80408153D01*
X142081575Y-80589278D01*
X142037257Y-80628144D01*
X141980000Y-80642155D01*
X141922743Y-80628144D01*
X141878425Y-80589278D01*
X141860920Y-80564278D01*
X141748495Y-80403718D01*
X141581401Y-80236624D01*
X141576970Y-80233521D01*
X141576966Y-80233518D01*
X141392259Y-80104185D01*
X141392257Y-80104183D01*
X141387830Y-80101084D01*
X141382933Y-80098800D01*
X141382927Y-80098797D01*
X141178572Y-80003505D01*
X141178570Y-80003504D01*
X141173663Y-80001216D01*
X141168438Y-79999816D01*
X141168430Y-79999813D01*
X140950634Y-79941456D01*
X140950630Y-79941455D01*
X140945408Y-79940056D01*
X140940020Y-79939584D01*
X140940017Y-79939584D01*
X140715395Y-79919932D01*
X140710000Y-79919460D01*
X140704605Y-79919932D01*
X140479982Y-79939584D01*
X140479977Y-79939584D01*
X140474592Y-79940056D01*
X140469371Y-79941454D01*
X140469365Y-79941456D01*
X140251569Y-79999813D01*
X140251557Y-79999817D01*
X140246337Y-80001216D01*
X140241432Y-80003502D01*
X140241427Y-80003505D01*
X140037081Y-80098794D01*
X140037077Y-80098796D01*
X140032171Y-80101084D01*
X140027738Y-80104187D01*
X140027731Y-80104192D01*
X139843034Y-80233518D01*
X139843029Y-80233521D01*
X139838599Y-80236624D01*
X139834775Y-80240447D01*
X139834769Y-80240453D01*
X139675334Y-80399888D01*
X139675328Y-80399894D01*
X139671505Y-80403718D01*
X139668402Y-80408148D01*
X139668399Y-80408153D01*
X139541575Y-80589278D01*
X139497257Y-80628144D01*
X139440000Y-80642155D01*
X139382743Y-80628144D01*
X139338425Y-80589278D01*
X139320920Y-80564278D01*
X139208495Y-80403718D01*
X139041401Y-80236624D01*
X139036970Y-80233521D01*
X139036966Y-80233518D01*
X138852259Y-80104185D01*
X138852257Y-80104183D01*
X138847830Y-80101084D01*
X138842933Y-80098800D01*
X138842927Y-80098797D01*
X138638572Y-80003505D01*
X138638570Y-80003504D01*
X138633663Y-80001216D01*
X138628438Y-79999816D01*
X138628430Y-79999813D01*
X138410634Y-79941456D01*
X138410630Y-79941455D01*
X138405408Y-79940056D01*
X138400020Y-79939584D01*
X138400017Y-79939584D01*
X138175395Y-79919932D01*
X138170000Y-79919460D01*
X138164605Y-79919932D01*
X137939982Y-79939584D01*
X137939977Y-79939584D01*
X137934592Y-79940056D01*
X137929371Y-79941454D01*
X137929365Y-79941456D01*
X137711569Y-79999813D01*
X137711557Y-79999817D01*
X137706337Y-80001216D01*
X137701432Y-80003502D01*
X137701427Y-80003505D01*
X137497081Y-80098794D01*
X137497077Y-80098796D01*
X137492171Y-80101084D01*
X137487738Y-80104187D01*
X137487731Y-80104192D01*
X137303034Y-80233518D01*
X137303029Y-80233521D01*
X137298599Y-80236624D01*
X137294775Y-80240447D01*
X137294769Y-80240453D01*
X137135334Y-80399888D01*
X137135328Y-80399894D01*
X137131505Y-80403718D01*
X137128402Y-80408148D01*
X137128399Y-80408153D01*
X136999073Y-80592850D01*
X136999068Y-80592857D01*
X136995965Y-80597290D01*
X136993677Y-80602196D01*
X136993675Y-80602200D01*
X136898386Y-80806546D01*
X136898383Y-80806551D01*
X136896097Y-80811456D01*
X136894696Y-80816681D01*
X136894693Y-80816692D01*
X136887058Y-80845186D01*
X136858403Y-80897193D01*
X136808854Y-80929914D01*
X136749773Y-80935847D01*
X136694707Y-80913631D01*
X136656283Y-80868361D01*
X136571795Y-80698685D01*
X136565793Y-80688991D01*
X136449850Y-80535456D01*
X136442152Y-80527012D01*
X136299972Y-80397399D01*
X136290868Y-80390523D01*
X136127284Y-80289236D01*
X136117071Y-80284150D01*
X136019091Y-80246193D01*
X136007746Y-80244743D01*
X136005000Y-80255845D01*
X136005000Y-82294393D01*
X135255000Y-82294393D01*
X135255000Y-80255845D01*
X135252253Y-80244743D01*
X135240908Y-80246193D01*
X135142928Y-80284150D01*
X135132715Y-80289236D01*
X134969131Y-80390523D01*
X134960027Y-80397399D01*
X134817847Y-80527012D01*
X134810149Y-80535456D01*
X134694206Y-80688991D01*
X134688198Y-80698694D01*
X134675498Y-80724200D01*
X134631712Y-80773130D01*
X134569080Y-80792842D01*
X134505163Y-80777809D01*
X134457884Y-80732245D01*
X134440499Y-80668927D01*
X134440499Y-80380558D01*
X134440499Y-80377247D01*
X134434091Y-80317636D01*
X134383796Y-80182788D01*
X134297546Y-80067573D01*
X134273629Y-80049669D01*
X134189431Y-79986638D01*
X134189430Y-79986637D01*
X134182331Y-79981323D01*
X134075442Y-79941456D01*
X134054752Y-79933739D01*
X134054750Y-79933738D01*
X134047483Y-79931028D01*
X134039770Y-79930198D01*
X134039767Y-79930198D01*
X133991180Y-79924974D01*
X133991169Y-79924973D01*
X133987873Y-79924619D01*
X133984550Y-79924619D01*
X132195439Y-79924619D01*
X132195420Y-79924619D01*
X132192128Y-79924620D01*
X132188850Y-79924972D01*
X132188838Y-79924973D01*
X132140231Y-79930198D01*
X132140225Y-79930199D01*
X132132517Y-79931028D01*
X132125252Y-79933737D01*
X132125246Y-79933739D01*
X132005980Y-79978223D01*
X132005978Y-79978223D01*
X131997669Y-79981323D01*
X131990572Y-79986635D01*
X131990568Y-79986638D01*
X131889550Y-80062260D01*
X131889546Y-80062263D01*
X131882454Y-80067573D01*
X131877144Y-80074665D01*
X131877141Y-80074669D01*
X131801519Y-80175687D01*
X131801516Y-80175691D01*
X131796204Y-80182788D01*
X131793104Y-80191097D01*
X131793104Y-80191099D01*
X131748620Y-80310366D01*
X131748619Y-80310369D01*
X131745909Y-80317636D01*
X131745079Y-80325346D01*
X131745079Y-80325351D01*
X131739855Y-80373938D01*
X131739854Y-80373950D01*
X131739500Y-80377246D01*
X131739500Y-80380567D01*
X131739500Y-80380568D01*
X131739500Y-82169679D01*
X131739500Y-82169697D01*
X131250000Y-82169697D01*
X131250000Y-77575119D01*
X136814341Y-77575119D01*
X136814813Y-77580514D01*
X136832749Y-77785527D01*
X136834937Y-77810527D01*
X136836336Y-77815749D01*
X136836337Y-77815753D01*
X136894694Y-78033549D01*
X136894697Y-78033557D01*
X136896097Y-78038782D01*
X136898385Y-78043689D01*
X136898386Y-78043691D01*
X136993678Y-78248046D01*
X136993681Y-78248052D01*
X136995965Y-78252949D01*
X136999064Y-78257376D01*
X136999066Y-78257378D01*
X137128399Y-78442085D01*
X137128402Y-78442089D01*
X137131505Y-78446520D01*
X137298599Y-78613614D01*
X137303031Y-78616717D01*
X137303033Y-78616719D01*
X137404053Y-78687454D01*
X137492170Y-78749154D01*
X137706337Y-78849022D01*
X137934592Y-78910182D01*
X138170000Y-78930778D01*
X138405408Y-78910182D01*
X138633663Y-78849022D01*
X138847830Y-78749154D01*
X139041401Y-78613614D01*
X139208495Y-78446520D01*
X139338424Y-78260961D01*
X139382743Y-78222095D01*
X139440000Y-78208084D01*
X139497257Y-78222095D01*
X139541575Y-78260961D01*
X139668395Y-78442080D01*
X139668401Y-78442087D01*
X139671505Y-78446520D01*
X139838599Y-78613614D01*
X139843031Y-78616717D01*
X139843033Y-78616719D01*
X139944053Y-78687454D01*
X140032170Y-78749154D01*
X140246337Y-78849022D01*
X140474592Y-78910182D01*
X140710000Y-78930778D01*
X140945408Y-78910182D01*
X141173663Y-78849022D01*
X141387830Y-78749154D01*
X141581401Y-78613614D01*
X141703329Y-78491685D01*
X141756072Y-78460392D01*
X141817365Y-78458203D01*
X141872210Y-78485656D01*
X141907189Y-78536035D01*
X141908620Y-78539871D01*
X141956204Y-78667450D01*
X141961518Y-78674549D01*
X141961519Y-78674550D01*
X142027715Y-78762977D01*
X142042454Y-78782665D01*
X142157669Y-78868915D01*
X142292517Y-78919210D01*
X142352127Y-78925619D01*
X144147872Y-78925618D01*
X144207483Y-78919210D01*
X144342331Y-78868915D01*
X144457546Y-78782665D01*
X144543796Y-78667450D01*
X144561673Y-78619518D01*
X146925000Y-78619518D01*
X146925353Y-78626114D01*
X146930573Y-78674667D01*
X146934111Y-78689641D01*
X146978547Y-78808777D01*
X146986962Y-78824189D01*
X147062498Y-78925092D01*
X147074907Y-78937501D01*
X147175810Y-79013037D01*
X147191222Y-79021452D01*
X147310358Y-79065888D01*
X147325332Y-79069426D01*
X147373885Y-79074646D01*
X147380482Y-79075000D01*
X147383674Y-79075000D01*
X147396549Y-79071549D01*
X147400000Y-79058674D01*
X148150000Y-79058674D01*
X148153450Y-79071549D01*
X148166326Y-79075000D01*
X148169518Y-79075000D01*
X148176114Y-79074646D01*
X148224667Y-79069426D01*
X148239641Y-79065888D01*
X148358777Y-79021452D01*
X148374189Y-79013037D01*
X148475092Y-78937501D01*
X148487501Y-78925092D01*
X148563037Y-78824189D01*
X148571451Y-78808780D01*
X148585311Y-78771619D01*
X148616781Y-78724398D01*
X148665992Y-78696141D01*
X148722638Y-78692766D01*
X148774855Y-78714980D01*
X148811710Y-78758130D01*
X148844989Y-78822682D01*
X148848642Y-78827327D01*
X148912698Y-78908781D01*
X148974908Y-78987886D01*
X149133744Y-79125519D01*
X149315756Y-79230604D01*
X149514367Y-79299344D01*
X149722398Y-79329254D01*
X149932330Y-79319254D01*
X150136576Y-79269704D01*
X150327753Y-79182396D01*
X150498952Y-79060486D01*
X150643986Y-78908378D01*
X150670543Y-78867053D01*
X150712854Y-78826710D01*
X150768954Y-78810237D01*
X150826366Y-78821301D01*
X150872326Y-78857444D01*
X150925660Y-78925263D01*
X150974908Y-78987886D01*
X151133744Y-79125519D01*
X151315756Y-79230604D01*
X151514367Y-79299344D01*
X151722398Y-79329254D01*
X151932330Y-79319254D01*
X152136576Y-79269704D01*
X152327753Y-79182396D01*
X152498952Y-79060486D01*
X152643986Y-78908378D01*
X152670543Y-78867053D01*
X152712854Y-78826710D01*
X152768954Y-78810237D01*
X152826366Y-78821301D01*
X152872326Y-78857444D01*
X152925660Y-78925263D01*
X152974908Y-78987886D01*
X153133744Y-79125519D01*
X153315756Y-79230604D01*
X153514367Y-79299344D01*
X153722398Y-79329254D01*
X153932330Y-79319254D01*
X154136576Y-79269704D01*
X154327753Y-79182396D01*
X154498952Y-79060486D01*
X154643986Y-78908378D01*
X154670543Y-78867053D01*
X154712854Y-78826710D01*
X154768954Y-78810237D01*
X154826366Y-78821301D01*
X154872326Y-78857444D01*
X154925660Y-78925263D01*
X154974908Y-78987886D01*
X155133744Y-79125519D01*
X155315756Y-79230604D01*
X155514367Y-79299344D01*
X155722398Y-79329254D01*
X155932330Y-79319254D01*
X156136576Y-79269704D01*
X156327753Y-79182396D01*
X156498952Y-79060486D01*
X156643986Y-78908378D01*
X156757613Y-78731572D01*
X156835725Y-78536457D01*
X156875500Y-78330085D01*
X156875500Y-77622575D01*
X156868581Y-77550119D01*
X164029341Y-77550119D01*
X164049937Y-77785527D01*
X164051336Y-77790749D01*
X164051337Y-77790753D01*
X164109694Y-78008549D01*
X164109697Y-78008557D01*
X164111097Y-78013782D01*
X164113385Y-78018689D01*
X164113386Y-78018691D01*
X164208678Y-78223046D01*
X164208681Y-78223052D01*
X164210965Y-78227949D01*
X164214064Y-78232376D01*
X164214066Y-78232378D01*
X164343399Y-78417085D01*
X164343402Y-78417089D01*
X164346505Y-78421520D01*
X164513599Y-78588614D01*
X164518031Y-78591717D01*
X164518033Y-78591719D01*
X164614320Y-78659140D01*
X164707170Y-78724154D01*
X164712070Y-78726439D01*
X164712072Y-78726440D01*
X164763815Y-78750568D01*
X164921337Y-78824022D01*
X164926567Y-78825423D01*
X164926569Y-78825424D01*
X164968619Y-78836691D01*
X165149592Y-78885182D01*
X165385000Y-78905778D01*
X165620408Y-78885182D01*
X165848663Y-78824022D01*
X166062830Y-78724154D01*
X166256401Y-78588614D01*
X166423495Y-78421520D01*
X166479648Y-78341326D01*
X166553425Y-78235961D01*
X166597743Y-78197095D01*
X166655000Y-78183084D01*
X166712257Y-78197095D01*
X166756575Y-78235961D01*
X166883395Y-78417080D01*
X166883401Y-78417087D01*
X166886505Y-78421520D01*
X167053599Y-78588614D01*
X167058031Y-78591717D01*
X167058033Y-78591719D01*
X167154320Y-78659140D01*
X167247170Y-78724154D01*
X167252070Y-78726439D01*
X167252072Y-78726440D01*
X167303815Y-78750568D01*
X167461337Y-78824022D01*
X167466567Y-78825423D01*
X167466569Y-78825424D01*
X167508619Y-78836691D01*
X167689592Y-78885182D01*
X167925000Y-78905778D01*
X168160408Y-78885182D01*
X168388663Y-78824022D01*
X168602830Y-78724154D01*
X168796401Y-78588614D01*
X168918329Y-78466685D01*
X168971072Y-78435392D01*
X169032365Y-78433203D01*
X169087210Y-78460656D01*
X169122189Y-78511035D01*
X169133716Y-78541939D01*
X169171204Y-78642450D01*
X169176518Y-78649549D01*
X169176519Y-78649550D01*
X169251082Y-78749154D01*
X169257454Y-78757665D01*
X169372669Y-78843915D01*
X169507517Y-78894210D01*
X169567127Y-78900619D01*
X171362872Y-78900618D01*
X171422483Y-78894210D01*
X171557331Y-78843915D01*
X171672546Y-78757665D01*
X171758796Y-78642450D01*
X171809091Y-78507602D01*
X171815500Y-78447992D01*
X171815499Y-76652247D01*
X171809091Y-76592636D01*
X171758796Y-76457788D01*
X171672546Y-76342573D01*
X171582030Y-76274813D01*
X171564431Y-76261638D01*
X171564430Y-76261637D01*
X171557331Y-76256323D01*
X171450442Y-76216456D01*
X171429752Y-76208739D01*
X171429750Y-76208738D01*
X171422483Y-76206028D01*
X171414770Y-76205198D01*
X171414767Y-76205198D01*
X171366180Y-76199974D01*
X171366169Y-76199973D01*
X171362873Y-76199619D01*
X171359550Y-76199619D01*
X169570439Y-76199619D01*
X169570420Y-76199619D01*
X169567128Y-76199620D01*
X169563850Y-76199972D01*
X169563838Y-76199973D01*
X169515231Y-76205198D01*
X169515225Y-76205199D01*
X169507517Y-76206028D01*
X169500252Y-76208737D01*
X169500246Y-76208739D01*
X169380980Y-76253223D01*
X169380978Y-76253223D01*
X169372669Y-76256323D01*
X169365572Y-76261635D01*
X169365568Y-76261638D01*
X169264550Y-76337260D01*
X169264546Y-76337263D01*
X169257454Y-76342573D01*
X169252144Y-76349665D01*
X169252141Y-76349669D01*
X169176519Y-76450687D01*
X169176516Y-76450691D01*
X169171204Y-76457788D01*
X169168104Y-76466097D01*
X169168105Y-76466097D01*
X169122189Y-76589202D01*
X169087210Y-76639581D01*
X169032365Y-76667034D01*
X168971072Y-76664845D01*
X168918326Y-76633549D01*
X168800232Y-76515455D01*
X168800230Y-76515453D01*
X168796401Y-76511624D01*
X168791970Y-76508521D01*
X168791966Y-76508518D01*
X168607259Y-76379185D01*
X168607257Y-76379183D01*
X168602830Y-76376084D01*
X168597933Y-76373800D01*
X168597927Y-76373797D01*
X168393572Y-76278505D01*
X168393570Y-76278504D01*
X168388663Y-76276216D01*
X168383438Y-76274816D01*
X168383430Y-76274813D01*
X168165634Y-76216456D01*
X168165630Y-76216455D01*
X168160408Y-76215056D01*
X168155020Y-76214584D01*
X168155017Y-76214584D01*
X167930395Y-76194932D01*
X167925000Y-76194460D01*
X167919605Y-76194932D01*
X167694982Y-76214584D01*
X167694977Y-76214584D01*
X167689592Y-76215056D01*
X167684371Y-76216454D01*
X167684365Y-76216456D01*
X167466569Y-76274813D01*
X167466557Y-76274817D01*
X167461337Y-76276216D01*
X167456432Y-76278502D01*
X167456427Y-76278505D01*
X167252081Y-76373794D01*
X167252077Y-76373796D01*
X167247171Y-76376084D01*
X167242738Y-76379187D01*
X167242731Y-76379192D01*
X167058034Y-76508518D01*
X167058029Y-76508521D01*
X167053599Y-76511624D01*
X167049775Y-76515447D01*
X167049769Y-76515453D01*
X166890334Y-76674888D01*
X166890328Y-76674894D01*
X166886505Y-76678718D01*
X166883402Y-76683148D01*
X166883399Y-76683153D01*
X166756575Y-76864278D01*
X166712257Y-76903144D01*
X166655000Y-76917155D01*
X166597743Y-76903144D01*
X166553425Y-76864278D01*
X166449004Y-76715149D01*
X166423495Y-76678718D01*
X166256401Y-76511624D01*
X166251970Y-76508521D01*
X166251966Y-76508518D01*
X166067259Y-76379185D01*
X166067257Y-76379183D01*
X166062830Y-76376084D01*
X166057933Y-76373800D01*
X166057927Y-76373797D01*
X165853572Y-76278505D01*
X165853570Y-76278504D01*
X165848663Y-76276216D01*
X165843438Y-76274816D01*
X165843430Y-76274813D01*
X165625634Y-76216456D01*
X165625630Y-76216455D01*
X165620408Y-76215056D01*
X165615020Y-76214584D01*
X165615017Y-76214584D01*
X165390395Y-76194932D01*
X165385000Y-76194460D01*
X165379605Y-76194932D01*
X165154982Y-76214584D01*
X165154977Y-76214584D01*
X165149592Y-76215056D01*
X165144371Y-76216454D01*
X165144365Y-76216456D01*
X164926569Y-76274813D01*
X164926557Y-76274817D01*
X164921337Y-76276216D01*
X164916432Y-76278502D01*
X164916427Y-76278505D01*
X164712081Y-76373794D01*
X164712077Y-76373796D01*
X164707171Y-76376084D01*
X164702738Y-76379187D01*
X164702731Y-76379192D01*
X164518034Y-76508518D01*
X164518029Y-76508521D01*
X164513599Y-76511624D01*
X164509775Y-76515447D01*
X164509769Y-76515453D01*
X164350334Y-76674888D01*
X164350328Y-76674894D01*
X164346505Y-76678718D01*
X164343402Y-76683148D01*
X164343399Y-76683153D01*
X164214073Y-76867850D01*
X164214068Y-76867857D01*
X164210965Y-76872290D01*
X164208677Y-76877196D01*
X164208675Y-76877200D01*
X164113386Y-77081546D01*
X164113383Y-77081551D01*
X164111097Y-77086456D01*
X164109698Y-77091676D01*
X164109694Y-77091688D01*
X164051337Y-77309484D01*
X164051335Y-77309490D01*
X164049937Y-77314711D01*
X164049465Y-77320096D01*
X164049465Y-77320101D01*
X164037216Y-77460111D01*
X164029341Y-77550119D01*
X156868581Y-77550119D01*
X156860528Y-77465782D01*
X156801316Y-77264125D01*
X156705011Y-77077318D01*
X156575092Y-76912114D01*
X156416256Y-76774481D01*
X156234244Y-76669396D01*
X156228660Y-76667463D01*
X156228655Y-76667461D01*
X156041214Y-76602587D01*
X156041208Y-76602585D01*
X156035633Y-76600656D01*
X156029794Y-76599816D01*
X156029788Y-76599815D01*
X155833441Y-76571585D01*
X155833435Y-76571584D01*
X155827602Y-76570746D01*
X155821716Y-76571026D01*
X155821710Y-76571026D01*
X155623567Y-76580465D01*
X155623565Y-76580465D01*
X155617670Y-76580746D01*
X155611942Y-76582135D01*
X155611932Y-76582137D01*
X155419160Y-76628904D01*
X155419155Y-76628905D01*
X155413424Y-76630296D01*
X155408054Y-76632747D01*
X155408052Y-76632749D01*
X155227621Y-76715149D01*
X155227614Y-76715152D01*
X155222247Y-76717604D01*
X155217437Y-76721028D01*
X155217432Y-76721032D01*
X155055865Y-76836083D01*
X155055859Y-76836087D01*
X155051048Y-76839514D01*
X155046974Y-76843786D01*
X155046969Y-76843791D01*
X154910088Y-76987348D01*
X154910082Y-76987355D01*
X154906014Y-76991622D01*
X154902824Y-76996586D01*
X154879458Y-77032944D01*
X154837142Y-77073291D01*
X154781043Y-77089763D01*
X154723632Y-77078697D01*
X154677673Y-77042555D01*
X154578745Y-76916759D01*
X154578744Y-76916758D01*
X154575092Y-76912114D01*
X154416256Y-76774481D01*
X154234244Y-76669396D01*
X154228660Y-76667463D01*
X154228655Y-76667461D01*
X154041214Y-76602587D01*
X154041208Y-76602585D01*
X154035633Y-76600656D01*
X154029794Y-76599816D01*
X154029788Y-76599815D01*
X153833441Y-76571585D01*
X153833435Y-76571584D01*
X153827602Y-76570746D01*
X153821716Y-76571026D01*
X153821710Y-76571026D01*
X153623567Y-76580465D01*
X153623565Y-76580465D01*
X153617670Y-76580746D01*
X153611942Y-76582135D01*
X153611932Y-76582137D01*
X153419160Y-76628904D01*
X153419155Y-76628905D01*
X153413424Y-76630296D01*
X153408054Y-76632747D01*
X153408052Y-76632749D01*
X153227621Y-76715149D01*
X153227614Y-76715152D01*
X153222247Y-76717604D01*
X153217437Y-76721028D01*
X153217432Y-76721032D01*
X153055865Y-76836083D01*
X153055859Y-76836087D01*
X153051048Y-76839514D01*
X153046974Y-76843786D01*
X153046969Y-76843791D01*
X152910088Y-76987348D01*
X152910082Y-76987355D01*
X152906014Y-76991622D01*
X152902824Y-76996586D01*
X152879458Y-77032944D01*
X152837142Y-77073291D01*
X152781043Y-77089763D01*
X152723632Y-77078697D01*
X152677673Y-77042555D01*
X152578745Y-76916759D01*
X152578744Y-76916758D01*
X152575092Y-76912114D01*
X152416256Y-76774481D01*
X152234244Y-76669396D01*
X152228660Y-76667463D01*
X152228655Y-76667461D01*
X152041214Y-76602587D01*
X152041208Y-76602585D01*
X152035633Y-76600656D01*
X152029794Y-76599816D01*
X152029788Y-76599815D01*
X151833441Y-76571585D01*
X151833435Y-76571584D01*
X151827602Y-76570746D01*
X151821716Y-76571026D01*
X151821710Y-76571026D01*
X151623567Y-76580465D01*
X151623565Y-76580465D01*
X151617670Y-76580746D01*
X151611942Y-76582135D01*
X151611932Y-76582137D01*
X151419160Y-76628904D01*
X151419155Y-76628905D01*
X151413424Y-76630296D01*
X151408054Y-76632747D01*
X151408052Y-76632749D01*
X151227621Y-76715149D01*
X151227614Y-76715152D01*
X151222247Y-76717604D01*
X151217437Y-76721028D01*
X151217432Y-76721032D01*
X151055865Y-76836083D01*
X151055859Y-76836087D01*
X151051048Y-76839514D01*
X151046974Y-76843786D01*
X151046969Y-76843791D01*
X150910088Y-76987348D01*
X150910082Y-76987355D01*
X150906014Y-76991622D01*
X150902824Y-76996586D01*
X150879458Y-77032944D01*
X150837142Y-77073291D01*
X150781043Y-77089763D01*
X150723632Y-77078697D01*
X150677673Y-77042555D01*
X150578745Y-76916759D01*
X150578744Y-76916758D01*
X150575092Y-76912114D01*
X150416256Y-76774481D01*
X150234244Y-76669396D01*
X150228660Y-76667463D01*
X150228655Y-76667461D01*
X150041214Y-76602587D01*
X150041208Y-76602585D01*
X150035633Y-76600656D01*
X150029794Y-76599816D01*
X150029788Y-76599815D01*
X149833441Y-76571585D01*
X149833435Y-76571584D01*
X149827602Y-76570746D01*
X149821716Y-76571026D01*
X149821710Y-76571026D01*
X149623567Y-76580465D01*
X149623565Y-76580465D01*
X149617670Y-76580746D01*
X149611942Y-76582135D01*
X149611932Y-76582137D01*
X149419160Y-76628904D01*
X149419155Y-76628905D01*
X149413424Y-76630296D01*
X149408054Y-76632747D01*
X149408052Y-76632749D01*
X149227621Y-76715149D01*
X149227614Y-76715152D01*
X149222247Y-76717604D01*
X149217437Y-76721028D01*
X149217432Y-76721032D01*
X149055865Y-76836083D01*
X149055859Y-76836087D01*
X149051048Y-76839514D01*
X149046974Y-76843786D01*
X149046969Y-76843791D01*
X148910088Y-76987348D01*
X148910082Y-76987355D01*
X148906014Y-76991622D01*
X148902826Y-76996581D01*
X148902820Y-76996590D01*
X148804736Y-77149211D01*
X148753937Y-77194028D01*
X148687165Y-77205460D01*
X148624350Y-77180095D01*
X148584239Y-77125504D01*
X148571452Y-77091221D01*
X148563037Y-77075810D01*
X148487501Y-76974907D01*
X148475092Y-76962498D01*
X148374189Y-76886962D01*
X148358777Y-76878547D01*
X148239641Y-76834111D01*
X148224667Y-76830573D01*
X148176114Y-76825353D01*
X148169518Y-76825000D01*
X148166326Y-76825000D01*
X148153450Y-76828450D01*
X148150000Y-76841326D01*
X148150000Y-79058674D01*
X147400000Y-79058674D01*
X147400000Y-78341326D01*
X147396549Y-78328450D01*
X147383674Y-78325000D01*
X146941326Y-78325000D01*
X146928450Y-78328450D01*
X146925000Y-78341326D01*
X146925000Y-78619518D01*
X144561673Y-78619518D01*
X144594091Y-78532602D01*
X144600500Y-78472992D01*
X144600499Y-77558674D01*
X146925000Y-77558674D01*
X146928450Y-77571549D01*
X146941326Y-77575000D01*
X147383674Y-77575000D01*
X147396549Y-77571549D01*
X147400000Y-77558674D01*
X147400000Y-76841326D01*
X147396549Y-76828450D01*
X147383674Y-76825000D01*
X147380482Y-76825000D01*
X147373885Y-76825353D01*
X147325332Y-76830573D01*
X147310358Y-76834111D01*
X147191222Y-76878547D01*
X147175810Y-76886962D01*
X147074907Y-76962498D01*
X147062498Y-76974907D01*
X146986962Y-77075810D01*
X146978547Y-77091222D01*
X146934111Y-77210358D01*
X146930573Y-77225332D01*
X146925353Y-77273885D01*
X146925000Y-77280482D01*
X146925000Y-77558674D01*
X144600499Y-77558674D01*
X144600499Y-76677247D01*
X144594091Y-76617636D01*
X144543796Y-76482788D01*
X144457546Y-76367573D01*
X144433629Y-76349669D01*
X144349431Y-76286638D01*
X144349430Y-76286637D01*
X144342331Y-76281323D01*
X144235442Y-76241456D01*
X144214752Y-76233739D01*
X144214750Y-76233738D01*
X144207483Y-76231028D01*
X144199770Y-76230198D01*
X144199767Y-76230198D01*
X144151180Y-76224974D01*
X144151169Y-76224973D01*
X144147873Y-76224619D01*
X144144550Y-76224619D01*
X142355439Y-76224619D01*
X142355420Y-76224619D01*
X142352128Y-76224620D01*
X142348850Y-76224972D01*
X142348838Y-76224973D01*
X142300231Y-76230198D01*
X142300225Y-76230199D01*
X142292517Y-76231028D01*
X142285252Y-76233737D01*
X142285246Y-76233739D01*
X142165980Y-76278223D01*
X142165978Y-76278223D01*
X142157669Y-76281323D01*
X142150572Y-76286635D01*
X142150568Y-76286638D01*
X142049550Y-76362260D01*
X142049546Y-76362263D01*
X142042454Y-76367573D01*
X142037144Y-76374665D01*
X142037141Y-76374669D01*
X141961519Y-76475687D01*
X141961516Y-76475691D01*
X141956204Y-76482788D01*
X141953104Y-76491097D01*
X141953105Y-76491097D01*
X141907189Y-76614202D01*
X141872210Y-76664581D01*
X141817365Y-76692034D01*
X141756072Y-76689845D01*
X141703326Y-76658549D01*
X141585232Y-76540455D01*
X141585230Y-76540453D01*
X141581401Y-76536624D01*
X141576970Y-76533521D01*
X141576966Y-76533518D01*
X141392259Y-76404185D01*
X141392257Y-76404183D01*
X141387830Y-76401084D01*
X141382933Y-76398800D01*
X141382927Y-76398797D01*
X141178572Y-76303505D01*
X141178570Y-76303504D01*
X141173663Y-76301216D01*
X141168438Y-76299816D01*
X141168430Y-76299813D01*
X140950634Y-76241456D01*
X140950630Y-76241455D01*
X140945408Y-76240056D01*
X140940020Y-76239584D01*
X140940017Y-76239584D01*
X140715395Y-76219932D01*
X140710000Y-76219460D01*
X140704605Y-76219932D01*
X140479982Y-76239584D01*
X140479977Y-76239584D01*
X140474592Y-76240056D01*
X140469371Y-76241454D01*
X140469365Y-76241456D01*
X140251569Y-76299813D01*
X140251557Y-76299817D01*
X140246337Y-76301216D01*
X140241432Y-76303502D01*
X140241427Y-76303505D01*
X140037081Y-76398794D01*
X140037077Y-76398796D01*
X140032171Y-76401084D01*
X140027738Y-76404187D01*
X140027731Y-76404192D01*
X139843034Y-76533518D01*
X139843029Y-76533521D01*
X139838599Y-76536624D01*
X139834775Y-76540447D01*
X139834769Y-76540453D01*
X139675334Y-76699888D01*
X139675328Y-76699894D01*
X139671505Y-76703718D01*
X139668402Y-76708148D01*
X139668399Y-76708153D01*
X139541575Y-76889278D01*
X139497257Y-76928144D01*
X139440000Y-76942155D01*
X139382743Y-76928144D01*
X139338425Y-76889278D01*
X139303580Y-76839514D01*
X139208495Y-76703718D01*
X139041401Y-76536624D01*
X139036970Y-76533521D01*
X139036966Y-76533518D01*
X138852259Y-76404185D01*
X138852257Y-76404183D01*
X138847830Y-76401084D01*
X138842933Y-76398800D01*
X138842927Y-76398797D01*
X138638572Y-76303505D01*
X138638570Y-76303504D01*
X138633663Y-76301216D01*
X138628438Y-76299816D01*
X138628430Y-76299813D01*
X138410634Y-76241456D01*
X138410630Y-76241455D01*
X138405408Y-76240056D01*
X138400020Y-76239584D01*
X138400017Y-76239584D01*
X138175395Y-76219932D01*
X138170000Y-76219460D01*
X138164605Y-76219932D01*
X137939982Y-76239584D01*
X137939977Y-76239584D01*
X137934592Y-76240056D01*
X137929371Y-76241454D01*
X137929365Y-76241456D01*
X137711569Y-76299813D01*
X137711557Y-76299817D01*
X137706337Y-76301216D01*
X137701432Y-76303502D01*
X137701427Y-76303505D01*
X137497081Y-76398794D01*
X137497077Y-76398796D01*
X137492171Y-76401084D01*
X137487738Y-76404187D01*
X137487731Y-76404192D01*
X137303034Y-76533518D01*
X137303029Y-76533521D01*
X137298599Y-76536624D01*
X137294775Y-76540447D01*
X137294769Y-76540453D01*
X137135334Y-76699888D01*
X137135328Y-76699894D01*
X137131505Y-76703718D01*
X137128402Y-76708148D01*
X137128399Y-76708153D01*
X136999073Y-76892850D01*
X136999068Y-76892857D01*
X136995965Y-76897290D01*
X136993677Y-76902196D01*
X136993675Y-76902200D01*
X136898386Y-77106546D01*
X136898383Y-77106551D01*
X136896097Y-77111456D01*
X136894698Y-77116676D01*
X136894694Y-77116688D01*
X136836337Y-77334484D01*
X136836335Y-77334490D01*
X136834937Y-77339711D01*
X136834465Y-77345096D01*
X136834465Y-77345101D01*
X136817000Y-77544724D01*
X136814341Y-77575119D01*
X131250000Y-77575119D01*
X131250000Y-66719000D01*
X131266613Y-66657000D01*
X131312000Y-66611613D01*
X131374000Y-66595000D01*
X172176000Y-66595000D01*
X172238000Y-66611613D01*
G37*
G04 #@! TD.AperFunction*
G04 #@! TA.AperFunction,Conductor*
G36*
X126612145Y-100340671D02*
G01*
X126657233Y-100383722D01*
X126675674Y-100443273D01*
X126662806Y-100504271D01*
X126629709Y-100570737D01*
X126625579Y-100581398D01*
X126622835Y-100591042D01*
X126622314Y-100602301D01*
X126633283Y-100604881D01*
X128706717Y-100604881D01*
X128717685Y-100602301D01*
X128717164Y-100591042D01*
X128714420Y-100581398D01*
X128710290Y-100570737D01*
X128677194Y-100504271D01*
X128664326Y-100443273D01*
X128682767Y-100383722D01*
X128727855Y-100340671D01*
X128788194Y-100325000D01*
X133118355Y-100325000D01*
X133175269Y-100338833D01*
X133219484Y-100377245D01*
X133241137Y-100431666D01*
X133235397Y-100489954D01*
X133191931Y-100614172D01*
X133191929Y-100614180D01*
X133189632Y-100620745D01*
X133188852Y-100627662D01*
X133188852Y-100627665D01*
X133170634Y-100789355D01*
X133169435Y-100800000D01*
X133170215Y-100806923D01*
X133173812Y-100838852D01*
X133189632Y-100979255D01*
X133191928Y-100985819D01*
X133191930Y-100985824D01*
X133241903Y-101128638D01*
X133249211Y-101149522D01*
X133279118Y-101197119D01*
X133332479Y-101282043D01*
X133345184Y-101302262D01*
X133472738Y-101429816D01*
X133625478Y-101525789D01*
X133795745Y-101585368D01*
X133975000Y-101605565D01*
X134154255Y-101585368D01*
X134324522Y-101525789D01*
X134477262Y-101429816D01*
X134604816Y-101302262D01*
X134700789Y-101149522D01*
X134760368Y-100979255D01*
X134780565Y-100800000D01*
X134779365Y-100789354D01*
X134763964Y-100652665D01*
X134760368Y-100620745D01*
X134752628Y-100598625D01*
X134714603Y-100489954D01*
X134708863Y-100431666D01*
X134730516Y-100377245D01*
X134774731Y-100338833D01*
X134831645Y-100325000D01*
X144202103Y-100325000D01*
X144259017Y-100338833D01*
X144303232Y-100377245D01*
X144324885Y-100431666D01*
X144319145Y-100489954D01*
X144266931Y-100639172D01*
X144266929Y-100639180D01*
X144264632Y-100645745D01*
X144263852Y-100652662D01*
X144263852Y-100652665D01*
X144257463Y-100709369D01*
X144244435Y-100825000D01*
X144245215Y-100831923D01*
X144252537Y-100896913D01*
X144264632Y-101004255D01*
X144266928Y-101010819D01*
X144266930Y-101010824D01*
X144321913Y-101167956D01*
X144324211Y-101174522D01*
X144327912Y-101180412D01*
X144400767Y-101296361D01*
X144420184Y-101327262D01*
X144547738Y-101454816D01*
X144700478Y-101550789D01*
X144870745Y-101610368D01*
X145050000Y-101630565D01*
X145229255Y-101610368D01*
X145399522Y-101550789D01*
X145552262Y-101454816D01*
X145679816Y-101327262D01*
X145775789Y-101174522D01*
X145835368Y-101004255D01*
X145854167Y-100837407D01*
X145854785Y-100831923D01*
X145855565Y-100825000D01*
X145835368Y-100645745D01*
X145809122Y-100570737D01*
X145780855Y-100489954D01*
X145775115Y-100431666D01*
X145796768Y-100377245D01*
X145840983Y-100338833D01*
X145897897Y-100325000D01*
X147477103Y-100325000D01*
X147534017Y-100338833D01*
X147578232Y-100377245D01*
X147599885Y-100431666D01*
X147594145Y-100489954D01*
X147541931Y-100639172D01*
X147541929Y-100639180D01*
X147539632Y-100645745D01*
X147538852Y-100652662D01*
X147538852Y-100652665D01*
X147532463Y-100709369D01*
X147519435Y-100825000D01*
X147520215Y-100831923D01*
X147527537Y-100896913D01*
X147539632Y-101004255D01*
X147541928Y-101010819D01*
X147541930Y-101010824D01*
X147596913Y-101167956D01*
X147599211Y-101174522D01*
X147602912Y-101180412D01*
X147675767Y-101296361D01*
X147695184Y-101327262D01*
X147822738Y-101454816D01*
X147975478Y-101550789D01*
X148145745Y-101610368D01*
X148325000Y-101630565D01*
X148504255Y-101610368D01*
X148674522Y-101550789D01*
X148827262Y-101454816D01*
X148954816Y-101327262D01*
X149050789Y-101174522D01*
X149110368Y-101004255D01*
X149129167Y-100837407D01*
X149129785Y-100831923D01*
X149130565Y-100825000D01*
X149110368Y-100645745D01*
X149084122Y-100570737D01*
X149055855Y-100489954D01*
X149050115Y-100431666D01*
X149071768Y-100377245D01*
X149115983Y-100338833D01*
X149172897Y-100325000D01*
X149468355Y-100325000D01*
X149525269Y-100338833D01*
X149569484Y-100377245D01*
X149591137Y-100431666D01*
X149585397Y-100489954D01*
X149541931Y-100614172D01*
X149541929Y-100614180D01*
X149539632Y-100620745D01*
X149538852Y-100627662D01*
X149538852Y-100627665D01*
X149520634Y-100789355D01*
X149519435Y-100800000D01*
X149520215Y-100806923D01*
X149523812Y-100838852D01*
X149539632Y-100979255D01*
X149541928Y-100985819D01*
X149541930Y-100985824D01*
X149591903Y-101128638D01*
X149599211Y-101149522D01*
X149629118Y-101197119D01*
X149682479Y-101282043D01*
X149695184Y-101302262D01*
X149822738Y-101429816D01*
X149975478Y-101525789D01*
X150145745Y-101585368D01*
X150325000Y-101605565D01*
X150504255Y-101585368D01*
X150674522Y-101525789D01*
X150827262Y-101429816D01*
X150954816Y-101302262D01*
X151050789Y-101149522D01*
X151110368Y-100979255D01*
X151130565Y-100800000D01*
X151129365Y-100789354D01*
X151113964Y-100652665D01*
X151110368Y-100620745D01*
X151102628Y-100598625D01*
X151064603Y-100489954D01*
X151058863Y-100431666D01*
X151080516Y-100377245D01*
X151124731Y-100338833D01*
X151181645Y-100325000D01*
X157352103Y-100325000D01*
X157409017Y-100338833D01*
X157453232Y-100377245D01*
X157474885Y-100431666D01*
X157469145Y-100489954D01*
X157416931Y-100639172D01*
X157416929Y-100639180D01*
X157414632Y-100645745D01*
X157413852Y-100652662D01*
X157413852Y-100652665D01*
X157407463Y-100709369D01*
X157394435Y-100825000D01*
X157395215Y-100831923D01*
X157402537Y-100896913D01*
X157414632Y-101004255D01*
X157416928Y-101010819D01*
X157416930Y-101010824D01*
X157471913Y-101167956D01*
X157474211Y-101174522D01*
X157477912Y-101180412D01*
X157550767Y-101296361D01*
X157570184Y-101327262D01*
X157697738Y-101454816D01*
X157850478Y-101550789D01*
X158020745Y-101610368D01*
X158200000Y-101630565D01*
X158249391Y-101625000D01*
X167444435Y-101625000D01*
X167464632Y-101804255D01*
X167466928Y-101810819D01*
X167466930Y-101810824D01*
X167521913Y-101967956D01*
X167524211Y-101974522D01*
X167620184Y-102127262D01*
X167747738Y-102254816D01*
X167900478Y-102350789D01*
X168070745Y-102410368D01*
X168250000Y-102430565D01*
X168429255Y-102410368D01*
X168599522Y-102350789D01*
X168752262Y-102254816D01*
X168879816Y-102127262D01*
X168975789Y-101974522D01*
X169035368Y-101804255D01*
X169055565Y-101625000D01*
X169035368Y-101445745D01*
X168975789Y-101275478D01*
X168879816Y-101122738D01*
X168752262Y-100995184D01*
X168737160Y-100985695D01*
X168605412Y-100902912D01*
X168599522Y-100899211D01*
X168592959Y-100896914D01*
X168592956Y-100896913D01*
X168435824Y-100841930D01*
X168435819Y-100841928D01*
X168429255Y-100839632D01*
X168422335Y-100838852D01*
X168422334Y-100838852D01*
X168256923Y-100820215D01*
X168250000Y-100819435D01*
X168243077Y-100820215D01*
X168077665Y-100838852D01*
X168077662Y-100838852D01*
X168070745Y-100839632D01*
X168064182Y-100841928D01*
X168064175Y-100841930D01*
X167907043Y-100896913D01*
X167907036Y-100896915D01*
X167900478Y-100899211D01*
X167894590Y-100902910D01*
X167894587Y-100902912D01*
X167753638Y-100991476D01*
X167753633Y-100991479D01*
X167747738Y-100995184D01*
X167742813Y-101000108D01*
X167742809Y-101000112D01*
X167625112Y-101117809D01*
X167625108Y-101117813D01*
X167620184Y-101122738D01*
X167616479Y-101128633D01*
X167616476Y-101128638D01*
X167527912Y-101269587D01*
X167527910Y-101269590D01*
X167524211Y-101275478D01*
X167521915Y-101282036D01*
X167521913Y-101282043D01*
X167466930Y-101439175D01*
X167466928Y-101439182D01*
X167464632Y-101445745D01*
X167463852Y-101452662D01*
X167463852Y-101452665D01*
X167452796Y-101550789D01*
X167444435Y-101625000D01*
X158249391Y-101625000D01*
X158379255Y-101610368D01*
X158549522Y-101550789D01*
X158702262Y-101454816D01*
X158829816Y-101327262D01*
X158925789Y-101174522D01*
X158985368Y-101004255D01*
X159004167Y-100837407D01*
X159004785Y-100831923D01*
X159005565Y-100825000D01*
X158985368Y-100645745D01*
X158959122Y-100570737D01*
X158930855Y-100489954D01*
X158925115Y-100431666D01*
X158946768Y-100377245D01*
X158990983Y-100338833D01*
X159047897Y-100325000D01*
X171377103Y-100325000D01*
X171434017Y-100338833D01*
X171478232Y-100377245D01*
X171499885Y-100431666D01*
X171494145Y-100489954D01*
X171441931Y-100639172D01*
X171441929Y-100639180D01*
X171439632Y-100645745D01*
X171438852Y-100652662D01*
X171438852Y-100652665D01*
X171432463Y-100709369D01*
X171419435Y-100825000D01*
X171420215Y-100831923D01*
X171427537Y-100896913D01*
X171439632Y-101004255D01*
X171441928Y-101010819D01*
X171441930Y-101010824D01*
X171496913Y-101167956D01*
X171499211Y-101174522D01*
X171502912Y-101180412D01*
X171575767Y-101296361D01*
X171595184Y-101327262D01*
X171722738Y-101454816D01*
X171875478Y-101550789D01*
X172045745Y-101610368D01*
X172225000Y-101630565D01*
X172404255Y-101610368D01*
X172574522Y-101550789D01*
X172727262Y-101454816D01*
X172854816Y-101327262D01*
X172950789Y-101174522D01*
X173010368Y-101004255D01*
X173029167Y-100837407D01*
X173029785Y-100831923D01*
X173030565Y-100825000D01*
X173010368Y-100645745D01*
X172984122Y-100570737D01*
X172955855Y-100489954D01*
X172950115Y-100431666D01*
X172971768Y-100377245D01*
X173015983Y-100338833D01*
X173072897Y-100325000D01*
X174821596Y-100325000D01*
X174871406Y-100335444D01*
X174912825Y-100365017D01*
X174999478Y-100459147D01*
X174999489Y-100459157D01*
X175002954Y-100462921D01*
X175006995Y-100466066D01*
X175167562Y-100591042D01*
X175181351Y-100601774D01*
X175185858Y-100604213D01*
X175185861Y-100604215D01*
X175209165Y-100616827D01*
X175256669Y-100662408D01*
X175274146Y-100725881D01*
X175256669Y-100789354D01*
X175209165Y-100834935D01*
X175185861Y-100847546D01*
X175185849Y-100847553D01*
X175181351Y-100849988D01*
X175177314Y-100853129D01*
X175177305Y-100853136D01*
X175006995Y-100985695D01*
X175006989Y-100985699D01*
X175002954Y-100988841D01*
X174999492Y-100992600D01*
X174999485Y-100992608D01*
X174853313Y-101151392D01*
X174853304Y-101151402D01*
X174849844Y-101155162D01*
X174847049Y-101159439D01*
X174847042Y-101159449D01*
X174729000Y-101340127D01*
X174726198Y-101344416D01*
X174724143Y-101349100D01*
X174724138Y-101349110D01*
X174645633Y-101528086D01*
X174635389Y-101551440D01*
X174634131Y-101556405D01*
X174634130Y-101556410D01*
X174581152Y-101765613D01*
X174581150Y-101765622D01*
X174579893Y-101770588D01*
X174579469Y-101775695D01*
X174579468Y-101775706D01*
X174571210Y-101875375D01*
X174561225Y-101995881D01*
X174561649Y-102000998D01*
X174579468Y-102216055D01*
X174579469Y-102216064D01*
X174579893Y-102221174D01*
X174581150Y-102226141D01*
X174581152Y-102226148D01*
X174632918Y-102430565D01*
X174635389Y-102440322D01*
X174637449Y-102445018D01*
X174724138Y-102642651D01*
X174724141Y-102642656D01*
X174726198Y-102647346D01*
X174731468Y-102655412D01*
X174847042Y-102832312D01*
X174847045Y-102832316D01*
X174849844Y-102836600D01*
X174853309Y-102840364D01*
X174853313Y-102840369D01*
X174983624Y-102981923D01*
X175002954Y-103002921D01*
X175181351Y-103141774D01*
X175185858Y-103144213D01*
X175185861Y-103144215D01*
X175209165Y-103156827D01*
X175256669Y-103202408D01*
X175274146Y-103265881D01*
X175256669Y-103329354D01*
X175209165Y-103374935D01*
X175185861Y-103387546D01*
X175185849Y-103387553D01*
X175181351Y-103389988D01*
X175177314Y-103393129D01*
X175177305Y-103393136D01*
X175006995Y-103525695D01*
X175006989Y-103525699D01*
X175002954Y-103528841D01*
X174999492Y-103532600D01*
X174999485Y-103532608D01*
X174853313Y-103691392D01*
X174853304Y-103691402D01*
X174849844Y-103695162D01*
X174847049Y-103699439D01*
X174847042Y-103699449D01*
X174770557Y-103816519D01*
X174726198Y-103884416D01*
X174724143Y-103889100D01*
X174724138Y-103889110D01*
X174637449Y-104086743D01*
X174635389Y-104091440D01*
X174634131Y-104096405D01*
X174634130Y-104096410D01*
X174581152Y-104305613D01*
X174581150Y-104305622D01*
X174579893Y-104310588D01*
X174579469Y-104315695D01*
X174579468Y-104315706D01*
X174564344Y-104498234D01*
X174561225Y-104535881D01*
X174561649Y-104540998D01*
X174579468Y-104756055D01*
X174579469Y-104756064D01*
X174579893Y-104761174D01*
X174581150Y-104766141D01*
X174581152Y-104766148D01*
X174630815Y-104962261D01*
X174635389Y-104980322D01*
X174652403Y-105019111D01*
X174724138Y-105182651D01*
X174724141Y-105182656D01*
X174726198Y-105187346D01*
X174774195Y-105260810D01*
X174847042Y-105372312D01*
X174847045Y-105372316D01*
X174849844Y-105376600D01*
X174853309Y-105380364D01*
X174853313Y-105380369D01*
X174999485Y-105539153D01*
X175002954Y-105542921D01*
X175181351Y-105681774D01*
X175380169Y-105789369D01*
X175593986Y-105862772D01*
X175816967Y-105899981D01*
X176037900Y-105899981D01*
X176043033Y-105899981D01*
X176266014Y-105862772D01*
X176479831Y-105789369D01*
X176678649Y-105681774D01*
X176857046Y-105542921D01*
X177010156Y-105376600D01*
X177133802Y-105187346D01*
X177224611Y-104980322D01*
X177280107Y-104761174D01*
X177298775Y-104535881D01*
X177280107Y-104310588D01*
X177224611Y-104091440D01*
X177138703Y-103895590D01*
X177135861Y-103889110D01*
X177135860Y-103889109D01*
X177133802Y-103884416D01*
X177010156Y-103695162D01*
X177006688Y-103691395D01*
X177006686Y-103691392D01*
X176860514Y-103532608D01*
X176860512Y-103532606D01*
X176857046Y-103528841D01*
X176678649Y-103389988D01*
X176674144Y-103387550D01*
X176674138Y-103387546D01*
X176650836Y-103374936D01*
X176603330Y-103329355D01*
X176585853Y-103265881D01*
X176603330Y-103202407D01*
X176650836Y-103156826D01*
X176674138Y-103144215D01*
X176678649Y-103141774D01*
X176857046Y-103002921D01*
X177010156Y-102836600D01*
X177133802Y-102647346D01*
X177224611Y-102440322D01*
X177280107Y-102221174D01*
X177298775Y-101995881D01*
X177280107Y-101770588D01*
X177224611Y-101551440D01*
X177133802Y-101344416D01*
X177010156Y-101155162D01*
X177006688Y-101151395D01*
X177006686Y-101151392D01*
X176860514Y-100992608D01*
X176860512Y-100992606D01*
X176857046Y-100988841D01*
X176835838Y-100972334D01*
X176682694Y-100853136D01*
X176682691Y-100853134D01*
X176678649Y-100849988D01*
X176674144Y-100847550D01*
X176674138Y-100847546D01*
X176650836Y-100834936D01*
X176603330Y-100789355D01*
X176585853Y-100725881D01*
X176603330Y-100662407D01*
X176650836Y-100616826D01*
X176664763Y-100609288D01*
X176678649Y-100601774D01*
X176857046Y-100462921D01*
X176860515Y-100459151D01*
X176860521Y-100459147D01*
X176947175Y-100365017D01*
X176988594Y-100335444D01*
X177038404Y-100325000D01*
X178400500Y-100325000D01*
X178462500Y-100341613D01*
X178507887Y-100387000D01*
X178524500Y-100449000D01*
X178524500Y-127390588D01*
X178515061Y-127438041D01*
X178488181Y-127478269D01*
X177028270Y-128938181D01*
X176988042Y-128965061D01*
X176940589Y-128974500D01*
X165936509Y-128974500D01*
X165933599Y-128974336D01*
X165923027Y-128970637D01*
X165909144Y-128972201D01*
X165895663Y-128973720D01*
X165886955Y-128974209D01*
X165884372Y-128974500D01*
X165877410Y-128974500D01*
X165870619Y-128976049D01*
X165868048Y-128976339D01*
X165859457Y-128977798D01*
X165845959Y-128979319D01*
X165845956Y-128979319D01*
X165832076Y-128980884D01*
X165822171Y-128987107D01*
X165810769Y-128989710D01*
X165799852Y-128998415D01*
X165799847Y-128998418D01*
X165789233Y-129006883D01*
X165782100Y-129011945D01*
X165780085Y-129013551D01*
X165774199Y-129017251D01*
X165769285Y-129022164D01*
X165767259Y-129023780D01*
X165760744Y-129029603D01*
X165750130Y-129038068D01*
X165750128Y-129038069D01*
X165739212Y-129046776D01*
X165734354Y-129056862D01*
X165732407Y-129059041D01*
X163303270Y-131488181D01*
X163263042Y-131515061D01*
X163215589Y-131524500D01*
X128959411Y-131524500D01*
X128911958Y-131515061D01*
X128871730Y-131488181D01*
X128832750Y-131449201D01*
X128832749Y-131449199D01*
X126442591Y-129059042D01*
X126440647Y-129056867D01*
X126439657Y-129054810D01*
X130949500Y-129054810D01*
X130950190Y-129059394D01*
X130950191Y-129059395D01*
X130989028Y-129317067D01*
X130989030Y-129317076D01*
X130989720Y-129321653D01*
X130991084Y-129326077D01*
X130991086Y-129326083D01*
X131067894Y-129575090D01*
X131067898Y-129575100D01*
X131069262Y-129579522D01*
X131071273Y-129583699D01*
X131071274Y-129583700D01*
X131098483Y-129640201D01*
X131186349Y-129822655D01*
X131227704Y-129883312D01*
X131324464Y-130025234D01*
X131338365Y-130045622D01*
X131341521Y-130049024D01*
X131341524Y-130049027D01*
X131381249Y-130091840D01*
X131521915Y-130243442D01*
X131732898Y-130411696D01*
X131966602Y-130546624D01*
X132217805Y-130645215D01*
X132480897Y-130705264D01*
X132682624Y-130720381D01*
X132815059Y-130720381D01*
X132817376Y-130720381D01*
X133019103Y-130705264D01*
X133282195Y-130645215D01*
X133533398Y-130546624D01*
X133767102Y-130411696D01*
X133978085Y-130243442D01*
X134161635Y-130045622D01*
X134313651Y-129822656D01*
X134430738Y-129579522D01*
X134510280Y-129321653D01*
X134550500Y-129054810D01*
X134550500Y-128784952D01*
X134510280Y-128518109D01*
X134459261Y-128352710D01*
X134432105Y-128264671D01*
X134432103Y-128264668D01*
X134430738Y-128260240D01*
X134313651Y-128017107D01*
X134161635Y-127794140D01*
X133978085Y-127596320D01*
X133767102Y-127428066D01*
X133533398Y-127293138D01*
X133358179Y-127224369D01*
X133286519Y-127196244D01*
X133286518Y-127196243D01*
X133282195Y-127194547D01*
X133277669Y-127193514D01*
X133277666Y-127193513D01*
X133023622Y-127135529D01*
X133023616Y-127135528D01*
X133019103Y-127134498D01*
X133014481Y-127134151D01*
X133014477Y-127134151D01*
X132819690Y-127119554D01*
X132819679Y-127119553D01*
X132817376Y-127119381D01*
X132682624Y-127119381D01*
X132680321Y-127119553D01*
X132680309Y-127119554D01*
X132485522Y-127134151D01*
X132485516Y-127134151D01*
X132480897Y-127134498D01*
X132476385Y-127135527D01*
X132476377Y-127135529D01*
X132222333Y-127193513D01*
X132222326Y-127193514D01*
X132217805Y-127194547D01*
X132213485Y-127196242D01*
X132213480Y-127196244D01*
X131970922Y-127291442D01*
X131970916Y-127291444D01*
X131966602Y-127293138D01*
X131962586Y-127295456D01*
X131962581Y-127295459D01*
X131798716Y-127390066D01*
X131732898Y-127428066D01*
X131729274Y-127430955D01*
X131729271Y-127430958D01*
X131525542Y-127593427D01*
X131525537Y-127593430D01*
X131521915Y-127596320D01*
X131518759Y-127599720D01*
X131518756Y-127599724D01*
X131341524Y-127790734D01*
X131341516Y-127790744D01*
X131338365Y-127794140D01*
X131335759Y-127797961D01*
X131335752Y-127797971D01*
X131188964Y-128013270D01*
X131188962Y-128013273D01*
X131186349Y-128017106D01*
X131184336Y-128021284D01*
X131184333Y-128021291D01*
X131071274Y-128256060D01*
X131071274Y-128256061D01*
X131069262Y-128260240D01*
X131067899Y-128264656D01*
X131067894Y-128264671D01*
X130991086Y-128513678D01*
X130991083Y-128513687D01*
X130989720Y-128518109D01*
X130989030Y-128522682D01*
X130989028Y-128522694D01*
X130950191Y-128780366D01*
X130949500Y-128784952D01*
X130949500Y-129054810D01*
X126439657Y-129054810D01*
X126435788Y-129046776D01*
X126414254Y-129029603D01*
X126414252Y-129029601D01*
X126407755Y-129023794D01*
X126405720Y-129022171D01*
X126400801Y-129017252D01*
X126394904Y-129013546D01*
X126392880Y-129011932D01*
X126385772Y-129006888D01*
X126375153Y-128998419D01*
X126375150Y-128998417D01*
X126364231Y-128989710D01*
X126352828Y-128987107D01*
X126342924Y-128980884D01*
X126329038Y-128979319D01*
X126329037Y-128979319D01*
X126315554Y-128977800D01*
X126306957Y-128976340D01*
X126304381Y-128976049D01*
X126297590Y-128974500D01*
X126290625Y-128974500D01*
X126288042Y-128974209D01*
X126279341Y-128973721D01*
X126265854Y-128972201D01*
X126265851Y-128972201D01*
X126251974Y-128970638D01*
X126241404Y-128974336D01*
X126238495Y-128974500D01*
X125199500Y-128974500D01*
X125137500Y-128957887D01*
X125092113Y-128912500D01*
X125075500Y-128850500D01*
X125075500Y-126379881D01*
X126301225Y-126379881D01*
X126301649Y-126384998D01*
X126319468Y-126600055D01*
X126319469Y-126600064D01*
X126319893Y-126605174D01*
X126321150Y-126610141D01*
X126321152Y-126610148D01*
X126352054Y-126732174D01*
X126375389Y-126824322D01*
X126377449Y-126829018D01*
X126464138Y-127026651D01*
X126464141Y-127026656D01*
X126466198Y-127031346D01*
X126523714Y-127119381D01*
X126587042Y-127216312D01*
X126587045Y-127216316D01*
X126589844Y-127220600D01*
X126593309Y-127224364D01*
X126593313Y-127224369D01*
X126702804Y-127343307D01*
X126742954Y-127386921D01*
X126921351Y-127525774D01*
X127120169Y-127633369D01*
X127333986Y-127706772D01*
X127556967Y-127743981D01*
X127777900Y-127743981D01*
X127783033Y-127743981D01*
X128006014Y-127706772D01*
X128219831Y-127633369D01*
X128418649Y-127525774D01*
X128597046Y-127386921D01*
X128750156Y-127220600D01*
X128873802Y-127031346D01*
X128964611Y-126824322D01*
X129020107Y-126605174D01*
X129028252Y-126506881D01*
X149161225Y-126506881D01*
X149161649Y-126511998D01*
X149179468Y-126727055D01*
X149179469Y-126727064D01*
X149179893Y-126732174D01*
X149181150Y-126737141D01*
X149181152Y-126737148D01*
X149201969Y-126819351D01*
X149235389Y-126951322D01*
X149237449Y-126956018D01*
X149324138Y-127153651D01*
X149324141Y-127153656D01*
X149326198Y-127158346D01*
X149350958Y-127196244D01*
X149447042Y-127343312D01*
X149447045Y-127343316D01*
X149449844Y-127347600D01*
X149453309Y-127351364D01*
X149453313Y-127351369D01*
X149586879Y-127496459D01*
X149615652Y-127549212D01*
X149616245Y-127609298D01*
X149588518Y-127662608D01*
X149538983Y-127696624D01*
X149438391Y-127734143D01*
X149424069Y-127739485D01*
X149416972Y-127744797D01*
X149416968Y-127744800D01*
X149315950Y-127820422D01*
X149315946Y-127820425D01*
X149308854Y-127825735D01*
X149303544Y-127832827D01*
X149303541Y-127832831D01*
X149227919Y-127933849D01*
X149227916Y-127933853D01*
X149222604Y-127940950D01*
X149219504Y-127949259D01*
X149219504Y-127949261D01*
X149175020Y-128068528D01*
X149175019Y-128068531D01*
X149172309Y-128075798D01*
X149171479Y-128083508D01*
X149171479Y-128083513D01*
X149166255Y-128132100D01*
X149166254Y-128132112D01*
X149165900Y-128135408D01*
X149165900Y-128138729D01*
X149165900Y-128138730D01*
X149165900Y-129955041D01*
X149165900Y-129955059D01*
X149165901Y-129958353D01*
X149166253Y-129961631D01*
X149166254Y-129961642D01*
X149171479Y-130010249D01*
X149171480Y-130010254D01*
X149172309Y-130017964D01*
X149175019Y-130025230D01*
X149175020Y-130025234D01*
X149199322Y-130090390D01*
X149222604Y-130152812D01*
X149227918Y-130159911D01*
X149227919Y-130159912D01*
X149292614Y-130246334D01*
X149308854Y-130268027D01*
X149424069Y-130354277D01*
X149558917Y-130404572D01*
X149618527Y-130410981D01*
X151441472Y-130410980D01*
X151501083Y-130404572D01*
X151635931Y-130354277D01*
X151751146Y-130268027D01*
X151837396Y-130152812D01*
X151881154Y-130035489D01*
X151917106Y-129984276D01*
X151973487Y-129957138D01*
X152035942Y-129960986D01*
X152088566Y-129994840D01*
X152138448Y-130049027D01*
X152142954Y-130053921D01*
X152321351Y-130192774D01*
X152520169Y-130300369D01*
X152733986Y-130373772D01*
X152956967Y-130410981D01*
X153177900Y-130410981D01*
X153183033Y-130410981D01*
X153406014Y-130373772D01*
X153619831Y-130300369D01*
X153818649Y-130192774D01*
X153997046Y-130053921D01*
X154150156Y-129887600D01*
X154273802Y-129698346D01*
X154362457Y-129496230D01*
X154406933Y-129443067D01*
X154472997Y-129422080D01*
X154540003Y-129439830D01*
X154587012Y-129490771D01*
X154656587Y-129630497D01*
X154662596Y-129640201D01*
X154780057Y-129795745D01*
X154787751Y-129804186D01*
X154931795Y-129935499D01*
X154940900Y-129942375D01*
X155106627Y-130044989D01*
X155116840Y-130050075D01*
X155220908Y-130090390D01*
X155232253Y-130091840D01*
X155235000Y-130080739D01*
X155985000Y-130080739D01*
X155987746Y-130091840D01*
X155999091Y-130090390D01*
X156103159Y-130050075D01*
X156113372Y-130044989D01*
X156279099Y-129942375D01*
X156288204Y-129935499D01*
X156432248Y-129804186D01*
X156439942Y-129795745D01*
X156557403Y-129640201D01*
X156563412Y-129630497D01*
X156650292Y-129456019D01*
X156654420Y-129445363D01*
X156657164Y-129435719D01*
X156657685Y-129424460D01*
X156646717Y-129421881D01*
X156001326Y-129421881D01*
X155988450Y-129425331D01*
X155985000Y-129438207D01*
X155985000Y-130080739D01*
X155235000Y-130080739D01*
X155235000Y-129054810D01*
X158889500Y-129054810D01*
X158890190Y-129059394D01*
X158890191Y-129059395D01*
X158929028Y-129317067D01*
X158929030Y-129317076D01*
X158929720Y-129321653D01*
X158931084Y-129326077D01*
X158931086Y-129326083D01*
X159007894Y-129575090D01*
X159007898Y-129575100D01*
X159009262Y-129579522D01*
X159011273Y-129583699D01*
X159011274Y-129583700D01*
X159038483Y-129640201D01*
X159126349Y-129822655D01*
X159167704Y-129883312D01*
X159264464Y-130025234D01*
X159278365Y-130045622D01*
X159281521Y-130049024D01*
X159281524Y-130049027D01*
X159321249Y-130091840D01*
X159461915Y-130243442D01*
X159672898Y-130411696D01*
X159906602Y-130546624D01*
X160157805Y-130645215D01*
X160420897Y-130705264D01*
X160622624Y-130720381D01*
X160755059Y-130720381D01*
X160757376Y-130720381D01*
X160959103Y-130705264D01*
X161222195Y-130645215D01*
X161473398Y-130546624D01*
X161707102Y-130411696D01*
X161918085Y-130243442D01*
X162101635Y-130045622D01*
X162253651Y-129822656D01*
X162370738Y-129579522D01*
X162450280Y-129321653D01*
X162490500Y-129054810D01*
X162490500Y-128784952D01*
X162450280Y-128518109D01*
X162399261Y-128352710D01*
X162372105Y-128264671D01*
X162372103Y-128264668D01*
X162370738Y-128260240D01*
X162253651Y-128017107D01*
X162101635Y-127794140D01*
X161918085Y-127596320D01*
X161707102Y-127428066D01*
X161473398Y-127293138D01*
X161298179Y-127224369D01*
X161226519Y-127196244D01*
X161226518Y-127196243D01*
X161222195Y-127194547D01*
X161217669Y-127193514D01*
X161217666Y-127193513D01*
X160963622Y-127135529D01*
X160963616Y-127135528D01*
X160959103Y-127134498D01*
X160954481Y-127134151D01*
X160954477Y-127134151D01*
X160759690Y-127119554D01*
X160759679Y-127119553D01*
X160757376Y-127119381D01*
X160622624Y-127119381D01*
X160620321Y-127119553D01*
X160620309Y-127119554D01*
X160425522Y-127134151D01*
X160425516Y-127134151D01*
X160420897Y-127134498D01*
X160416385Y-127135527D01*
X160416377Y-127135529D01*
X160162333Y-127193513D01*
X160162326Y-127193514D01*
X160157805Y-127194547D01*
X160153485Y-127196242D01*
X160153480Y-127196244D01*
X159910922Y-127291442D01*
X159910916Y-127291444D01*
X159906602Y-127293138D01*
X159902586Y-127295456D01*
X159902581Y-127295459D01*
X159738716Y-127390066D01*
X159672898Y-127428066D01*
X159669274Y-127430955D01*
X159669271Y-127430958D01*
X159465542Y-127593427D01*
X159465537Y-127593430D01*
X159461915Y-127596320D01*
X159458759Y-127599720D01*
X159458756Y-127599724D01*
X159281524Y-127790734D01*
X159281516Y-127790744D01*
X159278365Y-127794140D01*
X159275759Y-127797961D01*
X159275752Y-127797971D01*
X159128964Y-128013270D01*
X159128962Y-128013273D01*
X159126349Y-128017106D01*
X159124336Y-128021284D01*
X159124333Y-128021291D01*
X159011274Y-128256060D01*
X159011274Y-128256061D01*
X159009262Y-128260240D01*
X159007899Y-128264656D01*
X159007894Y-128264671D01*
X158931086Y-128513678D01*
X158931083Y-128513687D01*
X158929720Y-128518109D01*
X158929030Y-128522682D01*
X158929028Y-128522694D01*
X158890191Y-128780366D01*
X158889500Y-128784952D01*
X158889500Y-129054810D01*
X155235000Y-129054810D01*
X155235000Y-128795881D01*
X155251613Y-128733881D01*
X155297000Y-128688494D01*
X155359000Y-128671881D01*
X156646717Y-128671881D01*
X156657685Y-128669301D01*
X156657164Y-128658042D01*
X156654420Y-128648398D01*
X156650292Y-128637742D01*
X156563412Y-128463264D01*
X156557403Y-128453560D01*
X156439942Y-128298016D01*
X156432248Y-128289575D01*
X156288204Y-128158262D01*
X156279099Y-128151386D01*
X156113372Y-128048772D01*
X156103150Y-128043681D01*
X156058667Y-128026449D01*
X156009662Y-127991926D01*
X155982577Y-127938448D01*
X155983744Y-127878515D01*
X156012888Y-127826132D01*
X156063195Y-127793543D01*
X156159831Y-127760369D01*
X156358649Y-127652774D01*
X156537046Y-127513921D01*
X156690156Y-127347600D01*
X156813802Y-127158346D01*
X156904611Y-126951322D01*
X156960107Y-126732174D01*
X156978775Y-126506881D01*
X156968252Y-126379881D01*
X174561225Y-126379881D01*
X174561649Y-126384998D01*
X174579468Y-126600055D01*
X174579469Y-126600064D01*
X174579893Y-126605174D01*
X174581150Y-126610141D01*
X174581152Y-126610148D01*
X174612054Y-126732174D01*
X174635389Y-126824322D01*
X174637449Y-126829018D01*
X174724138Y-127026651D01*
X174724141Y-127026656D01*
X174726198Y-127031346D01*
X174783714Y-127119381D01*
X174847042Y-127216312D01*
X174847045Y-127216316D01*
X174849844Y-127220600D01*
X174853309Y-127224364D01*
X174853313Y-127224369D01*
X174962804Y-127343307D01*
X175002954Y-127386921D01*
X175181351Y-127525774D01*
X175380169Y-127633369D01*
X175593986Y-127706772D01*
X175816967Y-127743981D01*
X176037900Y-127743981D01*
X176043033Y-127743981D01*
X176266014Y-127706772D01*
X176479831Y-127633369D01*
X176678649Y-127525774D01*
X176857046Y-127386921D01*
X177010156Y-127220600D01*
X177133802Y-127031346D01*
X177224611Y-126824322D01*
X177280107Y-126605174D01*
X177298775Y-126379881D01*
X177280107Y-126154588D01*
X177224611Y-125935440D01*
X177133802Y-125728416D01*
X177010156Y-125539162D01*
X177006688Y-125535395D01*
X177006686Y-125535392D01*
X176860514Y-125376608D01*
X176860512Y-125376606D01*
X176857046Y-125372841D01*
X176837097Y-125357314D01*
X176682694Y-125237136D01*
X176682691Y-125237134D01*
X176678649Y-125233988D01*
X176674144Y-125231550D01*
X176674138Y-125231546D01*
X176650836Y-125218936D01*
X176603330Y-125173355D01*
X176585853Y-125109881D01*
X176603330Y-125046407D01*
X176650836Y-125000826D01*
X176674138Y-124988215D01*
X176678649Y-124985774D01*
X176857046Y-124846921D01*
X177010156Y-124680600D01*
X177133802Y-124491346D01*
X177224611Y-124284322D01*
X177280107Y-124065174D01*
X177298775Y-123839881D01*
X177280107Y-123614588D01*
X177224611Y-123395440D01*
X177133802Y-123188416D01*
X177010156Y-122999162D01*
X177006688Y-122995395D01*
X177006686Y-122995392D01*
X176860514Y-122836608D01*
X176860512Y-122836606D01*
X176857046Y-122832841D01*
X176786958Y-122778289D01*
X176682694Y-122697136D01*
X176682691Y-122697134D01*
X176678649Y-122693988D01*
X176674144Y-122691550D01*
X176674138Y-122691546D01*
X176650836Y-122678936D01*
X176603330Y-122633355D01*
X176585853Y-122569881D01*
X176603330Y-122506407D01*
X176650836Y-122460826D01*
X176664763Y-122453288D01*
X176678649Y-122445774D01*
X176857046Y-122306921D01*
X177010156Y-122140600D01*
X177133802Y-121951346D01*
X177224611Y-121744322D01*
X177280107Y-121525174D01*
X177298775Y-121299881D01*
X177280107Y-121074588D01*
X177224611Y-120855440D01*
X177133802Y-120648416D01*
X177010156Y-120459162D01*
X177006688Y-120455395D01*
X177006686Y-120455392D01*
X176860514Y-120296608D01*
X176860512Y-120296606D01*
X176857046Y-120292841D01*
X176723450Y-120188858D01*
X176682694Y-120157136D01*
X176682691Y-120157134D01*
X176678649Y-120153988D01*
X176674144Y-120151550D01*
X176674138Y-120151546D01*
X176650836Y-120138936D01*
X176603330Y-120093355D01*
X176585853Y-120029881D01*
X176603330Y-119966407D01*
X176650836Y-119920826D01*
X176674138Y-119908215D01*
X176678649Y-119905774D01*
X176857046Y-119766921D01*
X177010156Y-119600600D01*
X177133802Y-119411346D01*
X177224611Y-119204322D01*
X177280107Y-118985174D01*
X177298775Y-118759881D01*
X177280107Y-118534588D01*
X177224611Y-118315440D01*
X177133802Y-118108416D01*
X177010156Y-117919162D01*
X177006688Y-117915395D01*
X177006686Y-117915392D01*
X176860514Y-117756608D01*
X176860512Y-117756606D01*
X176857046Y-117752841D01*
X176723325Y-117648761D01*
X176682694Y-117617136D01*
X176682691Y-117617134D01*
X176678649Y-117613988D01*
X176674144Y-117611550D01*
X176674138Y-117611546D01*
X176650836Y-117598936D01*
X176603330Y-117553355D01*
X176585853Y-117489881D01*
X176603330Y-117426407D01*
X176650836Y-117380826D01*
X176674138Y-117368215D01*
X176678649Y-117365774D01*
X176857046Y-117226921D01*
X177010156Y-117060600D01*
X177133802Y-116871346D01*
X177224611Y-116664322D01*
X177280107Y-116445174D01*
X177298775Y-116219881D01*
X177280107Y-115994588D01*
X177224611Y-115775440D01*
X177133802Y-115568416D01*
X177010156Y-115379162D01*
X177006688Y-115375395D01*
X177006686Y-115375392D01*
X176860514Y-115216608D01*
X176860512Y-115216606D01*
X176857046Y-115212841D01*
X176824961Y-115187868D01*
X176682694Y-115077136D01*
X176682691Y-115077134D01*
X176678649Y-115073988D01*
X176674144Y-115071550D01*
X176674138Y-115071546D01*
X176650836Y-115058936D01*
X176603330Y-115013355D01*
X176585853Y-114949881D01*
X176603330Y-114886407D01*
X176650836Y-114840826D01*
X176674138Y-114828215D01*
X176678649Y-114825774D01*
X176857046Y-114686921D01*
X177010156Y-114520600D01*
X177133802Y-114331346D01*
X177224611Y-114124322D01*
X177280107Y-113905174D01*
X177298775Y-113679881D01*
X177280107Y-113454588D01*
X177224611Y-113235440D01*
X177133802Y-113028416D01*
X177031498Y-112871829D01*
X177012957Y-112843449D01*
X177012956Y-112843447D01*
X177010156Y-112839162D01*
X177006688Y-112835395D01*
X177006686Y-112835392D01*
X176860514Y-112676608D01*
X176860512Y-112676606D01*
X176857046Y-112672841D01*
X176748082Y-112588030D01*
X176682694Y-112537136D01*
X176682691Y-112537134D01*
X176678649Y-112533988D01*
X176674144Y-112531550D01*
X176674138Y-112531546D01*
X176650836Y-112518936D01*
X176603330Y-112473355D01*
X176585853Y-112409881D01*
X176603330Y-112346407D01*
X176650836Y-112300826D01*
X176674138Y-112288215D01*
X176678649Y-112285774D01*
X176857046Y-112146921D01*
X177010156Y-111980600D01*
X177133802Y-111791346D01*
X177224611Y-111584322D01*
X177280107Y-111365174D01*
X177298775Y-111139881D01*
X177280107Y-110914588D01*
X177224611Y-110695440D01*
X177138703Y-110499590D01*
X177135861Y-110493110D01*
X177135860Y-110493109D01*
X177133802Y-110488416D01*
X177010156Y-110299162D01*
X177006688Y-110295395D01*
X177006686Y-110295392D01*
X176860514Y-110136608D01*
X176860512Y-110136606D01*
X176857046Y-110132841D01*
X176833852Y-110114788D01*
X176682694Y-109997136D01*
X176682691Y-109997134D01*
X176678649Y-109993988D01*
X176674144Y-109991550D01*
X176674138Y-109991546D01*
X176650836Y-109978936D01*
X176603330Y-109933355D01*
X176585853Y-109869881D01*
X176603330Y-109806407D01*
X176650836Y-109760826D01*
X176674138Y-109748215D01*
X176678649Y-109745774D01*
X176857046Y-109606921D01*
X177010156Y-109440600D01*
X177133802Y-109251346D01*
X177224611Y-109044322D01*
X177280107Y-108825174D01*
X177298775Y-108599881D01*
X177280107Y-108374588D01*
X177224611Y-108155440D01*
X177133802Y-107948416D01*
X177010156Y-107759162D01*
X177006688Y-107755395D01*
X177006686Y-107755392D01*
X176860514Y-107596608D01*
X176860512Y-107596606D01*
X176857046Y-107592841D01*
X176686846Y-107460368D01*
X176682694Y-107457136D01*
X176682691Y-107457134D01*
X176678649Y-107453988D01*
X176590611Y-107406344D01*
X176484335Y-107348830D01*
X176484330Y-107348828D01*
X176479831Y-107346393D01*
X176474990Y-107344731D01*
X176474983Y-107344728D01*
X176270867Y-107274656D01*
X176270866Y-107274655D01*
X176266014Y-107272990D01*
X176260964Y-107272147D01*
X176260955Y-107272145D01*
X176048095Y-107236625D01*
X176048086Y-107236624D01*
X176043033Y-107235781D01*
X175816967Y-107235781D01*
X175811914Y-107236624D01*
X175811904Y-107236625D01*
X175599044Y-107272145D01*
X175599032Y-107272147D01*
X175593986Y-107272990D01*
X175589136Y-107274654D01*
X175589132Y-107274656D01*
X175385016Y-107344728D01*
X175385005Y-107344732D01*
X175380169Y-107346393D01*
X175375673Y-107348825D01*
X175375664Y-107348830D01*
X175185857Y-107451549D01*
X175185852Y-107451551D01*
X175181351Y-107453988D01*
X175177314Y-107457129D01*
X175177305Y-107457136D01*
X175006995Y-107589695D01*
X175006989Y-107589699D01*
X175002954Y-107592841D01*
X174999492Y-107596600D01*
X174999485Y-107596608D01*
X174853313Y-107755392D01*
X174853304Y-107755402D01*
X174849844Y-107759162D01*
X174847049Y-107763439D01*
X174847042Y-107763449D01*
X174733701Y-107936932D01*
X174726198Y-107948416D01*
X174724143Y-107953100D01*
X174724138Y-107953110D01*
X174639218Y-108146710D01*
X174635389Y-108155440D01*
X174634131Y-108160405D01*
X174634130Y-108160410D01*
X174581152Y-108369613D01*
X174581150Y-108369622D01*
X174579893Y-108374588D01*
X174579469Y-108379695D01*
X174579468Y-108379706D01*
X174565055Y-108553655D01*
X174561225Y-108599881D01*
X174561649Y-108604998D01*
X174579468Y-108820055D01*
X174579469Y-108820064D01*
X174579893Y-108825174D01*
X174581150Y-108830141D01*
X174581152Y-108830148D01*
X174631765Y-109030011D01*
X174635389Y-109044322D01*
X174637449Y-109049018D01*
X174724138Y-109246651D01*
X174724141Y-109246656D01*
X174726198Y-109251346D01*
X174752779Y-109292031D01*
X174847042Y-109436312D01*
X174847045Y-109436316D01*
X174849844Y-109440600D01*
X174853309Y-109444364D01*
X174853313Y-109444369D01*
X174908355Y-109504160D01*
X175002954Y-109606921D01*
X175181351Y-109745774D01*
X175185856Y-109748212D01*
X175185861Y-109748215D01*
X175209165Y-109760827D01*
X175256669Y-109806408D01*
X175274146Y-109869881D01*
X175256669Y-109933354D01*
X175209165Y-109978935D01*
X175185861Y-109991546D01*
X175185849Y-109991553D01*
X175181351Y-109993988D01*
X175177314Y-109997129D01*
X175177305Y-109997136D01*
X175006995Y-110129695D01*
X175006989Y-110129699D01*
X175002954Y-110132841D01*
X174999492Y-110136600D01*
X174999485Y-110136608D01*
X174853313Y-110295392D01*
X174853304Y-110295402D01*
X174849844Y-110299162D01*
X174847049Y-110303439D01*
X174847042Y-110303449D01*
X174743733Y-110461576D01*
X174726198Y-110488416D01*
X174724143Y-110493100D01*
X174724138Y-110493110D01*
X174637449Y-110690743D01*
X174635389Y-110695440D01*
X174634131Y-110700405D01*
X174634130Y-110700410D01*
X174581152Y-110909613D01*
X174581150Y-110909622D01*
X174579893Y-110914588D01*
X174579469Y-110919695D01*
X174579468Y-110919706D01*
X174565970Y-111082613D01*
X174561225Y-111139881D01*
X174561649Y-111144998D01*
X174579468Y-111360055D01*
X174579469Y-111360064D01*
X174579893Y-111365174D01*
X174581150Y-111370141D01*
X174581152Y-111370148D01*
X174627361Y-111552621D01*
X174635389Y-111584322D01*
X174637449Y-111589018D01*
X174724138Y-111786651D01*
X174724141Y-111786656D01*
X174726198Y-111791346D01*
X174752779Y-111832031D01*
X174847042Y-111976312D01*
X174847045Y-111976316D01*
X174849844Y-111980600D01*
X174853309Y-111984364D01*
X174853313Y-111984369D01*
X174999485Y-112143153D01*
X175002954Y-112146921D01*
X175181351Y-112285774D01*
X175185858Y-112288213D01*
X175185861Y-112288215D01*
X175209165Y-112300827D01*
X175256669Y-112346408D01*
X175274146Y-112409881D01*
X175256669Y-112473354D01*
X175209165Y-112518935D01*
X175185861Y-112531546D01*
X175185849Y-112531553D01*
X175181351Y-112533988D01*
X175177314Y-112537129D01*
X175177305Y-112537136D01*
X175006995Y-112669695D01*
X175006989Y-112669699D01*
X175002954Y-112672841D01*
X174999492Y-112676600D01*
X174999485Y-112676608D01*
X174853313Y-112835392D01*
X174853304Y-112835402D01*
X174849844Y-112839162D01*
X174847049Y-112843439D01*
X174847042Y-112843449D01*
X174731898Y-113019691D01*
X174726198Y-113028416D01*
X174724143Y-113033100D01*
X174724138Y-113033110D01*
X174667430Y-113162393D01*
X174635389Y-113235440D01*
X174634131Y-113240405D01*
X174634130Y-113240410D01*
X174581152Y-113449613D01*
X174581150Y-113449622D01*
X174579893Y-113454588D01*
X174579469Y-113459695D01*
X174579468Y-113459706D01*
X174561943Y-113671217D01*
X174561225Y-113679881D01*
X174561649Y-113684998D01*
X174579468Y-113900055D01*
X174579469Y-113900064D01*
X174579893Y-113905174D01*
X174581150Y-113910141D01*
X174581152Y-113910148D01*
X174598960Y-113980468D01*
X174635389Y-114124322D01*
X174637449Y-114129018D01*
X174724138Y-114326651D01*
X174724141Y-114326656D01*
X174726198Y-114331346D01*
X174788020Y-114425972D01*
X174847042Y-114516312D01*
X174847045Y-114516316D01*
X174849844Y-114520600D01*
X174853309Y-114524364D01*
X174853313Y-114524369D01*
X174931429Y-114609225D01*
X175002954Y-114686921D01*
X175181351Y-114825774D01*
X175185858Y-114828213D01*
X175185861Y-114828215D01*
X175209165Y-114840827D01*
X175256669Y-114886408D01*
X175274146Y-114949881D01*
X175256669Y-115013354D01*
X175209165Y-115058935D01*
X175185861Y-115071546D01*
X175185849Y-115071553D01*
X175181351Y-115073988D01*
X175177314Y-115077129D01*
X175177305Y-115077136D01*
X175006995Y-115209695D01*
X175006989Y-115209699D01*
X175002954Y-115212841D01*
X174999492Y-115216600D01*
X174999485Y-115216608D01*
X174853313Y-115375392D01*
X174853304Y-115375402D01*
X174849844Y-115379162D01*
X174847049Y-115383439D01*
X174847042Y-115383449D01*
X174729000Y-115564127D01*
X174726198Y-115568416D01*
X174724143Y-115573100D01*
X174724138Y-115573110D01*
X174637449Y-115770743D01*
X174635389Y-115775440D01*
X174634131Y-115780405D01*
X174634130Y-115780410D01*
X174581152Y-115989613D01*
X174581150Y-115989622D01*
X174579893Y-115994588D01*
X174579469Y-115999695D01*
X174579468Y-115999706D01*
X174567055Y-116149519D01*
X174561225Y-116219881D01*
X174561649Y-116224998D01*
X174579468Y-116440055D01*
X174579469Y-116440064D01*
X174579893Y-116445174D01*
X174581150Y-116450141D01*
X174581152Y-116450148D01*
X174634130Y-116659351D01*
X174635389Y-116664322D01*
X174637449Y-116669018D01*
X174724138Y-116866651D01*
X174724141Y-116866656D01*
X174726198Y-116871346D01*
X174788020Y-116965972D01*
X174847042Y-117056312D01*
X174847045Y-117056316D01*
X174849844Y-117060600D01*
X174853309Y-117064364D01*
X174853313Y-117064369D01*
X174998293Y-117221858D01*
X175002954Y-117226921D01*
X175006995Y-117230066D01*
X175140814Y-117334223D01*
X175181351Y-117365774D01*
X175185858Y-117368213D01*
X175185861Y-117368215D01*
X175209165Y-117380827D01*
X175256669Y-117426408D01*
X175274146Y-117489881D01*
X175256669Y-117553354D01*
X175209165Y-117598935D01*
X175185861Y-117611546D01*
X175185849Y-117611553D01*
X175181351Y-117613988D01*
X175177314Y-117617129D01*
X175177305Y-117617136D01*
X175006995Y-117749695D01*
X175006989Y-117749699D01*
X175002954Y-117752841D01*
X174999492Y-117756600D01*
X174999485Y-117756608D01*
X174853313Y-117915392D01*
X174853304Y-117915402D01*
X174849844Y-117919162D01*
X174847049Y-117923439D01*
X174847042Y-117923449D01*
X174738942Y-118088910D01*
X174726198Y-118108416D01*
X174724143Y-118113100D01*
X174724138Y-118113110D01*
X174637449Y-118310743D01*
X174635389Y-118315440D01*
X174634131Y-118320405D01*
X174634130Y-118320410D01*
X174581152Y-118529613D01*
X174581150Y-118529622D01*
X174579893Y-118534588D01*
X174579469Y-118539695D01*
X174579468Y-118539706D01*
X174564881Y-118715756D01*
X174561225Y-118759881D01*
X174561649Y-118764998D01*
X174579468Y-118980055D01*
X174579469Y-118980064D01*
X174579893Y-118985174D01*
X174581150Y-118990141D01*
X174581152Y-118990148D01*
X174629442Y-119180839D01*
X174635389Y-119204322D01*
X174637449Y-119209018D01*
X174724138Y-119406651D01*
X174724141Y-119406656D01*
X174726198Y-119411346D01*
X174738247Y-119429788D01*
X174847042Y-119596312D01*
X174847045Y-119596316D01*
X174849844Y-119600600D01*
X174853309Y-119604364D01*
X174853313Y-119604369D01*
X174991990Y-119755011D01*
X175002954Y-119766921D01*
X175066339Y-119816256D01*
X175167494Y-119894989D01*
X175181351Y-119905774D01*
X175185858Y-119908213D01*
X175185861Y-119908215D01*
X175209165Y-119920827D01*
X175256669Y-119966408D01*
X175274146Y-120029881D01*
X175256669Y-120093354D01*
X175209165Y-120138935D01*
X175185861Y-120151546D01*
X175185849Y-120151553D01*
X175181351Y-120153988D01*
X175177314Y-120157129D01*
X175177305Y-120157136D01*
X175006995Y-120289695D01*
X175006989Y-120289699D01*
X175002954Y-120292841D01*
X174999492Y-120296600D01*
X174999485Y-120296608D01*
X174853313Y-120455392D01*
X174853304Y-120455402D01*
X174849844Y-120459162D01*
X174847049Y-120463439D01*
X174847042Y-120463449D01*
X174746441Y-120617432D01*
X174726198Y-120648416D01*
X174724143Y-120653100D01*
X174724138Y-120653110D01*
X174637449Y-120850743D01*
X174635389Y-120855440D01*
X174634131Y-120860405D01*
X174634130Y-120860410D01*
X174581152Y-121069613D01*
X174581150Y-121069622D01*
X174579893Y-121074588D01*
X174579469Y-121079695D01*
X174579468Y-121079706D01*
X174567702Y-121221710D01*
X174561225Y-121299881D01*
X174561649Y-121304998D01*
X174579468Y-121520055D01*
X174579469Y-121520064D01*
X174579893Y-121525174D01*
X174581150Y-121530141D01*
X174581152Y-121530148D01*
X174629832Y-121722378D01*
X174635389Y-121744322D01*
X174637449Y-121749018D01*
X174724138Y-121946651D01*
X174724141Y-121946656D01*
X174726198Y-121951346D01*
X174786723Y-122043986D01*
X174847042Y-122136312D01*
X174847045Y-122136316D01*
X174849844Y-122140600D01*
X174853309Y-122144364D01*
X174853313Y-122144369D01*
X174971034Y-122272247D01*
X175002954Y-122306921D01*
X175181351Y-122445774D01*
X175185858Y-122448213D01*
X175185861Y-122448215D01*
X175209165Y-122460827D01*
X175256669Y-122506408D01*
X175274146Y-122569881D01*
X175256669Y-122633354D01*
X175209165Y-122678935D01*
X175185861Y-122691546D01*
X175185849Y-122691553D01*
X175181351Y-122693988D01*
X175177314Y-122697129D01*
X175177305Y-122697136D01*
X175006995Y-122829695D01*
X175006989Y-122829699D01*
X175002954Y-122832841D01*
X174999492Y-122836600D01*
X174999485Y-122836608D01*
X174853313Y-122995392D01*
X174853304Y-122995402D01*
X174849844Y-122999162D01*
X174847049Y-123003439D01*
X174847042Y-123003449D01*
X174765481Y-123128289D01*
X174726198Y-123188416D01*
X174724143Y-123193100D01*
X174724138Y-123193110D01*
X174637449Y-123390743D01*
X174635389Y-123395440D01*
X174634131Y-123400405D01*
X174634130Y-123400410D01*
X174581152Y-123609613D01*
X174581150Y-123609622D01*
X174579893Y-123614588D01*
X174579469Y-123619695D01*
X174579468Y-123619706D01*
X174563899Y-123807613D01*
X174561225Y-123839881D01*
X174561649Y-123844998D01*
X174579468Y-124060055D01*
X174579469Y-124060064D01*
X174579893Y-124065174D01*
X174581150Y-124070141D01*
X174581152Y-124070148D01*
X174629947Y-124262832D01*
X174635389Y-124284322D01*
X174637449Y-124289018D01*
X174724138Y-124486651D01*
X174724141Y-124486656D01*
X174726198Y-124491346D01*
X174781381Y-124575810D01*
X174847042Y-124676312D01*
X174847045Y-124676316D01*
X174849844Y-124680600D01*
X174853309Y-124684364D01*
X174853313Y-124684369D01*
X174956583Y-124796549D01*
X175002954Y-124846921D01*
X175181351Y-124985774D01*
X175185858Y-124988213D01*
X175185861Y-124988215D01*
X175209165Y-125000827D01*
X175256669Y-125046408D01*
X175274146Y-125109881D01*
X175256669Y-125173354D01*
X175209165Y-125218935D01*
X175185861Y-125231546D01*
X175185849Y-125231553D01*
X175181351Y-125233988D01*
X175177314Y-125237129D01*
X175177305Y-125237136D01*
X175006995Y-125369695D01*
X175006989Y-125369699D01*
X175002954Y-125372841D01*
X174999492Y-125376600D01*
X174999485Y-125376608D01*
X174853313Y-125535392D01*
X174853304Y-125535402D01*
X174849844Y-125539162D01*
X174847049Y-125543439D01*
X174847042Y-125543449D01*
X174729000Y-125724127D01*
X174726198Y-125728416D01*
X174724143Y-125733100D01*
X174724138Y-125733110D01*
X174661860Y-125875092D01*
X174635389Y-125935440D01*
X174634131Y-125940405D01*
X174634130Y-125940410D01*
X174581152Y-126149613D01*
X174581150Y-126149622D01*
X174579893Y-126154588D01*
X174579469Y-126159695D01*
X174579468Y-126159706D01*
X174561655Y-126374684D01*
X174561225Y-126379881D01*
X156968252Y-126379881D01*
X156960107Y-126281588D01*
X156904611Y-126062440D01*
X156813802Y-125855416D01*
X156690156Y-125666162D01*
X156686688Y-125662395D01*
X156686686Y-125662392D01*
X156601189Y-125569518D01*
X168525000Y-125569518D01*
X168525353Y-125576114D01*
X168530573Y-125624667D01*
X168534111Y-125639641D01*
X168578547Y-125758777D01*
X168586962Y-125774189D01*
X168662498Y-125875092D01*
X168674907Y-125887501D01*
X168775810Y-125963037D01*
X168791222Y-125971452D01*
X168910358Y-126015888D01*
X168925332Y-126019426D01*
X168973885Y-126024646D01*
X168980482Y-126025000D01*
X169258674Y-126025000D01*
X169271549Y-126021549D01*
X169275000Y-126008674D01*
X170025000Y-126008674D01*
X170028450Y-126021549D01*
X170041326Y-126025000D01*
X170319518Y-126025000D01*
X170326114Y-126024646D01*
X170374667Y-126019426D01*
X170389641Y-126015888D01*
X170508777Y-125971452D01*
X170524189Y-125963037D01*
X170625092Y-125887501D01*
X170637501Y-125875092D01*
X170713037Y-125774189D01*
X170721452Y-125758777D01*
X170765888Y-125639641D01*
X170769426Y-125624667D01*
X170774646Y-125576114D01*
X170775000Y-125569518D01*
X170775000Y-125566326D01*
X170771549Y-125553450D01*
X170758674Y-125550000D01*
X170041326Y-125550000D01*
X170028450Y-125553450D01*
X170025000Y-125566326D01*
X170025000Y-126008674D01*
X169275000Y-126008674D01*
X169275000Y-125566326D01*
X169271549Y-125553450D01*
X169258674Y-125550000D01*
X168541326Y-125550000D01*
X168528450Y-125553450D01*
X168525000Y-125566326D01*
X168525000Y-125569518D01*
X156601189Y-125569518D01*
X156540514Y-125503608D01*
X156540512Y-125503606D01*
X156537046Y-125499841D01*
X156517097Y-125484314D01*
X156362694Y-125364136D01*
X156362691Y-125364134D01*
X156358649Y-125360988D01*
X156328897Y-125344887D01*
X156164335Y-125255830D01*
X156164330Y-125255828D01*
X156159831Y-125253393D01*
X156154990Y-125251731D01*
X156154983Y-125251728D01*
X155950867Y-125181656D01*
X155950866Y-125181655D01*
X155946014Y-125179990D01*
X155940964Y-125179147D01*
X155940955Y-125179145D01*
X155728095Y-125143625D01*
X155728086Y-125143624D01*
X155723033Y-125142781D01*
X155496967Y-125142781D01*
X155491914Y-125143624D01*
X155491904Y-125143625D01*
X155279044Y-125179145D01*
X155279032Y-125179147D01*
X155273986Y-125179990D01*
X155269136Y-125181654D01*
X155269132Y-125181656D01*
X155065016Y-125251728D01*
X155065005Y-125251732D01*
X155060169Y-125253393D01*
X155055673Y-125255825D01*
X155055664Y-125255830D01*
X154865857Y-125358549D01*
X154865852Y-125358551D01*
X154861351Y-125360988D01*
X154857314Y-125364129D01*
X154857305Y-125364136D01*
X154686995Y-125496695D01*
X154686989Y-125496699D01*
X154682954Y-125499841D01*
X154679492Y-125503600D01*
X154679485Y-125503608D01*
X154533313Y-125662392D01*
X154533304Y-125662402D01*
X154529844Y-125666162D01*
X154527049Y-125670439D01*
X154527042Y-125670449D01*
X154443809Y-125797848D01*
X154399017Y-125839081D01*
X154340000Y-125854026D01*
X154280983Y-125839081D01*
X154236191Y-125797848D01*
X154152957Y-125670449D01*
X154152956Y-125670447D01*
X154150156Y-125666162D01*
X154146688Y-125662395D01*
X154146686Y-125662392D01*
X154000514Y-125503608D01*
X154000512Y-125503606D01*
X153997046Y-125499841D01*
X153977097Y-125484314D01*
X153822694Y-125364136D01*
X153822691Y-125364134D01*
X153818649Y-125360988D01*
X153788897Y-125344887D01*
X153624335Y-125255830D01*
X153624330Y-125255828D01*
X153619831Y-125253393D01*
X153614990Y-125251731D01*
X153614983Y-125251728D01*
X153410867Y-125181656D01*
X153410866Y-125181655D01*
X153406014Y-125179990D01*
X153400964Y-125179147D01*
X153400955Y-125179145D01*
X153188095Y-125143625D01*
X153188086Y-125143624D01*
X153183033Y-125142781D01*
X152956967Y-125142781D01*
X152951914Y-125143624D01*
X152951904Y-125143625D01*
X152739044Y-125179145D01*
X152739032Y-125179147D01*
X152733986Y-125179990D01*
X152729136Y-125181654D01*
X152729132Y-125181656D01*
X152525016Y-125251728D01*
X152525005Y-125251732D01*
X152520169Y-125253393D01*
X152515673Y-125255825D01*
X152515664Y-125255830D01*
X152325857Y-125358549D01*
X152325852Y-125358551D01*
X152321351Y-125360988D01*
X152317314Y-125364129D01*
X152317305Y-125364136D01*
X152146995Y-125496695D01*
X152146989Y-125496699D01*
X152142954Y-125499841D01*
X152139492Y-125503600D01*
X152139485Y-125503608D01*
X151993313Y-125662392D01*
X151993304Y-125662402D01*
X151989844Y-125666162D01*
X151987049Y-125670439D01*
X151987042Y-125670449D01*
X151903809Y-125797848D01*
X151859017Y-125839081D01*
X151800000Y-125854026D01*
X151740983Y-125839081D01*
X151696191Y-125797848D01*
X151612957Y-125670449D01*
X151612956Y-125670447D01*
X151610156Y-125666162D01*
X151606688Y-125662395D01*
X151606686Y-125662392D01*
X151460514Y-125503608D01*
X151460512Y-125503606D01*
X151457046Y-125499841D01*
X151437097Y-125484314D01*
X151282694Y-125364136D01*
X151282691Y-125364134D01*
X151278649Y-125360988D01*
X151248897Y-125344887D01*
X151084335Y-125255830D01*
X151084330Y-125255828D01*
X151079831Y-125253393D01*
X151074990Y-125251731D01*
X151074983Y-125251728D01*
X150870867Y-125181656D01*
X150870866Y-125181655D01*
X150866014Y-125179990D01*
X150860964Y-125179147D01*
X150860955Y-125179145D01*
X150648095Y-125143625D01*
X150648086Y-125143624D01*
X150643033Y-125142781D01*
X150416967Y-125142781D01*
X150411914Y-125143624D01*
X150411904Y-125143625D01*
X150199044Y-125179145D01*
X150199032Y-125179147D01*
X150193986Y-125179990D01*
X150189136Y-125181654D01*
X150189132Y-125181656D01*
X149985016Y-125251728D01*
X149985005Y-125251732D01*
X149980169Y-125253393D01*
X149975673Y-125255825D01*
X149975664Y-125255830D01*
X149785857Y-125358549D01*
X149785852Y-125358551D01*
X149781351Y-125360988D01*
X149777314Y-125364129D01*
X149777305Y-125364136D01*
X149606995Y-125496695D01*
X149606989Y-125496699D01*
X149602954Y-125499841D01*
X149599492Y-125503600D01*
X149599485Y-125503608D01*
X149453313Y-125662392D01*
X149453304Y-125662402D01*
X149449844Y-125666162D01*
X149447049Y-125670439D01*
X149447042Y-125670449D01*
X149379266Y-125774189D01*
X149326198Y-125855416D01*
X149324143Y-125860100D01*
X149324138Y-125860110D01*
X149237449Y-126057743D01*
X149235389Y-126062440D01*
X149234131Y-126067405D01*
X149234130Y-126067410D01*
X149181152Y-126276613D01*
X149181150Y-126276622D01*
X149179893Y-126281588D01*
X149179469Y-126286695D01*
X149179468Y-126286706D01*
X149172172Y-126374764D01*
X149161225Y-126506881D01*
X129028252Y-126506881D01*
X129038775Y-126379881D01*
X129020107Y-126154588D01*
X128964611Y-125935440D01*
X128873802Y-125728416D01*
X128750156Y-125539162D01*
X128746688Y-125535395D01*
X128746686Y-125535392D01*
X128600514Y-125376608D01*
X128600512Y-125376606D01*
X128597046Y-125372841D01*
X128577097Y-125357314D01*
X128422694Y-125237136D01*
X128422691Y-125237134D01*
X128418649Y-125233988D01*
X128414144Y-125231550D01*
X128414138Y-125231546D01*
X128390836Y-125218936D01*
X128343330Y-125173355D01*
X128325853Y-125109881D01*
X128343330Y-125046407D01*
X128390836Y-125000826D01*
X128414138Y-124988215D01*
X128418649Y-124985774D01*
X128597046Y-124846921D01*
X128750156Y-124680600D01*
X128873802Y-124491346D01*
X128964611Y-124284322D01*
X129020107Y-124065174D01*
X129038775Y-123839881D01*
X129020107Y-123614588D01*
X128964611Y-123395440D01*
X128873802Y-123188416D01*
X128750156Y-122999162D01*
X128746688Y-122995395D01*
X128746686Y-122995392D01*
X128600514Y-122836608D01*
X128600512Y-122836606D01*
X128597046Y-122832841D01*
X128526958Y-122778289D01*
X128519389Y-122772398D01*
X132495746Y-122772398D01*
X132496026Y-122778282D01*
X132496026Y-122778289D01*
X132502787Y-122920211D01*
X132505746Y-122982330D01*
X132507135Y-122988058D01*
X132507137Y-122988067D01*
X132553904Y-123180839D01*
X132555296Y-123186576D01*
X132642604Y-123377753D01*
X132646031Y-123382566D01*
X132646032Y-123382567D01*
X132705626Y-123466256D01*
X132764514Y-123548952D01*
X132916622Y-123693986D01*
X133093428Y-123807613D01*
X133098911Y-123809808D01*
X133098913Y-123809809D01*
X133283060Y-123883530D01*
X133288543Y-123885725D01*
X133494915Y-123925500D01*
X134199471Y-123925500D01*
X134202425Y-123925500D01*
X134359218Y-123910528D01*
X134560875Y-123851316D01*
X134747682Y-123755011D01*
X134912886Y-123625092D01*
X135050519Y-123466256D01*
X135155604Y-123284244D01*
X135211619Y-123122398D01*
X168270746Y-123122398D01*
X168271026Y-123128282D01*
X168271026Y-123128289D01*
X168275757Y-123227602D01*
X168280746Y-123332330D01*
X168282135Y-123338058D01*
X168282137Y-123338067D01*
X168328904Y-123530839D01*
X168330296Y-123536576D01*
X168417604Y-123727753D01*
X168421031Y-123732566D01*
X168421032Y-123732567D01*
X168480626Y-123816256D01*
X168539514Y-123898952D01*
X168691622Y-124043986D01*
X168832988Y-124134837D01*
X168849211Y-124145263D01*
X168894028Y-124196061D01*
X168905461Y-124262832D01*
X168880097Y-124325648D01*
X168825506Y-124365759D01*
X168791224Y-124378545D01*
X168775810Y-124386962D01*
X168674907Y-124462498D01*
X168662498Y-124474907D01*
X168586962Y-124575810D01*
X168578547Y-124591222D01*
X168534111Y-124710358D01*
X168530573Y-124725332D01*
X168525353Y-124773885D01*
X168525000Y-124780482D01*
X168525000Y-124783674D01*
X168528450Y-124796549D01*
X168541326Y-124800000D01*
X170758674Y-124800000D01*
X170771549Y-124796549D01*
X170775000Y-124783674D01*
X170775000Y-124780482D01*
X170774646Y-124773885D01*
X170769426Y-124725332D01*
X170765888Y-124710358D01*
X170721452Y-124591222D01*
X170713037Y-124575810D01*
X170637501Y-124474907D01*
X170625092Y-124462498D01*
X170524189Y-124386962D01*
X170508777Y-124378547D01*
X170471617Y-124364687D01*
X170424396Y-124333217D01*
X170396140Y-124284006D01*
X170392766Y-124227360D01*
X170414981Y-124175142D01*
X170458131Y-124138289D01*
X170517428Y-124107720D01*
X170517431Y-124107718D01*
X170522682Y-124105011D01*
X170687886Y-123975092D01*
X170825519Y-123816256D01*
X170930604Y-123634244D01*
X170999344Y-123435633D01*
X171029254Y-123227602D01*
X171019254Y-123017670D01*
X170969704Y-122813424D01*
X170882396Y-122622247D01*
X170760486Y-122451048D01*
X170680632Y-122374908D01*
X170612651Y-122310088D01*
X170612649Y-122310086D01*
X170608378Y-122306014D01*
X170603412Y-122302822D01*
X170603405Y-122302817D01*
X170567057Y-122279458D01*
X170526709Y-122237143D01*
X170510236Y-122181043D01*
X170521302Y-122123632D01*
X170557442Y-122077674D01*
X170687886Y-121975092D01*
X170825519Y-121816256D01*
X170930604Y-121634244D01*
X170999344Y-121435633D01*
X171029254Y-121227602D01*
X171019254Y-121017670D01*
X170969704Y-120813424D01*
X170882396Y-120622247D01*
X170760486Y-120451048D01*
X170680632Y-120374908D01*
X170612651Y-120310088D01*
X170612649Y-120310086D01*
X170608378Y-120306014D01*
X170603412Y-120302822D01*
X170603405Y-120302817D01*
X170567057Y-120279458D01*
X170526709Y-120237143D01*
X170510236Y-120181043D01*
X170521302Y-120123632D01*
X170557442Y-120077674D01*
X170687886Y-119975092D01*
X170825519Y-119816256D01*
X170930604Y-119634244D01*
X170999344Y-119435633D01*
X171029254Y-119227602D01*
X171019254Y-119017670D01*
X170969704Y-118813424D01*
X170882396Y-118622247D01*
X170760486Y-118451048D01*
X170680632Y-118374908D01*
X170612651Y-118310088D01*
X170612649Y-118310086D01*
X170608378Y-118306014D01*
X170509210Y-118242282D01*
X170436544Y-118195582D01*
X170436541Y-118195580D01*
X170431572Y-118192387D01*
X170426092Y-118190193D01*
X170426086Y-118190190D01*
X170241939Y-118116469D01*
X170241932Y-118116467D01*
X170236457Y-118114275D01*
X170230662Y-118113158D01*
X170230655Y-118113156D01*
X170035882Y-118075617D01*
X170035879Y-118075616D01*
X170030085Y-118074500D01*
X169322575Y-118074500D01*
X169319646Y-118074779D01*
X169319639Y-118074780D01*
X169171662Y-118088910D01*
X169171656Y-118088911D01*
X169165782Y-118089472D01*
X169160112Y-118091136D01*
X169160111Y-118091137D01*
X168969787Y-118147021D01*
X168969782Y-118147022D01*
X168964125Y-118148684D01*
X168958884Y-118151385D01*
X168958881Y-118151387D01*
X168782568Y-118242282D01*
X168782564Y-118242284D01*
X168777318Y-118244989D01*
X168772676Y-118248638D01*
X168772672Y-118248642D01*
X168616759Y-118371254D01*
X168616752Y-118371260D01*
X168612114Y-118374908D01*
X168608250Y-118379367D01*
X168608245Y-118379372D01*
X168478347Y-118529282D01*
X168474481Y-118533744D01*
X168471530Y-118538854D01*
X168471528Y-118538858D01*
X168372352Y-118710635D01*
X168372349Y-118710640D01*
X168369396Y-118715756D01*
X168367465Y-118721335D01*
X168367461Y-118721344D01*
X168302587Y-118908785D01*
X168302584Y-118908794D01*
X168300656Y-118914367D01*
X168299816Y-118920203D01*
X168299815Y-118920211D01*
X168271585Y-119116558D01*
X168271584Y-119116564D01*
X168270746Y-119122398D01*
X168271026Y-119128282D01*
X168271026Y-119128289D01*
X168275757Y-119227602D01*
X168280746Y-119332330D01*
X168282135Y-119338058D01*
X168282137Y-119338067D01*
X168328904Y-119530839D01*
X168330296Y-119536576D01*
X168417604Y-119727753D01*
X168421031Y-119732566D01*
X168421032Y-119732567D01*
X168482548Y-119818955D01*
X168539514Y-119898952D01*
X168543791Y-119903030D01*
X168659511Y-120013369D01*
X168691622Y-120043986D01*
X168732944Y-120070542D01*
X168773290Y-120112855D01*
X168789763Y-120168955D01*
X168778698Y-120226366D01*
X168742556Y-120272326D01*
X168616755Y-120371258D01*
X168612114Y-120374908D01*
X168608250Y-120379367D01*
X168608245Y-120379372D01*
X168478347Y-120529282D01*
X168474481Y-120533744D01*
X168471530Y-120538854D01*
X168471528Y-120538858D01*
X168372352Y-120710635D01*
X168372349Y-120710640D01*
X168369396Y-120715756D01*
X168367465Y-120721335D01*
X168367461Y-120721344D01*
X168302587Y-120908785D01*
X168302584Y-120908794D01*
X168300656Y-120914367D01*
X168299816Y-120920203D01*
X168299815Y-120920211D01*
X168271585Y-121116558D01*
X168271584Y-121116564D01*
X168270746Y-121122398D01*
X168271026Y-121128282D01*
X168271026Y-121128289D01*
X168279200Y-121299881D01*
X168280746Y-121332330D01*
X168282135Y-121338058D01*
X168282137Y-121338067D01*
X168328904Y-121530839D01*
X168330296Y-121536576D01*
X168417604Y-121727753D01*
X168421031Y-121732566D01*
X168421032Y-121732567D01*
X168482548Y-121818955D01*
X168539514Y-121898952D01*
X168543791Y-121903030D01*
X168594463Y-121951346D01*
X168691622Y-122043986D01*
X168732944Y-122070542D01*
X168773290Y-122112855D01*
X168789763Y-122168955D01*
X168778698Y-122226366D01*
X168742556Y-122272326D01*
X168616755Y-122371258D01*
X168612114Y-122374908D01*
X168608250Y-122379367D01*
X168608245Y-122379372D01*
X168478347Y-122529282D01*
X168474481Y-122533744D01*
X168471530Y-122538854D01*
X168471528Y-122538858D01*
X168372352Y-122710635D01*
X168372349Y-122710640D01*
X168369396Y-122715756D01*
X168367465Y-122721335D01*
X168367461Y-122721344D01*
X168302587Y-122908785D01*
X168302584Y-122908794D01*
X168300656Y-122914367D01*
X168299816Y-122920203D01*
X168299815Y-122920211D01*
X168271585Y-123116558D01*
X168271584Y-123116564D01*
X168270746Y-123122398D01*
X135211619Y-123122398D01*
X135224344Y-123085633D01*
X135254254Y-122877602D01*
X135244254Y-122667670D01*
X135194704Y-122463424D01*
X135107396Y-122272247D01*
X134985486Y-122101048D01*
X134833378Y-121956014D01*
X134828412Y-121952822D01*
X134828405Y-121952817D01*
X134792057Y-121929458D01*
X134751709Y-121887143D01*
X134735236Y-121831043D01*
X134746302Y-121773632D01*
X134782442Y-121727674D01*
X134912886Y-121625092D01*
X135050519Y-121466256D01*
X135155604Y-121284244D01*
X135224344Y-121085633D01*
X135254254Y-120877602D01*
X135244254Y-120667670D01*
X135194704Y-120463424D01*
X135107396Y-120272247D01*
X134985486Y-120101048D01*
X134901804Y-120021258D01*
X134837651Y-119960088D01*
X134837649Y-119960086D01*
X134833378Y-119956014D01*
X134828412Y-119952822D01*
X134828405Y-119952817D01*
X134792057Y-119929458D01*
X134751709Y-119887143D01*
X134735236Y-119831043D01*
X134746302Y-119773632D01*
X134782442Y-119727674D01*
X134912886Y-119625092D01*
X135050519Y-119466256D01*
X135155604Y-119284244D01*
X135224344Y-119085633D01*
X135254254Y-118877602D01*
X135244254Y-118667670D01*
X135194704Y-118463424D01*
X135107396Y-118272247D01*
X134985486Y-118101048D01*
X134981212Y-118096973D01*
X134981208Y-118096968D01*
X134882917Y-118003249D01*
X134852106Y-117956301D01*
X134845163Y-117900576D01*
X134863512Y-117847503D01*
X134903389Y-117807968D01*
X134968656Y-117767712D01*
X135092712Y-117643656D01*
X135184814Y-117494334D01*
X135239999Y-117327797D01*
X135250500Y-117225009D01*
X135250499Y-116424992D01*
X135239999Y-116322203D01*
X135184814Y-116155666D01*
X135092712Y-116006344D01*
X134968656Y-115882288D01*
X134962515Y-115878500D01*
X134962511Y-115878497D01*
X134825480Y-115793977D01*
X134819334Y-115790186D01*
X134652797Y-115735001D01*
X134646064Y-115734313D01*
X134646059Y-115734312D01*
X134553140Y-115724819D01*
X134553123Y-115724818D01*
X134550009Y-115724500D01*
X134546860Y-115724500D01*
X133203140Y-115724500D01*
X133203120Y-115724500D01*
X133199992Y-115724501D01*
X133196860Y-115724820D01*
X133196858Y-115724821D01*
X133103938Y-115734312D01*
X133103928Y-115734313D01*
X133097203Y-115735001D01*
X133090781Y-115737128D01*
X133090776Y-115737130D01*
X132937521Y-115787914D01*
X132937517Y-115787915D01*
X132930666Y-115790186D01*
X132924522Y-115793975D01*
X132924519Y-115793977D01*
X132787488Y-115878497D01*
X132787480Y-115878503D01*
X132781344Y-115882288D01*
X132776242Y-115887389D01*
X132776238Y-115887393D01*
X132662393Y-116001238D01*
X132662389Y-116001242D01*
X132657288Y-116006344D01*
X132653503Y-116012480D01*
X132653497Y-116012488D01*
X132568977Y-116149519D01*
X132565186Y-116155666D01*
X132562915Y-116162517D01*
X132562914Y-116162521D01*
X132512131Y-116315774D01*
X132510001Y-116322203D01*
X132509313Y-116328933D01*
X132509312Y-116328940D01*
X132499819Y-116421859D01*
X132499818Y-116421877D01*
X132499500Y-116424991D01*
X132499500Y-116428138D01*
X132499500Y-116428139D01*
X132499500Y-117221858D01*
X132499500Y-117221877D01*
X132499501Y-117225008D01*
X132499820Y-117228140D01*
X132499821Y-117228141D01*
X132509312Y-117321061D01*
X132509313Y-117321069D01*
X132510001Y-117327797D01*
X132512129Y-117334219D01*
X132512130Y-117334223D01*
X132558239Y-117473369D01*
X132565186Y-117494334D01*
X132568977Y-117500480D01*
X132653497Y-117637511D01*
X132653500Y-117637515D01*
X132657288Y-117643656D01*
X132781344Y-117767712D01*
X132844739Y-117806814D01*
X132886158Y-117848867D01*
X132903443Y-117905305D01*
X132892676Y-117963339D01*
X132856298Y-118009821D01*
X132841758Y-118021255D01*
X132841752Y-118021260D01*
X132837114Y-118024908D01*
X132833250Y-118029367D01*
X132833245Y-118029372D01*
X132703347Y-118179282D01*
X132699481Y-118183744D01*
X132696530Y-118188854D01*
X132696528Y-118188858D01*
X132597352Y-118360635D01*
X132597349Y-118360640D01*
X132594396Y-118365756D01*
X132592465Y-118371335D01*
X132592461Y-118371344D01*
X132527587Y-118558785D01*
X132527584Y-118558794D01*
X132525656Y-118564367D01*
X132524816Y-118570203D01*
X132524815Y-118570211D01*
X132496585Y-118766558D01*
X132496584Y-118766564D01*
X132495746Y-118772398D01*
X132496026Y-118778282D01*
X132496026Y-118778289D01*
X132502787Y-118920211D01*
X132505746Y-118982330D01*
X132507135Y-118988058D01*
X132507137Y-118988067D01*
X132553904Y-119180839D01*
X132555296Y-119186576D01*
X132642604Y-119377753D01*
X132646031Y-119382566D01*
X132646032Y-119382567D01*
X132705626Y-119466256D01*
X132764514Y-119548952D01*
X132916622Y-119693986D01*
X132957944Y-119720542D01*
X132998290Y-119762855D01*
X133014763Y-119818955D01*
X133003698Y-119876366D01*
X132967556Y-119922326D01*
X132851787Y-120013369D01*
X132837114Y-120024908D01*
X132833250Y-120029367D01*
X132833245Y-120029372D01*
X132707296Y-120174725D01*
X132699481Y-120183744D01*
X132696530Y-120188854D01*
X132696528Y-120188858D01*
X132597352Y-120360635D01*
X132597349Y-120360640D01*
X132594396Y-120365756D01*
X132592465Y-120371335D01*
X132592461Y-120371344D01*
X132527587Y-120558785D01*
X132527584Y-120558794D01*
X132525656Y-120564367D01*
X132524816Y-120570203D01*
X132524815Y-120570211D01*
X132496585Y-120766558D01*
X132496584Y-120766564D01*
X132495746Y-120772398D01*
X132496026Y-120778282D01*
X132496026Y-120778289D01*
X132502787Y-120920211D01*
X132505746Y-120982330D01*
X132507135Y-120988058D01*
X132507137Y-120988067D01*
X132553904Y-121180839D01*
X132555296Y-121186576D01*
X132642604Y-121377753D01*
X132646031Y-121382566D01*
X132646032Y-121382567D01*
X132743936Y-121520055D01*
X132764514Y-121548952D01*
X132916622Y-121693986D01*
X132957944Y-121720542D01*
X132998290Y-121762855D01*
X133014763Y-121818955D01*
X133003698Y-121876366D01*
X132967556Y-121922326D01*
X132841755Y-122021258D01*
X132837114Y-122024908D01*
X132833250Y-122029367D01*
X132833245Y-122029372D01*
X132707296Y-122174725D01*
X132699481Y-122183744D01*
X132696530Y-122188854D01*
X132696528Y-122188858D01*
X132597352Y-122360635D01*
X132597349Y-122360640D01*
X132594396Y-122365756D01*
X132592465Y-122371335D01*
X132592461Y-122371344D01*
X132527587Y-122558785D01*
X132527584Y-122558794D01*
X132525656Y-122564367D01*
X132524816Y-122570203D01*
X132524815Y-122570211D01*
X132496585Y-122766558D01*
X132496584Y-122766564D01*
X132495746Y-122772398D01*
X128519389Y-122772398D01*
X128422694Y-122697136D01*
X128422691Y-122697134D01*
X128418649Y-122693988D01*
X128414144Y-122691550D01*
X128414138Y-122691546D01*
X128390836Y-122678936D01*
X128343330Y-122633355D01*
X128325853Y-122569881D01*
X128343330Y-122506407D01*
X128390836Y-122460826D01*
X128404763Y-122453288D01*
X128418649Y-122445774D01*
X128597046Y-122306921D01*
X128750156Y-122140600D01*
X128873802Y-121951346D01*
X128964611Y-121744322D01*
X129020107Y-121525174D01*
X129038775Y-121299881D01*
X129020107Y-121074588D01*
X128964611Y-120855440D01*
X128873802Y-120648416D01*
X128750156Y-120459162D01*
X128746688Y-120455395D01*
X128746686Y-120455392D01*
X128600514Y-120296608D01*
X128600512Y-120296606D01*
X128597046Y-120292841D01*
X128463450Y-120188858D01*
X128422694Y-120157136D01*
X128422691Y-120157134D01*
X128418649Y-120153988D01*
X128414144Y-120151550D01*
X128414138Y-120151546D01*
X128390836Y-120138936D01*
X128343330Y-120093355D01*
X128325853Y-120029881D01*
X128343330Y-119966407D01*
X128390836Y-119920826D01*
X128414138Y-119908215D01*
X128418649Y-119905774D01*
X128597046Y-119766921D01*
X128750156Y-119600600D01*
X128873802Y-119411346D01*
X128964611Y-119204322D01*
X129020107Y-118985174D01*
X129038775Y-118759881D01*
X129020107Y-118534588D01*
X128964611Y-118315440D01*
X128873802Y-118108416D01*
X128750156Y-117919162D01*
X128746688Y-117915395D01*
X128746686Y-117915392D01*
X128600514Y-117756608D01*
X128600512Y-117756606D01*
X128597046Y-117752841D01*
X128463325Y-117648761D01*
X128422694Y-117617136D01*
X128422691Y-117617134D01*
X128418649Y-117613988D01*
X128414144Y-117611550D01*
X128414138Y-117611546D01*
X128390836Y-117598936D01*
X128343330Y-117553355D01*
X128325853Y-117489881D01*
X128343330Y-117426407D01*
X128390836Y-117380826D01*
X128414138Y-117368215D01*
X128418649Y-117365774D01*
X128597046Y-117226921D01*
X128750156Y-117060600D01*
X128873802Y-116871346D01*
X128964611Y-116664322D01*
X129020107Y-116445174D01*
X129038775Y-116219881D01*
X129020107Y-115994588D01*
X128964611Y-115775440D01*
X128873802Y-115568416D01*
X128750156Y-115379162D01*
X128746688Y-115375395D01*
X128746686Y-115375392D01*
X128600514Y-115216608D01*
X128600512Y-115216606D01*
X128597046Y-115212841D01*
X128564961Y-115187868D01*
X128422694Y-115077136D01*
X128422691Y-115077134D01*
X128418649Y-115073988D01*
X128414144Y-115071550D01*
X128414138Y-115071546D01*
X128390836Y-115058936D01*
X128343330Y-115013355D01*
X128325853Y-114949881D01*
X128343330Y-114886407D01*
X128390836Y-114840826D01*
X128414138Y-114828215D01*
X128418649Y-114825774D01*
X128597046Y-114686921D01*
X128750156Y-114520600D01*
X128873802Y-114331346D01*
X128964611Y-114124322D01*
X129020107Y-113905174D01*
X129038775Y-113679881D01*
X129020107Y-113454588D01*
X128964611Y-113235440D01*
X128873802Y-113028416D01*
X128771498Y-112871829D01*
X128752957Y-112843449D01*
X128752956Y-112843447D01*
X128750156Y-112839162D01*
X128746688Y-112835395D01*
X128746686Y-112835392D01*
X128600514Y-112676608D01*
X128600512Y-112676606D01*
X128597046Y-112672841D01*
X128488082Y-112588030D01*
X128422694Y-112537136D01*
X128422691Y-112537134D01*
X128418649Y-112533988D01*
X128348714Y-112496141D01*
X128224335Y-112428830D01*
X128224330Y-112428828D01*
X128219831Y-112426393D01*
X128214990Y-112424731D01*
X128214983Y-112424728D01*
X128010867Y-112354656D01*
X128010866Y-112354655D01*
X128006014Y-112352990D01*
X128000964Y-112352147D01*
X128000955Y-112352145D01*
X127788095Y-112316625D01*
X127788086Y-112316624D01*
X127783033Y-112315781D01*
X127556967Y-112315781D01*
X127551914Y-112316624D01*
X127551904Y-112316625D01*
X127339044Y-112352145D01*
X127339032Y-112352147D01*
X127333986Y-112352990D01*
X127329136Y-112354654D01*
X127329132Y-112354656D01*
X127125016Y-112424728D01*
X127125005Y-112424732D01*
X127120169Y-112426393D01*
X127115673Y-112428825D01*
X127115664Y-112428830D01*
X126925857Y-112531549D01*
X126925852Y-112531551D01*
X126921351Y-112533988D01*
X126917314Y-112537129D01*
X126917305Y-112537136D01*
X126746995Y-112669695D01*
X126746989Y-112669699D01*
X126742954Y-112672841D01*
X126739492Y-112676600D01*
X126739485Y-112676608D01*
X126593313Y-112835392D01*
X126593304Y-112835402D01*
X126589844Y-112839162D01*
X126587049Y-112843439D01*
X126587042Y-112843449D01*
X126471898Y-113019691D01*
X126466198Y-113028416D01*
X126464143Y-113033100D01*
X126464138Y-113033110D01*
X126407430Y-113162393D01*
X126375389Y-113235440D01*
X126374131Y-113240405D01*
X126374130Y-113240410D01*
X126321152Y-113449613D01*
X126321150Y-113449622D01*
X126319893Y-113454588D01*
X126319469Y-113459695D01*
X126319468Y-113459706D01*
X126301943Y-113671217D01*
X126301225Y-113679881D01*
X126301649Y-113684998D01*
X126319468Y-113900055D01*
X126319469Y-113900064D01*
X126319893Y-113905174D01*
X126321150Y-113910141D01*
X126321152Y-113910148D01*
X126338960Y-113980468D01*
X126375389Y-114124322D01*
X126377449Y-114129018D01*
X126464138Y-114326651D01*
X126464141Y-114326656D01*
X126466198Y-114331346D01*
X126528021Y-114425973D01*
X126587042Y-114516312D01*
X126587045Y-114516316D01*
X126589844Y-114520600D01*
X126593309Y-114524364D01*
X126593313Y-114524369D01*
X126671429Y-114609225D01*
X126742954Y-114686921D01*
X126921351Y-114825774D01*
X126925858Y-114828213D01*
X126925861Y-114828215D01*
X126949165Y-114840827D01*
X126996669Y-114886408D01*
X127014146Y-114949881D01*
X126996669Y-115013354D01*
X126949165Y-115058935D01*
X126925861Y-115071546D01*
X126925849Y-115071553D01*
X126921351Y-115073988D01*
X126917314Y-115077129D01*
X126917305Y-115077136D01*
X126746995Y-115209695D01*
X126746989Y-115209699D01*
X126742954Y-115212841D01*
X126739492Y-115216600D01*
X126739485Y-115216608D01*
X126593313Y-115375392D01*
X126593304Y-115375402D01*
X126589844Y-115379162D01*
X126587049Y-115383439D01*
X126587042Y-115383449D01*
X126469000Y-115564127D01*
X126466198Y-115568416D01*
X126464143Y-115573100D01*
X126464138Y-115573110D01*
X126377449Y-115770743D01*
X126375389Y-115775440D01*
X126374131Y-115780405D01*
X126374130Y-115780410D01*
X126321152Y-115989613D01*
X126321150Y-115989622D01*
X126319893Y-115994588D01*
X126319469Y-115999695D01*
X126319468Y-115999706D01*
X126307055Y-116149519D01*
X126301225Y-116219881D01*
X126301649Y-116224998D01*
X126319468Y-116440055D01*
X126319469Y-116440064D01*
X126319893Y-116445174D01*
X126321150Y-116450141D01*
X126321152Y-116450148D01*
X126374130Y-116659351D01*
X126375389Y-116664322D01*
X126377449Y-116669018D01*
X126464138Y-116866651D01*
X126464141Y-116866656D01*
X126466198Y-116871346D01*
X126528021Y-116965973D01*
X126587042Y-117056312D01*
X126587045Y-117056316D01*
X126589844Y-117060600D01*
X126593309Y-117064364D01*
X126593313Y-117064369D01*
X126738293Y-117221858D01*
X126742954Y-117226921D01*
X126746995Y-117230066D01*
X126880814Y-117334223D01*
X126921351Y-117365774D01*
X126925858Y-117368213D01*
X126925861Y-117368215D01*
X126949165Y-117380827D01*
X126996669Y-117426408D01*
X127014146Y-117489881D01*
X126996669Y-117553354D01*
X126949165Y-117598935D01*
X126925861Y-117611546D01*
X126925849Y-117611553D01*
X126921351Y-117613988D01*
X126917314Y-117617129D01*
X126917305Y-117617136D01*
X126746995Y-117749695D01*
X126746989Y-117749699D01*
X126742954Y-117752841D01*
X126739492Y-117756600D01*
X126739485Y-117756608D01*
X126593313Y-117915392D01*
X126593304Y-117915402D01*
X126589844Y-117919162D01*
X126587049Y-117923439D01*
X126587042Y-117923449D01*
X126478942Y-118088910D01*
X126466198Y-118108416D01*
X126464143Y-118113100D01*
X126464138Y-118113110D01*
X126377449Y-118310743D01*
X126375389Y-118315440D01*
X126374131Y-118320405D01*
X126374130Y-118320410D01*
X126321152Y-118529613D01*
X126321150Y-118529622D01*
X126319893Y-118534588D01*
X126319469Y-118539695D01*
X126319468Y-118539706D01*
X126304881Y-118715756D01*
X126301225Y-118759881D01*
X126301649Y-118764998D01*
X126319468Y-118980055D01*
X126319469Y-118980064D01*
X126319893Y-118985174D01*
X126321150Y-118990141D01*
X126321152Y-118990148D01*
X126369442Y-119180839D01*
X126375389Y-119204322D01*
X126377449Y-119209018D01*
X126464138Y-119406651D01*
X126464141Y-119406656D01*
X126466198Y-119411346D01*
X126478247Y-119429788D01*
X126587042Y-119596312D01*
X126587045Y-119596316D01*
X126589844Y-119600600D01*
X126593309Y-119604364D01*
X126593313Y-119604369D01*
X126731990Y-119755011D01*
X126742954Y-119766921D01*
X126806339Y-119816256D01*
X126907494Y-119894989D01*
X126921351Y-119905774D01*
X126925858Y-119908213D01*
X126925861Y-119908215D01*
X126949165Y-119920827D01*
X126996669Y-119966408D01*
X127014146Y-120029881D01*
X126996669Y-120093354D01*
X126949165Y-120138935D01*
X126925861Y-120151546D01*
X126925849Y-120151553D01*
X126921351Y-120153988D01*
X126917314Y-120157129D01*
X126917305Y-120157136D01*
X126746995Y-120289695D01*
X126746989Y-120289699D01*
X126742954Y-120292841D01*
X126739492Y-120296600D01*
X126739485Y-120296608D01*
X126593313Y-120455392D01*
X126593304Y-120455402D01*
X126589844Y-120459162D01*
X126587049Y-120463439D01*
X126587042Y-120463449D01*
X126486441Y-120617432D01*
X126466198Y-120648416D01*
X126464143Y-120653100D01*
X126464138Y-120653110D01*
X126377449Y-120850743D01*
X126375389Y-120855440D01*
X126374131Y-120860405D01*
X126374130Y-120860410D01*
X126321152Y-121069613D01*
X126321150Y-121069622D01*
X126319893Y-121074588D01*
X126319469Y-121079695D01*
X126319468Y-121079706D01*
X126307702Y-121221710D01*
X126301225Y-121299881D01*
X126301649Y-121304998D01*
X126319468Y-121520055D01*
X126319469Y-121520064D01*
X126319893Y-121525174D01*
X126321150Y-121530141D01*
X126321152Y-121530148D01*
X126369832Y-121722378D01*
X126375389Y-121744322D01*
X126377449Y-121749018D01*
X126464138Y-121946651D01*
X126464141Y-121946656D01*
X126466198Y-121951346D01*
X126526723Y-122043986D01*
X126587042Y-122136312D01*
X126587045Y-122136316D01*
X126589844Y-122140600D01*
X126593309Y-122144364D01*
X126593313Y-122144369D01*
X126711034Y-122272247D01*
X126742954Y-122306921D01*
X126921351Y-122445774D01*
X126925858Y-122448213D01*
X126925861Y-122448215D01*
X126949165Y-122460827D01*
X126996669Y-122506408D01*
X127014146Y-122569881D01*
X126996669Y-122633354D01*
X126949165Y-122678935D01*
X126925861Y-122691546D01*
X126925849Y-122691553D01*
X126921351Y-122693988D01*
X126917314Y-122697129D01*
X126917305Y-122697136D01*
X126746995Y-122829695D01*
X126746989Y-122829699D01*
X126742954Y-122832841D01*
X126739492Y-122836600D01*
X126739485Y-122836608D01*
X126593313Y-122995392D01*
X126593304Y-122995402D01*
X126589844Y-122999162D01*
X126587049Y-123003439D01*
X126587042Y-123003449D01*
X126505481Y-123128289D01*
X126466198Y-123188416D01*
X126464143Y-123193100D01*
X126464138Y-123193110D01*
X126377449Y-123390743D01*
X126375389Y-123395440D01*
X126374131Y-123400405D01*
X126374130Y-123400410D01*
X126321152Y-123609613D01*
X126321150Y-123609622D01*
X126319893Y-123614588D01*
X126319469Y-123619695D01*
X126319468Y-123619706D01*
X126303899Y-123807613D01*
X126301225Y-123839881D01*
X126301649Y-123844998D01*
X126319468Y-124060055D01*
X126319469Y-124060064D01*
X126319893Y-124065174D01*
X126321150Y-124070141D01*
X126321152Y-124070148D01*
X126369947Y-124262832D01*
X126375389Y-124284322D01*
X126377449Y-124289018D01*
X126464138Y-124486651D01*
X126464141Y-124486656D01*
X126466198Y-124491346D01*
X126521381Y-124575810D01*
X126587042Y-124676312D01*
X126587045Y-124676316D01*
X126589844Y-124680600D01*
X126593309Y-124684364D01*
X126593313Y-124684369D01*
X126696583Y-124796549D01*
X126742954Y-124846921D01*
X126921351Y-124985774D01*
X126925858Y-124988213D01*
X126925861Y-124988215D01*
X126949165Y-125000827D01*
X126996669Y-125046408D01*
X127014146Y-125109881D01*
X126996669Y-125173354D01*
X126949165Y-125218935D01*
X126925861Y-125231546D01*
X126925849Y-125231553D01*
X126921351Y-125233988D01*
X126917314Y-125237129D01*
X126917305Y-125237136D01*
X126746995Y-125369695D01*
X126746989Y-125369699D01*
X126742954Y-125372841D01*
X126739492Y-125376600D01*
X126739485Y-125376608D01*
X126593313Y-125535392D01*
X126593304Y-125535402D01*
X126589844Y-125539162D01*
X126587049Y-125543439D01*
X126587042Y-125543449D01*
X126469000Y-125724127D01*
X126466198Y-125728416D01*
X126464143Y-125733100D01*
X126464138Y-125733110D01*
X126401860Y-125875092D01*
X126375389Y-125935440D01*
X126374131Y-125940405D01*
X126374130Y-125940410D01*
X126321152Y-126149613D01*
X126321150Y-126149622D01*
X126319893Y-126154588D01*
X126319469Y-126159695D01*
X126319468Y-126159706D01*
X126301655Y-126374684D01*
X126301225Y-126379881D01*
X125075500Y-126379881D01*
X125075500Y-111807398D01*
X132495746Y-111807398D01*
X132496026Y-111813282D01*
X132496026Y-111813289D01*
X132503792Y-111976312D01*
X132505746Y-112017330D01*
X132507135Y-112023058D01*
X132507137Y-112023067D01*
X132538563Y-112152602D01*
X132555296Y-112221576D01*
X132557749Y-112226947D01*
X132633751Y-112393369D01*
X132642604Y-112412753D01*
X132646031Y-112417566D01*
X132646032Y-112417567D01*
X132746919Y-112559244D01*
X132764514Y-112583952D01*
X132768791Y-112588030D01*
X132857738Y-112672841D01*
X132916622Y-112728986D01*
X133093428Y-112842613D01*
X133098911Y-112844808D01*
X133098913Y-112844809D01*
X133274675Y-112915173D01*
X133288543Y-112920725D01*
X133494915Y-112960500D01*
X134199471Y-112960500D01*
X134202425Y-112960500D01*
X134359218Y-112945528D01*
X134560875Y-112886316D01*
X134747682Y-112790011D01*
X134893929Y-112675000D01*
X137824532Y-112675000D01*
X137825004Y-112680395D01*
X137843019Y-112886316D01*
X137844365Y-112901692D01*
X137845762Y-112906907D01*
X137845764Y-112906916D01*
X137901858Y-113116263D01*
X137901861Y-113116271D01*
X137903261Y-113121496D01*
X137999432Y-113327734D01*
X138129953Y-113514139D01*
X138290861Y-113675047D01*
X138477266Y-113805568D01*
X138683504Y-113901739D01*
X138688734Y-113903140D01*
X138688736Y-113903141D01*
X138714887Y-113910148D01*
X138903308Y-113960635D01*
X139130000Y-113980468D01*
X139356692Y-113960635D01*
X139576496Y-113901739D01*
X139782734Y-113805568D01*
X139969139Y-113675047D01*
X140130047Y-113514139D01*
X140260568Y-113327734D01*
X140356739Y-113121496D01*
X140415635Y-112901692D01*
X140435468Y-112675000D01*
X145444532Y-112675000D01*
X145445004Y-112680395D01*
X145463019Y-112886316D01*
X145464365Y-112901692D01*
X145465762Y-112906907D01*
X145465764Y-112906916D01*
X145521858Y-113116263D01*
X145521861Y-113116271D01*
X145523261Y-113121496D01*
X145619432Y-113327734D01*
X145749953Y-113514139D01*
X145910861Y-113675047D01*
X146097266Y-113805568D01*
X146303504Y-113901739D01*
X146308734Y-113903140D01*
X146308736Y-113903141D01*
X146334887Y-113910148D01*
X146523308Y-113960635D01*
X146750000Y-113980468D01*
X146976692Y-113960635D01*
X147196496Y-113901739D01*
X147402734Y-113805568D01*
X147589139Y-113675047D01*
X147750047Y-113514139D01*
X147880568Y-113327734D01*
X147976739Y-113121496D01*
X148035635Y-112901692D01*
X148055468Y-112675000D01*
X148035635Y-112448308D01*
X148008331Y-112346407D01*
X147978141Y-112233736D01*
X147978140Y-112233734D01*
X147976739Y-112228504D01*
X147892287Y-112047398D01*
X168270746Y-112047398D01*
X168271026Y-112053282D01*
X168271026Y-112053289D01*
X168279043Y-112221576D01*
X168280746Y-112257330D01*
X168282135Y-112263058D01*
X168282137Y-112263067D01*
X168327077Y-112448308D01*
X168330296Y-112461576D01*
X168417604Y-112652753D01*
X168421031Y-112657566D01*
X168421032Y-112657567D01*
X168480626Y-112741256D01*
X168539514Y-112823952D01*
X168543786Y-112828025D01*
X168543791Y-112828031D01*
X168642082Y-112921750D01*
X168672893Y-112968697D01*
X168679836Y-113024421D01*
X168661487Y-113077494D01*
X168621610Y-113117031D01*
X168562487Y-113153498D01*
X168562481Y-113153502D01*
X168556344Y-113157288D01*
X168551242Y-113162389D01*
X168551238Y-113162393D01*
X168437393Y-113276238D01*
X168437389Y-113276242D01*
X168432288Y-113281344D01*
X168428503Y-113287480D01*
X168428497Y-113287488D01*
X168343977Y-113424519D01*
X168340186Y-113430666D01*
X168337915Y-113437517D01*
X168337914Y-113437521D01*
X168311257Y-113517968D01*
X168285001Y-113597203D01*
X168284313Y-113603933D01*
X168284312Y-113603940D01*
X168274819Y-113696859D01*
X168274818Y-113696877D01*
X168274500Y-113699991D01*
X168274500Y-113703138D01*
X168274500Y-113703139D01*
X168274500Y-114496858D01*
X168274500Y-114496877D01*
X168274501Y-114500008D01*
X168274820Y-114503140D01*
X168274821Y-114503141D01*
X168284312Y-114596061D01*
X168284313Y-114596069D01*
X168285001Y-114602797D01*
X168340186Y-114769334D01*
X168343977Y-114775480D01*
X168428497Y-114912511D01*
X168428500Y-114912515D01*
X168432288Y-114918656D01*
X168556344Y-115042712D01*
X168562485Y-115046500D01*
X168562488Y-115046502D01*
X168619558Y-115081702D01*
X168705666Y-115134814D01*
X168872203Y-115189999D01*
X168974991Y-115200500D01*
X170325008Y-115200499D01*
X170427797Y-115189999D01*
X170594334Y-115134814D01*
X170743656Y-115042712D01*
X170867712Y-114918656D01*
X170959814Y-114769334D01*
X171014999Y-114602797D01*
X171025500Y-114500009D01*
X171025499Y-113699992D01*
X171014999Y-113597203D01*
X170959814Y-113430666D01*
X170899063Y-113332173D01*
X170871502Y-113287488D01*
X170871500Y-113287485D01*
X170867712Y-113281344D01*
X170743656Y-113157288D01*
X170680258Y-113118184D01*
X170638840Y-113076130D01*
X170621556Y-113019691D01*
X170632326Y-112961655D01*
X170668703Y-112915177D01*
X170687886Y-112900092D01*
X170825519Y-112741256D01*
X170930604Y-112559244D01*
X170999344Y-112360633D01*
X171029254Y-112152602D01*
X171019254Y-111942670D01*
X170969704Y-111738424D01*
X170882396Y-111547247D01*
X170760486Y-111376048D01*
X170685314Y-111304372D01*
X170612651Y-111235088D01*
X170612649Y-111235086D01*
X170608378Y-111231014D01*
X170603412Y-111227822D01*
X170603405Y-111227817D01*
X170567057Y-111204458D01*
X170526709Y-111162143D01*
X170510236Y-111106043D01*
X170521302Y-111048632D01*
X170557442Y-111002674D01*
X170687886Y-110900092D01*
X170825519Y-110741256D01*
X170930604Y-110559244D01*
X170999344Y-110360633D01*
X171029254Y-110152602D01*
X171019254Y-109942670D01*
X170969704Y-109738424D01*
X170882396Y-109547247D01*
X170760486Y-109376048D01*
X170685314Y-109304372D01*
X170612651Y-109235088D01*
X170612649Y-109235086D01*
X170608378Y-109231014D01*
X170603412Y-109227822D01*
X170603405Y-109227817D01*
X170567057Y-109204458D01*
X170526709Y-109162143D01*
X170510236Y-109106043D01*
X170521302Y-109048632D01*
X170557442Y-109002674D01*
X170687886Y-108900092D01*
X170825519Y-108741256D01*
X170930604Y-108559244D01*
X170999344Y-108360633D01*
X171029254Y-108152602D01*
X171019254Y-107942670D01*
X170969704Y-107738424D01*
X170882396Y-107547247D01*
X170760486Y-107376048D01*
X170693965Y-107312621D01*
X170612651Y-107235088D01*
X170612649Y-107235086D01*
X170608378Y-107231014D01*
X170472351Y-107143594D01*
X170436544Y-107120582D01*
X170436541Y-107120580D01*
X170431572Y-107117387D01*
X170426092Y-107115193D01*
X170426086Y-107115190D01*
X170241939Y-107041469D01*
X170241932Y-107041467D01*
X170236457Y-107039275D01*
X170230662Y-107038158D01*
X170230655Y-107038156D01*
X170035882Y-107000617D01*
X170035879Y-107000616D01*
X170030085Y-106999500D01*
X169322575Y-106999500D01*
X169319646Y-106999779D01*
X169319639Y-106999780D01*
X169171662Y-107013910D01*
X169171656Y-107013911D01*
X169165782Y-107014472D01*
X169160112Y-107016136D01*
X169160111Y-107016137D01*
X168969787Y-107072021D01*
X168969782Y-107072022D01*
X168964125Y-107073684D01*
X168958884Y-107076385D01*
X168958881Y-107076387D01*
X168782568Y-107167282D01*
X168782564Y-107167284D01*
X168777318Y-107169989D01*
X168772676Y-107173638D01*
X168772672Y-107173642D01*
X168616759Y-107296254D01*
X168616752Y-107296260D01*
X168612114Y-107299908D01*
X168608250Y-107304367D01*
X168608245Y-107304372D01*
X168478602Y-107453988D01*
X168474481Y-107458744D01*
X168471530Y-107463854D01*
X168471528Y-107463858D01*
X168372352Y-107635635D01*
X168372349Y-107635640D01*
X168369396Y-107640756D01*
X168367465Y-107646335D01*
X168367461Y-107646344D01*
X168302587Y-107833785D01*
X168302584Y-107833794D01*
X168300656Y-107839367D01*
X168299816Y-107845203D01*
X168299815Y-107845211D01*
X168271585Y-108041558D01*
X168271584Y-108041564D01*
X168270746Y-108047398D01*
X168271026Y-108053282D01*
X168271026Y-108053289D01*
X168279043Y-108221576D01*
X168280746Y-108257330D01*
X168282135Y-108263058D01*
X168282137Y-108263067D01*
X168328904Y-108455839D01*
X168330296Y-108461576D01*
X168417604Y-108652753D01*
X168421031Y-108657566D01*
X168421032Y-108657567D01*
X168495877Y-108762673D01*
X168539514Y-108823952D01*
X168543791Y-108828030D01*
X168631191Y-108911366D01*
X168691622Y-108968986D01*
X168732944Y-108995542D01*
X168773290Y-109037855D01*
X168789763Y-109093955D01*
X168778698Y-109151366D01*
X168742556Y-109197326D01*
X168679835Y-109246651D01*
X168612114Y-109299908D01*
X168608250Y-109304367D01*
X168608245Y-109304372D01*
X168490203Y-109440600D01*
X168474481Y-109458744D01*
X168471530Y-109463854D01*
X168471528Y-109463858D01*
X168372352Y-109635635D01*
X168372349Y-109635640D01*
X168369396Y-109640756D01*
X168367465Y-109646335D01*
X168367461Y-109646344D01*
X168302587Y-109833785D01*
X168302584Y-109833794D01*
X168300656Y-109839367D01*
X168299816Y-109845203D01*
X168299815Y-109845211D01*
X168271585Y-110041558D01*
X168271584Y-110041564D01*
X168270746Y-110047398D01*
X168271026Y-110053282D01*
X168271026Y-110053289D01*
X168279043Y-110221576D01*
X168280746Y-110257330D01*
X168282135Y-110263058D01*
X168282137Y-110263067D01*
X168319619Y-110417567D01*
X168330296Y-110461576D01*
X168417604Y-110652753D01*
X168421031Y-110657566D01*
X168421032Y-110657567D01*
X168495877Y-110762673D01*
X168539514Y-110823952D01*
X168543791Y-110828030D01*
X168631191Y-110911366D01*
X168691622Y-110968986D01*
X168732944Y-110995542D01*
X168773290Y-111037855D01*
X168789763Y-111093955D01*
X168778698Y-111151366D01*
X168742556Y-111197326D01*
X168621384Y-111292618D01*
X168612114Y-111299908D01*
X168608250Y-111304367D01*
X168608245Y-111304372D01*
X168478347Y-111454282D01*
X168474481Y-111458744D01*
X168471530Y-111463854D01*
X168471528Y-111463858D01*
X168372352Y-111635635D01*
X168372349Y-111635640D01*
X168369396Y-111640756D01*
X168367465Y-111646335D01*
X168367461Y-111646344D01*
X168302587Y-111833785D01*
X168302584Y-111833794D01*
X168300656Y-111839367D01*
X168299816Y-111845203D01*
X168299815Y-111845211D01*
X168271585Y-112041558D01*
X168271584Y-112041564D01*
X168270746Y-112047398D01*
X147892287Y-112047398D01*
X147880568Y-112022266D01*
X147750047Y-111835861D01*
X147589139Y-111674953D01*
X147402734Y-111544432D01*
X147344724Y-111517381D01*
X147292549Y-111471625D01*
X147273130Y-111405000D01*
X147292549Y-111338375D01*
X147344725Y-111292618D01*
X147402734Y-111265568D01*
X147589139Y-111135047D01*
X147750047Y-110974139D01*
X147880568Y-110787734D01*
X147976739Y-110581496D01*
X148035635Y-110361692D01*
X148055468Y-110135000D01*
X148035635Y-109908308D01*
X147996118Y-109760826D01*
X147978141Y-109693736D01*
X147978140Y-109693734D01*
X147976739Y-109688504D01*
X147880568Y-109482266D01*
X147750047Y-109295861D01*
X147589139Y-109134953D01*
X147452604Y-109039351D01*
X147407173Y-109007540D01*
X147407171Y-109007539D01*
X147402734Y-109004432D01*
X147344724Y-108977381D01*
X147292549Y-108931625D01*
X147273130Y-108865000D01*
X147292549Y-108798375D01*
X147344725Y-108752618D01*
X147402734Y-108725568D01*
X147589139Y-108595047D01*
X147750047Y-108434139D01*
X147880568Y-108247734D01*
X147976739Y-108041496D01*
X148035635Y-107821692D01*
X148055468Y-107595000D01*
X148035635Y-107368308D01*
X148019274Y-107307247D01*
X147978141Y-107153736D01*
X147978140Y-107153734D01*
X147976739Y-107148504D01*
X147880568Y-106942266D01*
X147750047Y-106755861D01*
X147669186Y-106675000D01*
X149094435Y-106675000D01*
X149114632Y-106854255D01*
X149116928Y-106860819D01*
X149116930Y-106860824D01*
X149170694Y-107014472D01*
X149174211Y-107024522D01*
X149177912Y-107030412D01*
X149255401Y-107153736D01*
X149270184Y-107177262D01*
X149397738Y-107304816D01*
X149550478Y-107400789D01*
X149720745Y-107460368D01*
X149900000Y-107480565D01*
X150079255Y-107460368D01*
X150249522Y-107400789D01*
X150402262Y-107304816D01*
X150529816Y-107177262D01*
X150625789Y-107024522D01*
X150685368Y-106854255D01*
X150705565Y-106675000D01*
X150685368Y-106495745D01*
X150625789Y-106325478D01*
X150529816Y-106172738D01*
X150402262Y-106045184D01*
X150249522Y-105949211D01*
X150242959Y-105946914D01*
X150242956Y-105946913D01*
X150085824Y-105891930D01*
X150085819Y-105891928D01*
X150079255Y-105889632D01*
X150072335Y-105888852D01*
X150072334Y-105888852D01*
X149906923Y-105870215D01*
X149900000Y-105869435D01*
X149893077Y-105870215D01*
X149727665Y-105888852D01*
X149727662Y-105888852D01*
X149720745Y-105889632D01*
X149714182Y-105891928D01*
X149714175Y-105891930D01*
X149557043Y-105946913D01*
X149557036Y-105946915D01*
X149550478Y-105949211D01*
X149544590Y-105952910D01*
X149544587Y-105952912D01*
X149403638Y-106041476D01*
X149403633Y-106041479D01*
X149397738Y-106045184D01*
X149392813Y-106050108D01*
X149392809Y-106050112D01*
X149275112Y-106167809D01*
X149275108Y-106167813D01*
X149270184Y-106172738D01*
X149266479Y-106178633D01*
X149266476Y-106178638D01*
X149177912Y-106319587D01*
X149177910Y-106319590D01*
X149174211Y-106325478D01*
X149171915Y-106332036D01*
X149171913Y-106332043D01*
X149116930Y-106489175D01*
X149116928Y-106489182D01*
X149114632Y-106495745D01*
X149113852Y-106502662D01*
X149113852Y-106502665D01*
X149097473Y-106648037D01*
X149094435Y-106675000D01*
X147669186Y-106675000D01*
X147589139Y-106594953D01*
X147402734Y-106464432D01*
X147301720Y-106417328D01*
X147201405Y-106370550D01*
X147201403Y-106370549D01*
X147196496Y-106368261D01*
X147191272Y-106366861D01*
X147191266Y-106366859D01*
X147000734Y-106315807D01*
X146945722Y-106284285D01*
X146913483Y-106229690D01*
X146912446Y-106166296D01*
X146942882Y-106110676D01*
X146996833Y-106077371D01*
X147147935Y-106031535D01*
X147159134Y-106026896D01*
X147330795Y-105935142D01*
X147340884Y-105928400D01*
X147491348Y-105804917D01*
X147499917Y-105796348D01*
X147623400Y-105645884D01*
X147630142Y-105635795D01*
X147721894Y-105464137D01*
X147726537Y-105452929D01*
X147729276Y-105443900D01*
X147729969Y-105432612D01*
X147718969Y-105430000D01*
X145781031Y-105430000D01*
X145770030Y-105432612D01*
X145770723Y-105443900D01*
X145773462Y-105452929D01*
X145778105Y-105464137D01*
X145869857Y-105635795D01*
X145876599Y-105645884D01*
X146000082Y-105796348D01*
X146008651Y-105804917D01*
X146159115Y-105928400D01*
X146169204Y-105935142D01*
X146340865Y-106026896D01*
X146352064Y-106031535D01*
X146503166Y-106077371D01*
X146557117Y-106110676D01*
X146587553Y-106166296D01*
X146586516Y-106229690D01*
X146554277Y-106284285D01*
X146499265Y-106315807D01*
X146308734Y-106366859D01*
X146308727Y-106366861D01*
X146303504Y-106368261D01*
X146298599Y-106370547D01*
X146298594Y-106370550D01*
X146102176Y-106462142D01*
X146102172Y-106462144D01*
X146097266Y-106464432D01*
X146092833Y-106467535D01*
X146092826Y-106467540D01*
X145915296Y-106591847D01*
X145915294Y-106591849D01*
X145910861Y-106594953D01*
X145907037Y-106598776D01*
X145907031Y-106598782D01*
X145753782Y-106752031D01*
X145753776Y-106752037D01*
X145749953Y-106755861D01*
X145746850Y-106760291D01*
X145746847Y-106760296D01*
X145622540Y-106937826D01*
X145622535Y-106937833D01*
X145619432Y-106942266D01*
X145617144Y-106947172D01*
X145617142Y-106947176D01*
X145525550Y-107143594D01*
X145525547Y-107143599D01*
X145523261Y-107148504D01*
X145521862Y-107153724D01*
X145521858Y-107153736D01*
X145465764Y-107363083D01*
X145465762Y-107363094D01*
X145464365Y-107368308D01*
X145463893Y-107373693D01*
X145463893Y-107373698D01*
X145445004Y-107589605D01*
X145444532Y-107595000D01*
X145445004Y-107600395D01*
X145463629Y-107813289D01*
X145464365Y-107821692D01*
X145465762Y-107826907D01*
X145465764Y-107826916D01*
X145521858Y-108036263D01*
X145521861Y-108036271D01*
X145523261Y-108041496D01*
X145619432Y-108247734D01*
X145749953Y-108434139D01*
X145910861Y-108595047D01*
X146097266Y-108725568D01*
X146102172Y-108727855D01*
X146102176Y-108727858D01*
X146155274Y-108752618D01*
X146207450Y-108798375D01*
X146226869Y-108865000D01*
X146207450Y-108931625D01*
X146155274Y-108977382D01*
X146102176Y-109002141D01*
X146102163Y-109002148D01*
X146097266Y-109004432D01*
X146092833Y-109007535D01*
X146092826Y-109007540D01*
X145915296Y-109131847D01*
X145915291Y-109131850D01*
X145910861Y-109134953D01*
X145907037Y-109138776D01*
X145907031Y-109138782D01*
X145753782Y-109292031D01*
X145753776Y-109292037D01*
X145749953Y-109295861D01*
X145746850Y-109300291D01*
X145746847Y-109300296D01*
X145622540Y-109477826D01*
X145622535Y-109477833D01*
X145619432Y-109482266D01*
X145617144Y-109487172D01*
X145617142Y-109487176D01*
X145525550Y-109683594D01*
X145525547Y-109683599D01*
X145523261Y-109688504D01*
X145521862Y-109693724D01*
X145521858Y-109693736D01*
X145465764Y-109903083D01*
X145465762Y-109903094D01*
X145464365Y-109908308D01*
X145463893Y-109913693D01*
X145463893Y-109913698D01*
X145455343Y-110011432D01*
X145444532Y-110135000D01*
X145445004Y-110140395D01*
X145451604Y-110215839D01*
X145464365Y-110361692D01*
X145465762Y-110366907D01*
X145465764Y-110366916D01*
X145521858Y-110576263D01*
X145521861Y-110576271D01*
X145523261Y-110581496D01*
X145619432Y-110787734D01*
X145749953Y-110974139D01*
X145910861Y-111135047D01*
X146097266Y-111265568D01*
X146102172Y-111267855D01*
X146102176Y-111267858D01*
X146155274Y-111292618D01*
X146207450Y-111338375D01*
X146226869Y-111405000D01*
X146207450Y-111471625D01*
X146155274Y-111517382D01*
X146102176Y-111542141D01*
X146102163Y-111542148D01*
X146097266Y-111544432D01*
X146092833Y-111547535D01*
X146092826Y-111547540D01*
X145915296Y-111671847D01*
X145915291Y-111671850D01*
X145910861Y-111674953D01*
X145907037Y-111678776D01*
X145907031Y-111678782D01*
X145753782Y-111832031D01*
X145753776Y-111832037D01*
X145749953Y-111835861D01*
X145746850Y-111840291D01*
X145746847Y-111840296D01*
X145622540Y-112017826D01*
X145622535Y-112017833D01*
X145619432Y-112022266D01*
X145617144Y-112027172D01*
X145617142Y-112027176D01*
X145525550Y-112223594D01*
X145525547Y-112223599D01*
X145523261Y-112228504D01*
X145521862Y-112233724D01*
X145521858Y-112233736D01*
X145465764Y-112443083D01*
X145465762Y-112443094D01*
X145464365Y-112448308D01*
X145463893Y-112453693D01*
X145463893Y-112453698D01*
X145455148Y-112553655D01*
X145444532Y-112675000D01*
X140435468Y-112675000D01*
X140415635Y-112448308D01*
X140388331Y-112346407D01*
X140358141Y-112233736D01*
X140358140Y-112233734D01*
X140356739Y-112228504D01*
X140260568Y-112022266D01*
X140130047Y-111835861D01*
X139969139Y-111674953D01*
X139782734Y-111544432D01*
X139724724Y-111517381D01*
X139672549Y-111471625D01*
X139653130Y-111405000D01*
X139672549Y-111338375D01*
X139724725Y-111292618D01*
X139782734Y-111265568D01*
X139969139Y-111135047D01*
X140130047Y-110974139D01*
X140260568Y-110787734D01*
X140356739Y-110581496D01*
X140415635Y-110361692D01*
X140435468Y-110135000D01*
X140415635Y-109908308D01*
X140376118Y-109760826D01*
X140358141Y-109693736D01*
X140358140Y-109693734D01*
X140356739Y-109688504D01*
X140260568Y-109482266D01*
X140130047Y-109295861D01*
X139969139Y-109134953D01*
X139832604Y-109039351D01*
X139787173Y-109007540D01*
X139787171Y-109007539D01*
X139782734Y-109004432D01*
X139724724Y-108977381D01*
X139672549Y-108931625D01*
X139653130Y-108865000D01*
X139672549Y-108798375D01*
X139724725Y-108752618D01*
X139782734Y-108725568D01*
X139969139Y-108595047D01*
X140130047Y-108434139D01*
X140260568Y-108247734D01*
X140356739Y-108041496D01*
X140415635Y-107821692D01*
X140435468Y-107595000D01*
X140415635Y-107368308D01*
X140399274Y-107307247D01*
X140358141Y-107153736D01*
X140358140Y-107153734D01*
X140356739Y-107148504D01*
X140260568Y-106942266D01*
X140130047Y-106755861D01*
X139969139Y-106594953D01*
X139944535Y-106577725D01*
X139905398Y-106532883D01*
X139891665Y-106474969D01*
X139906499Y-106417328D01*
X139946485Y-106373239D01*
X140002406Y-106352861D01*
X140037483Y-106349091D01*
X140172331Y-106298796D01*
X140287546Y-106212546D01*
X140373796Y-106097331D01*
X140424091Y-105962483D01*
X140430500Y-105902873D01*
X140430499Y-104677387D01*
X145770030Y-104677387D01*
X145781031Y-104680000D01*
X146358674Y-104680000D01*
X146371549Y-104676549D01*
X146375000Y-104663674D01*
X147125000Y-104663674D01*
X147128450Y-104676549D01*
X147141326Y-104680000D01*
X147718969Y-104680000D01*
X147729969Y-104677387D01*
X147729276Y-104666099D01*
X147726537Y-104657070D01*
X147721894Y-104645862D01*
X147630142Y-104474204D01*
X147623400Y-104464115D01*
X147499917Y-104313651D01*
X147491348Y-104305082D01*
X147340884Y-104181599D01*
X147330795Y-104174857D01*
X147159137Y-104083105D01*
X147147929Y-104078462D01*
X147138900Y-104075723D01*
X147127612Y-104075030D01*
X147125000Y-104086031D01*
X147125000Y-104663674D01*
X146375000Y-104663674D01*
X146375000Y-104086031D01*
X146372387Y-104075030D01*
X146361099Y-104075723D01*
X146352070Y-104078462D01*
X146340862Y-104083105D01*
X146169204Y-104174857D01*
X146159115Y-104181599D01*
X146008651Y-104305082D01*
X146000082Y-104313651D01*
X145876599Y-104464115D01*
X145869857Y-104474204D01*
X145778105Y-104645862D01*
X145773462Y-104657070D01*
X145770723Y-104666099D01*
X145770030Y-104677387D01*
X140430499Y-104677387D01*
X140430499Y-104207128D01*
X140424091Y-104147517D01*
X140373796Y-104012669D01*
X140287546Y-103897454D01*
X140270129Y-103884416D01*
X140179431Y-103816519D01*
X140179430Y-103816518D01*
X140172331Y-103811204D01*
X140037483Y-103760909D01*
X140029770Y-103760079D01*
X140029767Y-103760079D01*
X139981180Y-103754855D01*
X139981169Y-103754854D01*
X139977873Y-103754500D01*
X139974550Y-103754500D01*
X138285439Y-103754500D01*
X138285420Y-103754500D01*
X138282128Y-103754501D01*
X138278850Y-103754853D01*
X138278838Y-103754854D01*
X138230231Y-103760079D01*
X138230225Y-103760080D01*
X138222517Y-103760909D01*
X138215252Y-103763618D01*
X138215246Y-103763620D01*
X138095980Y-103808104D01*
X138095978Y-103808104D01*
X138087669Y-103811204D01*
X138080572Y-103816516D01*
X138080568Y-103816519D01*
X137979550Y-103892141D01*
X137979546Y-103892144D01*
X137972454Y-103897454D01*
X137967144Y-103904546D01*
X137967141Y-103904550D01*
X137891519Y-104005568D01*
X137891516Y-104005572D01*
X137886204Y-104012669D01*
X137883104Y-104020978D01*
X137883104Y-104020980D01*
X137838620Y-104140247D01*
X137838619Y-104140250D01*
X137835909Y-104147517D01*
X137835079Y-104155227D01*
X137835079Y-104155232D01*
X137829855Y-104203819D01*
X137829854Y-104203831D01*
X137829500Y-104207127D01*
X137829500Y-104210448D01*
X137829500Y-104210449D01*
X137829500Y-105899560D01*
X137829500Y-105899578D01*
X137829501Y-105902872D01*
X137829853Y-105906150D01*
X137829854Y-105906161D01*
X137835079Y-105954768D01*
X137835080Y-105954773D01*
X137835909Y-105962483D01*
X137838619Y-105969749D01*
X137838620Y-105969753D01*
X137859933Y-106026896D01*
X137886204Y-106097331D01*
X137972454Y-106212546D01*
X138087669Y-106298796D01*
X138222517Y-106349091D01*
X138257599Y-106352862D01*
X138313516Y-106373240D01*
X138353500Y-106417328D01*
X138368334Y-106474969D01*
X138354601Y-106532882D01*
X138315464Y-106577725D01*
X138290861Y-106594953D01*
X138287037Y-106598776D01*
X138287031Y-106598782D01*
X138133782Y-106752031D01*
X138133776Y-106752037D01*
X138129953Y-106755861D01*
X138126850Y-106760291D01*
X138126847Y-106760296D01*
X138002540Y-106937826D01*
X138002535Y-106937833D01*
X137999432Y-106942266D01*
X137997144Y-106947172D01*
X137997142Y-106947176D01*
X137905550Y-107143594D01*
X137905547Y-107143599D01*
X137903261Y-107148504D01*
X137901862Y-107153724D01*
X137901858Y-107153736D01*
X137845764Y-107363083D01*
X137845762Y-107363094D01*
X137844365Y-107368308D01*
X137843893Y-107373693D01*
X137843893Y-107373698D01*
X137825004Y-107589605D01*
X137824532Y-107595000D01*
X137825004Y-107600395D01*
X137843629Y-107813289D01*
X137844365Y-107821692D01*
X137845762Y-107826907D01*
X137845764Y-107826916D01*
X137901858Y-108036263D01*
X137901861Y-108036271D01*
X137903261Y-108041496D01*
X137999432Y-108247734D01*
X138129953Y-108434139D01*
X138290861Y-108595047D01*
X138477266Y-108725568D01*
X138482172Y-108727855D01*
X138482176Y-108727858D01*
X138535274Y-108752618D01*
X138587450Y-108798375D01*
X138606869Y-108865000D01*
X138587450Y-108931625D01*
X138535274Y-108977382D01*
X138482176Y-109002141D01*
X138482163Y-109002148D01*
X138477266Y-109004432D01*
X138472833Y-109007535D01*
X138472826Y-109007540D01*
X138295296Y-109131847D01*
X138295291Y-109131850D01*
X138290861Y-109134953D01*
X138287037Y-109138776D01*
X138287031Y-109138782D01*
X138133782Y-109292031D01*
X138133776Y-109292037D01*
X138129953Y-109295861D01*
X138126850Y-109300291D01*
X138126847Y-109300296D01*
X138002540Y-109477826D01*
X138002535Y-109477833D01*
X137999432Y-109482266D01*
X137997144Y-109487172D01*
X137997142Y-109487176D01*
X137905550Y-109683594D01*
X137905547Y-109683599D01*
X137903261Y-109688504D01*
X137901862Y-109693724D01*
X137901858Y-109693736D01*
X137845764Y-109903083D01*
X137845762Y-109903094D01*
X137844365Y-109908308D01*
X137843893Y-109913693D01*
X137843893Y-109913698D01*
X137835343Y-110011432D01*
X137824532Y-110135000D01*
X137825004Y-110140395D01*
X137831604Y-110215839D01*
X137844365Y-110361692D01*
X137845762Y-110366907D01*
X137845764Y-110366916D01*
X137901858Y-110576263D01*
X137901861Y-110576271D01*
X137903261Y-110581496D01*
X137999432Y-110787734D01*
X138129953Y-110974139D01*
X138290861Y-111135047D01*
X138477266Y-111265568D01*
X138482172Y-111267855D01*
X138482176Y-111267858D01*
X138535274Y-111292618D01*
X138587450Y-111338375D01*
X138606869Y-111405000D01*
X138587450Y-111471625D01*
X138535274Y-111517382D01*
X138482176Y-111542141D01*
X138482163Y-111542148D01*
X138477266Y-111544432D01*
X138472833Y-111547535D01*
X138472826Y-111547540D01*
X138295296Y-111671847D01*
X138295291Y-111671850D01*
X138290861Y-111674953D01*
X138287037Y-111678776D01*
X138287031Y-111678782D01*
X138133782Y-111832031D01*
X138133776Y-111832037D01*
X138129953Y-111835861D01*
X138126850Y-111840291D01*
X138126847Y-111840296D01*
X138002540Y-112017826D01*
X138002535Y-112017833D01*
X137999432Y-112022266D01*
X137997144Y-112027172D01*
X137997142Y-112027176D01*
X137905550Y-112223594D01*
X137905547Y-112223599D01*
X137903261Y-112228504D01*
X137901862Y-112233724D01*
X137901858Y-112233736D01*
X137845764Y-112443083D01*
X137845762Y-112443094D01*
X137844365Y-112448308D01*
X137843893Y-112453693D01*
X137843893Y-112453698D01*
X137835148Y-112553655D01*
X137824532Y-112675000D01*
X134893929Y-112675000D01*
X134912886Y-112660092D01*
X135050519Y-112501256D01*
X135155604Y-112319244D01*
X135224344Y-112120633D01*
X135254254Y-111912602D01*
X135244254Y-111702670D01*
X135194704Y-111498424D01*
X135107396Y-111307247D01*
X134985486Y-111136048D01*
X134833378Y-110991014D01*
X134828412Y-110987822D01*
X134828405Y-110987817D01*
X134792057Y-110964458D01*
X134751709Y-110922143D01*
X134735236Y-110866043D01*
X134746302Y-110808632D01*
X134782442Y-110762674D01*
X134912886Y-110660092D01*
X135050519Y-110501256D01*
X135155604Y-110319244D01*
X135224344Y-110120633D01*
X135254254Y-109912602D01*
X135244254Y-109702670D01*
X135194704Y-109498424D01*
X135107396Y-109307247D01*
X134985486Y-109136048D01*
X134850710Y-109007540D01*
X134837651Y-108995088D01*
X134837649Y-108995086D01*
X134833378Y-108991014D01*
X134828412Y-108987822D01*
X134828405Y-108987817D01*
X134792057Y-108964458D01*
X134751709Y-108922143D01*
X134735236Y-108866043D01*
X134746302Y-108808632D01*
X134782442Y-108762674D01*
X134912886Y-108660092D01*
X135050519Y-108501256D01*
X135155604Y-108319244D01*
X135224344Y-108120633D01*
X135254254Y-107912602D01*
X135244254Y-107702670D01*
X135194704Y-107498424D01*
X135107396Y-107307247D01*
X134985486Y-107136048D01*
X134882900Y-107038233D01*
X134837651Y-106995088D01*
X134837649Y-106995086D01*
X134833378Y-106991014D01*
X134734205Y-106927279D01*
X134675788Y-106889736D01*
X134630971Y-106838937D01*
X134619539Y-106772165D01*
X134644904Y-106709349D01*
X134699496Y-106669239D01*
X134733776Y-106656453D01*
X134749189Y-106648037D01*
X134850092Y-106572501D01*
X134862501Y-106560092D01*
X134938037Y-106459189D01*
X134946452Y-106443777D01*
X134990888Y-106324641D01*
X134994426Y-106309667D01*
X134999646Y-106261114D01*
X135000000Y-106254518D01*
X135000000Y-106251326D01*
X134996549Y-106238450D01*
X134983674Y-106235000D01*
X132766326Y-106235000D01*
X132753450Y-106238450D01*
X132750000Y-106251326D01*
X132750000Y-106254518D01*
X132750353Y-106261114D01*
X132755573Y-106309667D01*
X132759111Y-106324641D01*
X132803547Y-106443777D01*
X132811962Y-106459189D01*
X132887498Y-106560092D01*
X132899907Y-106572501D01*
X133000810Y-106648037D01*
X133016223Y-106656453D01*
X133053381Y-106670312D01*
X133100601Y-106701781D01*
X133128858Y-106750992D01*
X133132233Y-106807637D01*
X133110020Y-106859855D01*
X133066870Y-106896709D01*
X133007572Y-106927279D01*
X133007561Y-106927286D01*
X133002318Y-106929989D01*
X132997676Y-106933638D01*
X132997672Y-106933642D01*
X132841759Y-107056254D01*
X132841752Y-107056260D01*
X132837114Y-107059908D01*
X132833250Y-107064367D01*
X132833245Y-107064372D01*
X132731155Y-107182190D01*
X132699481Y-107218744D01*
X132696530Y-107223854D01*
X132696528Y-107223858D01*
X132597352Y-107395635D01*
X132597349Y-107395640D01*
X132594396Y-107400756D01*
X132592465Y-107406335D01*
X132592461Y-107406344D01*
X132527587Y-107593785D01*
X132527584Y-107593794D01*
X132525656Y-107599367D01*
X132524816Y-107605203D01*
X132524815Y-107605211D01*
X132496585Y-107801558D01*
X132496584Y-107801564D01*
X132495746Y-107807398D01*
X132496026Y-107813282D01*
X132496026Y-107813289D01*
X132502687Y-107953110D01*
X132505746Y-108017330D01*
X132507135Y-108023058D01*
X132507137Y-108023067D01*
X132538112Y-108150743D01*
X132555296Y-108221576D01*
X132557749Y-108226947D01*
X132625174Y-108374588D01*
X132642604Y-108412753D01*
X132646031Y-108417566D01*
X132646032Y-108417567D01*
X132746919Y-108559244D01*
X132764514Y-108583952D01*
X132768791Y-108588030D01*
X132909776Y-108722459D01*
X132916622Y-108728986D01*
X132957944Y-108755542D01*
X132998290Y-108797855D01*
X133014763Y-108853955D01*
X133003698Y-108911366D01*
X132967556Y-108957326D01*
X132841755Y-109056258D01*
X132837114Y-109059908D01*
X132833250Y-109064367D01*
X132833245Y-109064372D01*
X132711860Y-109204458D01*
X132699481Y-109218744D01*
X132696530Y-109223854D01*
X132696528Y-109223858D01*
X132597352Y-109395635D01*
X132597349Y-109395640D01*
X132594396Y-109400756D01*
X132592465Y-109406335D01*
X132592461Y-109406344D01*
X132527587Y-109593785D01*
X132527584Y-109593794D01*
X132525656Y-109599367D01*
X132524816Y-109605203D01*
X132524815Y-109605211D01*
X132496585Y-109801558D01*
X132496584Y-109801564D01*
X132495746Y-109807398D01*
X132496026Y-109813282D01*
X132496026Y-109813289D01*
X132503164Y-109963136D01*
X132505746Y-110017330D01*
X132507135Y-110023058D01*
X132507137Y-110023067D01*
X132538563Y-110152602D01*
X132555296Y-110221576D01*
X132642604Y-110412753D01*
X132646031Y-110417566D01*
X132646032Y-110417567D01*
X132746919Y-110559244D01*
X132764514Y-110583952D01*
X132768791Y-110588030D01*
X132841719Y-110657567D01*
X132916622Y-110728986D01*
X132957944Y-110755542D01*
X132998290Y-110797855D01*
X133014763Y-110853955D01*
X133003698Y-110911366D01*
X132967556Y-110957326D01*
X132865156Y-111037855D01*
X132837114Y-111059908D01*
X132833250Y-111064367D01*
X132833245Y-111064372D01*
X132711860Y-111204458D01*
X132699481Y-111218744D01*
X132696530Y-111223854D01*
X132696528Y-111223858D01*
X132597352Y-111395635D01*
X132597349Y-111395640D01*
X132594396Y-111400756D01*
X132592465Y-111406335D01*
X132592461Y-111406344D01*
X132527587Y-111593785D01*
X132527584Y-111593794D01*
X132525656Y-111599367D01*
X132524816Y-111605203D01*
X132524815Y-111605211D01*
X132496585Y-111801558D01*
X132496584Y-111801564D01*
X132495746Y-111807398D01*
X125075500Y-111807398D01*
X125075500Y-108599881D01*
X126301225Y-108599881D01*
X126301649Y-108604998D01*
X126319468Y-108820055D01*
X126319469Y-108820064D01*
X126319893Y-108825174D01*
X126321150Y-108830141D01*
X126321152Y-108830148D01*
X126371765Y-109030011D01*
X126375389Y-109044322D01*
X126377449Y-109049018D01*
X126464138Y-109246651D01*
X126464141Y-109246656D01*
X126466198Y-109251346D01*
X126492779Y-109292031D01*
X126587042Y-109436312D01*
X126587045Y-109436316D01*
X126589844Y-109440600D01*
X126593309Y-109444364D01*
X126593313Y-109444369D01*
X126648355Y-109504160D01*
X126742954Y-109606921D01*
X126921351Y-109745774D01*
X127120169Y-109853369D01*
X127333986Y-109926772D01*
X127556967Y-109963981D01*
X127777900Y-109963981D01*
X127783033Y-109963981D01*
X128006014Y-109926772D01*
X128219831Y-109853369D01*
X128418649Y-109745774D01*
X128597046Y-109606921D01*
X128750156Y-109440600D01*
X128873802Y-109251346D01*
X128964611Y-109044322D01*
X129020107Y-108825174D01*
X129038775Y-108599881D01*
X129020107Y-108374588D01*
X128964611Y-108155440D01*
X128873802Y-107948416D01*
X128750156Y-107759162D01*
X128746688Y-107755395D01*
X128746686Y-107755392D01*
X128613120Y-107610302D01*
X128584347Y-107557549D01*
X128583754Y-107497462D01*
X128611481Y-107444152D01*
X128661017Y-107410137D01*
X128775931Y-107367277D01*
X128891146Y-107281027D01*
X128977396Y-107165812D01*
X129027691Y-107030964D01*
X129034100Y-106971354D01*
X129034099Y-105468674D01*
X132750000Y-105468674D01*
X132753450Y-105481549D01*
X132766326Y-105485000D01*
X133483674Y-105485000D01*
X133496549Y-105481549D01*
X133500000Y-105468674D01*
X134250000Y-105468674D01*
X134253450Y-105481549D01*
X134266326Y-105485000D01*
X134983674Y-105485000D01*
X134996549Y-105481549D01*
X135000000Y-105468674D01*
X135000000Y-105465482D01*
X134999646Y-105458885D01*
X134994426Y-105410332D01*
X134990888Y-105395358D01*
X134946452Y-105276222D01*
X134938037Y-105260810D01*
X134862501Y-105159907D01*
X134850092Y-105147498D01*
X134749189Y-105071962D01*
X134733777Y-105063547D01*
X134614641Y-105019111D01*
X134599667Y-105015573D01*
X134551114Y-105010353D01*
X134544518Y-105010000D01*
X134266326Y-105010000D01*
X134253450Y-105013450D01*
X134250000Y-105026326D01*
X134250000Y-105468674D01*
X133500000Y-105468674D01*
X133500000Y-105026326D01*
X133496549Y-105013450D01*
X133483674Y-105010000D01*
X133205482Y-105010000D01*
X133198885Y-105010353D01*
X133150332Y-105015573D01*
X133135358Y-105019111D01*
X133016222Y-105063547D01*
X133000810Y-105071962D01*
X132899907Y-105147498D01*
X132887498Y-105159907D01*
X132811962Y-105260810D01*
X132803547Y-105276222D01*
X132759111Y-105395358D01*
X132755573Y-105410332D01*
X132750353Y-105458885D01*
X132750000Y-105465482D01*
X132750000Y-105468674D01*
X129034099Y-105468674D01*
X129034099Y-105148409D01*
X129027691Y-105088798D01*
X128977396Y-104953950D01*
X128910202Y-104864191D01*
X128888304Y-104816239D01*
X128888304Y-104763523D01*
X128910203Y-104715570D01*
X128977396Y-104625812D01*
X129027691Y-104490964D01*
X129034100Y-104431354D01*
X129034099Y-102608409D01*
X129027691Y-102548798D01*
X128977396Y-102413950D01*
X128891146Y-102298735D01*
X128829934Y-102252912D01*
X128783031Y-102217800D01*
X128783030Y-102217799D01*
X128775931Y-102212485D01*
X128641083Y-102162190D01*
X128633370Y-102161360D01*
X128633367Y-102161360D01*
X128584780Y-102156136D01*
X128584769Y-102156135D01*
X128581473Y-102155781D01*
X128578151Y-102155781D01*
X128322044Y-102155781D01*
X128260707Y-102139548D01*
X128215429Y-102095099D01*
X128198065Y-102034073D01*
X128213162Y-101972446D01*
X128256766Y-101926354D01*
X128339099Y-101875375D01*
X128348204Y-101868499D01*
X128492248Y-101737186D01*
X128499942Y-101728745D01*
X128578286Y-101625000D01*
X140219435Y-101625000D01*
X140239632Y-101804255D01*
X140241928Y-101810819D01*
X140241930Y-101810824D01*
X140296913Y-101967956D01*
X140299211Y-101974522D01*
X140395184Y-102127262D01*
X140522738Y-102254816D01*
X140675478Y-102350789D01*
X140845745Y-102410368D01*
X141025000Y-102430565D01*
X141204255Y-102410368D01*
X141374522Y-102350789D01*
X141455352Y-102300000D01*
X151669435Y-102300000D01*
X151689632Y-102479255D01*
X151691928Y-102485819D01*
X151691930Y-102485824D01*
X151746913Y-102642956D01*
X151749211Y-102649522D01*
X151845184Y-102802262D01*
X151972738Y-102929816D01*
X152125478Y-103025789D01*
X152295745Y-103085368D01*
X152475000Y-103105565D01*
X152654255Y-103085368D01*
X152824522Y-103025789D01*
X152905352Y-102975000D01*
X158444435Y-102975000D01*
X158464632Y-103154255D01*
X158466928Y-103160819D01*
X158466930Y-103160824D01*
X158509469Y-103282393D01*
X158524211Y-103324522D01*
X158620184Y-103477262D01*
X158747738Y-103604816D01*
X158900478Y-103700789D01*
X159070745Y-103760368D01*
X159250000Y-103780565D01*
X159429255Y-103760368D01*
X159599522Y-103700789D01*
X159752262Y-103604816D01*
X159879816Y-103477262D01*
X159975789Y-103324522D01*
X160035368Y-103154255D01*
X160055565Y-102975000D01*
X160035368Y-102795745D01*
X159975789Y-102625478D01*
X159879816Y-102472738D01*
X159752262Y-102345184D01*
X159599522Y-102249211D01*
X159592959Y-102246914D01*
X159592956Y-102246913D01*
X159435824Y-102191930D01*
X159435819Y-102191928D01*
X159429255Y-102189632D01*
X159422335Y-102188852D01*
X159422334Y-102188852D01*
X159256923Y-102170215D01*
X159250000Y-102169435D01*
X159243077Y-102170215D01*
X159077665Y-102188852D01*
X159077662Y-102188852D01*
X159070745Y-102189632D01*
X159064182Y-102191928D01*
X159064175Y-102191930D01*
X158907043Y-102246913D01*
X158907036Y-102246915D01*
X158900478Y-102249211D01*
X158894590Y-102252910D01*
X158894587Y-102252912D01*
X158753638Y-102341476D01*
X158753633Y-102341479D01*
X158747738Y-102345184D01*
X158742813Y-102350108D01*
X158742809Y-102350112D01*
X158625112Y-102467809D01*
X158625108Y-102467813D01*
X158620184Y-102472738D01*
X158616479Y-102478633D01*
X158616476Y-102478638D01*
X158527912Y-102619587D01*
X158527910Y-102619590D01*
X158524211Y-102625478D01*
X158521915Y-102632036D01*
X158521913Y-102632043D01*
X158466930Y-102789175D01*
X158466928Y-102789182D01*
X158464632Y-102795745D01*
X158444435Y-102975000D01*
X152905352Y-102975000D01*
X152977262Y-102929816D01*
X153104816Y-102802262D01*
X153200789Y-102649522D01*
X153260368Y-102479255D01*
X153280565Y-102300000D01*
X153260368Y-102120745D01*
X153200789Y-101950478D01*
X153104816Y-101797738D01*
X152977262Y-101670184D01*
X152912967Y-101629785D01*
X152830412Y-101577912D01*
X152824522Y-101574211D01*
X152817959Y-101571914D01*
X152817956Y-101571913D01*
X152660824Y-101516930D01*
X152660819Y-101516928D01*
X152654255Y-101514632D01*
X152647335Y-101513852D01*
X152647334Y-101513852D01*
X152481923Y-101495215D01*
X152475000Y-101494435D01*
X152468077Y-101495215D01*
X152302665Y-101513852D01*
X152302662Y-101513852D01*
X152295745Y-101514632D01*
X152289182Y-101516928D01*
X152289175Y-101516930D01*
X152132043Y-101571913D01*
X152132036Y-101571915D01*
X152125478Y-101574211D01*
X152119590Y-101577910D01*
X152119587Y-101577912D01*
X151978638Y-101666476D01*
X151978633Y-101666479D01*
X151972738Y-101670184D01*
X151967813Y-101675108D01*
X151967809Y-101675112D01*
X151850112Y-101792809D01*
X151850108Y-101792813D01*
X151845184Y-101797738D01*
X151841479Y-101803633D01*
X151841476Y-101803638D01*
X151752912Y-101944587D01*
X151752910Y-101944590D01*
X151749211Y-101950478D01*
X151746915Y-101957036D01*
X151746913Y-101957043D01*
X151691930Y-102114175D01*
X151691928Y-102114182D01*
X151689632Y-102120745D01*
X151688852Y-102127662D01*
X151688852Y-102127665D01*
X151678316Y-102221174D01*
X151669435Y-102300000D01*
X141455352Y-102300000D01*
X141527262Y-102254816D01*
X141654816Y-102127262D01*
X141750789Y-101974522D01*
X141810368Y-101804255D01*
X141830565Y-101625000D01*
X141810368Y-101445745D01*
X141750789Y-101275478D01*
X141654816Y-101122738D01*
X141527262Y-100995184D01*
X141512160Y-100985695D01*
X141380412Y-100902912D01*
X141374522Y-100899211D01*
X141367959Y-100896914D01*
X141367956Y-100896913D01*
X141210824Y-100841930D01*
X141210819Y-100841928D01*
X141204255Y-100839632D01*
X141197335Y-100838852D01*
X141197334Y-100838852D01*
X141031923Y-100820215D01*
X141025000Y-100819435D01*
X141018077Y-100820215D01*
X140852665Y-100838852D01*
X140852662Y-100838852D01*
X140845745Y-100839632D01*
X140839182Y-100841928D01*
X140839175Y-100841930D01*
X140682043Y-100896913D01*
X140682036Y-100896915D01*
X140675478Y-100899211D01*
X140669590Y-100902910D01*
X140669587Y-100902912D01*
X140528638Y-100991476D01*
X140528633Y-100991479D01*
X140522738Y-100995184D01*
X140517813Y-101000108D01*
X140517809Y-101000112D01*
X140400112Y-101117809D01*
X140400108Y-101117813D01*
X140395184Y-101122738D01*
X140391479Y-101128633D01*
X140391476Y-101128638D01*
X140302912Y-101269587D01*
X140302910Y-101269590D01*
X140299211Y-101275478D01*
X140296915Y-101282036D01*
X140296913Y-101282043D01*
X140241930Y-101439175D01*
X140241928Y-101439182D01*
X140239632Y-101445745D01*
X140238852Y-101452662D01*
X140238852Y-101452665D01*
X140227796Y-101550789D01*
X140219435Y-101625000D01*
X128578286Y-101625000D01*
X128617403Y-101573201D01*
X128623412Y-101563497D01*
X128710292Y-101389019D01*
X128714420Y-101378363D01*
X128717164Y-101368719D01*
X128717685Y-101357460D01*
X128706717Y-101354881D01*
X126633283Y-101354881D01*
X126622314Y-101357460D01*
X126622835Y-101368719D01*
X126625579Y-101378363D01*
X126629707Y-101389019D01*
X126716587Y-101563497D01*
X126722596Y-101573201D01*
X126840057Y-101728745D01*
X126847751Y-101737186D01*
X126991795Y-101868499D01*
X127000905Y-101875378D01*
X127083234Y-101926354D01*
X127126839Y-101972445D01*
X127141936Y-102034072D01*
X127124572Y-102095099D01*
X127079295Y-102139548D01*
X127017957Y-102155781D01*
X126761839Y-102155781D01*
X126761820Y-102155781D01*
X126758528Y-102155782D01*
X126755250Y-102156134D01*
X126755238Y-102156135D01*
X126706631Y-102161360D01*
X126706625Y-102161361D01*
X126698917Y-102162190D01*
X126691652Y-102164899D01*
X126691646Y-102164901D01*
X126572380Y-102209385D01*
X126572378Y-102209385D01*
X126564069Y-102212485D01*
X126556972Y-102217797D01*
X126556968Y-102217800D01*
X126455950Y-102293422D01*
X126455946Y-102293425D01*
X126448854Y-102298735D01*
X126443544Y-102305827D01*
X126443541Y-102305831D01*
X126367919Y-102406849D01*
X126367916Y-102406853D01*
X126362604Y-102413950D01*
X126359504Y-102422259D01*
X126359504Y-102422261D01*
X126315020Y-102541528D01*
X126315019Y-102541531D01*
X126312309Y-102548798D01*
X126311479Y-102556508D01*
X126311479Y-102556513D01*
X126306255Y-102605100D01*
X126306254Y-102605112D01*
X126305900Y-102608408D01*
X126305900Y-102611729D01*
X126305900Y-102611730D01*
X126305900Y-104428041D01*
X126305900Y-104428059D01*
X126305901Y-104431353D01*
X126306253Y-104434631D01*
X126306254Y-104434642D01*
X126311479Y-104483249D01*
X126311480Y-104483254D01*
X126312309Y-104490964D01*
X126315019Y-104498230D01*
X126315020Y-104498234D01*
X126327153Y-104530764D01*
X126362604Y-104625812D01*
X126367918Y-104632910D01*
X126367921Y-104632916D01*
X126429796Y-104715571D01*
X126451695Y-104763523D01*
X126451695Y-104816239D01*
X126429796Y-104864191D01*
X126367921Y-104946845D01*
X126367916Y-104946853D01*
X126362604Y-104953950D01*
X126359504Y-104962259D01*
X126359504Y-104962261D01*
X126315020Y-105081528D01*
X126315019Y-105081531D01*
X126312309Y-105088798D01*
X126311479Y-105096508D01*
X126311479Y-105096513D01*
X126306255Y-105145100D01*
X126306254Y-105145112D01*
X126305900Y-105148408D01*
X126305900Y-105151729D01*
X126305900Y-105151730D01*
X126305900Y-106968041D01*
X126305900Y-106968059D01*
X126305901Y-106971353D01*
X126306253Y-106974631D01*
X126306254Y-106974642D01*
X126311479Y-107023249D01*
X126311480Y-107023254D01*
X126312309Y-107030964D01*
X126315019Y-107038230D01*
X126315020Y-107038234D01*
X126343723Y-107115190D01*
X126362604Y-107165812D01*
X126367918Y-107172911D01*
X126367919Y-107172912D01*
X126368465Y-107173642D01*
X126448854Y-107281027D01*
X126564069Y-107367277D01*
X126640101Y-107395635D01*
X126678982Y-107410137D01*
X126728518Y-107444152D01*
X126756245Y-107497462D01*
X126755652Y-107557549D01*
X126726879Y-107610302D01*
X126593313Y-107755392D01*
X126593304Y-107755402D01*
X126589844Y-107759162D01*
X126587049Y-107763439D01*
X126587042Y-107763449D01*
X126473701Y-107936932D01*
X126466198Y-107948416D01*
X126464143Y-107953100D01*
X126464138Y-107953110D01*
X126379218Y-108146710D01*
X126375389Y-108155440D01*
X126374131Y-108160405D01*
X126374130Y-108160410D01*
X126321152Y-108369613D01*
X126321150Y-108369622D01*
X126319893Y-108374588D01*
X126319469Y-108379695D01*
X126319468Y-108379706D01*
X126305055Y-108553655D01*
X126301225Y-108599881D01*
X125075500Y-108599881D01*
X125075500Y-100449000D01*
X125092113Y-100387000D01*
X125137500Y-100341613D01*
X125199500Y-100325000D01*
X126551806Y-100325000D01*
X126612145Y-100340671D01*
G37*
G04 #@! TD.AperFunction*
M02*
