G04 #@! TF.GenerationSoftware,KiCad,Pcbnew,7.0.0*
G04 #@! TF.CreationDate,2023-03-01T21:53:21-08:00*
G04 #@! TF.ProjectId,KYBERNETES-CHASSIS-SHIELD,4b594245-524e-4455-9445-532d43484153,rev?*
G04 #@! TF.SameCoordinates,Original*
G04 #@! TF.FileFunction,Legend,Top*
G04 #@! TF.FilePolarity,Positive*
%FSLAX46Y46*%
G04 Gerber Fmt 4.6, Leading zero omitted, Abs format (unit mm)*
G04 Created by KiCad (PCBNEW 7.0.0) date 2023-03-01 21:53:21*
%MOMM*%
%LPD*%
G01*
G04 APERTURE LIST*
G04 Aperture macros list*
%AMRoundRect*
0 Rectangle with rounded corners*
0 $1 Rounding radius*
0 $2 $3 $4 $5 $6 $7 $8 $9 X,Y pos of 4 corners*
0 Add a 4 corners polygon primitive as box body*
4,1,4,$2,$3,$4,$5,$6,$7,$8,$9,$2,$3,0*
0 Add four circle primitives for the rounded corners*
1,1,$1+$1,$2,$3*
1,1,$1+$1,$4,$5*
1,1,$1+$1,$6,$7*
1,1,$1+$1,$8,$9*
0 Add four rect primitives between the rounded corners*
20,1,$1+$1,$2,$3,$4,$5,0*
20,1,$1+$1,$4,$5,$6,$7,0*
20,1,$1+$1,$6,$7,$8,$9,0*
20,1,$1+$1,$8,$9,$2,$3,0*%
G04 Aperture macros list end*
%ADD10C,0.400000*%
%ADD11C,0.300000*%
%ADD12C,0.125000*%
%ADD13C,0.150000*%
%ADD14C,0.120000*%
%ADD15RoundRect,0.150000X0.150000X-0.662500X0.150000X0.662500X-0.150000X0.662500X-0.150000X-0.662500X0*%
%ADD16RoundRect,0.237500X0.250000X0.237500X-0.250000X0.237500X-0.250000X-0.237500X0.250000X-0.237500X0*%
%ADD17RoundRect,0.237500X-0.250000X-0.237500X0.250000X-0.237500X0.250000X0.237500X-0.250000X0.237500X0*%
%ADD18RoundRect,0.237500X-0.237500X0.250000X-0.237500X-0.250000X0.237500X-0.250000X0.237500X0.250000X0*%
%ADD19RoundRect,0.237500X0.237500X-0.250000X0.237500X0.250000X-0.237500X0.250000X-0.237500X-0.250000X0*%
%ADD20RoundRect,0.250000X1.500000X1.000000X-1.500000X1.000000X-1.500000X-1.000000X1.500000X-1.000000X0*%
%ADD21RoundRect,0.237500X-0.237500X0.300000X-0.237500X-0.300000X0.237500X-0.300000X0.237500X0.300000X0*%
%ADD22R,1.600000X1.600000*%
%ADD23O,1.600000X1.600000*%
%ADD24R,1.700000X1.700000*%
%ADD25O,1.700000X1.700000*%
%ADD26RoundRect,0.250000X0.625000X-0.350000X0.625000X0.350000X-0.625000X0.350000X-0.625000X-0.350000X0*%
%ADD27O,1.750000X1.200000*%
%ADD28RoundRect,0.150000X-0.150000X0.662500X-0.150000X-0.662500X0.150000X-0.662500X0.150000X0.662500X0*%
%ADD29RoundRect,0.237500X0.300000X0.237500X-0.300000X0.237500X-0.300000X-0.237500X0.300000X-0.237500X0*%
%ADD30RoundRect,0.250000X-0.625000X0.350000X-0.625000X-0.350000X0.625000X-0.350000X0.625000X0.350000X0*%
%ADD31C,3.200000*%
%ADD32O,1.727200X1.727200*%
%ADD33R,1.727200X1.727200*%
%ADD34RoundRect,0.250000X-1.500000X-1.000000X1.500000X-1.000000X1.500000X1.000000X-1.500000X1.000000X0*%
%ADD35RoundRect,0.250000X-0.350000X-0.625000X0.350000X-0.625000X0.350000X0.625000X-0.350000X0.625000X0*%
%ADD36O,1.200000X1.750000*%
%ADD37RoundRect,0.150000X0.150000X-0.512500X0.150000X0.512500X-0.150000X0.512500X-0.150000X-0.512500X0*%
%ADD38RoundRect,0.100000X-0.637500X-0.100000X0.637500X-0.100000X0.637500X0.100000X-0.637500X0.100000X0*%
G04 APERTURE END LIST*
D10*
X143705951Y-120274761D02*
X143705951Y-118274761D01*
X144848808Y-120274761D02*
X143991665Y-119131904D01*
X144848808Y-118274761D02*
X143705951Y-119417619D01*
X145515475Y-118941428D02*
X145991665Y-120274761D01*
X146467856Y-118941428D02*
X145991665Y-120274761D01*
X145991665Y-120274761D02*
X145801189Y-120750952D01*
X145801189Y-120750952D02*
X145705951Y-120846190D01*
X145705951Y-120846190D02*
X145515475Y-120941428D01*
X147229761Y-120274761D02*
X147229761Y-118274761D01*
X147229761Y-119036666D02*
X147420237Y-118941428D01*
X147420237Y-118941428D02*
X147801190Y-118941428D01*
X147801190Y-118941428D02*
X147991666Y-119036666D01*
X147991666Y-119036666D02*
X148086904Y-119131904D01*
X148086904Y-119131904D02*
X148182142Y-119322380D01*
X148182142Y-119322380D02*
X148182142Y-119893809D01*
X148182142Y-119893809D02*
X148086904Y-120084285D01*
X148086904Y-120084285D02*
X147991666Y-120179523D01*
X147991666Y-120179523D02*
X147801190Y-120274761D01*
X147801190Y-120274761D02*
X147420237Y-120274761D01*
X147420237Y-120274761D02*
X147229761Y-120179523D01*
X149801190Y-120179523D02*
X149610714Y-120274761D01*
X149610714Y-120274761D02*
X149229761Y-120274761D01*
X149229761Y-120274761D02*
X149039285Y-120179523D01*
X149039285Y-120179523D02*
X148944047Y-119989047D01*
X148944047Y-119989047D02*
X148944047Y-119227142D01*
X148944047Y-119227142D02*
X149039285Y-119036666D01*
X149039285Y-119036666D02*
X149229761Y-118941428D01*
X149229761Y-118941428D02*
X149610714Y-118941428D01*
X149610714Y-118941428D02*
X149801190Y-119036666D01*
X149801190Y-119036666D02*
X149896428Y-119227142D01*
X149896428Y-119227142D02*
X149896428Y-119417619D01*
X149896428Y-119417619D02*
X148944047Y-119608095D01*
X150753571Y-120274761D02*
X150753571Y-118941428D01*
X150753571Y-119322380D02*
X150848809Y-119131904D01*
X150848809Y-119131904D02*
X150944047Y-119036666D01*
X150944047Y-119036666D02*
X151134523Y-118941428D01*
X151134523Y-118941428D02*
X151325000Y-118941428D01*
X151991666Y-118941428D02*
X151991666Y-120274761D01*
X151991666Y-119131904D02*
X152086904Y-119036666D01*
X152086904Y-119036666D02*
X152277380Y-118941428D01*
X152277380Y-118941428D02*
X152563095Y-118941428D01*
X152563095Y-118941428D02*
X152753571Y-119036666D01*
X152753571Y-119036666D02*
X152848809Y-119227142D01*
X152848809Y-119227142D02*
X152848809Y-120274761D01*
X154563095Y-120179523D02*
X154372619Y-120274761D01*
X154372619Y-120274761D02*
X153991666Y-120274761D01*
X153991666Y-120274761D02*
X153801190Y-120179523D01*
X153801190Y-120179523D02*
X153705952Y-119989047D01*
X153705952Y-119989047D02*
X153705952Y-119227142D01*
X153705952Y-119227142D02*
X153801190Y-119036666D01*
X153801190Y-119036666D02*
X153991666Y-118941428D01*
X153991666Y-118941428D02*
X154372619Y-118941428D01*
X154372619Y-118941428D02*
X154563095Y-119036666D01*
X154563095Y-119036666D02*
X154658333Y-119227142D01*
X154658333Y-119227142D02*
X154658333Y-119417619D01*
X154658333Y-119417619D02*
X153705952Y-119608095D01*
X155229762Y-118941428D02*
X155991666Y-118941428D01*
X155515476Y-118274761D02*
X155515476Y-119989047D01*
X155515476Y-119989047D02*
X155610714Y-120179523D01*
X155610714Y-120179523D02*
X155801190Y-120274761D01*
X155801190Y-120274761D02*
X155991666Y-120274761D01*
X157420238Y-120179523D02*
X157229762Y-120274761D01*
X157229762Y-120274761D02*
X156848809Y-120274761D01*
X156848809Y-120274761D02*
X156658333Y-120179523D01*
X156658333Y-120179523D02*
X156563095Y-119989047D01*
X156563095Y-119989047D02*
X156563095Y-119227142D01*
X156563095Y-119227142D02*
X156658333Y-119036666D01*
X156658333Y-119036666D02*
X156848809Y-118941428D01*
X156848809Y-118941428D02*
X157229762Y-118941428D01*
X157229762Y-118941428D02*
X157420238Y-119036666D01*
X157420238Y-119036666D02*
X157515476Y-119227142D01*
X157515476Y-119227142D02*
X157515476Y-119417619D01*
X157515476Y-119417619D02*
X156563095Y-119608095D01*
X158277381Y-120179523D02*
X158467857Y-120274761D01*
X158467857Y-120274761D02*
X158848809Y-120274761D01*
X158848809Y-120274761D02*
X159039286Y-120179523D01*
X159039286Y-120179523D02*
X159134524Y-119989047D01*
X159134524Y-119989047D02*
X159134524Y-119893809D01*
X159134524Y-119893809D02*
X159039286Y-119703333D01*
X159039286Y-119703333D02*
X158848809Y-119608095D01*
X158848809Y-119608095D02*
X158563095Y-119608095D01*
X158563095Y-119608095D02*
X158372619Y-119512857D01*
X158372619Y-119512857D02*
X158277381Y-119322380D01*
X158277381Y-119322380D02*
X158277381Y-119227142D01*
X158277381Y-119227142D02*
X158372619Y-119036666D01*
X158372619Y-119036666D02*
X158563095Y-118941428D01*
X158563095Y-118941428D02*
X158848809Y-118941428D01*
X158848809Y-118941428D02*
X159039286Y-119036666D01*
X161096429Y-118465238D02*
X161191667Y-118370000D01*
X161191667Y-118370000D02*
X161382143Y-118274761D01*
X161382143Y-118274761D02*
X161858334Y-118274761D01*
X161858334Y-118274761D02*
X162048810Y-118370000D01*
X162048810Y-118370000D02*
X162144048Y-118465238D01*
X162144048Y-118465238D02*
X162239286Y-118655714D01*
X162239286Y-118655714D02*
X162239286Y-118846190D01*
X162239286Y-118846190D02*
X162144048Y-119131904D01*
X162144048Y-119131904D02*
X161001191Y-120274761D01*
X161001191Y-120274761D02*
X162239286Y-120274761D01*
X148686904Y-123419523D02*
X148972618Y-123514761D01*
X148972618Y-123514761D02*
X149448809Y-123514761D01*
X149448809Y-123514761D02*
X149639285Y-123419523D01*
X149639285Y-123419523D02*
X149734523Y-123324285D01*
X149734523Y-123324285D02*
X149829761Y-123133809D01*
X149829761Y-123133809D02*
X149829761Y-122943333D01*
X149829761Y-122943333D02*
X149734523Y-122752857D01*
X149734523Y-122752857D02*
X149639285Y-122657619D01*
X149639285Y-122657619D02*
X149448809Y-122562380D01*
X149448809Y-122562380D02*
X149067856Y-122467142D01*
X149067856Y-122467142D02*
X148877380Y-122371904D01*
X148877380Y-122371904D02*
X148782142Y-122276666D01*
X148782142Y-122276666D02*
X148686904Y-122086190D01*
X148686904Y-122086190D02*
X148686904Y-121895714D01*
X148686904Y-121895714D02*
X148782142Y-121705238D01*
X148782142Y-121705238D02*
X148877380Y-121610000D01*
X148877380Y-121610000D02*
X149067856Y-121514761D01*
X149067856Y-121514761D02*
X149544047Y-121514761D01*
X149544047Y-121514761D02*
X149829761Y-121610000D01*
X150686904Y-123514761D02*
X150686904Y-121514761D01*
X151544047Y-123514761D02*
X151544047Y-122467142D01*
X151544047Y-122467142D02*
X151448809Y-122276666D01*
X151448809Y-122276666D02*
X151258333Y-122181428D01*
X151258333Y-122181428D02*
X150972618Y-122181428D01*
X150972618Y-122181428D02*
X150782142Y-122276666D01*
X150782142Y-122276666D02*
X150686904Y-122371904D01*
X152496428Y-123514761D02*
X152496428Y-122181428D01*
X152496428Y-121514761D02*
X152401190Y-121610000D01*
X152401190Y-121610000D02*
X152496428Y-121705238D01*
X152496428Y-121705238D02*
X152591666Y-121610000D01*
X152591666Y-121610000D02*
X152496428Y-121514761D01*
X152496428Y-121514761D02*
X152496428Y-121705238D01*
X154210714Y-123419523D02*
X154020238Y-123514761D01*
X154020238Y-123514761D02*
X153639285Y-123514761D01*
X153639285Y-123514761D02*
X153448809Y-123419523D01*
X153448809Y-123419523D02*
X153353571Y-123229047D01*
X153353571Y-123229047D02*
X153353571Y-122467142D01*
X153353571Y-122467142D02*
X153448809Y-122276666D01*
X153448809Y-122276666D02*
X153639285Y-122181428D01*
X153639285Y-122181428D02*
X154020238Y-122181428D01*
X154020238Y-122181428D02*
X154210714Y-122276666D01*
X154210714Y-122276666D02*
X154305952Y-122467142D01*
X154305952Y-122467142D02*
X154305952Y-122657619D01*
X154305952Y-122657619D02*
X153353571Y-122848095D01*
X155448809Y-123514761D02*
X155258333Y-123419523D01*
X155258333Y-123419523D02*
X155163095Y-123229047D01*
X155163095Y-123229047D02*
X155163095Y-121514761D01*
X157067857Y-123514761D02*
X157067857Y-121514761D01*
X157067857Y-123419523D02*
X156877381Y-123514761D01*
X156877381Y-123514761D02*
X156496428Y-123514761D01*
X156496428Y-123514761D02*
X156305952Y-123419523D01*
X156305952Y-123419523D02*
X156210714Y-123324285D01*
X156210714Y-123324285D02*
X156115476Y-123133809D01*
X156115476Y-123133809D02*
X156115476Y-122562380D01*
X156115476Y-122562380D02*
X156210714Y-122371904D01*
X156210714Y-122371904D02*
X156305952Y-122276666D01*
X156305952Y-122276666D02*
X156496428Y-122181428D01*
X156496428Y-122181428D02*
X156877381Y-122181428D01*
X156877381Y-122181428D02*
X157067857Y-122276666D01*
D11*
X135265714Y-78005000D02*
X135980000Y-78005000D01*
X135122857Y-78433571D02*
X135622857Y-76933571D01*
X135622857Y-76933571D02*
X136122857Y-78433571D01*
X166162857Y-126367857D02*
X166162857Y-125867857D01*
X166948571Y-125653571D02*
X166948571Y-126367857D01*
X166948571Y-126367857D02*
X165448571Y-126367857D01*
X165448571Y-126367857D02*
X165448571Y-125653571D01*
X165948571Y-125010714D02*
X166948571Y-125010714D01*
X166091428Y-125010714D02*
X166020000Y-124939285D01*
X166020000Y-124939285D02*
X165948571Y-124796428D01*
X165948571Y-124796428D02*
X165948571Y-124582142D01*
X165948571Y-124582142D02*
X166020000Y-124439285D01*
X166020000Y-124439285D02*
X166162857Y-124367857D01*
X166162857Y-124367857D02*
X166948571Y-124367857D01*
X166877142Y-123010714D02*
X166948571Y-123153571D01*
X166948571Y-123153571D02*
X166948571Y-123439285D01*
X166948571Y-123439285D02*
X166877142Y-123582142D01*
X166877142Y-123582142D02*
X166805714Y-123653571D01*
X166805714Y-123653571D02*
X166662857Y-123724999D01*
X166662857Y-123724999D02*
X166234285Y-123724999D01*
X166234285Y-123724999D02*
X166091428Y-123653571D01*
X166091428Y-123653571D02*
X166020000Y-123582142D01*
X166020000Y-123582142D02*
X165948571Y-123439285D01*
X165948571Y-123439285D02*
X165948571Y-123153571D01*
X165948571Y-123153571D02*
X166020000Y-123010714D01*
X166948571Y-122153571D02*
X166877142Y-122296428D01*
X166877142Y-122296428D02*
X166805714Y-122367857D01*
X166805714Y-122367857D02*
X166662857Y-122439285D01*
X166662857Y-122439285D02*
X166234285Y-122439285D01*
X166234285Y-122439285D02*
X166091428Y-122367857D01*
X166091428Y-122367857D02*
X166020000Y-122296428D01*
X166020000Y-122296428D02*
X165948571Y-122153571D01*
X165948571Y-122153571D02*
X165948571Y-121939285D01*
X165948571Y-121939285D02*
X166020000Y-121796428D01*
X166020000Y-121796428D02*
X166091428Y-121725000D01*
X166091428Y-121725000D02*
X166234285Y-121653571D01*
X166234285Y-121653571D02*
X166662857Y-121653571D01*
X166662857Y-121653571D02*
X166805714Y-121725000D01*
X166805714Y-121725000D02*
X166877142Y-121796428D01*
X166877142Y-121796428D02*
X166948571Y-121939285D01*
X166948571Y-121939285D02*
X166948571Y-122153571D01*
X166948571Y-120367857D02*
X165448571Y-120367857D01*
X166877142Y-120367857D02*
X166948571Y-120510714D01*
X166948571Y-120510714D02*
X166948571Y-120796428D01*
X166948571Y-120796428D02*
X166877142Y-120939285D01*
X166877142Y-120939285D02*
X166805714Y-121010714D01*
X166805714Y-121010714D02*
X166662857Y-121082142D01*
X166662857Y-121082142D02*
X166234285Y-121082142D01*
X166234285Y-121082142D02*
X166091428Y-121010714D01*
X166091428Y-121010714D02*
X166020000Y-120939285D01*
X166020000Y-120939285D02*
X165948571Y-120796428D01*
X165948571Y-120796428D02*
X165948571Y-120510714D01*
X165948571Y-120510714D02*
X166020000Y-120367857D01*
X166877142Y-119082142D02*
X166948571Y-119224999D01*
X166948571Y-119224999D02*
X166948571Y-119510714D01*
X166948571Y-119510714D02*
X166877142Y-119653571D01*
X166877142Y-119653571D02*
X166734285Y-119724999D01*
X166734285Y-119724999D02*
X166162857Y-119724999D01*
X166162857Y-119724999D02*
X166020000Y-119653571D01*
X166020000Y-119653571D02*
X165948571Y-119510714D01*
X165948571Y-119510714D02*
X165948571Y-119224999D01*
X165948571Y-119224999D02*
X166020000Y-119082142D01*
X166020000Y-119082142D02*
X166162857Y-119010714D01*
X166162857Y-119010714D02*
X166305714Y-119010714D01*
X166305714Y-119010714D02*
X166448571Y-119724999D01*
X166948571Y-118367857D02*
X165948571Y-118367857D01*
X166234285Y-118367857D02*
X166091428Y-118296428D01*
X166091428Y-118296428D02*
X166020000Y-118225000D01*
X166020000Y-118225000D02*
X165948571Y-118082142D01*
X165948571Y-118082142D02*
X165948571Y-117939285D01*
X136276428Y-106774285D02*
X136990714Y-106274285D01*
X136276428Y-105917142D02*
X137776428Y-105917142D01*
X137776428Y-105917142D02*
X137776428Y-106488571D01*
X137776428Y-106488571D02*
X137705000Y-106631428D01*
X137705000Y-106631428D02*
X137633571Y-106702857D01*
X137633571Y-106702857D02*
X137490714Y-106774285D01*
X137490714Y-106774285D02*
X137276428Y-106774285D01*
X137276428Y-106774285D02*
X137133571Y-106702857D01*
X137133571Y-106702857D02*
X137062142Y-106631428D01*
X137062142Y-106631428D02*
X136990714Y-106488571D01*
X136990714Y-106488571D02*
X136990714Y-105917142D01*
X136276428Y-108060000D02*
X137062142Y-108060000D01*
X137062142Y-108060000D02*
X137205000Y-107988571D01*
X137205000Y-107988571D02*
X137276428Y-107845714D01*
X137276428Y-107845714D02*
X137276428Y-107560000D01*
X137276428Y-107560000D02*
X137205000Y-107417142D01*
X136347857Y-108060000D02*
X136276428Y-107917142D01*
X136276428Y-107917142D02*
X136276428Y-107560000D01*
X136276428Y-107560000D02*
X136347857Y-107417142D01*
X136347857Y-107417142D02*
X136490714Y-107345714D01*
X136490714Y-107345714D02*
X136633571Y-107345714D01*
X136633571Y-107345714D02*
X136776428Y-107417142D01*
X136776428Y-107417142D02*
X136847857Y-107560000D01*
X136847857Y-107560000D02*
X136847857Y-107917142D01*
X136847857Y-107917142D02*
X136919285Y-108060000D01*
X136276428Y-109417143D02*
X137776428Y-109417143D01*
X136347857Y-109417143D02*
X136276428Y-109274285D01*
X136276428Y-109274285D02*
X136276428Y-108988571D01*
X136276428Y-108988571D02*
X136347857Y-108845714D01*
X136347857Y-108845714D02*
X136419285Y-108774285D01*
X136419285Y-108774285D02*
X136562142Y-108702857D01*
X136562142Y-108702857D02*
X136990714Y-108702857D01*
X136990714Y-108702857D02*
X137133571Y-108774285D01*
X137133571Y-108774285D02*
X137205000Y-108845714D01*
X137205000Y-108845714D02*
X137276428Y-108988571D01*
X137276428Y-108988571D02*
X137276428Y-109274285D01*
X137276428Y-109274285D02*
X137205000Y-109417143D01*
X136276428Y-110131428D02*
X137276428Y-110131428D01*
X137776428Y-110131428D02*
X137705000Y-110060000D01*
X137705000Y-110060000D02*
X137633571Y-110131428D01*
X137633571Y-110131428D02*
X137705000Y-110202857D01*
X137705000Y-110202857D02*
X137776428Y-110131428D01*
X137776428Y-110131428D02*
X137633571Y-110131428D01*
X136276428Y-111060000D02*
X136347857Y-110917143D01*
X136347857Y-110917143D02*
X136419285Y-110845714D01*
X136419285Y-110845714D02*
X136562142Y-110774286D01*
X136562142Y-110774286D02*
X136990714Y-110774286D01*
X136990714Y-110774286D02*
X137133571Y-110845714D01*
X137133571Y-110845714D02*
X137205000Y-110917143D01*
X137205000Y-110917143D02*
X137276428Y-111060000D01*
X137276428Y-111060000D02*
X137276428Y-111274286D01*
X137276428Y-111274286D02*
X137205000Y-111417143D01*
X137205000Y-111417143D02*
X137133571Y-111488572D01*
X137133571Y-111488572D02*
X136990714Y-111560000D01*
X136990714Y-111560000D02*
X136562142Y-111560000D01*
X136562142Y-111560000D02*
X136419285Y-111488572D01*
X136419285Y-111488572D02*
X136347857Y-111417143D01*
X136347857Y-111417143D02*
X136276428Y-111274286D01*
X136276428Y-111274286D02*
X136276428Y-111060000D01*
X162947142Y-77617857D02*
X163161428Y-77689285D01*
X163161428Y-77689285D02*
X163232857Y-77760714D01*
X163232857Y-77760714D02*
X163304285Y-77903571D01*
X163304285Y-77903571D02*
X163304285Y-78117857D01*
X163304285Y-78117857D02*
X163232857Y-78260714D01*
X163232857Y-78260714D02*
X163161428Y-78332142D01*
X163161428Y-78332142D02*
X163018571Y-78403571D01*
X163018571Y-78403571D02*
X162447142Y-78403571D01*
X162447142Y-78403571D02*
X162447142Y-76903571D01*
X162447142Y-76903571D02*
X162947142Y-76903571D01*
X162947142Y-76903571D02*
X163090000Y-76975000D01*
X163090000Y-76975000D02*
X163161428Y-77046428D01*
X163161428Y-77046428D02*
X163232857Y-77189285D01*
X163232857Y-77189285D02*
X163232857Y-77332142D01*
X163232857Y-77332142D02*
X163161428Y-77475000D01*
X163161428Y-77475000D02*
X163090000Y-77546428D01*
X163090000Y-77546428D02*
X162947142Y-77617857D01*
X162947142Y-77617857D02*
X162447142Y-77617857D01*
D12*
X134989286Y-95359285D02*
X135060714Y-95383095D01*
X135060714Y-95383095D02*
X135084524Y-95406904D01*
X135084524Y-95406904D02*
X135108333Y-95454523D01*
X135108333Y-95454523D02*
X135108333Y-95525952D01*
X135108333Y-95525952D02*
X135084524Y-95573571D01*
X135084524Y-95573571D02*
X135060714Y-95597380D01*
X135060714Y-95597380D02*
X135013095Y-95621190D01*
X135013095Y-95621190D02*
X134822619Y-95621190D01*
X134822619Y-95621190D02*
X134822619Y-95121190D01*
X134822619Y-95121190D02*
X134989286Y-95121190D01*
X134989286Y-95121190D02*
X135036905Y-95145000D01*
X135036905Y-95145000D02*
X135060714Y-95168809D01*
X135060714Y-95168809D02*
X135084524Y-95216428D01*
X135084524Y-95216428D02*
X135084524Y-95264047D01*
X135084524Y-95264047D02*
X135060714Y-95311666D01*
X135060714Y-95311666D02*
X135036905Y-95335476D01*
X135036905Y-95335476D02*
X134989286Y-95359285D01*
X134989286Y-95359285D02*
X134822619Y-95359285D01*
X135536905Y-95621190D02*
X135536905Y-95359285D01*
X135536905Y-95359285D02*
X135513095Y-95311666D01*
X135513095Y-95311666D02*
X135465476Y-95287857D01*
X135465476Y-95287857D02*
X135370238Y-95287857D01*
X135370238Y-95287857D02*
X135322619Y-95311666D01*
X135536905Y-95597380D02*
X135489286Y-95621190D01*
X135489286Y-95621190D02*
X135370238Y-95621190D01*
X135370238Y-95621190D02*
X135322619Y-95597380D01*
X135322619Y-95597380D02*
X135298810Y-95549761D01*
X135298810Y-95549761D02*
X135298810Y-95502142D01*
X135298810Y-95502142D02*
X135322619Y-95454523D01*
X135322619Y-95454523D02*
X135370238Y-95430714D01*
X135370238Y-95430714D02*
X135489286Y-95430714D01*
X135489286Y-95430714D02*
X135536905Y-95406904D01*
X135703572Y-95287857D02*
X135894048Y-95287857D01*
X135775000Y-95121190D02*
X135775000Y-95549761D01*
X135775000Y-95549761D02*
X135798810Y-95597380D01*
X135798810Y-95597380D02*
X135846429Y-95621190D01*
X135846429Y-95621190D02*
X135894048Y-95621190D01*
X135989286Y-95287857D02*
X136179762Y-95287857D01*
X136060714Y-95121190D02*
X136060714Y-95549761D01*
X136060714Y-95549761D02*
X136084524Y-95597380D01*
X136084524Y-95597380D02*
X136132143Y-95621190D01*
X136132143Y-95621190D02*
X136179762Y-95621190D01*
X136536904Y-95597380D02*
X136489285Y-95621190D01*
X136489285Y-95621190D02*
X136394047Y-95621190D01*
X136394047Y-95621190D02*
X136346428Y-95597380D01*
X136346428Y-95597380D02*
X136322619Y-95549761D01*
X136322619Y-95549761D02*
X136322619Y-95359285D01*
X136322619Y-95359285D02*
X136346428Y-95311666D01*
X136346428Y-95311666D02*
X136394047Y-95287857D01*
X136394047Y-95287857D02*
X136489285Y-95287857D01*
X136489285Y-95287857D02*
X136536904Y-95311666D01*
X136536904Y-95311666D02*
X136560714Y-95359285D01*
X136560714Y-95359285D02*
X136560714Y-95406904D01*
X136560714Y-95406904D02*
X136322619Y-95454523D01*
X136774999Y-95621190D02*
X136774999Y-95287857D01*
X136774999Y-95383095D02*
X136798809Y-95335476D01*
X136798809Y-95335476D02*
X136822618Y-95311666D01*
X136822618Y-95311666D02*
X136870237Y-95287857D01*
X136870237Y-95287857D02*
X136917856Y-95287857D01*
X137036904Y-95287857D02*
X137155952Y-95621190D01*
X137274999Y-95287857D02*
X137155952Y-95621190D01*
X137155952Y-95621190D02*
X137108333Y-95740238D01*
X137108333Y-95740238D02*
X137084523Y-95764047D01*
X137084523Y-95764047D02*
X137036904Y-95787857D01*
X135072619Y-96383571D02*
X135048810Y-96407380D01*
X135048810Y-96407380D02*
X134977381Y-96431190D01*
X134977381Y-96431190D02*
X134929762Y-96431190D01*
X134929762Y-96431190D02*
X134858334Y-96407380D01*
X134858334Y-96407380D02*
X134810715Y-96359761D01*
X134810715Y-96359761D02*
X134786905Y-96312142D01*
X134786905Y-96312142D02*
X134763096Y-96216904D01*
X134763096Y-96216904D02*
X134763096Y-96145476D01*
X134763096Y-96145476D02*
X134786905Y-96050238D01*
X134786905Y-96050238D02*
X134810715Y-96002619D01*
X134810715Y-96002619D02*
X134858334Y-95955000D01*
X134858334Y-95955000D02*
X134929762Y-95931190D01*
X134929762Y-95931190D02*
X134977381Y-95931190D01*
X134977381Y-95931190D02*
X135048810Y-95955000D01*
X135048810Y-95955000D02*
X135072619Y-95978809D01*
X135286905Y-96431190D02*
X135286905Y-96097857D01*
X135286905Y-96193095D02*
X135310715Y-96145476D01*
X135310715Y-96145476D02*
X135334524Y-96121666D01*
X135334524Y-96121666D02*
X135382143Y-96097857D01*
X135382143Y-96097857D02*
X135429762Y-96097857D01*
X135596429Y-96431190D02*
X135596429Y-96097857D01*
X135596429Y-95931190D02*
X135572620Y-95955000D01*
X135572620Y-95955000D02*
X135596429Y-95978809D01*
X135596429Y-95978809D02*
X135620239Y-95955000D01*
X135620239Y-95955000D02*
X135596429Y-95931190D01*
X135596429Y-95931190D02*
X135596429Y-95978809D01*
X135763096Y-96097857D02*
X135953572Y-96097857D01*
X135834524Y-95931190D02*
X135834524Y-96359761D01*
X135834524Y-96359761D02*
X135858334Y-96407380D01*
X135858334Y-96407380D02*
X135905953Y-96431190D01*
X135905953Y-96431190D02*
X135953572Y-96431190D01*
X136120238Y-96431190D02*
X136120238Y-96097857D01*
X136120238Y-95931190D02*
X136096429Y-95955000D01*
X136096429Y-95955000D02*
X136120238Y-95978809D01*
X136120238Y-95978809D02*
X136144048Y-95955000D01*
X136144048Y-95955000D02*
X136120238Y-95931190D01*
X136120238Y-95931190D02*
X136120238Y-95978809D01*
X136572619Y-96407380D02*
X136525000Y-96431190D01*
X136525000Y-96431190D02*
X136429762Y-96431190D01*
X136429762Y-96431190D02*
X136382143Y-96407380D01*
X136382143Y-96407380D02*
X136358333Y-96383571D01*
X136358333Y-96383571D02*
X136334524Y-96335952D01*
X136334524Y-96335952D02*
X136334524Y-96193095D01*
X136334524Y-96193095D02*
X136358333Y-96145476D01*
X136358333Y-96145476D02*
X136382143Y-96121666D01*
X136382143Y-96121666D02*
X136429762Y-96097857D01*
X136429762Y-96097857D02*
X136525000Y-96097857D01*
X136525000Y-96097857D02*
X136572619Y-96121666D01*
X137001190Y-96431190D02*
X137001190Y-96169285D01*
X137001190Y-96169285D02*
X136977380Y-96121666D01*
X136977380Y-96121666D02*
X136929761Y-96097857D01*
X136929761Y-96097857D02*
X136834523Y-96097857D01*
X136834523Y-96097857D02*
X136786904Y-96121666D01*
X137001190Y-96407380D02*
X136953571Y-96431190D01*
X136953571Y-96431190D02*
X136834523Y-96431190D01*
X136834523Y-96431190D02*
X136786904Y-96407380D01*
X136786904Y-96407380D02*
X136763095Y-96359761D01*
X136763095Y-96359761D02*
X136763095Y-96312142D01*
X136763095Y-96312142D02*
X136786904Y-96264523D01*
X136786904Y-96264523D02*
X136834523Y-96240714D01*
X136834523Y-96240714D02*
X136953571Y-96240714D01*
X136953571Y-96240714D02*
X137001190Y-96216904D01*
X137310714Y-96431190D02*
X137263095Y-96407380D01*
X137263095Y-96407380D02*
X137239285Y-96359761D01*
X137239285Y-96359761D02*
X137239285Y-95931190D01*
X134584524Y-97241190D02*
X134417858Y-97003095D01*
X134298810Y-97241190D02*
X134298810Y-96741190D01*
X134298810Y-96741190D02*
X134489286Y-96741190D01*
X134489286Y-96741190D02*
X134536905Y-96765000D01*
X134536905Y-96765000D02*
X134560715Y-96788809D01*
X134560715Y-96788809D02*
X134584524Y-96836428D01*
X134584524Y-96836428D02*
X134584524Y-96907857D01*
X134584524Y-96907857D02*
X134560715Y-96955476D01*
X134560715Y-96955476D02*
X134536905Y-96979285D01*
X134536905Y-96979285D02*
X134489286Y-97003095D01*
X134489286Y-97003095D02*
X134298810Y-97003095D01*
X134989286Y-97217380D02*
X134941667Y-97241190D01*
X134941667Y-97241190D02*
X134846429Y-97241190D01*
X134846429Y-97241190D02*
X134798810Y-97217380D01*
X134798810Y-97217380D02*
X134775001Y-97169761D01*
X134775001Y-97169761D02*
X134775001Y-96979285D01*
X134775001Y-96979285D02*
X134798810Y-96931666D01*
X134798810Y-96931666D02*
X134846429Y-96907857D01*
X134846429Y-96907857D02*
X134941667Y-96907857D01*
X134941667Y-96907857D02*
X134989286Y-96931666D01*
X134989286Y-96931666D02*
X135013096Y-96979285D01*
X135013096Y-96979285D02*
X135013096Y-97026904D01*
X135013096Y-97026904D02*
X134775001Y-97074523D01*
X135155953Y-96907857D02*
X135346429Y-96907857D01*
X135227381Y-97241190D02*
X135227381Y-96812619D01*
X135227381Y-96812619D02*
X135251191Y-96765000D01*
X135251191Y-96765000D02*
X135298810Y-96741190D01*
X135298810Y-96741190D02*
X135346429Y-96741190D01*
X135703571Y-97217380D02*
X135655952Y-97241190D01*
X135655952Y-97241190D02*
X135560714Y-97241190D01*
X135560714Y-97241190D02*
X135513095Y-97217380D01*
X135513095Y-97217380D02*
X135489286Y-97169761D01*
X135489286Y-97169761D02*
X135489286Y-96979285D01*
X135489286Y-96979285D02*
X135513095Y-96931666D01*
X135513095Y-96931666D02*
X135560714Y-96907857D01*
X135560714Y-96907857D02*
X135655952Y-96907857D01*
X135655952Y-96907857D02*
X135703571Y-96931666D01*
X135703571Y-96931666D02*
X135727381Y-96979285D01*
X135727381Y-96979285D02*
X135727381Y-97026904D01*
X135727381Y-97026904D02*
X135489286Y-97074523D01*
X135941666Y-97241190D02*
X135941666Y-96907857D01*
X135941666Y-97003095D02*
X135965476Y-96955476D01*
X135965476Y-96955476D02*
X135989285Y-96931666D01*
X135989285Y-96931666D02*
X136036904Y-96907857D01*
X136036904Y-96907857D02*
X136084523Y-96907857D01*
X136441666Y-97217380D02*
X136394047Y-97241190D01*
X136394047Y-97241190D02*
X136298809Y-97241190D01*
X136298809Y-97241190D02*
X136251190Y-97217380D01*
X136251190Y-97217380D02*
X136227381Y-97169761D01*
X136227381Y-97169761D02*
X136227381Y-96979285D01*
X136227381Y-96979285D02*
X136251190Y-96931666D01*
X136251190Y-96931666D02*
X136298809Y-96907857D01*
X136298809Y-96907857D02*
X136394047Y-96907857D01*
X136394047Y-96907857D02*
X136441666Y-96931666D01*
X136441666Y-96931666D02*
X136465476Y-96979285D01*
X136465476Y-96979285D02*
X136465476Y-97026904D01*
X136465476Y-97026904D02*
X136227381Y-97074523D01*
X136679761Y-96907857D02*
X136679761Y-97241190D01*
X136679761Y-96955476D02*
X136703571Y-96931666D01*
X136703571Y-96931666D02*
X136751190Y-96907857D01*
X136751190Y-96907857D02*
X136822618Y-96907857D01*
X136822618Y-96907857D02*
X136870237Y-96931666D01*
X136870237Y-96931666D02*
X136894047Y-96979285D01*
X136894047Y-96979285D02*
X136894047Y-97241190D01*
X137346428Y-97217380D02*
X137298809Y-97241190D01*
X137298809Y-97241190D02*
X137203571Y-97241190D01*
X137203571Y-97241190D02*
X137155952Y-97217380D01*
X137155952Y-97217380D02*
X137132142Y-97193571D01*
X137132142Y-97193571D02*
X137108333Y-97145952D01*
X137108333Y-97145952D02*
X137108333Y-97003095D01*
X137108333Y-97003095D02*
X137132142Y-96955476D01*
X137132142Y-96955476D02*
X137155952Y-96931666D01*
X137155952Y-96931666D02*
X137203571Y-96907857D01*
X137203571Y-96907857D02*
X137298809Y-96907857D01*
X137298809Y-96907857D02*
X137346428Y-96931666D01*
X137751189Y-97217380D02*
X137703570Y-97241190D01*
X137703570Y-97241190D02*
X137608332Y-97241190D01*
X137608332Y-97241190D02*
X137560713Y-97217380D01*
X137560713Y-97217380D02*
X137536904Y-97169761D01*
X137536904Y-97169761D02*
X137536904Y-96979285D01*
X137536904Y-96979285D02*
X137560713Y-96931666D01*
X137560713Y-96931666D02*
X137608332Y-96907857D01*
X137608332Y-96907857D02*
X137703570Y-96907857D01*
X137703570Y-96907857D02*
X137751189Y-96931666D01*
X137751189Y-96931666D02*
X137774999Y-96979285D01*
X137774999Y-96979285D02*
X137774999Y-97026904D01*
X137774999Y-97026904D02*
X137536904Y-97074523D01*
D11*
X149607142Y-82187857D02*
X149107142Y-82187857D01*
X149107142Y-82973571D02*
X149107142Y-81473571D01*
X149107142Y-81473571D02*
X149821428Y-81473571D01*
X151035714Y-82973571D02*
X151035714Y-82187857D01*
X151035714Y-82187857D02*
X150964285Y-82045000D01*
X150964285Y-82045000D02*
X150821428Y-81973571D01*
X150821428Y-81973571D02*
X150535714Y-81973571D01*
X150535714Y-81973571D02*
X150392856Y-82045000D01*
X151035714Y-82902142D02*
X150892856Y-82973571D01*
X150892856Y-82973571D02*
X150535714Y-82973571D01*
X150535714Y-82973571D02*
X150392856Y-82902142D01*
X150392856Y-82902142D02*
X150321428Y-82759285D01*
X150321428Y-82759285D02*
X150321428Y-82616428D01*
X150321428Y-82616428D02*
X150392856Y-82473571D01*
X150392856Y-82473571D02*
X150535714Y-82402142D01*
X150535714Y-82402142D02*
X150892856Y-82402142D01*
X150892856Y-82402142D02*
X151035714Y-82330714D01*
X151749999Y-81973571D02*
X151749999Y-82973571D01*
X151749999Y-82116428D02*
X151821428Y-82045000D01*
X151821428Y-82045000D02*
X151964285Y-81973571D01*
X151964285Y-81973571D02*
X152178571Y-81973571D01*
X152178571Y-81973571D02*
X152321428Y-82045000D01*
X152321428Y-82045000D02*
X152392857Y-82187857D01*
X152392857Y-82187857D02*
X152392857Y-82973571D01*
X136376428Y-121832142D02*
X137876428Y-121832142D01*
X137733571Y-122475000D02*
X137805000Y-122546428D01*
X137805000Y-122546428D02*
X137876428Y-122689286D01*
X137876428Y-122689286D02*
X137876428Y-123046428D01*
X137876428Y-123046428D02*
X137805000Y-123189286D01*
X137805000Y-123189286D02*
X137733571Y-123260714D01*
X137733571Y-123260714D02*
X137590714Y-123332143D01*
X137590714Y-123332143D02*
X137447857Y-123332143D01*
X137447857Y-123332143D02*
X137233571Y-123260714D01*
X137233571Y-123260714D02*
X136376428Y-122403571D01*
X136376428Y-122403571D02*
X136376428Y-123332143D01*
X136519285Y-124832142D02*
X136447857Y-124760714D01*
X136447857Y-124760714D02*
X136376428Y-124546428D01*
X136376428Y-124546428D02*
X136376428Y-124403571D01*
X136376428Y-124403571D02*
X136447857Y-124189285D01*
X136447857Y-124189285D02*
X136590714Y-124046428D01*
X136590714Y-124046428D02*
X136733571Y-123974999D01*
X136733571Y-123974999D02*
X137019285Y-123903571D01*
X137019285Y-123903571D02*
X137233571Y-123903571D01*
X137233571Y-123903571D02*
X137519285Y-123974999D01*
X137519285Y-123974999D02*
X137662142Y-124046428D01*
X137662142Y-124046428D02*
X137805000Y-124189285D01*
X137805000Y-124189285D02*
X137876428Y-124403571D01*
X137876428Y-124403571D02*
X137876428Y-124546428D01*
X137876428Y-124546428D02*
X137805000Y-124760714D01*
X137805000Y-124760714D02*
X137733571Y-124832142D01*
X166187857Y-115242857D02*
X166259285Y-115028571D01*
X166259285Y-115028571D02*
X166330714Y-114957142D01*
X166330714Y-114957142D02*
X166473571Y-114885714D01*
X166473571Y-114885714D02*
X166687857Y-114885714D01*
X166687857Y-114885714D02*
X166830714Y-114957142D01*
X166830714Y-114957142D02*
X166902142Y-115028571D01*
X166902142Y-115028571D02*
X166973571Y-115171428D01*
X166973571Y-115171428D02*
X166973571Y-115742857D01*
X166973571Y-115742857D02*
X165473571Y-115742857D01*
X165473571Y-115742857D02*
X165473571Y-115242857D01*
X165473571Y-115242857D02*
X165545000Y-115100000D01*
X165545000Y-115100000D02*
X165616428Y-115028571D01*
X165616428Y-115028571D02*
X165759285Y-114957142D01*
X165759285Y-114957142D02*
X165902142Y-114957142D01*
X165902142Y-114957142D02*
X166045000Y-115028571D01*
X166045000Y-115028571D02*
X166116428Y-115100000D01*
X166116428Y-115100000D02*
X166187857Y-115242857D01*
X166187857Y-115242857D02*
X166187857Y-115742857D01*
X165973571Y-113600000D02*
X166973571Y-113600000D01*
X165973571Y-114242857D02*
X166759285Y-114242857D01*
X166759285Y-114242857D02*
X166902142Y-114171428D01*
X166902142Y-114171428D02*
X166973571Y-114028571D01*
X166973571Y-114028571D02*
X166973571Y-113814285D01*
X166973571Y-113814285D02*
X166902142Y-113671428D01*
X166902142Y-113671428D02*
X166830714Y-113600000D01*
X166973571Y-112885714D02*
X165973571Y-112885714D01*
X166116428Y-112885714D02*
X166045000Y-112814285D01*
X166045000Y-112814285D02*
X165973571Y-112671428D01*
X165973571Y-112671428D02*
X165973571Y-112457142D01*
X165973571Y-112457142D02*
X166045000Y-112314285D01*
X166045000Y-112314285D02*
X166187857Y-112242857D01*
X166187857Y-112242857D02*
X166973571Y-112242857D01*
X166187857Y-112242857D02*
X166045000Y-112171428D01*
X166045000Y-112171428D02*
X165973571Y-112028571D01*
X165973571Y-112028571D02*
X165973571Y-111814285D01*
X165973571Y-111814285D02*
X166045000Y-111671428D01*
X166045000Y-111671428D02*
X166187857Y-111599999D01*
X166187857Y-111599999D02*
X166973571Y-111599999D01*
X165973571Y-110885714D02*
X167473571Y-110885714D01*
X166045000Y-110885714D02*
X165973571Y-110742857D01*
X165973571Y-110742857D02*
X165973571Y-110457142D01*
X165973571Y-110457142D02*
X166045000Y-110314285D01*
X166045000Y-110314285D02*
X166116428Y-110242857D01*
X166116428Y-110242857D02*
X166259285Y-110171428D01*
X166259285Y-110171428D02*
X166687857Y-110171428D01*
X166687857Y-110171428D02*
X166830714Y-110242857D01*
X166830714Y-110242857D02*
X166902142Y-110314285D01*
X166902142Y-110314285D02*
X166973571Y-110457142D01*
X166973571Y-110457142D02*
X166973571Y-110742857D01*
X166973571Y-110742857D02*
X166902142Y-110885714D01*
X166902142Y-108957142D02*
X166973571Y-109099999D01*
X166973571Y-109099999D02*
X166973571Y-109385714D01*
X166973571Y-109385714D02*
X166902142Y-109528571D01*
X166902142Y-109528571D02*
X166759285Y-109599999D01*
X166759285Y-109599999D02*
X166187857Y-109599999D01*
X166187857Y-109599999D02*
X166045000Y-109528571D01*
X166045000Y-109528571D02*
X165973571Y-109385714D01*
X165973571Y-109385714D02*
X165973571Y-109099999D01*
X165973571Y-109099999D02*
X166045000Y-108957142D01*
X166045000Y-108957142D02*
X166187857Y-108885714D01*
X166187857Y-108885714D02*
X166330714Y-108885714D01*
X166330714Y-108885714D02*
X166473571Y-109599999D01*
X166973571Y-108242857D02*
X165973571Y-108242857D01*
X166259285Y-108242857D02*
X166116428Y-108171428D01*
X166116428Y-108171428D02*
X166045000Y-108100000D01*
X166045000Y-108100000D02*
X165973571Y-107957142D01*
X165973571Y-107957142D02*
X165973571Y-107814285D01*
X166902142Y-107385714D02*
X166973571Y-107242857D01*
X166973571Y-107242857D02*
X166973571Y-106957143D01*
X166973571Y-106957143D02*
X166902142Y-106814286D01*
X166902142Y-106814286D02*
X166759285Y-106742857D01*
X166759285Y-106742857D02*
X166687857Y-106742857D01*
X166687857Y-106742857D02*
X166545000Y-106814286D01*
X166545000Y-106814286D02*
X166473571Y-106957143D01*
X166473571Y-106957143D02*
X166473571Y-107171429D01*
X166473571Y-107171429D02*
X166402142Y-107314286D01*
X166402142Y-107314286D02*
X166259285Y-107385714D01*
X166259285Y-107385714D02*
X166187857Y-107385714D01*
X166187857Y-107385714D02*
X166045000Y-107314286D01*
X166045000Y-107314286D02*
X165973571Y-107171429D01*
X165973571Y-107171429D02*
X165973571Y-106957143D01*
X165973571Y-106957143D02*
X166045000Y-106814286D01*
D12*
X139014286Y-95384285D02*
X139085714Y-95408095D01*
X139085714Y-95408095D02*
X139109524Y-95431904D01*
X139109524Y-95431904D02*
X139133333Y-95479523D01*
X139133333Y-95479523D02*
X139133333Y-95550952D01*
X139133333Y-95550952D02*
X139109524Y-95598571D01*
X139109524Y-95598571D02*
X139085714Y-95622380D01*
X139085714Y-95622380D02*
X139038095Y-95646190D01*
X139038095Y-95646190D02*
X138847619Y-95646190D01*
X138847619Y-95646190D02*
X138847619Y-95146190D01*
X138847619Y-95146190D02*
X139014286Y-95146190D01*
X139014286Y-95146190D02*
X139061905Y-95170000D01*
X139061905Y-95170000D02*
X139085714Y-95193809D01*
X139085714Y-95193809D02*
X139109524Y-95241428D01*
X139109524Y-95241428D02*
X139109524Y-95289047D01*
X139109524Y-95289047D02*
X139085714Y-95336666D01*
X139085714Y-95336666D02*
X139061905Y-95360476D01*
X139061905Y-95360476D02*
X139014286Y-95384285D01*
X139014286Y-95384285D02*
X138847619Y-95384285D01*
X139561905Y-95646190D02*
X139561905Y-95384285D01*
X139561905Y-95384285D02*
X139538095Y-95336666D01*
X139538095Y-95336666D02*
X139490476Y-95312857D01*
X139490476Y-95312857D02*
X139395238Y-95312857D01*
X139395238Y-95312857D02*
X139347619Y-95336666D01*
X139561905Y-95622380D02*
X139514286Y-95646190D01*
X139514286Y-95646190D02*
X139395238Y-95646190D01*
X139395238Y-95646190D02*
X139347619Y-95622380D01*
X139347619Y-95622380D02*
X139323810Y-95574761D01*
X139323810Y-95574761D02*
X139323810Y-95527142D01*
X139323810Y-95527142D02*
X139347619Y-95479523D01*
X139347619Y-95479523D02*
X139395238Y-95455714D01*
X139395238Y-95455714D02*
X139514286Y-95455714D01*
X139514286Y-95455714D02*
X139561905Y-95431904D01*
X139728572Y-95312857D02*
X139919048Y-95312857D01*
X139800000Y-95146190D02*
X139800000Y-95574761D01*
X139800000Y-95574761D02*
X139823810Y-95622380D01*
X139823810Y-95622380D02*
X139871429Y-95646190D01*
X139871429Y-95646190D02*
X139919048Y-95646190D01*
X140014286Y-95312857D02*
X140204762Y-95312857D01*
X140085714Y-95146190D02*
X140085714Y-95574761D01*
X140085714Y-95574761D02*
X140109524Y-95622380D01*
X140109524Y-95622380D02*
X140157143Y-95646190D01*
X140157143Y-95646190D02*
X140204762Y-95646190D01*
X140561904Y-95622380D02*
X140514285Y-95646190D01*
X140514285Y-95646190D02*
X140419047Y-95646190D01*
X140419047Y-95646190D02*
X140371428Y-95622380D01*
X140371428Y-95622380D02*
X140347619Y-95574761D01*
X140347619Y-95574761D02*
X140347619Y-95384285D01*
X140347619Y-95384285D02*
X140371428Y-95336666D01*
X140371428Y-95336666D02*
X140419047Y-95312857D01*
X140419047Y-95312857D02*
X140514285Y-95312857D01*
X140514285Y-95312857D02*
X140561904Y-95336666D01*
X140561904Y-95336666D02*
X140585714Y-95384285D01*
X140585714Y-95384285D02*
X140585714Y-95431904D01*
X140585714Y-95431904D02*
X140347619Y-95479523D01*
X140799999Y-95646190D02*
X140799999Y-95312857D01*
X140799999Y-95408095D02*
X140823809Y-95360476D01*
X140823809Y-95360476D02*
X140847618Y-95336666D01*
X140847618Y-95336666D02*
X140895237Y-95312857D01*
X140895237Y-95312857D02*
X140942856Y-95312857D01*
X141061904Y-95312857D02*
X141180952Y-95646190D01*
X141299999Y-95312857D02*
X141180952Y-95646190D01*
X141180952Y-95646190D02*
X141133333Y-95765238D01*
X141133333Y-95765238D02*
X141109523Y-95789047D01*
X141109523Y-95789047D02*
X141061904Y-95812857D01*
X139716666Y-96456190D02*
X139478571Y-96456190D01*
X139478571Y-96456190D02*
X139478571Y-95956190D01*
X139954762Y-96456190D02*
X139907143Y-96432380D01*
X139907143Y-96432380D02*
X139883333Y-96408571D01*
X139883333Y-96408571D02*
X139859524Y-96360952D01*
X139859524Y-96360952D02*
X139859524Y-96218095D01*
X139859524Y-96218095D02*
X139883333Y-96170476D01*
X139883333Y-96170476D02*
X139907143Y-96146666D01*
X139907143Y-96146666D02*
X139954762Y-96122857D01*
X139954762Y-96122857D02*
X140026190Y-96122857D01*
X140026190Y-96122857D02*
X140073809Y-96146666D01*
X140073809Y-96146666D02*
X140097619Y-96170476D01*
X140097619Y-96170476D02*
X140121428Y-96218095D01*
X140121428Y-96218095D02*
X140121428Y-96360952D01*
X140121428Y-96360952D02*
X140097619Y-96408571D01*
X140097619Y-96408571D02*
X140073809Y-96432380D01*
X140073809Y-96432380D02*
X140026190Y-96456190D01*
X140026190Y-96456190D02*
X139954762Y-96456190D01*
X140288095Y-96122857D02*
X140383333Y-96456190D01*
X140383333Y-96456190D02*
X140478571Y-96218095D01*
X140478571Y-96218095D02*
X140573809Y-96456190D01*
X140573809Y-96456190D02*
X140669047Y-96122857D01*
X138609524Y-97266190D02*
X138442858Y-97028095D01*
X138323810Y-97266190D02*
X138323810Y-96766190D01*
X138323810Y-96766190D02*
X138514286Y-96766190D01*
X138514286Y-96766190D02*
X138561905Y-96790000D01*
X138561905Y-96790000D02*
X138585715Y-96813809D01*
X138585715Y-96813809D02*
X138609524Y-96861428D01*
X138609524Y-96861428D02*
X138609524Y-96932857D01*
X138609524Y-96932857D02*
X138585715Y-96980476D01*
X138585715Y-96980476D02*
X138561905Y-97004285D01*
X138561905Y-97004285D02*
X138514286Y-97028095D01*
X138514286Y-97028095D02*
X138323810Y-97028095D01*
X139014286Y-97242380D02*
X138966667Y-97266190D01*
X138966667Y-97266190D02*
X138871429Y-97266190D01*
X138871429Y-97266190D02*
X138823810Y-97242380D01*
X138823810Y-97242380D02*
X138800001Y-97194761D01*
X138800001Y-97194761D02*
X138800001Y-97004285D01*
X138800001Y-97004285D02*
X138823810Y-96956666D01*
X138823810Y-96956666D02*
X138871429Y-96932857D01*
X138871429Y-96932857D02*
X138966667Y-96932857D01*
X138966667Y-96932857D02*
X139014286Y-96956666D01*
X139014286Y-96956666D02*
X139038096Y-97004285D01*
X139038096Y-97004285D02*
X139038096Y-97051904D01*
X139038096Y-97051904D02*
X138800001Y-97099523D01*
X139180953Y-96932857D02*
X139371429Y-96932857D01*
X139252381Y-97266190D02*
X139252381Y-96837619D01*
X139252381Y-96837619D02*
X139276191Y-96790000D01*
X139276191Y-96790000D02*
X139323810Y-96766190D01*
X139323810Y-96766190D02*
X139371429Y-96766190D01*
X139728571Y-97242380D02*
X139680952Y-97266190D01*
X139680952Y-97266190D02*
X139585714Y-97266190D01*
X139585714Y-97266190D02*
X139538095Y-97242380D01*
X139538095Y-97242380D02*
X139514286Y-97194761D01*
X139514286Y-97194761D02*
X139514286Y-97004285D01*
X139514286Y-97004285D02*
X139538095Y-96956666D01*
X139538095Y-96956666D02*
X139585714Y-96932857D01*
X139585714Y-96932857D02*
X139680952Y-96932857D01*
X139680952Y-96932857D02*
X139728571Y-96956666D01*
X139728571Y-96956666D02*
X139752381Y-97004285D01*
X139752381Y-97004285D02*
X139752381Y-97051904D01*
X139752381Y-97051904D02*
X139514286Y-97099523D01*
X139966666Y-97266190D02*
X139966666Y-96932857D01*
X139966666Y-97028095D02*
X139990476Y-96980476D01*
X139990476Y-96980476D02*
X140014285Y-96956666D01*
X140014285Y-96956666D02*
X140061904Y-96932857D01*
X140061904Y-96932857D02*
X140109523Y-96932857D01*
X140466666Y-97242380D02*
X140419047Y-97266190D01*
X140419047Y-97266190D02*
X140323809Y-97266190D01*
X140323809Y-97266190D02*
X140276190Y-97242380D01*
X140276190Y-97242380D02*
X140252381Y-97194761D01*
X140252381Y-97194761D02*
X140252381Y-97004285D01*
X140252381Y-97004285D02*
X140276190Y-96956666D01*
X140276190Y-96956666D02*
X140323809Y-96932857D01*
X140323809Y-96932857D02*
X140419047Y-96932857D01*
X140419047Y-96932857D02*
X140466666Y-96956666D01*
X140466666Y-96956666D02*
X140490476Y-97004285D01*
X140490476Y-97004285D02*
X140490476Y-97051904D01*
X140490476Y-97051904D02*
X140252381Y-97099523D01*
X140704761Y-96932857D02*
X140704761Y-97266190D01*
X140704761Y-96980476D02*
X140728571Y-96956666D01*
X140728571Y-96956666D02*
X140776190Y-96932857D01*
X140776190Y-96932857D02*
X140847618Y-96932857D01*
X140847618Y-96932857D02*
X140895237Y-96956666D01*
X140895237Y-96956666D02*
X140919047Y-97004285D01*
X140919047Y-97004285D02*
X140919047Y-97266190D01*
X141371428Y-97242380D02*
X141323809Y-97266190D01*
X141323809Y-97266190D02*
X141228571Y-97266190D01*
X141228571Y-97266190D02*
X141180952Y-97242380D01*
X141180952Y-97242380D02*
X141157142Y-97218571D01*
X141157142Y-97218571D02*
X141133333Y-97170952D01*
X141133333Y-97170952D02*
X141133333Y-97028095D01*
X141133333Y-97028095D02*
X141157142Y-96980476D01*
X141157142Y-96980476D02*
X141180952Y-96956666D01*
X141180952Y-96956666D02*
X141228571Y-96932857D01*
X141228571Y-96932857D02*
X141323809Y-96932857D01*
X141323809Y-96932857D02*
X141371428Y-96956666D01*
X141776189Y-97242380D02*
X141728570Y-97266190D01*
X141728570Y-97266190D02*
X141633332Y-97266190D01*
X141633332Y-97266190D02*
X141585713Y-97242380D01*
X141585713Y-97242380D02*
X141561904Y-97194761D01*
X141561904Y-97194761D02*
X141561904Y-97004285D01*
X141561904Y-97004285D02*
X141585713Y-96956666D01*
X141585713Y-96956666D02*
X141633332Y-96932857D01*
X141633332Y-96932857D02*
X141728570Y-96932857D01*
X141728570Y-96932857D02*
X141776189Y-96956666D01*
X141776189Y-96956666D02*
X141799999Y-97004285D01*
X141799999Y-97004285D02*
X141799999Y-97051904D01*
X141799999Y-97051904D02*
X141561904Y-97099523D01*
D13*
X146217380Y-98374404D02*
X147026904Y-98374404D01*
X147026904Y-98374404D02*
X147122142Y-98326785D01*
X147122142Y-98326785D02*
X147169761Y-98279166D01*
X147169761Y-98279166D02*
X147217380Y-98183928D01*
X147217380Y-98183928D02*
X147217380Y-97993452D01*
X147217380Y-97993452D02*
X147169761Y-97898214D01*
X147169761Y-97898214D02*
X147122142Y-97850595D01*
X147122142Y-97850595D02*
X147026904Y-97802976D01*
X147026904Y-97802976D02*
X146217380Y-97802976D01*
X146550714Y-96898214D02*
X147217380Y-96898214D01*
X146169761Y-97136309D02*
X146884047Y-97374404D01*
X146884047Y-97374404D02*
X146884047Y-96755357D01*
X167853333Y-71512142D02*
X167805714Y-71559761D01*
X167805714Y-71559761D02*
X167662857Y-71607380D01*
X167662857Y-71607380D02*
X167567619Y-71607380D01*
X167567619Y-71607380D02*
X167424762Y-71559761D01*
X167424762Y-71559761D02*
X167329524Y-71464523D01*
X167329524Y-71464523D02*
X167281905Y-71369285D01*
X167281905Y-71369285D02*
X167234286Y-71178809D01*
X167234286Y-71178809D02*
X167234286Y-71035952D01*
X167234286Y-71035952D02*
X167281905Y-70845476D01*
X167281905Y-70845476D02*
X167329524Y-70750238D01*
X167329524Y-70750238D02*
X167424762Y-70655000D01*
X167424762Y-70655000D02*
X167567619Y-70607380D01*
X167567619Y-70607380D02*
X167662857Y-70607380D01*
X167662857Y-70607380D02*
X167805714Y-70655000D01*
X167805714Y-70655000D02*
X167853333Y-70702619D01*
X168710476Y-70940714D02*
X168710476Y-71607380D01*
X168472381Y-70559761D02*
X168234286Y-71274047D01*
X168234286Y-71274047D02*
X168853333Y-71274047D01*
X142163095Y-108227380D02*
X142163095Y-109036904D01*
X142163095Y-109036904D02*
X142210714Y-109132142D01*
X142210714Y-109132142D02*
X142258333Y-109179761D01*
X142258333Y-109179761D02*
X142353571Y-109227380D01*
X142353571Y-109227380D02*
X142544047Y-109227380D01*
X142544047Y-109227380D02*
X142639285Y-109179761D01*
X142639285Y-109179761D02*
X142686904Y-109132142D01*
X142686904Y-109132142D02*
X142734523Y-109036904D01*
X142734523Y-109036904D02*
X142734523Y-108227380D01*
X143686904Y-108227380D02*
X143210714Y-108227380D01*
X143210714Y-108227380D02*
X143163095Y-108703571D01*
X143163095Y-108703571D02*
X143210714Y-108655952D01*
X143210714Y-108655952D02*
X143305952Y-108608333D01*
X143305952Y-108608333D02*
X143544047Y-108608333D01*
X143544047Y-108608333D02*
X143639285Y-108655952D01*
X143639285Y-108655952D02*
X143686904Y-108703571D01*
X143686904Y-108703571D02*
X143734523Y-108798809D01*
X143734523Y-108798809D02*
X143734523Y-109036904D01*
X143734523Y-109036904D02*
X143686904Y-109132142D01*
X143686904Y-109132142D02*
X143639285Y-109179761D01*
X143639285Y-109179761D02*
X143544047Y-109227380D01*
X143544047Y-109227380D02*
X143305952Y-109227380D01*
X143305952Y-109227380D02*
X143210714Y-109179761D01*
X143210714Y-109179761D02*
X143163095Y-109132142D01*
X151192380Y-98349404D02*
X152001904Y-98349404D01*
X152001904Y-98349404D02*
X152097142Y-98301785D01*
X152097142Y-98301785D02*
X152144761Y-98254166D01*
X152144761Y-98254166D02*
X152192380Y-98158928D01*
X152192380Y-98158928D02*
X152192380Y-97968452D01*
X152192380Y-97968452D02*
X152144761Y-97873214D01*
X152144761Y-97873214D02*
X152097142Y-97825595D01*
X152097142Y-97825595D02*
X152001904Y-97777976D01*
X152001904Y-97777976D02*
X151192380Y-97777976D01*
X151192380Y-97397023D02*
X151192380Y-96777976D01*
X151192380Y-96777976D02*
X151573333Y-97111309D01*
X151573333Y-97111309D02*
X151573333Y-96968452D01*
X151573333Y-96968452D02*
X151620952Y-96873214D01*
X151620952Y-96873214D02*
X151668571Y-96825595D01*
X151668571Y-96825595D02*
X151763809Y-96777976D01*
X151763809Y-96777976D02*
X152001904Y-96777976D01*
X152001904Y-96777976D02*
X152097142Y-96825595D01*
X152097142Y-96825595D02*
X152144761Y-96873214D01*
X152144761Y-96873214D02*
X152192380Y-96968452D01*
X152192380Y-96968452D02*
X152192380Y-97254166D01*
X152192380Y-97254166D02*
X152144761Y-97349404D01*
X152144761Y-97349404D02*
X152097142Y-97397023D01*
X131842380Y-98386904D02*
X132651904Y-98386904D01*
X132651904Y-98386904D02*
X132747142Y-98339285D01*
X132747142Y-98339285D02*
X132794761Y-98291666D01*
X132794761Y-98291666D02*
X132842380Y-98196428D01*
X132842380Y-98196428D02*
X132842380Y-98005952D01*
X132842380Y-98005952D02*
X132794761Y-97910714D01*
X132794761Y-97910714D02*
X132747142Y-97863095D01*
X132747142Y-97863095D02*
X132651904Y-97815476D01*
X132651904Y-97815476D02*
X131842380Y-97815476D01*
X132842380Y-97291666D02*
X132842380Y-97101190D01*
X132842380Y-97101190D02*
X132794761Y-97005952D01*
X132794761Y-97005952D02*
X132747142Y-96958333D01*
X132747142Y-96958333D02*
X132604285Y-96863095D01*
X132604285Y-96863095D02*
X132413809Y-96815476D01*
X132413809Y-96815476D02*
X132032857Y-96815476D01*
X132032857Y-96815476D02*
X131937619Y-96863095D01*
X131937619Y-96863095D02*
X131890000Y-96910714D01*
X131890000Y-96910714D02*
X131842380Y-97005952D01*
X131842380Y-97005952D02*
X131842380Y-97196428D01*
X131842380Y-97196428D02*
X131890000Y-97291666D01*
X131890000Y-97291666D02*
X131937619Y-97339285D01*
X131937619Y-97339285D02*
X132032857Y-97386904D01*
X132032857Y-97386904D02*
X132270952Y-97386904D01*
X132270952Y-97386904D02*
X132366190Y-97339285D01*
X132366190Y-97339285D02*
X132413809Y-97291666D01*
X132413809Y-97291666D02*
X132461428Y-97196428D01*
X132461428Y-97196428D02*
X132461428Y-97005952D01*
X132461428Y-97005952D02*
X132413809Y-96910714D01*
X132413809Y-96910714D02*
X132366190Y-96863095D01*
X132366190Y-96863095D02*
X132270952Y-96815476D01*
X152373333Y-71552142D02*
X152325714Y-71599761D01*
X152325714Y-71599761D02*
X152182857Y-71647380D01*
X152182857Y-71647380D02*
X152087619Y-71647380D01*
X152087619Y-71647380D02*
X151944762Y-71599761D01*
X151944762Y-71599761D02*
X151849524Y-71504523D01*
X151849524Y-71504523D02*
X151801905Y-71409285D01*
X151801905Y-71409285D02*
X151754286Y-71218809D01*
X151754286Y-71218809D02*
X151754286Y-71075952D01*
X151754286Y-71075952D02*
X151801905Y-70885476D01*
X151801905Y-70885476D02*
X151849524Y-70790238D01*
X151849524Y-70790238D02*
X151944762Y-70695000D01*
X151944762Y-70695000D02*
X152087619Y-70647380D01*
X152087619Y-70647380D02*
X152182857Y-70647380D01*
X152182857Y-70647380D02*
X152325714Y-70695000D01*
X152325714Y-70695000D02*
X152373333Y-70742619D01*
X153278095Y-70647380D02*
X152801905Y-70647380D01*
X152801905Y-70647380D02*
X152754286Y-71123571D01*
X152754286Y-71123571D02*
X152801905Y-71075952D01*
X152801905Y-71075952D02*
X152897143Y-71028333D01*
X152897143Y-71028333D02*
X153135238Y-71028333D01*
X153135238Y-71028333D02*
X153230476Y-71075952D01*
X153230476Y-71075952D02*
X153278095Y-71123571D01*
X153278095Y-71123571D02*
X153325714Y-71218809D01*
X153325714Y-71218809D02*
X153325714Y-71456904D01*
X153325714Y-71456904D02*
X153278095Y-71552142D01*
X153278095Y-71552142D02*
X153230476Y-71599761D01*
X153230476Y-71599761D02*
X153135238Y-71647380D01*
X153135238Y-71647380D02*
X152897143Y-71647380D01*
X152897143Y-71647380D02*
X152801905Y-71599761D01*
X152801905Y-71599761D02*
X152754286Y-71552142D01*
X156072380Y-98374404D02*
X156881904Y-98374404D01*
X156881904Y-98374404D02*
X156977142Y-98326785D01*
X156977142Y-98326785D02*
X157024761Y-98279166D01*
X157024761Y-98279166D02*
X157072380Y-98183928D01*
X157072380Y-98183928D02*
X157072380Y-97993452D01*
X157072380Y-97993452D02*
X157024761Y-97898214D01*
X157024761Y-97898214D02*
X156977142Y-97850595D01*
X156977142Y-97850595D02*
X156881904Y-97802976D01*
X156881904Y-97802976D02*
X156072380Y-97802976D01*
X156072380Y-96898214D02*
X156072380Y-97088690D01*
X156072380Y-97088690D02*
X156120000Y-97183928D01*
X156120000Y-97183928D02*
X156167619Y-97231547D01*
X156167619Y-97231547D02*
X156310476Y-97326785D01*
X156310476Y-97326785D02*
X156500952Y-97374404D01*
X156500952Y-97374404D02*
X156881904Y-97374404D01*
X156881904Y-97374404D02*
X156977142Y-97326785D01*
X156977142Y-97326785D02*
X157024761Y-97279166D01*
X157024761Y-97279166D02*
X157072380Y-97183928D01*
X157072380Y-97183928D02*
X157072380Y-96993452D01*
X157072380Y-96993452D02*
X157024761Y-96898214D01*
X157024761Y-96898214D02*
X156977142Y-96850595D01*
X156977142Y-96850595D02*
X156881904Y-96802976D01*
X156881904Y-96802976D02*
X156643809Y-96802976D01*
X156643809Y-96802976D02*
X156548571Y-96850595D01*
X156548571Y-96850595D02*
X156500952Y-96898214D01*
X156500952Y-96898214D02*
X156453333Y-96993452D01*
X156453333Y-96993452D02*
X156453333Y-97183928D01*
X156453333Y-97183928D02*
X156500952Y-97279166D01*
X156500952Y-97279166D02*
X156548571Y-97326785D01*
X156548571Y-97326785D02*
X156643809Y-97374404D01*
X140633333Y-71562142D02*
X140585714Y-71609761D01*
X140585714Y-71609761D02*
X140442857Y-71657380D01*
X140442857Y-71657380D02*
X140347619Y-71657380D01*
X140347619Y-71657380D02*
X140204762Y-71609761D01*
X140204762Y-71609761D02*
X140109524Y-71514523D01*
X140109524Y-71514523D02*
X140061905Y-71419285D01*
X140061905Y-71419285D02*
X140014286Y-71228809D01*
X140014286Y-71228809D02*
X140014286Y-71085952D01*
X140014286Y-71085952D02*
X140061905Y-70895476D01*
X140061905Y-70895476D02*
X140109524Y-70800238D01*
X140109524Y-70800238D02*
X140204762Y-70705000D01*
X140204762Y-70705000D02*
X140347619Y-70657380D01*
X140347619Y-70657380D02*
X140442857Y-70657380D01*
X140442857Y-70657380D02*
X140585714Y-70705000D01*
X140585714Y-70705000D02*
X140633333Y-70752619D01*
X140966667Y-70657380D02*
X141585714Y-70657380D01*
X141585714Y-70657380D02*
X141252381Y-71038333D01*
X141252381Y-71038333D02*
X141395238Y-71038333D01*
X141395238Y-71038333D02*
X141490476Y-71085952D01*
X141490476Y-71085952D02*
X141538095Y-71133571D01*
X141538095Y-71133571D02*
X141585714Y-71228809D01*
X141585714Y-71228809D02*
X141585714Y-71466904D01*
X141585714Y-71466904D02*
X141538095Y-71562142D01*
X141538095Y-71562142D02*
X141490476Y-71609761D01*
X141490476Y-71609761D02*
X141395238Y-71657380D01*
X141395238Y-71657380D02*
X141109524Y-71657380D01*
X141109524Y-71657380D02*
X141014286Y-71609761D01*
X141014286Y-71609761D02*
X140966667Y-71562142D01*
X137238095Y-89117380D02*
X137238095Y-89926904D01*
X137238095Y-89926904D02*
X137285714Y-90022142D01*
X137285714Y-90022142D02*
X137333333Y-90069761D01*
X137333333Y-90069761D02*
X137428571Y-90117380D01*
X137428571Y-90117380D02*
X137619047Y-90117380D01*
X137619047Y-90117380D02*
X137714285Y-90069761D01*
X137714285Y-90069761D02*
X137761904Y-90022142D01*
X137761904Y-90022142D02*
X137809523Y-89926904D01*
X137809523Y-89926904D02*
X137809523Y-89117380D01*
X138238095Y-89212619D02*
X138285714Y-89165000D01*
X138285714Y-89165000D02*
X138380952Y-89117380D01*
X138380952Y-89117380D02*
X138619047Y-89117380D01*
X138619047Y-89117380D02*
X138714285Y-89165000D01*
X138714285Y-89165000D02*
X138761904Y-89212619D01*
X138761904Y-89212619D02*
X138809523Y-89307857D01*
X138809523Y-89307857D02*
X138809523Y-89403095D01*
X138809523Y-89403095D02*
X138761904Y-89545952D01*
X138761904Y-89545952D02*
X138190476Y-90117380D01*
X138190476Y-90117380D02*
X138809523Y-90117380D01*
X142892380Y-98374404D02*
X143701904Y-98374404D01*
X143701904Y-98374404D02*
X143797142Y-98326785D01*
X143797142Y-98326785D02*
X143844761Y-98279166D01*
X143844761Y-98279166D02*
X143892380Y-98183928D01*
X143892380Y-98183928D02*
X143892380Y-97993452D01*
X143892380Y-97993452D02*
X143844761Y-97898214D01*
X143844761Y-97898214D02*
X143797142Y-97850595D01*
X143797142Y-97850595D02*
X143701904Y-97802976D01*
X143701904Y-97802976D02*
X142892380Y-97802976D01*
X142892380Y-97422023D02*
X142892380Y-96755357D01*
X142892380Y-96755357D02*
X143892380Y-97183928D01*
X170092380Y-98399404D02*
X170901904Y-98399404D01*
X170901904Y-98399404D02*
X170997142Y-98351785D01*
X170997142Y-98351785D02*
X171044761Y-98304166D01*
X171044761Y-98304166D02*
X171092380Y-98208928D01*
X171092380Y-98208928D02*
X171092380Y-98018452D01*
X171092380Y-98018452D02*
X171044761Y-97923214D01*
X171044761Y-97923214D02*
X170997142Y-97875595D01*
X170997142Y-97875595D02*
X170901904Y-97827976D01*
X170901904Y-97827976D02*
X170092380Y-97827976D01*
X170520952Y-97208928D02*
X170473333Y-97304166D01*
X170473333Y-97304166D02*
X170425714Y-97351785D01*
X170425714Y-97351785D02*
X170330476Y-97399404D01*
X170330476Y-97399404D02*
X170282857Y-97399404D01*
X170282857Y-97399404D02*
X170187619Y-97351785D01*
X170187619Y-97351785D02*
X170140000Y-97304166D01*
X170140000Y-97304166D02*
X170092380Y-97208928D01*
X170092380Y-97208928D02*
X170092380Y-97018452D01*
X170092380Y-97018452D02*
X170140000Y-96923214D01*
X170140000Y-96923214D02*
X170187619Y-96875595D01*
X170187619Y-96875595D02*
X170282857Y-96827976D01*
X170282857Y-96827976D02*
X170330476Y-96827976D01*
X170330476Y-96827976D02*
X170425714Y-96875595D01*
X170425714Y-96875595D02*
X170473333Y-96923214D01*
X170473333Y-96923214D02*
X170520952Y-97018452D01*
X170520952Y-97018452D02*
X170520952Y-97208928D01*
X170520952Y-97208928D02*
X170568571Y-97304166D01*
X170568571Y-97304166D02*
X170616190Y-97351785D01*
X170616190Y-97351785D02*
X170711428Y-97399404D01*
X170711428Y-97399404D02*
X170901904Y-97399404D01*
X170901904Y-97399404D02*
X170997142Y-97351785D01*
X170997142Y-97351785D02*
X171044761Y-97304166D01*
X171044761Y-97304166D02*
X171092380Y-97208928D01*
X171092380Y-97208928D02*
X171092380Y-97018452D01*
X171092380Y-97018452D02*
X171044761Y-96923214D01*
X171044761Y-96923214D02*
X170997142Y-96875595D01*
X170997142Y-96875595D02*
X170901904Y-96827976D01*
X170901904Y-96827976D02*
X170711428Y-96827976D01*
X170711428Y-96827976D02*
X170616190Y-96875595D01*
X170616190Y-96875595D02*
X170568571Y-96923214D01*
X170568571Y-96923214D02*
X170520952Y-97018452D01*
D14*
X145430000Y-99935000D02*
X145645000Y-99935000D01*
X145645000Y-99935000D02*
X145645000Y-101625000D01*
X148250000Y-99935000D02*
X148035000Y-99935000D01*
X145430000Y-97625000D02*
X145430000Y-99935000D01*
X145430000Y-97625000D02*
X145430000Y-95315000D01*
X148250000Y-97625000D02*
X148250000Y-99935000D01*
X148250000Y-97625000D02*
X148250000Y-95315000D01*
X145430000Y-95315000D02*
X145645000Y-95315000D01*
X148250000Y-95315000D02*
X148035000Y-95315000D01*
X157242224Y-103197500D02*
X156732776Y-103197500D01*
X157242224Y-102152500D02*
X156732776Y-102152500D01*
X168907776Y-102152500D02*
X169417224Y-102152500D01*
X168907776Y-103197500D02*
X169417224Y-103197500D01*
X134072500Y-85982776D02*
X134072500Y-86492224D01*
X133027500Y-85982776D02*
X133027500Y-86492224D01*
X140467224Y-92897500D02*
X139957776Y-92897500D01*
X140467224Y-91852500D02*
X139957776Y-91852500D01*
X145057776Y-102152500D02*
X145567224Y-102152500D01*
X145057776Y-103197500D02*
X145567224Y-103197500D01*
X138117224Y-119372500D02*
X137607776Y-119372500D01*
X138117224Y-118327500D02*
X137607776Y-118327500D01*
X132777500Y-89907224D02*
X132777500Y-89397776D01*
X133822500Y-89907224D02*
X133822500Y-89397776D01*
X173520000Y-73750000D02*
X172520000Y-73750000D01*
X173020000Y-74250000D02*
X173020000Y-73250000D01*
X172280000Y-74435563D02*
X172280000Y-72750000D01*
X172280000Y-74435563D02*
X171215563Y-75500000D01*
X172280000Y-68044437D02*
X172280000Y-69730000D01*
X172280000Y-68044437D02*
X171215563Y-66980000D01*
X171215563Y-75500000D02*
X163760000Y-75500000D01*
X171215563Y-66980000D02*
X163760000Y-66980000D01*
X163760000Y-75500000D02*
X163760000Y-72750000D01*
X163760000Y-66980000D02*
X163760000Y-69730000D01*
X149360000Y-105776233D02*
X149360000Y-106068767D01*
X148340000Y-105776233D02*
X148340000Y-106068767D01*
X140290000Y-103725000D02*
X140290000Y-114005000D01*
X140290000Y-114005000D02*
X145590000Y-114005000D01*
X141940000Y-103725000D02*
X140290000Y-103725000D01*
X145590000Y-103725000D02*
X143940000Y-103725000D01*
X145590000Y-114005000D02*
X145590000Y-103725000D01*
X141940000Y-103725000D02*
G75*
G03*
X143940000Y-103725000I1000000J0D01*
G01*
X144580000Y-76245119D02*
X144580000Y-77575119D01*
X143250000Y-76245119D02*
X144580000Y-76245119D01*
X141980000Y-76245119D02*
X136840000Y-76245119D01*
X141980000Y-76245119D02*
X141980000Y-78905119D01*
X136840000Y-76245119D02*
X136840000Y-78905119D01*
X141980000Y-78905119D02*
X136840000Y-78905119D01*
X136042224Y-94447500D02*
X135532776Y-94447500D01*
X136042224Y-93402500D02*
X135532776Y-93402500D01*
X167540000Y-116460000D02*
X168790000Y-116460000D01*
X167840000Y-116160000D02*
X172560000Y-116160000D01*
X169150000Y-116160000D02*
X169150000Y-115550000D01*
X170450000Y-116160000D02*
X170450000Y-115550000D01*
X172560000Y-116160000D02*
X172560000Y-106040000D01*
X168450000Y-115550000D02*
X171950000Y-115550000D01*
X171950000Y-115550000D02*
X171950000Y-106650000D01*
X167540000Y-115210000D02*
X167540000Y-116460000D01*
X167640000Y-114700000D02*
X167840000Y-114700000D01*
X167640000Y-114400000D02*
X167640000Y-114700000D01*
X167740000Y-114400000D02*
X167740000Y-114700000D01*
X167840000Y-114400000D02*
X167640000Y-114400000D01*
X167840000Y-113600000D02*
X168450000Y-113600000D01*
X168450000Y-113600000D02*
X168450000Y-115550000D01*
X171450000Y-113200000D02*
X171450000Y-113000000D01*
X171950000Y-113200000D02*
X171450000Y-113200000D01*
X171950000Y-113100000D02*
X171450000Y-113100000D01*
X171450000Y-113000000D02*
X171950000Y-113000000D01*
X171450000Y-111200000D02*
X171450000Y-111000000D01*
X171950000Y-111200000D02*
X171450000Y-111200000D01*
X171950000Y-111100000D02*
X171450000Y-111100000D01*
X171450000Y-111000000D02*
X171950000Y-111000000D01*
X171450000Y-109200000D02*
X171450000Y-109000000D01*
X171950000Y-109200000D02*
X171450000Y-109200000D01*
X171950000Y-109100000D02*
X171450000Y-109100000D01*
X171450000Y-109000000D02*
X171950000Y-109000000D01*
X168450000Y-108600000D02*
X167840000Y-108600000D01*
X168450000Y-106650000D02*
X168450000Y-108600000D01*
X171950000Y-106650000D02*
X168450000Y-106650000D01*
X167840000Y-106040000D02*
X167840000Y-116160000D01*
X169150000Y-106040000D02*
X169150000Y-106650000D01*
X170450000Y-106040000D02*
X170450000Y-106650000D01*
X172560000Y-106040000D02*
X167840000Y-106040000D01*
X167540000Y-127535000D02*
X168790000Y-127535000D01*
X167840000Y-127235000D02*
X172560000Y-127235000D01*
X169150000Y-127235000D02*
X169150000Y-126625000D01*
X170450000Y-127235000D02*
X170450000Y-126625000D01*
X172560000Y-127235000D02*
X172560000Y-117115000D01*
X168450000Y-126625000D02*
X171950000Y-126625000D01*
X171950000Y-126625000D02*
X171950000Y-117725000D01*
X167540000Y-126285000D02*
X167540000Y-127535000D01*
X167640000Y-125775000D02*
X167840000Y-125775000D01*
X167640000Y-125475000D02*
X167640000Y-125775000D01*
X167740000Y-125475000D02*
X167740000Y-125775000D01*
X167840000Y-125475000D02*
X167640000Y-125475000D01*
X167840000Y-124675000D02*
X168450000Y-124675000D01*
X168450000Y-124675000D02*
X168450000Y-126625000D01*
X171450000Y-124275000D02*
X171450000Y-124075000D01*
X171950000Y-124275000D02*
X171450000Y-124275000D01*
X171950000Y-124175000D02*
X171450000Y-124175000D01*
X171450000Y-124075000D02*
X171950000Y-124075000D01*
X171450000Y-122275000D02*
X171450000Y-122075000D01*
X171950000Y-122275000D02*
X171450000Y-122275000D01*
X171950000Y-122175000D02*
X171450000Y-122175000D01*
X171450000Y-122075000D02*
X171950000Y-122075000D01*
X171450000Y-120275000D02*
X171450000Y-120075000D01*
X171950000Y-120275000D02*
X171450000Y-120275000D01*
X171950000Y-120175000D02*
X171450000Y-120175000D01*
X171450000Y-120075000D02*
X171950000Y-120075000D01*
X168450000Y-119675000D02*
X167840000Y-119675000D01*
X168450000Y-117725000D02*
X168450000Y-119675000D01*
X171950000Y-117725000D02*
X168450000Y-117725000D01*
X167840000Y-117115000D02*
X167840000Y-127235000D01*
X169150000Y-117115000D02*
X169150000Y-117725000D01*
X170450000Y-117115000D02*
X170450000Y-117725000D01*
X172560000Y-117115000D02*
X167840000Y-117115000D01*
X153250000Y-95290000D02*
X153035000Y-95290000D01*
X153035000Y-95290000D02*
X153035000Y-93600000D01*
X150430000Y-95290000D02*
X150645000Y-95290000D01*
X153250000Y-97600000D02*
X153250000Y-95290000D01*
X153250000Y-97600000D02*
X153250000Y-99910000D01*
X150430000Y-97600000D02*
X150430000Y-95290000D01*
X150430000Y-97600000D02*
X150430000Y-99910000D01*
X153250000Y-99910000D02*
X153035000Y-99910000D01*
X150430000Y-99910000D02*
X150645000Y-99910000D01*
X131080000Y-99935000D02*
X131295000Y-99935000D01*
X131295000Y-99935000D02*
X131295000Y-101625000D01*
X133900000Y-99935000D02*
X133685000Y-99935000D01*
X131080000Y-97625000D02*
X131080000Y-99935000D01*
X131080000Y-97625000D02*
X131080000Y-95315000D01*
X133900000Y-97625000D02*
X133900000Y-99935000D01*
X133900000Y-97625000D02*
X133900000Y-95315000D01*
X131080000Y-95315000D02*
X131295000Y-95315000D01*
X133900000Y-95315000D02*
X133685000Y-95315000D01*
X140158767Y-87660000D02*
X139866233Y-87660000D01*
X140158767Y-86640000D02*
X139866233Y-86640000D01*
X135985000Y-114465000D02*
X134735000Y-114465000D01*
X135685000Y-114765000D02*
X130965000Y-114765000D01*
X134375000Y-114765000D02*
X134375000Y-115375000D01*
X133075000Y-114765000D02*
X133075000Y-115375000D01*
X130965000Y-114765000D02*
X130965000Y-124885000D01*
X135075000Y-115375000D02*
X131575000Y-115375000D01*
X131575000Y-115375000D02*
X131575000Y-124275000D01*
X135985000Y-115715000D02*
X135985000Y-114465000D01*
X135885000Y-116225000D02*
X135685000Y-116225000D01*
X135885000Y-116525000D02*
X135885000Y-116225000D01*
X135785000Y-116525000D02*
X135785000Y-116225000D01*
X135685000Y-116525000D02*
X135885000Y-116525000D01*
X135685000Y-117325000D02*
X135075000Y-117325000D01*
X135075000Y-117325000D02*
X135075000Y-115375000D01*
X132075000Y-117725000D02*
X132075000Y-117925000D01*
X131575000Y-117725000D02*
X132075000Y-117725000D01*
X131575000Y-117825000D02*
X132075000Y-117825000D01*
X132075000Y-117925000D02*
X131575000Y-117925000D01*
X132075000Y-119725000D02*
X132075000Y-119925000D01*
X131575000Y-119725000D02*
X132075000Y-119725000D01*
X131575000Y-119825000D02*
X132075000Y-119825000D01*
X132075000Y-119925000D02*
X131575000Y-119925000D01*
X132075000Y-121725000D02*
X132075000Y-121925000D01*
X131575000Y-121725000D02*
X132075000Y-121725000D01*
X131575000Y-121825000D02*
X132075000Y-121825000D01*
X132075000Y-121925000D02*
X131575000Y-121925000D01*
X135075000Y-122325000D02*
X135685000Y-122325000D01*
X135075000Y-124275000D02*
X135075000Y-122325000D01*
X131575000Y-124275000D02*
X135075000Y-124275000D01*
X135685000Y-124885000D02*
X135685000Y-114765000D01*
X134375000Y-124885000D02*
X134375000Y-124275000D01*
X133075000Y-124885000D02*
X133075000Y-124275000D01*
X130965000Y-124885000D02*
X135685000Y-124885000D01*
X147030000Y-68770000D02*
X148030000Y-68770000D01*
X147530000Y-68270000D02*
X147530000Y-69270000D01*
X148270000Y-68084437D02*
X148270000Y-69770000D01*
X148270000Y-68084437D02*
X149334437Y-67020000D01*
X148270000Y-74475563D02*
X148270000Y-72790000D01*
X148270000Y-74475563D02*
X149334437Y-75540000D01*
X149334437Y-67020000D02*
X156790000Y-67020000D01*
X149334437Y-75540000D02*
X156790000Y-75540000D01*
X156790000Y-67020000D02*
X156790000Y-69770000D01*
X156790000Y-75540000D02*
X156790000Y-72790000D01*
X138117224Y-121347500D02*
X137607776Y-121347500D01*
X138117224Y-120302500D02*
X137607776Y-120302500D01*
X139957776Y-93427500D02*
X140467224Y-93427500D01*
X139957776Y-94472500D02*
X140467224Y-94472500D01*
X145415000Y-75840000D02*
X145415000Y-77090000D01*
X145715000Y-76140000D02*
X145715000Y-80860000D01*
X145715000Y-77450000D02*
X146325000Y-77450000D01*
X145715000Y-78750000D02*
X146325000Y-78750000D01*
X145715000Y-80860000D02*
X157835000Y-80860000D01*
X146325000Y-76750000D02*
X146325000Y-80250000D01*
X146325000Y-80250000D02*
X157225000Y-80250000D01*
X146665000Y-75840000D02*
X145415000Y-75840000D01*
X147175000Y-75940000D02*
X147175000Y-76140000D01*
X147475000Y-75940000D02*
X147175000Y-75940000D01*
X147475000Y-76040000D02*
X147175000Y-76040000D01*
X147475000Y-76140000D02*
X147475000Y-75940000D01*
X148275000Y-76140000D02*
X148275000Y-76750000D01*
X148275000Y-76750000D02*
X146325000Y-76750000D01*
X148675000Y-79750000D02*
X148875000Y-79750000D01*
X148675000Y-80250000D02*
X148675000Y-79750000D01*
X148775000Y-80250000D02*
X148775000Y-79750000D01*
X148875000Y-79750000D02*
X148875000Y-80250000D01*
X150675000Y-79750000D02*
X150875000Y-79750000D01*
X150675000Y-80250000D02*
X150675000Y-79750000D01*
X150775000Y-80250000D02*
X150775000Y-79750000D01*
X150875000Y-79750000D02*
X150875000Y-80250000D01*
X152675000Y-79750000D02*
X152875000Y-79750000D01*
X152675000Y-80250000D02*
X152675000Y-79750000D01*
X152775000Y-80250000D02*
X152775000Y-79750000D01*
X152875000Y-79750000D02*
X152875000Y-80250000D01*
X154675000Y-79750000D02*
X154875000Y-79750000D01*
X154675000Y-80250000D02*
X154675000Y-79750000D01*
X154775000Y-80250000D02*
X154775000Y-79750000D01*
X154875000Y-79750000D02*
X154875000Y-80250000D01*
X155275000Y-76750000D02*
X155275000Y-76140000D01*
X157225000Y-76750000D02*
X155275000Y-76750000D01*
X157225000Y-80250000D02*
X157225000Y-76750000D01*
X157835000Y-76140000D02*
X145715000Y-76140000D01*
X157835000Y-77450000D02*
X157225000Y-77450000D01*
X157835000Y-78750000D02*
X157225000Y-78750000D01*
X157835000Y-80860000D02*
X157835000Y-76140000D01*
X155305000Y-99935000D02*
X155520000Y-99935000D01*
X155520000Y-99935000D02*
X155520000Y-101625000D01*
X158125000Y-99935000D02*
X157910000Y-99935000D01*
X155305000Y-97625000D02*
X155305000Y-99935000D01*
X155305000Y-97625000D02*
X155305000Y-95315000D01*
X158125000Y-97625000D02*
X158125000Y-99935000D01*
X158125000Y-97625000D02*
X158125000Y-95315000D01*
X155305000Y-95315000D02*
X155520000Y-95315000D01*
X158125000Y-95315000D02*
X157910000Y-95315000D01*
X147415000Y-83340000D02*
X147415000Y-84590000D01*
X147715000Y-83640000D02*
X147715000Y-88360000D01*
X147715000Y-84950000D02*
X148325000Y-84950000D01*
X147715000Y-86250000D02*
X148325000Y-86250000D01*
X147715000Y-88360000D02*
X153835000Y-88360000D01*
X148325000Y-84250000D02*
X148325000Y-87750000D01*
X148325000Y-87750000D02*
X153225000Y-87750000D01*
X148665000Y-83340000D02*
X147415000Y-83340000D01*
X149175000Y-83440000D02*
X149175000Y-83640000D01*
X149475000Y-83440000D02*
X149175000Y-83440000D01*
X149475000Y-83540000D02*
X149175000Y-83540000D01*
X149475000Y-83640000D02*
X149475000Y-83440000D01*
X150275000Y-83640000D02*
X150275000Y-84250000D01*
X150275000Y-84250000D02*
X148325000Y-84250000D01*
X150675000Y-87250000D02*
X150875000Y-87250000D01*
X150675000Y-87750000D02*
X150675000Y-87250000D01*
X150775000Y-87750000D02*
X150775000Y-87250000D01*
X150875000Y-87250000D02*
X150875000Y-87750000D01*
X151275000Y-84250000D02*
X151275000Y-83640000D01*
X153225000Y-84250000D02*
X151275000Y-84250000D01*
X153225000Y-87750000D02*
X153225000Y-84250000D01*
X153835000Y-83640000D02*
X147715000Y-83640000D01*
X153835000Y-84950000D02*
X153225000Y-84950000D01*
X153835000Y-86250000D02*
X153225000Y-86250000D01*
X153835000Y-88360000D02*
X153835000Y-83640000D01*
X131760000Y-82605119D02*
X131760000Y-81275119D01*
X133090000Y-82605119D02*
X131760000Y-82605119D01*
X134360000Y-82605119D02*
X144580000Y-82605119D01*
X134360000Y-82605119D02*
X134360000Y-79945119D01*
X144580000Y-82605119D02*
X144580000Y-79945119D01*
X134360000Y-79945119D02*
X144580000Y-79945119D01*
X143802500Y-91904724D02*
X143802500Y-91395276D01*
X144847500Y-91904724D02*
X144847500Y-91395276D01*
X134540000Y-85837500D02*
X134540000Y-87637500D01*
X134540000Y-85837500D02*
X134540000Y-85037500D01*
X137660000Y-85837500D02*
X137660000Y-86637500D01*
X137660000Y-85837500D02*
X137660000Y-85037500D01*
X158980000Y-82580119D02*
X158980000Y-81250119D01*
X160310000Y-82580119D02*
X158980000Y-82580119D01*
X161580000Y-82580119D02*
X171800000Y-82580119D01*
X161580000Y-82580119D02*
X161580000Y-79920119D01*
X171800000Y-82580119D02*
X171800000Y-79920119D01*
X161580000Y-79920119D02*
X171800000Y-79920119D01*
X146300000Y-73800000D02*
X145300000Y-73800000D01*
X145800000Y-74300000D02*
X145800000Y-73300000D01*
X145060000Y-74485563D02*
X145060000Y-72800000D01*
X145060000Y-74485563D02*
X143995563Y-75550000D01*
X145060000Y-68094437D02*
X145060000Y-69780000D01*
X145060000Y-68094437D02*
X143995563Y-67030000D01*
X143995563Y-75550000D02*
X136540000Y-75550000D01*
X143995563Y-67030000D02*
X136540000Y-67030000D01*
X136540000Y-75550000D02*
X136540000Y-72800000D01*
X136540000Y-67030000D02*
X136540000Y-69780000D01*
X138000000Y-88140000D02*
X134400000Y-88140000D01*
X138000000Y-88140000D02*
X140200000Y-88140000D01*
X138000000Y-91360000D02*
X135800000Y-91360000D01*
X138000000Y-91360000D02*
X140200000Y-91360000D01*
X133017224Y-103172500D02*
X132507776Y-103172500D01*
X133017224Y-102127500D02*
X132507776Y-102127500D01*
X171002500Y-91904724D02*
X171002500Y-91395276D01*
X172047500Y-91904724D02*
X172047500Y-91395276D01*
X141682776Y-102152500D02*
X142192224Y-102152500D01*
X141682776Y-103197500D02*
X142192224Y-103197500D01*
X135532776Y-91827500D02*
X136042224Y-91827500D01*
X135532776Y-92872500D02*
X136042224Y-92872500D01*
X142105000Y-99935000D02*
X142320000Y-99935000D01*
X142320000Y-99935000D02*
X142320000Y-101625000D01*
X144925000Y-99935000D02*
X144710000Y-99935000D01*
X142105000Y-97625000D02*
X142105000Y-99935000D01*
X142105000Y-97625000D02*
X142105000Y-95315000D01*
X144925000Y-97625000D02*
X144925000Y-99935000D01*
X144925000Y-97625000D02*
X144925000Y-95315000D01*
X142105000Y-95315000D02*
X142320000Y-95315000D01*
X144925000Y-95315000D02*
X144710000Y-95315000D01*
X135985000Y-103500000D02*
X134735000Y-103500000D01*
X135685000Y-103800000D02*
X130965000Y-103800000D01*
X134375000Y-103800000D02*
X134375000Y-104410000D01*
X133075000Y-103800000D02*
X133075000Y-104410000D01*
X130965000Y-103800000D02*
X130965000Y-113920000D01*
X135075000Y-104410000D02*
X131575000Y-104410000D01*
X131575000Y-104410000D02*
X131575000Y-113310000D01*
X135985000Y-104750000D02*
X135985000Y-103500000D01*
X135885000Y-105260000D02*
X135685000Y-105260000D01*
X135885000Y-105560000D02*
X135885000Y-105260000D01*
X135785000Y-105560000D02*
X135785000Y-105260000D01*
X135685000Y-105560000D02*
X135885000Y-105560000D01*
X135685000Y-106360000D02*
X135075000Y-106360000D01*
X135075000Y-106360000D02*
X135075000Y-104410000D01*
X132075000Y-106760000D02*
X132075000Y-106960000D01*
X131575000Y-106760000D02*
X132075000Y-106760000D01*
X131575000Y-106860000D02*
X132075000Y-106860000D01*
X132075000Y-106960000D02*
X131575000Y-106960000D01*
X132075000Y-108760000D02*
X132075000Y-108960000D01*
X131575000Y-108760000D02*
X132075000Y-108760000D01*
X131575000Y-108860000D02*
X132075000Y-108860000D01*
X132075000Y-108960000D02*
X131575000Y-108960000D01*
X132075000Y-110760000D02*
X132075000Y-110960000D01*
X131575000Y-110760000D02*
X132075000Y-110760000D01*
X131575000Y-110860000D02*
X132075000Y-110860000D01*
X132075000Y-110960000D02*
X131575000Y-110960000D01*
X135075000Y-111360000D02*
X135685000Y-111360000D01*
X135075000Y-113310000D02*
X135075000Y-111360000D01*
X131575000Y-113310000D02*
X135075000Y-113310000D01*
X135685000Y-113920000D02*
X135685000Y-103800000D01*
X134375000Y-113920000D02*
X134375000Y-113310000D01*
X133075000Y-113920000D02*
X133075000Y-113310000D01*
X130965000Y-113920000D02*
X135685000Y-113920000D01*
X169305000Y-99935000D02*
X169520000Y-99935000D01*
X169520000Y-99935000D02*
X169520000Y-101625000D01*
X172125000Y-99935000D02*
X171910000Y-99935000D01*
X169305000Y-97625000D02*
X169305000Y-99935000D01*
X169305000Y-97625000D02*
X169305000Y-95315000D01*
X172125000Y-97625000D02*
X172125000Y-99935000D01*
X172125000Y-97625000D02*
X172125000Y-95315000D01*
X169305000Y-95315000D02*
X169520000Y-95315000D01*
X172125000Y-95315000D02*
X171910000Y-95315000D01*
X171795000Y-76220119D02*
X171795000Y-77550119D01*
X170465000Y-76220119D02*
X171795000Y-76220119D01*
X169195000Y-76220119D02*
X164055000Y-76220119D01*
X169195000Y-76220119D02*
X169195000Y-78880119D01*
X164055000Y-76220119D02*
X164055000Y-78880119D01*
X169195000Y-78880119D02*
X164055000Y-78880119D01*
X151547500Y-91382776D02*
X151547500Y-91892224D01*
X150502500Y-91382776D02*
X150502500Y-91892224D01*
X157007500Y-91904724D02*
X157007500Y-91395276D01*
X158052500Y-91904724D02*
X158052500Y-91395276D01*
%LPC*%
D15*
X146205000Y-100812500D03*
X147475000Y-100812500D03*
X147475000Y-94437500D03*
X146205000Y-94437500D03*
D16*
X157900000Y-102675000D03*
X156075000Y-102675000D03*
D17*
X168250000Y-102675000D03*
X170075000Y-102675000D03*
D18*
X133550000Y-85325000D03*
X133550000Y-87150000D03*
D16*
X141125000Y-92375000D03*
X139300000Y-92375000D03*
D17*
X144400000Y-102675000D03*
X146225000Y-102675000D03*
D16*
X138775000Y-118850000D03*
X136950000Y-118850000D03*
D19*
X133300000Y-90565000D03*
X133300000Y-88740000D03*
D20*
X171270000Y-71240000D03*
X164770000Y-71240000D03*
D21*
X148850000Y-105060000D03*
X148850000Y-106785000D03*
D22*
X139129999Y-105054999D03*
D23*
X139129999Y-107594999D03*
X139129999Y-110134999D03*
X139129999Y-112674999D03*
X146749999Y-112674999D03*
X146749999Y-110134999D03*
X146749999Y-107594999D03*
X146749999Y-105054999D03*
D24*
X143249999Y-77575118D03*
D25*
X140709999Y-77575118D03*
X138169999Y-77575118D03*
D16*
X136700000Y-93925000D03*
X134875000Y-93925000D03*
D26*
X169650000Y-114100000D03*
D27*
X169649999Y-112099999D03*
X169649999Y-110099999D03*
X169649999Y-108099999D03*
D26*
X169650000Y-125175000D03*
D27*
X169649999Y-123174999D03*
X169649999Y-121174999D03*
X169649999Y-119174999D03*
D28*
X152475000Y-94412500D03*
X151205000Y-94412500D03*
X151205000Y-100787500D03*
X152475000Y-100787500D03*
D15*
X131855000Y-100812500D03*
X133125000Y-100812500D03*
X133125000Y-94437500D03*
X131855000Y-94437500D03*
D29*
X140875000Y-87150000D03*
X139150000Y-87150000D03*
D30*
X133875000Y-116825000D03*
D27*
X133874999Y-118824999D03*
X133874999Y-120824999D03*
X133874999Y-122824999D03*
D31*
X127670000Y-76849881D03*
X175930000Y-78119881D03*
D32*
X127669999Y-90819880D03*
D31*
X160690000Y-128919881D03*
X132750000Y-128919881D03*
D32*
X127669999Y-98439880D03*
X127669999Y-100979880D03*
X155609999Y-129046880D03*
X127669999Y-113679880D03*
X127669999Y-116219880D03*
X127669999Y-118759880D03*
X127669999Y-121299880D03*
X127669999Y-123839880D03*
X127669999Y-126379880D03*
X175929999Y-86755880D03*
X175929999Y-126379880D03*
X175929999Y-123839880D03*
X175929999Y-121299880D03*
X175929999Y-118759880D03*
X175929999Y-116219880D03*
X175929999Y-113679880D03*
X175929999Y-111139880D03*
X175929999Y-108599880D03*
X175929999Y-104535880D03*
X175929999Y-101995880D03*
X175929999Y-99455880D03*
X175929999Y-96915880D03*
X175929999Y-94375880D03*
X175929999Y-91835880D03*
D33*
X175929999Y-89295880D03*
X127669999Y-103519880D03*
X127669999Y-106059880D03*
X150529999Y-129046880D03*
D32*
X127669999Y-93359880D03*
X155609999Y-126506880D03*
X153069999Y-129046880D03*
X127669999Y-95899880D03*
X150529999Y-126506880D03*
X153069999Y-126506880D03*
X175929999Y-81675880D03*
X175929999Y-84215880D03*
X127669999Y-108599880D03*
D34*
X149280000Y-71280000D03*
X155780000Y-71280000D03*
D16*
X138775000Y-120825000D03*
X136950000Y-120825000D03*
D17*
X139300000Y-93950000D03*
X141125000Y-93950000D03*
D35*
X147775000Y-77950000D03*
D36*
X149774999Y-77949999D03*
X151774999Y-77949999D03*
X153774999Y-77949999D03*
X155774999Y-77949999D03*
D15*
X156080000Y-100812500D03*
X157350000Y-100812500D03*
X157350000Y-94437500D03*
X156080000Y-94437500D03*
D35*
X149775000Y-85450000D03*
D36*
X151774999Y-85449999D03*
D24*
X133089999Y-81275118D03*
D25*
X135629999Y-81275118D03*
X138169999Y-81275118D03*
X140709999Y-81275118D03*
X143249999Y-81275118D03*
D19*
X144325000Y-92562500D03*
X144325000Y-90737500D03*
D37*
X135150000Y-86975000D03*
X137050000Y-86975000D03*
X136100000Y-84700000D03*
D24*
X160309999Y-81250118D03*
D25*
X162849999Y-81250118D03*
X165389999Y-81250118D03*
X167929999Y-81250118D03*
X170469999Y-81250118D03*
D20*
X144050000Y-71290000D03*
X137550000Y-71290000D03*
D38*
X135137500Y-88775000D03*
X135137500Y-89425000D03*
X135137500Y-90075000D03*
X135137500Y-90725000D03*
X140862500Y-90725000D03*
X140862500Y-90075000D03*
X140862500Y-89425000D03*
X140862500Y-88775000D03*
D16*
X133675000Y-102650000D03*
X131850000Y-102650000D03*
D19*
X171525000Y-92562500D03*
X171525000Y-90737500D03*
D17*
X141025000Y-102675000D03*
X142850000Y-102675000D03*
X134875000Y-92350000D03*
X136700000Y-92350000D03*
D15*
X142880000Y-100812500D03*
X144150000Y-100812500D03*
X144150000Y-94437500D03*
X142880000Y-94437500D03*
D30*
X133875000Y-105860000D03*
D27*
X133874999Y-107859999D03*
X133874999Y-109859999D03*
X133874999Y-111859999D03*
D15*
X170080000Y-100812500D03*
X171350000Y-100812500D03*
X171350000Y-94437500D03*
X170080000Y-94437500D03*
D24*
X170464999Y-77550118D03*
D25*
X167924999Y-77550118D03*
X165384999Y-77550118D03*
D18*
X151025000Y-90725000D03*
X151025000Y-92550000D03*
D19*
X157530000Y-92562500D03*
X157530000Y-90737500D03*
M02*
