G04 #@! TF.GenerationSoftware,KiCad,Pcbnew,7.0.0*
G04 #@! TF.CreationDate,2023-02-28T23:45:34-08:00*
G04 #@! TF.ProjectId,KYBERNETES-CHASSIS-SHIELD,4b594245-524e-4455-9445-532d43484153,rev?*
G04 #@! TF.SameCoordinates,Original*
G04 #@! TF.FileFunction,Copper,L2,Inr*
G04 #@! TF.FilePolarity,Positive*
%FSLAX46Y46*%
G04 Gerber Fmt 4.6, Leading zero omitted, Abs format (unit mm)*
G04 Created by KiCad (PCBNEW 7.0.0) date 2023-02-28 23:45:34*
%MOMM*%
%LPD*%
G01*
G04 APERTURE LIST*
G04 Aperture macros list*
%AMRoundRect*
0 Rectangle with rounded corners*
0 $1 Rounding radius*
0 $2 $3 $4 $5 $6 $7 $8 $9 X,Y pos of 4 corners*
0 Add a 4 corners polygon primitive as box body*
4,1,4,$2,$3,$4,$5,$6,$7,$8,$9,$2,$3,0*
0 Add four circle primitives for the rounded corners*
1,1,$1+$1,$2,$3*
1,1,$1+$1,$4,$5*
1,1,$1+$1,$6,$7*
1,1,$1+$1,$8,$9*
0 Add four rect primitives between the rounded corners*
20,1,$1+$1,$2,$3,$4,$5,0*
20,1,$1+$1,$4,$5,$6,$7,0*
20,1,$1+$1,$6,$7,$8,$9,0*
20,1,$1+$1,$8,$9,$2,$3,0*%
G04 Aperture macros list end*
G04 #@! TA.AperFunction,ComponentPad*
%ADD10R,1.600000X1.600000*%
G04 #@! TD*
G04 #@! TA.AperFunction,ComponentPad*
%ADD11O,1.600000X1.600000*%
G04 #@! TD*
G04 #@! TA.AperFunction,ComponentPad*
%ADD12R,1.700000X1.700000*%
G04 #@! TD*
G04 #@! TA.AperFunction,ComponentPad*
%ADD13O,1.700000X1.700000*%
G04 #@! TD*
G04 #@! TA.AperFunction,ComponentPad*
%ADD14RoundRect,0.250000X0.625000X-0.350000X0.625000X0.350000X-0.625000X0.350000X-0.625000X-0.350000X0*%
G04 #@! TD*
G04 #@! TA.AperFunction,ComponentPad*
%ADD15O,1.750000X1.200000*%
G04 #@! TD*
G04 #@! TA.AperFunction,ComponentPad*
%ADD16RoundRect,0.250000X-0.625000X0.350000X-0.625000X-0.350000X0.625000X-0.350000X0.625000X0.350000X0*%
G04 #@! TD*
G04 #@! TA.AperFunction,ComponentPad*
%ADD17O,1.727200X1.727200*%
G04 #@! TD*
G04 #@! TA.AperFunction,ComponentPad*
%ADD18R,1.727200X1.727200*%
G04 #@! TD*
G04 #@! TA.AperFunction,ComponentPad*
%ADD19RoundRect,0.250000X-0.350000X-0.625000X0.350000X-0.625000X0.350000X0.625000X-0.350000X0.625000X0*%
G04 #@! TD*
G04 #@! TA.AperFunction,ComponentPad*
%ADD20O,1.200000X1.750000*%
G04 #@! TD*
G04 #@! TA.AperFunction,ViaPad*
%ADD21C,0.600000*%
G04 #@! TD*
G04 APERTURE END LIST*
D10*
X139129999Y-105054999D03*
D11*
X139129999Y-107594999D03*
X139129999Y-110134999D03*
X139129999Y-112674999D03*
X146749999Y-112674999D03*
X146749999Y-110134999D03*
X146749999Y-107594999D03*
X146749999Y-105054999D03*
D12*
X143249999Y-77575118D03*
D13*
X140709999Y-77575118D03*
X138169999Y-77575118D03*
D14*
X169650000Y-114100000D03*
D15*
X169649999Y-112099999D03*
X169649999Y-110099999D03*
X169649999Y-108099999D03*
D14*
X169650000Y-125175000D03*
D15*
X169649999Y-123174999D03*
X169649999Y-121174999D03*
X169649999Y-119174999D03*
D16*
X133875000Y-116825000D03*
D15*
X133874999Y-118824999D03*
X133874999Y-120824999D03*
X133874999Y-122824999D03*
D17*
X127669999Y-90819880D03*
X127669999Y-98439880D03*
X127669999Y-100979880D03*
X155609999Y-129046880D03*
X127669999Y-113679880D03*
X127669999Y-116219880D03*
X127669999Y-118759880D03*
X127669999Y-121299880D03*
X127669999Y-123839880D03*
X127669999Y-126379880D03*
X175929999Y-86755880D03*
X175929999Y-126379880D03*
X175929999Y-123839880D03*
X175929999Y-121299880D03*
X175929999Y-118759880D03*
X175929999Y-116219880D03*
X175929999Y-113679880D03*
X175929999Y-111139880D03*
X175929999Y-108599880D03*
X175929999Y-104535880D03*
X175929999Y-101995880D03*
X175929999Y-99455880D03*
X175929999Y-96915880D03*
X175929999Y-94375880D03*
X175929999Y-91835880D03*
D18*
X175929999Y-89295880D03*
X127669999Y-103519880D03*
X127669999Y-106059880D03*
X150529999Y-129046880D03*
D17*
X127669999Y-93359880D03*
X155609999Y-126506880D03*
X153069999Y-129046880D03*
X127669999Y-95899880D03*
X150529999Y-126506880D03*
X153069999Y-126506880D03*
X175929999Y-81675880D03*
X175929999Y-84215880D03*
X127669999Y-108599880D03*
D19*
X147775000Y-77950000D03*
D20*
X149774999Y-77949999D03*
X151774999Y-77949999D03*
X153774999Y-77949999D03*
X155774999Y-77949999D03*
D19*
X149775000Y-85450000D03*
D20*
X151774999Y-85449999D03*
D12*
X133089999Y-81275118D03*
D13*
X135629999Y-81275118D03*
X138169999Y-81275118D03*
X140709999Y-81275118D03*
X143249999Y-81275118D03*
D12*
X160309999Y-81250118D03*
D13*
X162849999Y-81250118D03*
X165389999Y-81250118D03*
X167929999Y-81250118D03*
X170469999Y-81250118D03*
D16*
X133875000Y-105860000D03*
D15*
X133874999Y-107859999D03*
X133874999Y-109859999D03*
X133874999Y-111859999D03*
D12*
X170464999Y-77550118D03*
D13*
X167924999Y-77550118D03*
X165384999Y-77550118D03*
D21*
X159250000Y-102975000D03*
X148900000Y-89600000D03*
X152475000Y-102300000D03*
X168250000Y-101625000D03*
X141025000Y-101625000D03*
X172225000Y-100825000D03*
X133975000Y-100800000D03*
X158200000Y-100825000D03*
X150325000Y-100800000D03*
X148325000Y-100825000D03*
X145050000Y-100825000D03*
X158600000Y-90725000D03*
X171525000Y-89650000D03*
X152475000Y-93050000D03*
X146200000Y-93050000D03*
X145375000Y-90750000D03*
X133125000Y-93075000D03*
X138025000Y-93950000D03*
X140875000Y-88100000D03*
X133550000Y-84275000D03*
X133850000Y-90725000D03*
X138050000Y-87150000D03*
X138025000Y-92325000D03*
X156100000Y-80950000D03*
X139250000Y-89250000D03*
X149900000Y-106675000D03*
G04 #@! TA.AperFunction,Conductor*
G36*
X172238000Y-74291613D02*
G01*
X172283387Y-74337000D01*
X172300000Y-74399000D01*
X172300000Y-94751000D01*
X172283387Y-94813000D01*
X172238000Y-94858387D01*
X172176000Y-94875000D01*
X141900000Y-94875000D01*
X141900000Y-93050000D01*
X145394435Y-93050000D01*
X145414632Y-93229255D01*
X145416928Y-93235819D01*
X145416930Y-93235824D01*
X145471913Y-93392956D01*
X145474211Y-93399522D01*
X145570184Y-93552262D01*
X145697738Y-93679816D01*
X145850478Y-93775789D01*
X146020745Y-93835368D01*
X146200000Y-93855565D01*
X146379255Y-93835368D01*
X146549522Y-93775789D01*
X146702262Y-93679816D01*
X146829816Y-93552262D01*
X146925789Y-93399522D01*
X146985368Y-93229255D01*
X147005565Y-93050000D01*
X151669435Y-93050000D01*
X151689632Y-93229255D01*
X151691928Y-93235819D01*
X151691930Y-93235824D01*
X151746913Y-93392956D01*
X151749211Y-93399522D01*
X151845184Y-93552262D01*
X151972738Y-93679816D01*
X152125478Y-93775789D01*
X152295745Y-93835368D01*
X152475000Y-93855565D01*
X152654255Y-93835368D01*
X152824522Y-93775789D01*
X152977262Y-93679816D01*
X153104816Y-93552262D01*
X153200789Y-93399522D01*
X153260368Y-93229255D01*
X153280565Y-93050000D01*
X153260368Y-92870745D01*
X153200789Y-92700478D01*
X153104816Y-92547738D01*
X152977262Y-92420184D01*
X152824522Y-92324211D01*
X152817959Y-92321914D01*
X152817956Y-92321913D01*
X152660824Y-92266930D01*
X152660819Y-92266928D01*
X152654255Y-92264632D01*
X152647335Y-92263852D01*
X152647334Y-92263852D01*
X152481923Y-92245215D01*
X152475000Y-92244435D01*
X152468077Y-92245215D01*
X152302665Y-92263852D01*
X152302662Y-92263852D01*
X152295745Y-92264632D01*
X152289182Y-92266928D01*
X152289175Y-92266930D01*
X152132043Y-92321913D01*
X152132036Y-92321915D01*
X152125478Y-92324211D01*
X152119590Y-92327910D01*
X152119587Y-92327912D01*
X151978638Y-92416476D01*
X151978633Y-92416479D01*
X151972738Y-92420184D01*
X151967813Y-92425108D01*
X151967809Y-92425112D01*
X151850112Y-92542809D01*
X151850108Y-92542813D01*
X151845184Y-92547738D01*
X151841479Y-92553633D01*
X151841476Y-92553638D01*
X151752912Y-92694587D01*
X151752910Y-92694590D01*
X151749211Y-92700478D01*
X151746915Y-92707036D01*
X151746913Y-92707043D01*
X151691930Y-92864175D01*
X151691928Y-92864182D01*
X151689632Y-92870745D01*
X151669435Y-93050000D01*
X147005565Y-93050000D01*
X146985368Y-92870745D01*
X146925789Y-92700478D01*
X146829816Y-92547738D01*
X146702262Y-92420184D01*
X146549522Y-92324211D01*
X146542959Y-92321914D01*
X146542956Y-92321913D01*
X146385824Y-92266930D01*
X146385819Y-92266928D01*
X146379255Y-92264632D01*
X146372335Y-92263852D01*
X146372334Y-92263852D01*
X146206923Y-92245215D01*
X146200000Y-92244435D01*
X146193077Y-92245215D01*
X146027665Y-92263852D01*
X146027662Y-92263852D01*
X146020745Y-92264632D01*
X146014182Y-92266928D01*
X146014175Y-92266930D01*
X145857043Y-92321913D01*
X145857036Y-92321915D01*
X145850478Y-92324211D01*
X145844590Y-92327910D01*
X145844587Y-92327912D01*
X145703638Y-92416476D01*
X145703633Y-92416479D01*
X145697738Y-92420184D01*
X145692813Y-92425108D01*
X145692809Y-92425112D01*
X145575112Y-92542809D01*
X145575108Y-92542813D01*
X145570184Y-92547738D01*
X145566479Y-92553633D01*
X145566476Y-92553638D01*
X145477912Y-92694587D01*
X145477910Y-92694590D01*
X145474211Y-92700478D01*
X145471915Y-92707036D01*
X145471913Y-92707043D01*
X145416930Y-92864175D01*
X145416928Y-92864182D01*
X145414632Y-92870745D01*
X145394435Y-93050000D01*
X141900000Y-93050000D01*
X141900000Y-91525000D01*
X131250000Y-91525000D01*
X131250000Y-89250000D01*
X138444435Y-89250000D01*
X138464632Y-89429255D01*
X138466928Y-89435819D01*
X138466930Y-89435824D01*
X138521913Y-89592956D01*
X138524211Y-89599522D01*
X138620184Y-89752262D01*
X138747738Y-89879816D01*
X138900478Y-89975789D01*
X139070745Y-90035368D01*
X139250000Y-90055565D01*
X139429255Y-90035368D01*
X139599522Y-89975789D01*
X139752262Y-89879816D01*
X139879816Y-89752262D01*
X139975489Y-89600000D01*
X148094435Y-89600000D01*
X148095215Y-89606923D01*
X148111590Y-89752262D01*
X148114632Y-89779255D01*
X148116928Y-89785819D01*
X148116930Y-89785824D01*
X148171913Y-89942956D01*
X148174211Y-89949522D01*
X148270184Y-90102262D01*
X148397738Y-90229816D01*
X148550478Y-90325789D01*
X148720745Y-90385368D01*
X148900000Y-90405565D01*
X149079255Y-90385368D01*
X149249522Y-90325789D01*
X149402262Y-90229816D01*
X149529816Y-90102262D01*
X149625789Y-89949522D01*
X149685368Y-89779255D01*
X149705565Y-89600000D01*
X149685368Y-89420745D01*
X149625789Y-89250478D01*
X149529816Y-89097738D01*
X149402262Y-88970184D01*
X149249522Y-88874211D01*
X149242959Y-88871914D01*
X149242956Y-88871913D01*
X149085824Y-88816930D01*
X149085819Y-88816928D01*
X149079255Y-88814632D01*
X149072335Y-88813852D01*
X149072334Y-88813852D01*
X148906923Y-88795215D01*
X148900000Y-88794435D01*
X148893077Y-88795215D01*
X148727665Y-88813852D01*
X148727662Y-88813852D01*
X148720745Y-88814632D01*
X148714182Y-88816928D01*
X148714175Y-88816930D01*
X148557043Y-88871913D01*
X148557036Y-88871915D01*
X148550478Y-88874211D01*
X148544590Y-88877910D01*
X148544587Y-88877912D01*
X148403638Y-88966476D01*
X148403633Y-88966479D01*
X148397738Y-88970184D01*
X148392813Y-88975108D01*
X148392809Y-88975112D01*
X148275112Y-89092809D01*
X148275108Y-89092813D01*
X148270184Y-89097738D01*
X148266479Y-89103633D01*
X148266476Y-89103638D01*
X148177912Y-89244587D01*
X148177910Y-89244590D01*
X148174211Y-89250478D01*
X148171915Y-89257036D01*
X148171913Y-89257043D01*
X148116930Y-89414175D01*
X148116928Y-89414182D01*
X148114632Y-89420745D01*
X148094435Y-89600000D01*
X139975489Y-89600000D01*
X139975789Y-89599522D01*
X140035368Y-89429255D01*
X140055565Y-89250000D01*
X140035368Y-89070745D01*
X139975789Y-88900478D01*
X139879816Y-88747738D01*
X139752262Y-88620184D01*
X139723739Y-88602262D01*
X139605412Y-88527912D01*
X139599522Y-88524211D01*
X139592959Y-88521914D01*
X139592956Y-88521913D01*
X139435824Y-88466930D01*
X139435819Y-88466928D01*
X139429255Y-88464632D01*
X139422335Y-88463852D01*
X139422334Y-88463852D01*
X139256923Y-88445215D01*
X139250000Y-88444435D01*
X139243077Y-88445215D01*
X139077665Y-88463852D01*
X139077662Y-88463852D01*
X139070745Y-88464632D01*
X139064182Y-88466928D01*
X139064175Y-88466930D01*
X138907043Y-88521913D01*
X138907036Y-88521915D01*
X138900478Y-88524211D01*
X138894590Y-88527910D01*
X138894587Y-88527912D01*
X138753638Y-88616476D01*
X138753633Y-88616479D01*
X138747738Y-88620184D01*
X138742813Y-88625108D01*
X138742809Y-88625112D01*
X138625112Y-88742809D01*
X138625108Y-88742813D01*
X138620184Y-88747738D01*
X138616479Y-88753633D01*
X138616476Y-88753638D01*
X138527912Y-88894587D01*
X138527910Y-88894590D01*
X138524211Y-88900478D01*
X138521915Y-88907036D01*
X138521913Y-88907043D01*
X138466930Y-89064175D01*
X138466928Y-89064182D01*
X138464632Y-89070745D01*
X138463852Y-89077662D01*
X138463852Y-89077665D01*
X138460926Y-89103638D01*
X138444435Y-89250000D01*
X131250000Y-89250000D01*
X131250000Y-88100000D01*
X140069435Y-88100000D01*
X140089632Y-88279255D01*
X140091928Y-88285819D01*
X140091930Y-88285824D01*
X140146913Y-88442956D01*
X140149211Y-88449522D01*
X140245184Y-88602262D01*
X140372738Y-88729816D01*
X140525478Y-88825789D01*
X140695745Y-88885368D01*
X140875000Y-88905565D01*
X141054255Y-88885368D01*
X141224522Y-88825789D01*
X141377262Y-88729816D01*
X141504816Y-88602262D01*
X141600789Y-88449522D01*
X141660368Y-88279255D01*
X141680565Y-88100000D01*
X141660368Y-87920745D01*
X141600789Y-87750478D01*
X141504816Y-87597738D01*
X141377262Y-87470184D01*
X141224522Y-87374211D01*
X141217959Y-87371914D01*
X141217956Y-87371913D01*
X141060824Y-87316930D01*
X141060819Y-87316928D01*
X141054255Y-87314632D01*
X141047335Y-87313852D01*
X141047334Y-87313852D01*
X140881923Y-87295215D01*
X140875000Y-87294435D01*
X140868077Y-87295215D01*
X140702665Y-87313852D01*
X140702662Y-87313852D01*
X140695745Y-87314632D01*
X140689182Y-87316928D01*
X140689175Y-87316930D01*
X140532043Y-87371913D01*
X140532036Y-87371915D01*
X140525478Y-87374211D01*
X140519590Y-87377910D01*
X140519587Y-87377912D01*
X140378638Y-87466476D01*
X140378633Y-87466479D01*
X140372738Y-87470184D01*
X140367813Y-87475108D01*
X140367809Y-87475112D01*
X140250112Y-87592809D01*
X140250108Y-87592813D01*
X140245184Y-87597738D01*
X140241479Y-87603633D01*
X140241476Y-87603638D01*
X140152912Y-87744587D01*
X140152910Y-87744590D01*
X140149211Y-87750478D01*
X140146915Y-87757036D01*
X140146913Y-87757043D01*
X140091930Y-87914175D01*
X140091928Y-87914182D01*
X140089632Y-87920745D01*
X140069435Y-88100000D01*
X131250000Y-88100000D01*
X131250000Y-86121878D01*
X148674500Y-86121878D01*
X148674501Y-86125008D01*
X148674820Y-86128140D01*
X148674821Y-86128141D01*
X148684312Y-86221061D01*
X148684313Y-86221069D01*
X148685001Y-86227797D01*
X148687129Y-86234219D01*
X148687130Y-86234223D01*
X148714674Y-86317345D01*
X148740186Y-86394334D01*
X148743977Y-86400480D01*
X148828497Y-86537511D01*
X148828500Y-86537515D01*
X148832288Y-86543656D01*
X148956344Y-86667712D01*
X148962485Y-86671500D01*
X148962488Y-86671502D01*
X149019558Y-86706702D01*
X149105666Y-86759814D01*
X149272203Y-86814999D01*
X149374991Y-86825500D01*
X150175008Y-86825499D01*
X150277797Y-86814999D01*
X150444334Y-86759814D01*
X150593656Y-86667712D01*
X150717712Y-86543656D01*
X150809814Y-86394334D01*
X150858455Y-86247544D01*
X150898111Y-86190195D01*
X150962445Y-86163310D01*
X151031116Y-86175392D01*
X151082411Y-86222620D01*
X151090867Y-86236674D01*
X151098949Y-86247306D01*
X151216856Y-86371779D01*
X151227039Y-86380429D01*
X151368941Y-86476640D01*
X151380751Y-86482901D01*
X151385889Y-86484949D01*
X151397236Y-86486495D01*
X151400000Y-86475384D01*
X151400000Y-86472218D01*
X152150000Y-86472218D01*
X152152936Y-86483377D01*
X152164169Y-86480744D01*
X152248882Y-86435832D01*
X152259947Y-86428330D01*
X152390608Y-86317345D01*
X152399803Y-86307638D01*
X152503553Y-86171157D01*
X152510448Y-86159698D01*
X152582431Y-86004109D01*
X152586699Y-85991442D01*
X152620346Y-85838584D01*
X152620271Y-85827464D01*
X152609424Y-85825000D01*
X152166326Y-85825000D01*
X152153450Y-85828450D01*
X152150000Y-85841326D01*
X152150000Y-86472218D01*
X151400000Y-86472218D01*
X151400000Y-85058674D01*
X152150000Y-85058674D01*
X152153450Y-85071549D01*
X152166326Y-85075000D01*
X152601671Y-85075000D01*
X152614899Y-85071198D01*
X152617247Y-85057638D01*
X152610748Y-84997881D01*
X152607875Y-84984826D01*
X152553133Y-84822358D01*
X152547523Y-84810231D01*
X152459132Y-84663325D01*
X152451050Y-84652693D01*
X152333143Y-84528220D01*
X152322960Y-84519570D01*
X152181058Y-84423359D01*
X152169248Y-84417098D01*
X152164110Y-84415050D01*
X152152763Y-84413504D01*
X152150000Y-84424616D01*
X152150000Y-85058674D01*
X151400000Y-85058674D01*
X151400000Y-84427782D01*
X151397063Y-84416622D01*
X151385830Y-84419255D01*
X151301117Y-84464167D01*
X151290052Y-84471669D01*
X151159391Y-84582654D01*
X151150190Y-84592367D01*
X151075556Y-84690546D01*
X151022593Y-84730755D01*
X150956473Y-84737820D01*
X150896210Y-84709709D01*
X150859135Y-84654508D01*
X150851150Y-84630412D01*
X150809814Y-84505666D01*
X150717712Y-84356344D01*
X150593656Y-84232288D01*
X150587515Y-84228500D01*
X150587511Y-84228497D01*
X150450480Y-84143977D01*
X150444334Y-84140186D01*
X150331103Y-84102665D01*
X150284225Y-84087131D01*
X150284224Y-84087130D01*
X150277797Y-84085001D01*
X150271064Y-84084313D01*
X150271059Y-84084312D01*
X150178140Y-84074819D01*
X150178123Y-84074818D01*
X150175009Y-84074500D01*
X150171860Y-84074500D01*
X149378141Y-84074500D01*
X149378121Y-84074500D01*
X149374992Y-84074501D01*
X149371860Y-84074820D01*
X149371858Y-84074821D01*
X149278938Y-84084312D01*
X149278928Y-84084313D01*
X149272203Y-84085001D01*
X149265781Y-84087128D01*
X149265776Y-84087130D01*
X149112521Y-84137914D01*
X149112517Y-84137915D01*
X149105666Y-84140186D01*
X149099522Y-84143975D01*
X149099519Y-84143977D01*
X148962488Y-84228497D01*
X148962480Y-84228503D01*
X148956344Y-84232288D01*
X148951242Y-84237389D01*
X148951238Y-84237393D01*
X148837393Y-84351238D01*
X148837389Y-84351242D01*
X148832288Y-84356344D01*
X148828503Y-84362480D01*
X148828497Y-84362488D01*
X148761155Y-84471669D01*
X148740186Y-84505666D01*
X148737915Y-84512517D01*
X148737914Y-84512521D01*
X148687943Y-84663325D01*
X148685001Y-84672203D01*
X148684313Y-84678933D01*
X148684312Y-84678940D01*
X148674819Y-84771859D01*
X148674818Y-84771877D01*
X148674500Y-84774991D01*
X148674500Y-84778138D01*
X148674500Y-84778139D01*
X148674500Y-86121859D01*
X148674500Y-86121878D01*
X131250000Y-86121878D01*
X131250000Y-84275000D01*
X132744435Y-84275000D01*
X132745215Y-84281923D01*
X132761292Y-84424616D01*
X132764632Y-84454255D01*
X132766928Y-84460819D01*
X132766930Y-84460824D01*
X132812959Y-84592367D01*
X132824211Y-84624522D01*
X132920184Y-84777262D01*
X133047738Y-84904816D01*
X133200478Y-85000789D01*
X133370745Y-85060368D01*
X133550000Y-85080565D01*
X133729255Y-85060368D01*
X133899522Y-85000789D01*
X134052262Y-84904816D01*
X134179816Y-84777262D01*
X134275789Y-84624522D01*
X134335368Y-84454255D01*
X134355565Y-84275000D01*
X134335368Y-84095745D01*
X134275789Y-83925478D01*
X134179816Y-83772738D01*
X134052262Y-83645184D01*
X133899522Y-83549211D01*
X133892959Y-83546914D01*
X133892956Y-83546913D01*
X133735824Y-83491930D01*
X133735819Y-83491928D01*
X133729255Y-83489632D01*
X133722335Y-83488852D01*
X133722334Y-83488852D01*
X133556923Y-83470215D01*
X133550000Y-83469435D01*
X133543077Y-83470215D01*
X133377665Y-83488852D01*
X133377662Y-83488852D01*
X133370745Y-83489632D01*
X133364182Y-83491928D01*
X133364175Y-83491930D01*
X133207043Y-83546913D01*
X133207036Y-83546915D01*
X133200478Y-83549211D01*
X133194590Y-83552910D01*
X133194587Y-83552912D01*
X133053638Y-83641476D01*
X133053633Y-83641479D01*
X133047738Y-83645184D01*
X133042813Y-83650108D01*
X133042809Y-83650112D01*
X132925112Y-83767809D01*
X132925108Y-83767813D01*
X132920184Y-83772738D01*
X132916479Y-83778633D01*
X132916476Y-83778638D01*
X132827912Y-83919587D01*
X132827910Y-83919590D01*
X132824211Y-83925478D01*
X132821915Y-83932036D01*
X132821913Y-83932043D01*
X132766930Y-84089175D01*
X132766928Y-84089182D01*
X132764632Y-84095745D01*
X132763852Y-84102662D01*
X132763852Y-84102665D01*
X132749247Y-84232288D01*
X132744435Y-84275000D01*
X131250000Y-84275000D01*
X131250000Y-82169697D01*
X131739500Y-82169697D01*
X131739501Y-82172991D01*
X131739853Y-82176269D01*
X131739854Y-82176280D01*
X131745079Y-82224887D01*
X131745080Y-82224892D01*
X131745909Y-82232602D01*
X131748619Y-82239868D01*
X131748620Y-82239872D01*
X131772555Y-82304044D01*
X131796204Y-82367450D01*
X131801518Y-82374549D01*
X131801519Y-82374550D01*
X131867715Y-82462977D01*
X131882454Y-82482665D01*
X131997669Y-82568915D01*
X132132517Y-82619210D01*
X132192127Y-82625619D01*
X133987872Y-82625618D01*
X134047483Y-82619210D01*
X134182331Y-82568915D01*
X134297546Y-82482665D01*
X134383796Y-82367450D01*
X134432810Y-82236035D01*
X134467789Y-82185656D01*
X134522634Y-82158203D01*
X134583927Y-82160392D01*
X134636673Y-82191688D01*
X134758599Y-82313614D01*
X134763031Y-82316717D01*
X134763033Y-82316719D01*
X134907260Y-82417708D01*
X134952170Y-82449154D01*
X135166337Y-82549022D01*
X135394592Y-82610182D01*
X135630000Y-82630778D01*
X135865408Y-82610182D01*
X136093663Y-82549022D01*
X136307830Y-82449154D01*
X136501401Y-82313614D01*
X136668495Y-82146520D01*
X136804035Y-81952949D01*
X136903903Y-81738782D01*
X136912940Y-81705054D01*
X136941594Y-81653047D01*
X136991142Y-81620324D01*
X137050224Y-81614389D01*
X137105291Y-81636605D01*
X137143715Y-81681876D01*
X137228199Y-81851544D01*
X137234206Y-81861246D01*
X137350149Y-82014781D01*
X137357847Y-82023225D01*
X137500027Y-82152838D01*
X137509131Y-82159714D01*
X137672715Y-82261001D01*
X137682928Y-82266087D01*
X137780908Y-82304044D01*
X137792253Y-82305494D01*
X137795000Y-82294393D01*
X138545000Y-82294393D01*
X138547746Y-82305494D01*
X138559091Y-82304044D01*
X138657071Y-82266087D01*
X138667284Y-82261001D01*
X138830868Y-82159714D01*
X138839972Y-82152838D01*
X138982152Y-82023225D01*
X138989850Y-82014781D01*
X139105793Y-81861246D01*
X139111800Y-81851543D01*
X139197555Y-81679324D01*
X139201684Y-81668668D01*
X139203024Y-81663957D01*
X139203545Y-81652698D01*
X139676454Y-81652698D01*
X139676975Y-81663957D01*
X139678315Y-81668668D01*
X139682444Y-81679324D01*
X139768199Y-81851543D01*
X139774206Y-81861246D01*
X139890149Y-82014781D01*
X139897847Y-82023225D01*
X140040027Y-82152838D01*
X140049131Y-82159714D01*
X140212715Y-82261001D01*
X140222928Y-82266087D01*
X140320908Y-82304044D01*
X140332253Y-82305494D01*
X140335000Y-82294393D01*
X141085000Y-82294393D01*
X141087746Y-82305494D01*
X141099091Y-82304044D01*
X141197071Y-82266087D01*
X141207284Y-82261001D01*
X141370868Y-82159714D01*
X141379972Y-82152838D01*
X141522152Y-82023225D01*
X141529850Y-82014781D01*
X141645793Y-81861246D01*
X141651795Y-81851552D01*
X141736283Y-81681876D01*
X141774707Y-81636606D01*
X141829773Y-81614390D01*
X141888854Y-81620323D01*
X141938404Y-81653044D01*
X141967058Y-81705051D01*
X141974693Y-81733546D01*
X141974696Y-81733556D01*
X141976097Y-81738782D01*
X141978385Y-81743689D01*
X141978386Y-81743691D01*
X142073678Y-81948046D01*
X142073681Y-81948052D01*
X142075965Y-81952949D01*
X142079064Y-81957376D01*
X142079066Y-81957378D01*
X142208399Y-82142085D01*
X142208402Y-82142089D01*
X142211505Y-82146520D01*
X142378599Y-82313614D01*
X142383031Y-82316717D01*
X142383033Y-82316719D01*
X142527260Y-82417708D01*
X142572170Y-82449154D01*
X142786337Y-82549022D01*
X143014592Y-82610182D01*
X143250000Y-82630778D01*
X143485408Y-82610182D01*
X143713663Y-82549022D01*
X143927830Y-82449154D01*
X144121401Y-82313614D01*
X144288495Y-82146520D01*
X144289771Y-82144697D01*
X158959500Y-82144697D01*
X158959501Y-82147991D01*
X158959853Y-82151269D01*
X158959854Y-82151280D01*
X158965079Y-82199887D01*
X158965080Y-82199892D01*
X158965909Y-82207602D01*
X158968619Y-82214868D01*
X158968620Y-82214872D01*
X159002217Y-82304950D01*
X159016204Y-82342450D01*
X159021518Y-82349549D01*
X159021519Y-82349550D01*
X159096082Y-82449154D01*
X159102454Y-82457665D01*
X159217669Y-82543915D01*
X159352517Y-82594210D01*
X159412127Y-82600619D01*
X161207872Y-82600618D01*
X161267483Y-82594210D01*
X161402331Y-82543915D01*
X161517546Y-82457665D01*
X161603796Y-82342450D01*
X161652810Y-82211035D01*
X161687789Y-82160656D01*
X161742634Y-82133203D01*
X161803927Y-82135392D01*
X161856673Y-82166688D01*
X161978599Y-82288614D01*
X161983031Y-82291717D01*
X161983033Y-82291719D01*
X162091188Y-82367450D01*
X162172170Y-82424154D01*
X162177070Y-82426439D01*
X162177072Y-82426440D01*
X162228815Y-82450568D01*
X162386337Y-82524022D01*
X162614592Y-82585182D01*
X162850000Y-82605778D01*
X163085408Y-82585182D01*
X163313663Y-82524022D01*
X163527830Y-82424154D01*
X163721401Y-82288614D01*
X163888495Y-82121520D01*
X164024035Y-81927949D01*
X164123903Y-81713782D01*
X164132940Y-81680054D01*
X164161594Y-81628047D01*
X164211142Y-81595324D01*
X164270224Y-81589389D01*
X164325291Y-81611605D01*
X164363715Y-81656876D01*
X164448199Y-81826544D01*
X164454206Y-81836246D01*
X164570149Y-81989781D01*
X164577847Y-81998225D01*
X164720027Y-82127838D01*
X164729131Y-82134714D01*
X164892715Y-82236001D01*
X164902928Y-82241087D01*
X165000908Y-82279044D01*
X165012253Y-82280494D01*
X165015000Y-82269393D01*
X165765000Y-82269393D01*
X165767746Y-82280494D01*
X165779091Y-82279044D01*
X165877071Y-82241087D01*
X165887284Y-82236001D01*
X166050868Y-82134714D01*
X166059972Y-82127838D01*
X166202152Y-81998225D01*
X166209850Y-81989781D01*
X166325793Y-81836246D01*
X166331800Y-81826543D01*
X166417555Y-81654324D01*
X166421684Y-81643668D01*
X166423024Y-81638957D01*
X166423545Y-81627698D01*
X166896454Y-81627698D01*
X166896975Y-81638957D01*
X166898315Y-81643668D01*
X166902444Y-81654324D01*
X166988199Y-81826543D01*
X166994206Y-81836246D01*
X167110149Y-81989781D01*
X167117847Y-81998225D01*
X167260027Y-82127838D01*
X167269131Y-82134714D01*
X167432715Y-82236001D01*
X167442928Y-82241087D01*
X167540908Y-82279044D01*
X167552253Y-82280494D01*
X167555000Y-82269393D01*
X168305000Y-82269393D01*
X168307746Y-82280494D01*
X168319091Y-82279044D01*
X168417071Y-82241087D01*
X168427284Y-82236001D01*
X168590868Y-82134714D01*
X168599972Y-82127838D01*
X168742152Y-81998225D01*
X168749850Y-81989781D01*
X168865793Y-81836246D01*
X168871795Y-81826552D01*
X168956283Y-81656876D01*
X168994707Y-81611606D01*
X169049773Y-81589390D01*
X169108854Y-81595323D01*
X169158404Y-81628044D01*
X169187058Y-81680051D01*
X169194693Y-81708546D01*
X169194696Y-81708556D01*
X169196097Y-81713782D01*
X169198385Y-81718689D01*
X169198386Y-81718691D01*
X169293678Y-81923046D01*
X169293681Y-81923052D01*
X169295965Y-81927949D01*
X169299064Y-81932376D01*
X169299066Y-81932378D01*
X169428399Y-82117085D01*
X169428402Y-82117089D01*
X169431505Y-82121520D01*
X169598599Y-82288614D01*
X169603031Y-82291717D01*
X169603033Y-82291719D01*
X169711188Y-82367450D01*
X169792170Y-82424154D01*
X169797070Y-82426439D01*
X169797072Y-82426440D01*
X169848815Y-82450568D01*
X170006337Y-82524022D01*
X170234592Y-82585182D01*
X170470000Y-82605778D01*
X170705408Y-82585182D01*
X170933663Y-82524022D01*
X171147830Y-82424154D01*
X171341401Y-82288614D01*
X171508495Y-82121520D01*
X171644035Y-81927949D01*
X171743903Y-81713782D01*
X171805063Y-81485527D01*
X171825659Y-81250119D01*
X171805063Y-81014711D01*
X171743903Y-80786456D01*
X171644035Y-80572290D01*
X171508495Y-80378718D01*
X171341401Y-80211624D01*
X171336970Y-80208521D01*
X171336966Y-80208518D01*
X171152259Y-80079185D01*
X171152257Y-80079183D01*
X171147830Y-80076084D01*
X171142933Y-80073800D01*
X171142927Y-80073797D01*
X170938572Y-79978505D01*
X170938570Y-79978504D01*
X170933663Y-79976216D01*
X170928438Y-79974816D01*
X170928430Y-79974813D01*
X170710634Y-79916456D01*
X170710630Y-79916455D01*
X170705408Y-79915056D01*
X170700020Y-79914584D01*
X170700017Y-79914584D01*
X170475395Y-79894932D01*
X170470000Y-79894460D01*
X170464605Y-79894932D01*
X170239982Y-79914584D01*
X170239977Y-79914584D01*
X170234592Y-79915056D01*
X170229371Y-79916454D01*
X170229365Y-79916456D01*
X170011569Y-79974813D01*
X170011557Y-79974817D01*
X170006337Y-79976216D01*
X170001432Y-79978502D01*
X170001427Y-79978505D01*
X169797081Y-80073794D01*
X169797077Y-80073796D01*
X169792171Y-80076084D01*
X169787738Y-80079187D01*
X169787731Y-80079192D01*
X169603034Y-80208518D01*
X169603029Y-80208521D01*
X169598599Y-80211624D01*
X169594775Y-80215447D01*
X169594769Y-80215453D01*
X169435334Y-80374888D01*
X169435328Y-80374894D01*
X169431505Y-80378718D01*
X169428402Y-80383148D01*
X169428399Y-80383153D01*
X169299073Y-80567850D01*
X169299068Y-80567857D01*
X169295965Y-80572290D01*
X169293677Y-80577196D01*
X169293675Y-80577200D01*
X169198386Y-80781546D01*
X169198383Y-80781551D01*
X169196097Y-80786456D01*
X169194696Y-80791681D01*
X169194693Y-80791692D01*
X169187058Y-80820186D01*
X169158403Y-80872193D01*
X169108854Y-80904914D01*
X169049773Y-80910847D01*
X168994707Y-80888631D01*
X168956283Y-80843361D01*
X168871795Y-80673685D01*
X168865793Y-80663991D01*
X168749850Y-80510456D01*
X168742152Y-80502012D01*
X168599972Y-80372399D01*
X168590868Y-80365523D01*
X168427284Y-80264236D01*
X168417071Y-80259150D01*
X168319091Y-80221193D01*
X168307746Y-80219743D01*
X168305000Y-80230845D01*
X168305000Y-82269393D01*
X167555000Y-82269393D01*
X167555000Y-81641445D01*
X167551549Y-81628569D01*
X167538674Y-81625119D01*
X166907423Y-81625119D01*
X166896454Y-81627698D01*
X166423545Y-81627698D01*
X166412577Y-81625119D01*
X165781326Y-81625119D01*
X165768450Y-81628569D01*
X165765000Y-81641445D01*
X165765000Y-82269393D01*
X165015000Y-82269393D01*
X165015000Y-80858793D01*
X165765000Y-80858793D01*
X165768450Y-80871668D01*
X165781326Y-80875119D01*
X166412577Y-80875119D01*
X166423545Y-80872539D01*
X166896454Y-80872539D01*
X166907423Y-80875119D01*
X167538674Y-80875119D01*
X167551549Y-80871668D01*
X167555000Y-80858793D01*
X167555000Y-80230845D01*
X167552253Y-80219743D01*
X167540908Y-80221193D01*
X167442928Y-80259150D01*
X167432715Y-80264236D01*
X167269131Y-80365523D01*
X167260027Y-80372399D01*
X167117847Y-80502012D01*
X167110149Y-80510456D01*
X166994206Y-80663991D01*
X166988199Y-80673694D01*
X166902444Y-80845913D01*
X166898315Y-80856569D01*
X166896975Y-80861280D01*
X166896454Y-80872539D01*
X166423545Y-80872539D01*
X166423024Y-80861280D01*
X166421684Y-80856569D01*
X166417555Y-80845913D01*
X166331800Y-80673694D01*
X166325793Y-80663991D01*
X166209850Y-80510456D01*
X166202152Y-80502012D01*
X166059972Y-80372399D01*
X166050868Y-80365523D01*
X165887284Y-80264236D01*
X165877071Y-80259150D01*
X165779091Y-80221193D01*
X165767746Y-80219743D01*
X165765000Y-80230845D01*
X165765000Y-80858793D01*
X165015000Y-80858793D01*
X165015000Y-80230845D01*
X165012253Y-80219743D01*
X165000908Y-80221193D01*
X164902928Y-80259150D01*
X164892715Y-80264236D01*
X164729131Y-80365523D01*
X164720027Y-80372399D01*
X164577847Y-80502012D01*
X164570149Y-80510456D01*
X164454206Y-80663991D01*
X164448201Y-80673689D01*
X164363715Y-80843362D01*
X164325291Y-80888632D01*
X164270224Y-80910848D01*
X164211143Y-80904914D01*
X164161594Y-80872191D01*
X164132940Y-80820183D01*
X164125305Y-80791688D01*
X164125304Y-80791686D01*
X164123903Y-80786456D01*
X164024035Y-80572290D01*
X163888495Y-80378718D01*
X163721401Y-80211624D01*
X163716970Y-80208521D01*
X163716966Y-80208518D01*
X163532259Y-80079185D01*
X163532257Y-80079183D01*
X163527830Y-80076084D01*
X163522933Y-80073800D01*
X163522927Y-80073797D01*
X163318572Y-79978505D01*
X163318570Y-79978504D01*
X163313663Y-79976216D01*
X163308438Y-79974816D01*
X163308430Y-79974813D01*
X163090634Y-79916456D01*
X163090630Y-79916455D01*
X163085408Y-79915056D01*
X163080020Y-79914584D01*
X163080017Y-79914584D01*
X162855395Y-79894932D01*
X162850000Y-79894460D01*
X162844605Y-79894932D01*
X162619982Y-79914584D01*
X162619977Y-79914584D01*
X162614592Y-79915056D01*
X162609371Y-79916454D01*
X162609365Y-79916456D01*
X162391569Y-79974813D01*
X162391557Y-79974817D01*
X162386337Y-79976216D01*
X162381432Y-79978502D01*
X162381427Y-79978505D01*
X162177081Y-80073794D01*
X162177077Y-80073796D01*
X162172171Y-80076084D01*
X162167738Y-80079187D01*
X162167731Y-80079192D01*
X161983034Y-80208518D01*
X161983029Y-80208521D01*
X161978599Y-80211624D01*
X161974774Y-80215448D01*
X161974775Y-80215448D01*
X161856673Y-80333550D01*
X161803926Y-80364845D01*
X161742633Y-80367034D01*
X161687789Y-80339581D01*
X161652810Y-80289201D01*
X161643498Y-80264236D01*
X161603796Y-80157788D01*
X161517546Y-80042573D01*
X161427030Y-79974813D01*
X161409431Y-79961638D01*
X161409430Y-79961637D01*
X161402331Y-79956323D01*
X161295442Y-79916456D01*
X161274752Y-79908739D01*
X161274750Y-79908738D01*
X161267483Y-79906028D01*
X161259770Y-79905198D01*
X161259767Y-79905198D01*
X161211180Y-79899974D01*
X161211169Y-79899973D01*
X161207873Y-79899619D01*
X161204550Y-79899619D01*
X159415439Y-79899619D01*
X159415420Y-79899619D01*
X159412128Y-79899620D01*
X159408850Y-79899972D01*
X159408838Y-79899973D01*
X159360231Y-79905198D01*
X159360225Y-79905199D01*
X159352517Y-79906028D01*
X159345252Y-79908737D01*
X159345246Y-79908739D01*
X159225980Y-79953223D01*
X159225978Y-79953223D01*
X159217669Y-79956323D01*
X159210572Y-79961635D01*
X159210568Y-79961638D01*
X159109550Y-80037260D01*
X159109546Y-80037263D01*
X159102454Y-80042573D01*
X159097144Y-80049665D01*
X159097141Y-80049669D01*
X159021519Y-80150687D01*
X159021516Y-80150691D01*
X159016204Y-80157788D01*
X159013104Y-80166097D01*
X159013104Y-80166099D01*
X158968620Y-80285366D01*
X158968619Y-80285369D01*
X158965909Y-80292636D01*
X158965079Y-80300346D01*
X158965079Y-80300351D01*
X158959855Y-80348938D01*
X158959854Y-80348950D01*
X158959500Y-80352246D01*
X158959500Y-80355567D01*
X158959500Y-80355568D01*
X158959500Y-82144679D01*
X158959500Y-82144697D01*
X144289771Y-82144697D01*
X144424035Y-81952949D01*
X144523903Y-81738782D01*
X144585063Y-81510527D01*
X144605659Y-81275119D01*
X144585063Y-81039711D01*
X144561025Y-80950000D01*
X155294435Y-80950000D01*
X155314632Y-81129255D01*
X155316928Y-81135819D01*
X155316930Y-81135824D01*
X155371913Y-81292956D01*
X155374211Y-81299522D01*
X155470184Y-81452262D01*
X155597738Y-81579816D01*
X155750478Y-81675789D01*
X155920745Y-81735368D01*
X156100000Y-81755565D01*
X156279255Y-81735368D01*
X156449522Y-81675789D01*
X156602262Y-81579816D01*
X156729816Y-81452262D01*
X156825789Y-81299522D01*
X156885368Y-81129255D01*
X156905565Y-80950000D01*
X156885368Y-80770745D01*
X156825789Y-80600478D01*
X156729816Y-80447738D01*
X156602262Y-80320184D01*
X156449522Y-80224211D01*
X156442959Y-80221914D01*
X156442956Y-80221913D01*
X156285824Y-80166930D01*
X156285819Y-80166928D01*
X156279255Y-80164632D01*
X156272335Y-80163852D01*
X156272334Y-80163852D01*
X156106923Y-80145215D01*
X156100000Y-80144435D01*
X156093077Y-80145215D01*
X155927665Y-80163852D01*
X155927662Y-80163852D01*
X155920745Y-80164632D01*
X155914182Y-80166928D01*
X155914175Y-80166930D01*
X155757043Y-80221913D01*
X155757036Y-80221915D01*
X155750478Y-80224211D01*
X155744590Y-80227910D01*
X155744587Y-80227912D01*
X155603638Y-80316476D01*
X155603633Y-80316479D01*
X155597738Y-80320184D01*
X155592813Y-80325108D01*
X155592809Y-80325112D01*
X155475112Y-80442809D01*
X155475108Y-80442813D01*
X155470184Y-80447738D01*
X155466479Y-80453633D01*
X155466476Y-80453638D01*
X155377912Y-80594587D01*
X155377910Y-80594590D01*
X155374211Y-80600478D01*
X155371915Y-80607036D01*
X155371913Y-80607043D01*
X155316930Y-80764175D01*
X155316928Y-80764182D01*
X155314632Y-80770745D01*
X155313852Y-80777662D01*
X155313852Y-80777665D01*
X155295215Y-80943077D01*
X155294435Y-80950000D01*
X144561025Y-80950000D01*
X144523903Y-80811456D01*
X144424035Y-80597290D01*
X144288495Y-80403718D01*
X144121401Y-80236624D01*
X144116970Y-80233521D01*
X144116966Y-80233518D01*
X143932259Y-80104185D01*
X143932257Y-80104183D01*
X143927830Y-80101084D01*
X143922933Y-80098800D01*
X143922927Y-80098797D01*
X143718572Y-80003505D01*
X143718570Y-80003504D01*
X143713663Y-80001216D01*
X143708438Y-79999816D01*
X143708430Y-79999813D01*
X143490634Y-79941456D01*
X143490630Y-79941455D01*
X143485408Y-79940056D01*
X143480020Y-79939584D01*
X143480017Y-79939584D01*
X143255395Y-79919932D01*
X143250000Y-79919460D01*
X143244605Y-79919932D01*
X143019982Y-79939584D01*
X143019977Y-79939584D01*
X143014592Y-79940056D01*
X143009371Y-79941454D01*
X143009365Y-79941456D01*
X142791569Y-79999813D01*
X142791557Y-79999817D01*
X142786337Y-80001216D01*
X142781432Y-80003502D01*
X142781427Y-80003505D01*
X142577081Y-80098794D01*
X142577077Y-80098796D01*
X142572171Y-80101084D01*
X142567738Y-80104187D01*
X142567731Y-80104192D01*
X142383034Y-80233518D01*
X142383029Y-80233521D01*
X142378599Y-80236624D01*
X142374775Y-80240447D01*
X142374769Y-80240453D01*
X142215334Y-80399888D01*
X142215328Y-80399894D01*
X142211505Y-80403718D01*
X142208402Y-80408148D01*
X142208399Y-80408153D01*
X142079073Y-80592850D01*
X142079068Y-80592857D01*
X142075965Y-80597290D01*
X142073677Y-80602196D01*
X142073675Y-80602200D01*
X141978386Y-80806546D01*
X141978383Y-80806551D01*
X141976097Y-80811456D01*
X141974696Y-80816681D01*
X141974693Y-80816692D01*
X141967058Y-80845186D01*
X141938403Y-80897193D01*
X141888854Y-80929914D01*
X141829773Y-80935847D01*
X141774707Y-80913631D01*
X141736283Y-80868361D01*
X141651795Y-80698685D01*
X141645793Y-80688991D01*
X141529850Y-80535456D01*
X141522152Y-80527012D01*
X141379972Y-80397399D01*
X141370868Y-80390523D01*
X141207284Y-80289236D01*
X141197071Y-80284150D01*
X141099091Y-80246193D01*
X141087746Y-80244743D01*
X141085000Y-80255845D01*
X141085000Y-82294393D01*
X140335000Y-82294393D01*
X140335000Y-81666445D01*
X140331549Y-81653569D01*
X140318674Y-81650119D01*
X139687423Y-81650119D01*
X139676454Y-81652698D01*
X139203545Y-81652698D01*
X139192577Y-81650119D01*
X138561326Y-81650119D01*
X138548450Y-81653569D01*
X138545000Y-81666445D01*
X138545000Y-82294393D01*
X137795000Y-82294393D01*
X137795000Y-80883793D01*
X138545000Y-80883793D01*
X138548450Y-80896668D01*
X138561326Y-80900119D01*
X139192577Y-80900119D01*
X139203545Y-80897539D01*
X139676454Y-80897539D01*
X139687423Y-80900119D01*
X140318674Y-80900119D01*
X140331549Y-80896668D01*
X140335000Y-80883793D01*
X140335000Y-80255845D01*
X140332253Y-80244743D01*
X140320908Y-80246193D01*
X140222928Y-80284150D01*
X140212715Y-80289236D01*
X140049131Y-80390523D01*
X140040027Y-80397399D01*
X139897847Y-80527012D01*
X139890149Y-80535456D01*
X139774206Y-80688991D01*
X139768199Y-80698694D01*
X139682444Y-80870913D01*
X139678315Y-80881569D01*
X139676975Y-80886280D01*
X139676454Y-80897539D01*
X139203545Y-80897539D01*
X139203024Y-80886280D01*
X139201684Y-80881569D01*
X139197555Y-80870913D01*
X139111800Y-80698694D01*
X139105793Y-80688991D01*
X138989850Y-80535456D01*
X138982152Y-80527012D01*
X138839972Y-80397399D01*
X138830868Y-80390523D01*
X138667284Y-80289236D01*
X138657071Y-80284150D01*
X138559091Y-80246193D01*
X138547746Y-80244743D01*
X138545000Y-80255845D01*
X138545000Y-80883793D01*
X137795000Y-80883793D01*
X137795000Y-80255845D01*
X137792253Y-80244743D01*
X137780908Y-80246193D01*
X137682928Y-80284150D01*
X137672715Y-80289236D01*
X137509131Y-80390523D01*
X137500027Y-80397399D01*
X137357847Y-80527012D01*
X137350149Y-80535456D01*
X137234206Y-80688991D01*
X137228201Y-80698689D01*
X137143715Y-80868362D01*
X137105291Y-80913632D01*
X137050224Y-80935848D01*
X136991143Y-80929914D01*
X136941594Y-80897191D01*
X136912940Y-80845183D01*
X136905305Y-80816688D01*
X136905304Y-80816686D01*
X136903903Y-80811456D01*
X136804035Y-80597290D01*
X136668495Y-80403718D01*
X136501401Y-80236624D01*
X136496970Y-80233521D01*
X136496966Y-80233518D01*
X136312259Y-80104185D01*
X136312257Y-80104183D01*
X136307830Y-80101084D01*
X136302933Y-80098800D01*
X136302927Y-80098797D01*
X136098572Y-80003505D01*
X136098570Y-80003504D01*
X136093663Y-80001216D01*
X136088438Y-79999816D01*
X136088430Y-79999813D01*
X135870634Y-79941456D01*
X135870630Y-79941455D01*
X135865408Y-79940056D01*
X135860020Y-79939584D01*
X135860017Y-79939584D01*
X135635395Y-79919932D01*
X135630000Y-79919460D01*
X135624605Y-79919932D01*
X135399982Y-79939584D01*
X135399977Y-79939584D01*
X135394592Y-79940056D01*
X135389371Y-79941454D01*
X135389365Y-79941456D01*
X135171569Y-79999813D01*
X135171557Y-79999817D01*
X135166337Y-80001216D01*
X135161432Y-80003502D01*
X135161427Y-80003505D01*
X134957081Y-80098794D01*
X134957077Y-80098796D01*
X134952171Y-80101084D01*
X134947738Y-80104187D01*
X134947731Y-80104192D01*
X134763034Y-80233518D01*
X134763029Y-80233521D01*
X134758599Y-80236624D01*
X134754775Y-80240448D01*
X134636673Y-80358550D01*
X134583926Y-80389845D01*
X134522633Y-80392034D01*
X134467789Y-80364581D01*
X134432810Y-80314201D01*
X134422055Y-80285366D01*
X134383796Y-80182788D01*
X134297546Y-80067573D01*
X134273629Y-80049669D01*
X134189431Y-79986638D01*
X134189430Y-79986637D01*
X134182331Y-79981323D01*
X134075442Y-79941456D01*
X134054752Y-79933739D01*
X134054750Y-79933738D01*
X134047483Y-79931028D01*
X134039770Y-79930198D01*
X134039767Y-79930198D01*
X133991180Y-79924974D01*
X133991169Y-79924973D01*
X133987873Y-79924619D01*
X133984550Y-79924619D01*
X132195439Y-79924619D01*
X132195420Y-79924619D01*
X132192128Y-79924620D01*
X132188850Y-79924972D01*
X132188838Y-79924973D01*
X132140231Y-79930198D01*
X132140225Y-79930199D01*
X132132517Y-79931028D01*
X132125252Y-79933737D01*
X132125246Y-79933739D01*
X132005980Y-79978223D01*
X132005978Y-79978223D01*
X131997669Y-79981323D01*
X131990572Y-79986635D01*
X131990568Y-79986638D01*
X131889550Y-80062260D01*
X131889546Y-80062263D01*
X131882454Y-80067573D01*
X131877144Y-80074665D01*
X131877141Y-80074669D01*
X131801519Y-80175687D01*
X131801516Y-80175691D01*
X131796204Y-80182788D01*
X131793104Y-80191097D01*
X131793104Y-80191099D01*
X131748620Y-80310366D01*
X131748619Y-80310369D01*
X131745909Y-80317636D01*
X131745079Y-80325346D01*
X131745079Y-80325351D01*
X131739855Y-80373938D01*
X131739854Y-80373950D01*
X131739500Y-80377246D01*
X131739500Y-80380567D01*
X131739500Y-80380568D01*
X131739500Y-82169679D01*
X131739500Y-82169697D01*
X131250000Y-82169697D01*
X131250000Y-77952698D01*
X137136454Y-77952698D01*
X137136975Y-77963957D01*
X137138315Y-77968668D01*
X137142444Y-77979324D01*
X137228199Y-78151543D01*
X137234206Y-78161246D01*
X137350149Y-78314781D01*
X137357847Y-78323225D01*
X137500027Y-78452838D01*
X137509131Y-78459714D01*
X137672715Y-78561001D01*
X137682928Y-78566087D01*
X137780908Y-78604044D01*
X137792253Y-78605494D01*
X137795000Y-78594393D01*
X138545000Y-78594393D01*
X138547746Y-78605494D01*
X138559091Y-78604044D01*
X138657071Y-78566087D01*
X138667284Y-78561001D01*
X138830868Y-78459714D01*
X138839972Y-78452838D01*
X138982152Y-78323225D01*
X138989850Y-78314781D01*
X139105793Y-78161246D01*
X139111795Y-78151552D01*
X139196283Y-77981876D01*
X139234707Y-77936606D01*
X139289773Y-77914390D01*
X139348854Y-77920323D01*
X139398404Y-77953044D01*
X139427058Y-78005051D01*
X139434693Y-78033546D01*
X139434696Y-78033556D01*
X139436097Y-78038782D01*
X139438385Y-78043689D01*
X139438386Y-78043691D01*
X139533678Y-78248046D01*
X139533681Y-78248052D01*
X139535965Y-78252949D01*
X139539064Y-78257376D01*
X139539066Y-78257378D01*
X139668399Y-78442085D01*
X139668402Y-78442089D01*
X139671505Y-78446520D01*
X139838599Y-78613614D01*
X139843031Y-78616717D01*
X139843033Y-78616719D01*
X139944053Y-78687454D01*
X140032170Y-78749154D01*
X140246337Y-78849022D01*
X140474592Y-78910182D01*
X140710000Y-78930778D01*
X140945408Y-78910182D01*
X141173663Y-78849022D01*
X141387830Y-78749154D01*
X141581401Y-78613614D01*
X141703329Y-78491685D01*
X141756072Y-78460392D01*
X141817365Y-78458203D01*
X141872210Y-78485656D01*
X141907189Y-78536035D01*
X141925371Y-78584782D01*
X141956204Y-78667450D01*
X141961518Y-78674549D01*
X141961519Y-78674550D01*
X142027715Y-78762977D01*
X142042454Y-78782665D01*
X142157669Y-78868915D01*
X142292517Y-78919210D01*
X142352127Y-78925619D01*
X144147872Y-78925618D01*
X144207483Y-78919210D01*
X144342331Y-78868915D01*
X144457546Y-78782665D01*
X144543796Y-78667450D01*
X144560793Y-78621878D01*
X146674500Y-78621878D01*
X146674501Y-78625008D01*
X146674820Y-78628140D01*
X146674821Y-78628141D01*
X146684312Y-78721061D01*
X146684313Y-78721069D01*
X146685001Y-78727797D01*
X146687129Y-78734219D01*
X146687130Y-78734223D01*
X146731763Y-78868915D01*
X146740186Y-78894334D01*
X146745787Y-78903415D01*
X146828497Y-79037511D01*
X146828500Y-79037515D01*
X146832288Y-79043656D01*
X146956344Y-79167712D01*
X146962485Y-79171500D01*
X146962488Y-79171502D01*
X146984129Y-79184850D01*
X147105666Y-79259814D01*
X147272203Y-79314999D01*
X147374991Y-79325500D01*
X148175008Y-79325499D01*
X148277797Y-79314999D01*
X148444334Y-79259814D01*
X148593656Y-79167712D01*
X148717712Y-79043656D01*
X148756815Y-78980258D01*
X148798867Y-78938841D01*
X148855306Y-78921556D01*
X148913341Y-78932324D01*
X148959823Y-78968704D01*
X148970987Y-78982901D01*
X148974908Y-78987886D01*
X149133744Y-79125519D01*
X149315756Y-79230604D01*
X149514367Y-79299344D01*
X149722398Y-79329254D01*
X149932330Y-79319254D01*
X150136576Y-79269704D01*
X150327753Y-79182396D01*
X150498952Y-79060486D01*
X150643986Y-78908378D01*
X150670543Y-78867053D01*
X150712854Y-78826710D01*
X150768954Y-78810237D01*
X150826366Y-78821301D01*
X150872326Y-78857444D01*
X150971254Y-78983240D01*
X150974908Y-78987886D01*
X151133744Y-79125519D01*
X151315756Y-79230604D01*
X151514367Y-79299344D01*
X151722398Y-79329254D01*
X151932330Y-79319254D01*
X152136576Y-79269704D01*
X152327753Y-79182396D01*
X152498952Y-79060486D01*
X152643986Y-78908378D01*
X152670543Y-78867053D01*
X152712854Y-78826710D01*
X152768954Y-78810237D01*
X152826366Y-78821301D01*
X152872326Y-78857444D01*
X152971254Y-78983240D01*
X152974908Y-78987886D01*
X153133744Y-79125519D01*
X153315756Y-79230604D01*
X153514367Y-79299344D01*
X153722398Y-79329254D01*
X153932330Y-79319254D01*
X154136576Y-79269704D01*
X154327753Y-79182396D01*
X154498952Y-79060486D01*
X154643986Y-78908378D01*
X154757613Y-78731572D01*
X154796799Y-78633688D01*
X154838341Y-78579962D01*
X154901954Y-78556176D01*
X154968556Y-78569466D01*
X155018167Y-78615846D01*
X155090867Y-78736674D01*
X155098949Y-78747306D01*
X155216856Y-78871779D01*
X155227039Y-78880429D01*
X155368941Y-78976640D01*
X155380751Y-78982901D01*
X155385889Y-78984949D01*
X155397236Y-78986495D01*
X155400000Y-78975384D01*
X155400000Y-78972218D01*
X156150000Y-78972218D01*
X156152936Y-78983377D01*
X156164169Y-78980744D01*
X156248882Y-78935832D01*
X156259947Y-78928330D01*
X156390608Y-78817345D01*
X156399803Y-78807638D01*
X156503553Y-78671157D01*
X156510448Y-78659698D01*
X156582431Y-78504109D01*
X156586699Y-78491442D01*
X156620346Y-78338584D01*
X156620271Y-78327464D01*
X156609424Y-78325000D01*
X156166326Y-78325000D01*
X156153450Y-78328450D01*
X156150000Y-78341326D01*
X156150000Y-78972218D01*
X155400000Y-78972218D01*
X155400000Y-77927698D01*
X164351454Y-77927698D01*
X164351975Y-77938957D01*
X164353315Y-77943668D01*
X164357444Y-77954324D01*
X164443199Y-78126543D01*
X164449206Y-78136246D01*
X164565149Y-78289781D01*
X164572847Y-78298225D01*
X164715027Y-78427838D01*
X164724131Y-78434714D01*
X164887715Y-78536001D01*
X164897928Y-78541087D01*
X164995908Y-78579044D01*
X165007253Y-78580494D01*
X165010000Y-78569393D01*
X165760000Y-78569393D01*
X165762746Y-78580494D01*
X165774091Y-78579044D01*
X165872071Y-78541087D01*
X165882284Y-78536001D01*
X166045868Y-78434714D01*
X166054972Y-78427838D01*
X166197152Y-78298225D01*
X166204850Y-78289781D01*
X166320793Y-78136246D01*
X166326795Y-78126552D01*
X166411283Y-77956876D01*
X166449707Y-77911606D01*
X166504773Y-77889390D01*
X166563854Y-77895323D01*
X166613404Y-77928044D01*
X166642058Y-77980051D01*
X166649693Y-78008546D01*
X166649696Y-78008556D01*
X166651097Y-78013782D01*
X166653385Y-78018689D01*
X166653386Y-78018691D01*
X166748678Y-78223046D01*
X166748681Y-78223052D01*
X166750965Y-78227949D01*
X166754064Y-78232376D01*
X166754066Y-78232378D01*
X166883399Y-78417085D01*
X166883402Y-78417089D01*
X166886505Y-78421520D01*
X167053599Y-78588614D01*
X167058031Y-78591717D01*
X167058033Y-78591719D01*
X167176328Y-78674550D01*
X167247170Y-78724154D01*
X167252070Y-78726439D01*
X167252072Y-78726440D01*
X167303815Y-78750568D01*
X167461337Y-78824022D01*
X167689592Y-78885182D01*
X167925000Y-78905778D01*
X168160408Y-78885182D01*
X168388663Y-78824022D01*
X168602830Y-78724154D01*
X168796401Y-78588614D01*
X168918329Y-78466685D01*
X168971072Y-78435392D01*
X169032365Y-78433203D01*
X169087210Y-78460656D01*
X169122189Y-78511035D01*
X169142722Y-78566087D01*
X169171204Y-78642450D01*
X169176518Y-78649549D01*
X169176519Y-78649550D01*
X169251082Y-78749154D01*
X169257454Y-78757665D01*
X169372669Y-78843915D01*
X169507517Y-78894210D01*
X169567127Y-78900619D01*
X171362872Y-78900618D01*
X171422483Y-78894210D01*
X171557331Y-78843915D01*
X171672546Y-78757665D01*
X171758796Y-78642450D01*
X171809091Y-78507602D01*
X171815500Y-78447992D01*
X171815499Y-76652247D01*
X171809091Y-76592636D01*
X171758796Y-76457788D01*
X171672546Y-76342573D01*
X171582030Y-76274813D01*
X171564431Y-76261638D01*
X171564430Y-76261637D01*
X171557331Y-76256323D01*
X171450442Y-76216456D01*
X171429752Y-76208739D01*
X171429750Y-76208738D01*
X171422483Y-76206028D01*
X171414770Y-76205198D01*
X171414767Y-76205198D01*
X171366180Y-76199974D01*
X171366169Y-76199973D01*
X171362873Y-76199619D01*
X171359550Y-76199619D01*
X169570439Y-76199619D01*
X169570420Y-76199619D01*
X169567128Y-76199620D01*
X169563850Y-76199972D01*
X169563838Y-76199973D01*
X169515231Y-76205198D01*
X169515225Y-76205199D01*
X169507517Y-76206028D01*
X169500252Y-76208737D01*
X169500246Y-76208739D01*
X169380980Y-76253223D01*
X169380978Y-76253223D01*
X169372669Y-76256323D01*
X169365572Y-76261635D01*
X169365568Y-76261638D01*
X169264550Y-76337260D01*
X169264546Y-76337263D01*
X169257454Y-76342573D01*
X169252144Y-76349665D01*
X169252141Y-76349669D01*
X169176519Y-76450687D01*
X169176516Y-76450691D01*
X169171204Y-76457788D01*
X169168104Y-76466097D01*
X169168105Y-76466097D01*
X169122189Y-76589202D01*
X169087210Y-76639581D01*
X169032365Y-76667034D01*
X168971072Y-76664845D01*
X168918326Y-76633549D01*
X168800232Y-76515455D01*
X168800230Y-76515453D01*
X168796401Y-76511624D01*
X168791970Y-76508521D01*
X168791966Y-76508518D01*
X168607259Y-76379185D01*
X168607257Y-76379183D01*
X168602830Y-76376084D01*
X168597933Y-76373800D01*
X168597927Y-76373797D01*
X168393572Y-76278505D01*
X168393570Y-76278504D01*
X168388663Y-76276216D01*
X168383438Y-76274816D01*
X168383430Y-76274813D01*
X168165634Y-76216456D01*
X168165630Y-76216455D01*
X168160408Y-76215056D01*
X168155020Y-76214584D01*
X168155017Y-76214584D01*
X167930395Y-76194932D01*
X167925000Y-76194460D01*
X167919605Y-76194932D01*
X167694982Y-76214584D01*
X167694977Y-76214584D01*
X167689592Y-76215056D01*
X167684371Y-76216454D01*
X167684365Y-76216456D01*
X167466569Y-76274813D01*
X167466557Y-76274817D01*
X167461337Y-76276216D01*
X167456432Y-76278502D01*
X167456427Y-76278505D01*
X167252081Y-76373794D01*
X167252077Y-76373796D01*
X167247171Y-76376084D01*
X167242738Y-76379187D01*
X167242731Y-76379192D01*
X167058034Y-76508518D01*
X167058029Y-76508521D01*
X167053599Y-76511624D01*
X167049775Y-76515447D01*
X167049769Y-76515453D01*
X166890334Y-76674888D01*
X166890328Y-76674894D01*
X166886505Y-76678718D01*
X166883402Y-76683148D01*
X166883399Y-76683153D01*
X166754073Y-76867850D01*
X166754068Y-76867857D01*
X166750965Y-76872290D01*
X166748677Y-76877196D01*
X166748675Y-76877200D01*
X166653386Y-77081546D01*
X166653383Y-77081551D01*
X166651097Y-77086456D01*
X166649696Y-77091681D01*
X166649693Y-77091692D01*
X166642058Y-77120186D01*
X166613403Y-77172193D01*
X166563854Y-77204914D01*
X166504773Y-77210847D01*
X166449707Y-77188631D01*
X166411283Y-77143361D01*
X166326795Y-76973685D01*
X166320793Y-76963991D01*
X166204850Y-76810456D01*
X166197152Y-76802012D01*
X166054972Y-76672399D01*
X166045868Y-76665523D01*
X165882284Y-76564236D01*
X165872071Y-76559150D01*
X165774091Y-76521193D01*
X165762746Y-76519743D01*
X165760000Y-76530845D01*
X165760000Y-78569393D01*
X165010000Y-78569393D01*
X165010000Y-77941445D01*
X165006549Y-77928569D01*
X164993674Y-77925119D01*
X164362423Y-77925119D01*
X164351454Y-77927698D01*
X155400000Y-77927698D01*
X155400000Y-77558674D01*
X156150000Y-77558674D01*
X156153450Y-77571549D01*
X156166326Y-77575000D01*
X156601671Y-77575000D01*
X156614899Y-77571198D01*
X156617247Y-77557638D01*
X156610748Y-77497881D01*
X156607875Y-77484826D01*
X156553133Y-77322358D01*
X156547523Y-77310231D01*
X156464676Y-77172539D01*
X164351454Y-77172539D01*
X164362423Y-77175119D01*
X164993674Y-77175119D01*
X165006549Y-77171668D01*
X165010000Y-77158793D01*
X165010000Y-76530845D01*
X165007253Y-76519743D01*
X164995908Y-76521193D01*
X164897928Y-76559150D01*
X164887715Y-76564236D01*
X164724131Y-76665523D01*
X164715027Y-76672399D01*
X164572847Y-76802012D01*
X164565149Y-76810456D01*
X164449206Y-76963991D01*
X164443199Y-76973694D01*
X164357444Y-77145913D01*
X164353315Y-77156569D01*
X164351975Y-77161280D01*
X164351454Y-77172539D01*
X156464676Y-77172539D01*
X156459132Y-77163325D01*
X156451050Y-77152693D01*
X156333143Y-77028220D01*
X156322960Y-77019570D01*
X156181058Y-76923359D01*
X156169248Y-76917098D01*
X156164110Y-76915050D01*
X156152763Y-76913504D01*
X156150000Y-76924616D01*
X156150000Y-77558674D01*
X155400000Y-77558674D01*
X155400000Y-76927782D01*
X155397063Y-76916622D01*
X155385830Y-76919255D01*
X155301117Y-76964167D01*
X155290052Y-76971669D01*
X155159391Y-77082654D01*
X155150196Y-77092361D01*
X155046446Y-77228842D01*
X155039552Y-77240300D01*
X155027158Y-77267089D01*
X154991811Y-77312064D01*
X154940037Y-77336387D01*
X154882855Y-77334882D01*
X154832432Y-77307870D01*
X154801546Y-77264006D01*
X154801316Y-77264125D01*
X154705011Y-77077318D01*
X154580708Y-76919255D01*
X154578745Y-76916759D01*
X154578744Y-76916758D01*
X154575092Y-76912114D01*
X154416256Y-76774481D01*
X154234244Y-76669396D01*
X154228660Y-76667463D01*
X154228655Y-76667461D01*
X154041214Y-76602587D01*
X154041208Y-76602585D01*
X154035633Y-76600656D01*
X154029794Y-76599816D01*
X154029788Y-76599815D01*
X153833441Y-76571585D01*
X153833435Y-76571584D01*
X153827602Y-76570746D01*
X153821716Y-76571026D01*
X153821710Y-76571026D01*
X153623567Y-76580465D01*
X153623565Y-76580465D01*
X153617670Y-76580746D01*
X153611942Y-76582135D01*
X153611932Y-76582137D01*
X153419160Y-76628904D01*
X153419155Y-76628905D01*
X153413424Y-76630296D01*
X153408054Y-76632747D01*
X153408052Y-76632749D01*
X153227621Y-76715149D01*
X153227614Y-76715152D01*
X153222247Y-76717604D01*
X153217437Y-76721028D01*
X153217432Y-76721032D01*
X153055865Y-76836083D01*
X153055859Y-76836087D01*
X153051048Y-76839514D01*
X153046974Y-76843786D01*
X153046969Y-76843791D01*
X152910088Y-76987348D01*
X152910082Y-76987355D01*
X152906014Y-76991622D01*
X152896989Y-77005666D01*
X152879458Y-77032944D01*
X152837142Y-77073291D01*
X152781043Y-77089763D01*
X152723632Y-77078697D01*
X152677673Y-77042555D01*
X152578745Y-76916759D01*
X152578744Y-76916758D01*
X152575092Y-76912114D01*
X152416256Y-76774481D01*
X152234244Y-76669396D01*
X152228660Y-76667463D01*
X152228655Y-76667461D01*
X152041214Y-76602587D01*
X152041208Y-76602585D01*
X152035633Y-76600656D01*
X152029794Y-76599816D01*
X152029788Y-76599815D01*
X151833441Y-76571585D01*
X151833435Y-76571584D01*
X151827602Y-76570746D01*
X151821716Y-76571026D01*
X151821710Y-76571026D01*
X151623567Y-76580465D01*
X151623565Y-76580465D01*
X151617670Y-76580746D01*
X151611942Y-76582135D01*
X151611932Y-76582137D01*
X151419160Y-76628904D01*
X151419155Y-76628905D01*
X151413424Y-76630296D01*
X151408054Y-76632747D01*
X151408052Y-76632749D01*
X151227621Y-76715149D01*
X151227614Y-76715152D01*
X151222247Y-76717604D01*
X151217437Y-76721028D01*
X151217432Y-76721032D01*
X151055865Y-76836083D01*
X151055859Y-76836087D01*
X151051048Y-76839514D01*
X151046974Y-76843786D01*
X151046969Y-76843791D01*
X150910088Y-76987348D01*
X150910082Y-76987355D01*
X150906014Y-76991622D01*
X150896989Y-77005666D01*
X150879458Y-77032944D01*
X150837142Y-77073291D01*
X150781043Y-77089763D01*
X150723632Y-77078697D01*
X150677673Y-77042555D01*
X150578745Y-76916759D01*
X150578744Y-76916758D01*
X150575092Y-76912114D01*
X150416256Y-76774481D01*
X150234244Y-76669396D01*
X150228660Y-76667463D01*
X150228655Y-76667461D01*
X150041214Y-76602587D01*
X150041208Y-76602585D01*
X150035633Y-76600656D01*
X150029794Y-76599816D01*
X150029788Y-76599815D01*
X149833441Y-76571585D01*
X149833435Y-76571584D01*
X149827602Y-76570746D01*
X149821716Y-76571026D01*
X149821710Y-76571026D01*
X149623567Y-76580465D01*
X149623565Y-76580465D01*
X149617670Y-76580746D01*
X149611942Y-76582135D01*
X149611932Y-76582137D01*
X149419160Y-76628904D01*
X149419155Y-76628905D01*
X149413424Y-76630296D01*
X149408054Y-76632747D01*
X149408052Y-76632749D01*
X149227621Y-76715149D01*
X149227614Y-76715152D01*
X149222247Y-76717604D01*
X149217437Y-76721028D01*
X149217432Y-76721032D01*
X149055865Y-76836083D01*
X149055859Y-76836087D01*
X149051048Y-76839514D01*
X149046973Y-76843787D01*
X149046968Y-76843792D01*
X148953249Y-76942082D01*
X148906301Y-76972893D01*
X148850577Y-76979836D01*
X148797504Y-76961487D01*
X148757968Y-76921610D01*
X148717712Y-76856344D01*
X148593656Y-76732288D01*
X148587515Y-76728500D01*
X148587511Y-76728497D01*
X148450480Y-76643977D01*
X148444334Y-76640186D01*
X148410287Y-76628904D01*
X148284225Y-76587131D01*
X148284224Y-76587130D01*
X148277797Y-76585001D01*
X148271064Y-76584313D01*
X148271059Y-76584312D01*
X148178140Y-76574819D01*
X148178123Y-76574818D01*
X148175009Y-76574500D01*
X148171860Y-76574500D01*
X147378141Y-76574500D01*
X147378121Y-76574500D01*
X147374992Y-76574501D01*
X147371860Y-76574820D01*
X147371858Y-76574821D01*
X147278938Y-76584312D01*
X147278928Y-76584313D01*
X147272203Y-76585001D01*
X147265781Y-76587128D01*
X147265776Y-76587130D01*
X147112521Y-76637914D01*
X147112517Y-76637915D01*
X147105666Y-76640186D01*
X147099522Y-76643975D01*
X147099519Y-76643977D01*
X146962488Y-76728497D01*
X146962480Y-76728503D01*
X146956344Y-76732288D01*
X146951242Y-76737389D01*
X146951238Y-76737393D01*
X146837393Y-76851238D01*
X146837389Y-76851242D01*
X146832288Y-76856344D01*
X146828503Y-76862480D01*
X146828497Y-76862488D01*
X146744486Y-76998694D01*
X146740186Y-77005666D01*
X146737915Y-77012517D01*
X146737914Y-77012521D01*
X146687943Y-77163325D01*
X146685001Y-77172203D01*
X146684313Y-77178933D01*
X146684312Y-77178940D01*
X146674819Y-77271859D01*
X146674818Y-77271877D01*
X146674500Y-77274991D01*
X146674500Y-77278138D01*
X146674500Y-77278139D01*
X146674500Y-78621859D01*
X146674500Y-78621878D01*
X144560793Y-78621878D01*
X144594091Y-78532602D01*
X144600500Y-78472992D01*
X144600499Y-76677247D01*
X144594091Y-76617636D01*
X144543796Y-76482788D01*
X144457546Y-76367573D01*
X144433629Y-76349669D01*
X144349431Y-76286638D01*
X144349430Y-76286637D01*
X144342331Y-76281323D01*
X144235442Y-76241456D01*
X144214752Y-76233739D01*
X144214750Y-76233738D01*
X144207483Y-76231028D01*
X144199770Y-76230198D01*
X144199767Y-76230198D01*
X144151180Y-76224974D01*
X144151169Y-76224973D01*
X144147873Y-76224619D01*
X144144550Y-76224619D01*
X142355439Y-76224619D01*
X142355420Y-76224619D01*
X142352128Y-76224620D01*
X142348850Y-76224972D01*
X142348838Y-76224973D01*
X142300231Y-76230198D01*
X142300225Y-76230199D01*
X142292517Y-76231028D01*
X142285252Y-76233737D01*
X142285246Y-76233739D01*
X142165980Y-76278223D01*
X142165978Y-76278223D01*
X142157669Y-76281323D01*
X142150572Y-76286635D01*
X142150568Y-76286638D01*
X142049550Y-76362260D01*
X142049546Y-76362263D01*
X142042454Y-76367573D01*
X142037144Y-76374665D01*
X142037141Y-76374669D01*
X141961519Y-76475687D01*
X141961516Y-76475691D01*
X141956204Y-76482788D01*
X141953104Y-76491097D01*
X141953105Y-76491097D01*
X141907189Y-76614202D01*
X141872210Y-76664581D01*
X141817365Y-76692034D01*
X141756072Y-76689845D01*
X141703326Y-76658549D01*
X141585232Y-76540455D01*
X141585230Y-76540453D01*
X141581401Y-76536624D01*
X141576970Y-76533521D01*
X141576966Y-76533518D01*
X141392259Y-76404185D01*
X141392257Y-76404183D01*
X141387830Y-76401084D01*
X141382933Y-76398800D01*
X141382927Y-76398797D01*
X141178572Y-76303505D01*
X141178570Y-76303504D01*
X141173663Y-76301216D01*
X141168438Y-76299816D01*
X141168430Y-76299813D01*
X140950634Y-76241456D01*
X140950630Y-76241455D01*
X140945408Y-76240056D01*
X140940020Y-76239584D01*
X140940017Y-76239584D01*
X140715395Y-76219932D01*
X140710000Y-76219460D01*
X140704605Y-76219932D01*
X140479982Y-76239584D01*
X140479977Y-76239584D01*
X140474592Y-76240056D01*
X140469371Y-76241454D01*
X140469365Y-76241456D01*
X140251569Y-76299813D01*
X140251557Y-76299817D01*
X140246337Y-76301216D01*
X140241432Y-76303502D01*
X140241427Y-76303505D01*
X140037081Y-76398794D01*
X140037077Y-76398796D01*
X140032171Y-76401084D01*
X140027738Y-76404187D01*
X140027731Y-76404192D01*
X139843034Y-76533518D01*
X139843029Y-76533521D01*
X139838599Y-76536624D01*
X139834775Y-76540447D01*
X139834769Y-76540453D01*
X139675334Y-76699888D01*
X139675328Y-76699894D01*
X139671505Y-76703718D01*
X139668402Y-76708148D01*
X139668399Y-76708153D01*
X139539073Y-76892850D01*
X139539068Y-76892857D01*
X139535965Y-76897290D01*
X139533677Y-76902196D01*
X139533675Y-76902200D01*
X139438386Y-77106546D01*
X139438383Y-77106551D01*
X139436097Y-77111456D01*
X139434696Y-77116681D01*
X139434693Y-77116692D01*
X139427058Y-77145186D01*
X139398403Y-77197193D01*
X139348854Y-77229914D01*
X139289773Y-77235847D01*
X139234707Y-77213631D01*
X139196283Y-77168361D01*
X139111795Y-76998685D01*
X139105793Y-76988991D01*
X138989850Y-76835456D01*
X138982152Y-76827012D01*
X138839972Y-76697399D01*
X138830868Y-76690523D01*
X138667284Y-76589236D01*
X138657071Y-76584150D01*
X138559091Y-76546193D01*
X138547746Y-76544743D01*
X138545000Y-76555845D01*
X138545000Y-78594393D01*
X137795000Y-78594393D01*
X137795000Y-77966445D01*
X137791549Y-77953569D01*
X137778674Y-77950119D01*
X137147423Y-77950119D01*
X137136454Y-77952698D01*
X131250000Y-77952698D01*
X131250000Y-77197539D01*
X137136454Y-77197539D01*
X137147423Y-77200119D01*
X137778674Y-77200119D01*
X137791549Y-77196668D01*
X137795000Y-77183793D01*
X137795000Y-76555845D01*
X137792253Y-76544743D01*
X137780908Y-76546193D01*
X137682928Y-76584150D01*
X137672715Y-76589236D01*
X137509131Y-76690523D01*
X137500027Y-76697399D01*
X137357847Y-76827012D01*
X137350149Y-76835456D01*
X137234206Y-76988991D01*
X137228199Y-76998694D01*
X137142444Y-77170913D01*
X137138315Y-77181569D01*
X137136975Y-77186280D01*
X137136454Y-77197539D01*
X131250000Y-77197539D01*
X131250000Y-74399000D01*
X131266613Y-74337000D01*
X131312000Y-74291613D01*
X131374000Y-74275000D01*
X172176000Y-74275000D01*
X172238000Y-74291613D01*
G37*
G04 #@! TD.AperFunction*
G04 #@! TA.AperFunction,Conductor*
G36*
X141900000Y-94875000D02*
G01*
X138487893Y-94875000D01*
X138426698Y-94858848D01*
X138381445Y-94814599D01*
X138363924Y-94753782D01*
X138378699Y-94692240D01*
X138421921Y-94646006D01*
X138527262Y-94579816D01*
X138654816Y-94452262D01*
X138750789Y-94299522D01*
X138810368Y-94129255D01*
X138830565Y-93950000D01*
X138810368Y-93770745D01*
X138750789Y-93600478D01*
X138654816Y-93447738D01*
X138527262Y-93320184D01*
X138374522Y-93224211D01*
X138367959Y-93221914D01*
X138367956Y-93221913D01*
X138210824Y-93166930D01*
X138210819Y-93166928D01*
X138204255Y-93164632D01*
X138197335Y-93163852D01*
X138197334Y-93163852D01*
X138031923Y-93145215D01*
X138025000Y-93144435D01*
X138018077Y-93145215D01*
X137852665Y-93163852D01*
X137852662Y-93163852D01*
X137845745Y-93164632D01*
X137839182Y-93166928D01*
X137839175Y-93166930D01*
X137682043Y-93221913D01*
X137682036Y-93221915D01*
X137675478Y-93224211D01*
X137669590Y-93227910D01*
X137669587Y-93227912D01*
X137528638Y-93316476D01*
X137528633Y-93316479D01*
X137522738Y-93320184D01*
X137517813Y-93325108D01*
X137517809Y-93325112D01*
X137400112Y-93442809D01*
X137400108Y-93442813D01*
X137395184Y-93447738D01*
X137391479Y-93453633D01*
X137391476Y-93453638D01*
X137302912Y-93594587D01*
X137302910Y-93594590D01*
X137299211Y-93600478D01*
X137296915Y-93607036D01*
X137296913Y-93607043D01*
X137241930Y-93764175D01*
X137241928Y-93764182D01*
X137239632Y-93770745D01*
X137219435Y-93950000D01*
X137239632Y-94129255D01*
X137241928Y-94135819D01*
X137241930Y-94135824D01*
X137296913Y-94292956D01*
X137299211Y-94299522D01*
X137395184Y-94452262D01*
X137522738Y-94579816D01*
X137528638Y-94583523D01*
X137628079Y-94646006D01*
X137671301Y-94692240D01*
X137686076Y-94753782D01*
X137668555Y-94814599D01*
X137623302Y-94858848D01*
X137562107Y-94875000D01*
X131374000Y-94875000D01*
X131312000Y-94858387D01*
X131266613Y-94813000D01*
X131250000Y-94751000D01*
X131250000Y-91525000D01*
X141900000Y-91525000D01*
X141900000Y-94875000D01*
G37*
G04 #@! TD.AperFunction*
G04 #@! TA.AperFunction,Conductor*
G36*
X126336917Y-100339945D02*
G01*
X126381708Y-100381178D01*
X126401476Y-100438759D01*
X126391456Y-100498809D01*
X126377450Y-100530738D01*
X126377444Y-100530753D01*
X126375389Y-100535440D01*
X126374131Y-100540405D01*
X126374130Y-100540410D01*
X126321152Y-100749613D01*
X126321150Y-100749622D01*
X126319893Y-100754588D01*
X126319469Y-100759695D01*
X126319468Y-100759706D01*
X126301655Y-100974684D01*
X126301225Y-100979881D01*
X126301649Y-100984998D01*
X126319468Y-101200055D01*
X126319469Y-101200064D01*
X126319893Y-101205174D01*
X126321150Y-101210141D01*
X126321152Y-101210148D01*
X126374130Y-101419351D01*
X126375389Y-101424322D01*
X126377449Y-101429018D01*
X126464138Y-101626651D01*
X126464141Y-101626656D01*
X126466198Y-101631346D01*
X126489150Y-101666476D01*
X126587042Y-101816312D01*
X126587045Y-101816316D01*
X126589844Y-101820600D01*
X126593309Y-101824364D01*
X126593313Y-101824369D01*
X126715449Y-101957043D01*
X126742954Y-101986921D01*
X126921351Y-102125774D01*
X126925858Y-102128213D01*
X126925861Y-102128215D01*
X127009034Y-102173226D01*
X127056011Y-102217929D01*
X127074000Y-102280231D01*
X127058081Y-102343093D01*
X127012608Y-102389325D01*
X126950017Y-102406281D01*
X126787872Y-102406281D01*
X126775795Y-102407470D01*
X126720833Y-102418403D01*
X126698700Y-102427570D01*
X126636313Y-102469256D01*
X126619375Y-102486194D01*
X126577689Y-102548581D01*
X126568522Y-102570714D01*
X126557589Y-102625676D01*
X126556400Y-102637753D01*
X126556400Y-103128555D01*
X126559850Y-103141430D01*
X126572726Y-103144881D01*
X128767274Y-103144881D01*
X128780149Y-103141430D01*
X128783600Y-103128555D01*
X128783600Y-102637753D01*
X128782410Y-102625676D01*
X128771477Y-102570714D01*
X128762310Y-102548581D01*
X128720624Y-102486194D01*
X128703686Y-102469256D01*
X128641299Y-102427570D01*
X128619166Y-102418403D01*
X128564204Y-102407470D01*
X128552128Y-102406281D01*
X128389983Y-102406281D01*
X128327392Y-102389325D01*
X128281919Y-102343093D01*
X128266000Y-102280231D01*
X128283989Y-102217929D01*
X128330966Y-102173226D01*
X128414138Y-102128215D01*
X128418649Y-102125774D01*
X128597046Y-101986921D01*
X128750156Y-101820600D01*
X128873802Y-101631346D01*
X128876586Y-101625000D01*
X140219435Y-101625000D01*
X140239632Y-101804255D01*
X140241928Y-101810819D01*
X140241930Y-101810824D01*
X140296913Y-101967956D01*
X140299211Y-101974522D01*
X140395184Y-102127262D01*
X140522738Y-102254816D01*
X140675478Y-102350789D01*
X140845745Y-102410368D01*
X141025000Y-102430565D01*
X141204255Y-102410368D01*
X141374522Y-102350789D01*
X141455352Y-102300000D01*
X151669435Y-102300000D01*
X151670215Y-102306923D01*
X151683808Y-102427570D01*
X151689632Y-102479255D01*
X151691928Y-102485819D01*
X151691930Y-102485824D01*
X151746913Y-102642956D01*
X151749211Y-102649522D01*
X151845184Y-102802262D01*
X151972738Y-102929816D01*
X152125478Y-103025789D01*
X152295745Y-103085368D01*
X152475000Y-103105565D01*
X152654255Y-103085368D01*
X152824522Y-103025789D01*
X152905352Y-102975000D01*
X158444435Y-102975000D01*
X158464632Y-103154255D01*
X158466928Y-103160819D01*
X158466930Y-103160824D01*
X158509469Y-103282393D01*
X158524211Y-103324522D01*
X158620184Y-103477262D01*
X158747738Y-103604816D01*
X158900478Y-103700789D01*
X159070745Y-103760368D01*
X159250000Y-103780565D01*
X159429255Y-103760368D01*
X159599522Y-103700789D01*
X159752262Y-103604816D01*
X159879816Y-103477262D01*
X159975789Y-103324522D01*
X160035368Y-103154255D01*
X160055565Y-102975000D01*
X160035368Y-102795745D01*
X159975789Y-102625478D01*
X159879816Y-102472738D01*
X159752262Y-102345184D01*
X159599522Y-102249211D01*
X159592959Y-102246914D01*
X159592956Y-102246913D01*
X159435824Y-102191930D01*
X159435819Y-102191928D01*
X159429255Y-102189632D01*
X159422335Y-102188852D01*
X159422334Y-102188852D01*
X159256923Y-102170215D01*
X159250000Y-102169435D01*
X159243077Y-102170215D01*
X159077665Y-102188852D01*
X159077662Y-102188852D01*
X159070745Y-102189632D01*
X159064182Y-102191928D01*
X159064175Y-102191930D01*
X158907043Y-102246913D01*
X158907036Y-102246915D01*
X158900478Y-102249211D01*
X158894590Y-102252910D01*
X158894587Y-102252912D01*
X158753638Y-102341476D01*
X158753633Y-102341479D01*
X158747738Y-102345184D01*
X158742813Y-102350108D01*
X158742809Y-102350112D01*
X158625112Y-102467809D01*
X158625108Y-102467813D01*
X158620184Y-102472738D01*
X158616479Y-102478633D01*
X158616476Y-102478638D01*
X158527912Y-102619587D01*
X158527910Y-102619590D01*
X158524211Y-102625478D01*
X158521915Y-102632036D01*
X158521913Y-102632043D01*
X158466930Y-102789175D01*
X158466928Y-102789182D01*
X158464632Y-102795745D01*
X158444435Y-102975000D01*
X152905352Y-102975000D01*
X152977262Y-102929816D01*
X153104816Y-102802262D01*
X153200789Y-102649522D01*
X153260368Y-102479255D01*
X153280565Y-102300000D01*
X153260368Y-102120745D01*
X153200789Y-101950478D01*
X153104816Y-101797738D01*
X152977262Y-101670184D01*
X152905352Y-101625000D01*
X167444435Y-101625000D01*
X167464632Y-101804255D01*
X167466928Y-101810819D01*
X167466930Y-101810824D01*
X167521913Y-101967956D01*
X167524211Y-101974522D01*
X167620184Y-102127262D01*
X167747738Y-102254816D01*
X167900478Y-102350789D01*
X168070745Y-102410368D01*
X168250000Y-102430565D01*
X168429255Y-102410368D01*
X168599522Y-102350789D01*
X168752262Y-102254816D01*
X168879816Y-102127262D01*
X168975789Y-101974522D01*
X169035368Y-101804255D01*
X169055565Y-101625000D01*
X169035368Y-101445745D01*
X168975789Y-101275478D01*
X168879816Y-101122738D01*
X168752262Y-100995184D01*
X168737160Y-100985695D01*
X168605412Y-100902912D01*
X168599522Y-100899211D01*
X168592959Y-100896914D01*
X168592956Y-100896913D01*
X168435824Y-100841930D01*
X168435819Y-100841928D01*
X168429255Y-100839632D01*
X168422335Y-100838852D01*
X168422334Y-100838852D01*
X168256923Y-100820215D01*
X168250000Y-100819435D01*
X168243077Y-100820215D01*
X168077665Y-100838852D01*
X168077662Y-100838852D01*
X168070745Y-100839632D01*
X168064182Y-100841928D01*
X168064175Y-100841930D01*
X167907043Y-100896913D01*
X167907036Y-100896915D01*
X167900478Y-100899211D01*
X167894590Y-100902910D01*
X167894587Y-100902912D01*
X167753638Y-100991476D01*
X167753633Y-100991479D01*
X167747738Y-100995184D01*
X167742813Y-101000108D01*
X167742809Y-101000112D01*
X167625112Y-101117809D01*
X167625108Y-101117813D01*
X167620184Y-101122738D01*
X167616479Y-101128633D01*
X167616476Y-101128638D01*
X167527912Y-101269587D01*
X167527910Y-101269590D01*
X167524211Y-101275478D01*
X167521915Y-101282036D01*
X167521913Y-101282043D01*
X167466930Y-101439175D01*
X167466928Y-101439182D01*
X167464632Y-101445745D01*
X167444435Y-101625000D01*
X152905352Y-101625000D01*
X152824522Y-101574211D01*
X152817959Y-101571914D01*
X152817956Y-101571913D01*
X152660824Y-101516930D01*
X152660819Y-101516928D01*
X152654255Y-101514632D01*
X152647335Y-101513852D01*
X152647334Y-101513852D01*
X152481923Y-101495215D01*
X152475000Y-101494435D01*
X152468077Y-101495215D01*
X152302665Y-101513852D01*
X152302662Y-101513852D01*
X152295745Y-101514632D01*
X152289182Y-101516928D01*
X152289175Y-101516930D01*
X152132043Y-101571913D01*
X152132036Y-101571915D01*
X152125478Y-101574211D01*
X152119590Y-101577910D01*
X152119587Y-101577912D01*
X151978638Y-101666476D01*
X151978633Y-101666479D01*
X151972738Y-101670184D01*
X151967813Y-101675108D01*
X151967809Y-101675112D01*
X151850112Y-101792809D01*
X151850108Y-101792813D01*
X151845184Y-101797738D01*
X151841479Y-101803633D01*
X151841476Y-101803638D01*
X151752912Y-101944587D01*
X151752910Y-101944590D01*
X151749211Y-101950478D01*
X151746915Y-101957036D01*
X151746913Y-101957043D01*
X151691930Y-102114175D01*
X151691928Y-102114182D01*
X151689632Y-102120745D01*
X151669435Y-102300000D01*
X141455352Y-102300000D01*
X141527262Y-102254816D01*
X141654816Y-102127262D01*
X141750789Y-101974522D01*
X141810368Y-101804255D01*
X141830565Y-101625000D01*
X141810368Y-101445745D01*
X141750789Y-101275478D01*
X141654816Y-101122738D01*
X141527262Y-100995184D01*
X141512160Y-100985695D01*
X141380412Y-100902912D01*
X141374522Y-100899211D01*
X141367959Y-100896914D01*
X141367956Y-100896913D01*
X141210824Y-100841930D01*
X141210819Y-100841928D01*
X141204255Y-100839632D01*
X141197335Y-100838852D01*
X141197334Y-100838852D01*
X141031923Y-100820215D01*
X141025000Y-100819435D01*
X141018077Y-100820215D01*
X140852665Y-100838852D01*
X140852662Y-100838852D01*
X140845745Y-100839632D01*
X140839182Y-100841928D01*
X140839175Y-100841930D01*
X140682043Y-100896913D01*
X140682036Y-100896915D01*
X140675478Y-100899211D01*
X140669590Y-100902910D01*
X140669587Y-100902912D01*
X140528638Y-100991476D01*
X140528633Y-100991479D01*
X140522738Y-100995184D01*
X140517813Y-101000108D01*
X140517809Y-101000112D01*
X140400112Y-101117809D01*
X140400108Y-101117813D01*
X140395184Y-101122738D01*
X140391479Y-101128633D01*
X140391476Y-101128638D01*
X140302912Y-101269587D01*
X140302910Y-101269590D01*
X140299211Y-101275478D01*
X140296915Y-101282036D01*
X140296913Y-101282043D01*
X140241930Y-101439175D01*
X140241928Y-101439182D01*
X140239632Y-101445745D01*
X140219435Y-101625000D01*
X128876586Y-101625000D01*
X128964611Y-101424322D01*
X129020107Y-101205174D01*
X129038775Y-100979881D01*
X129020107Y-100754588D01*
X128964611Y-100535440D01*
X128962549Y-100530738D01*
X128948544Y-100498809D01*
X128938524Y-100438759D01*
X128958292Y-100381178D01*
X129003083Y-100339945D01*
X129062100Y-100325000D01*
X174821596Y-100325000D01*
X174871406Y-100335444D01*
X174912825Y-100365017D01*
X174999478Y-100459147D01*
X174999489Y-100459157D01*
X175002954Y-100462921D01*
X175181351Y-100601774D01*
X175185858Y-100604213D01*
X175185861Y-100604215D01*
X175209165Y-100616827D01*
X175256669Y-100662408D01*
X175274146Y-100725881D01*
X175256669Y-100789354D01*
X175209165Y-100834935D01*
X175185861Y-100847546D01*
X175185849Y-100847553D01*
X175181351Y-100849988D01*
X175177314Y-100853129D01*
X175177305Y-100853136D01*
X175006995Y-100985695D01*
X175006989Y-100985699D01*
X175002954Y-100988841D01*
X174999492Y-100992600D01*
X174999485Y-100992608D01*
X174853313Y-101151392D01*
X174853304Y-101151402D01*
X174849844Y-101155162D01*
X174847049Y-101159439D01*
X174847042Y-101159449D01*
X174766948Y-101282043D01*
X174726198Y-101344416D01*
X174724143Y-101349100D01*
X174724138Y-101349110D01*
X174651534Y-101514632D01*
X174635389Y-101551440D01*
X174634131Y-101556405D01*
X174634130Y-101556410D01*
X174581152Y-101765613D01*
X174581150Y-101765622D01*
X174579893Y-101770588D01*
X174579469Y-101775695D01*
X174579468Y-101775706D01*
X174565475Y-101944587D01*
X174561225Y-101995881D01*
X174561649Y-102000998D01*
X174579468Y-102216055D01*
X174579469Y-102216064D01*
X174579893Y-102221174D01*
X174581150Y-102226141D01*
X174581152Y-102226148D01*
X174632918Y-102430565D01*
X174635389Y-102440322D01*
X174637449Y-102445018D01*
X174724138Y-102642651D01*
X174724141Y-102642656D01*
X174726198Y-102647346D01*
X174731468Y-102655412D01*
X174847042Y-102832312D01*
X174847045Y-102832316D01*
X174849844Y-102836600D01*
X174853309Y-102840364D01*
X174853313Y-102840369D01*
X174983624Y-102981923D01*
X175002954Y-103002921D01*
X175181351Y-103141774D01*
X175185858Y-103144213D01*
X175185861Y-103144215D01*
X175209165Y-103156827D01*
X175256669Y-103202408D01*
X175274146Y-103265881D01*
X175256669Y-103329354D01*
X175209165Y-103374935D01*
X175185861Y-103387546D01*
X175185849Y-103387553D01*
X175181351Y-103389988D01*
X175177314Y-103393129D01*
X175177305Y-103393136D01*
X175006995Y-103525695D01*
X175006989Y-103525699D01*
X175002954Y-103528841D01*
X174999492Y-103532600D01*
X174999485Y-103532608D01*
X174853313Y-103691392D01*
X174853304Y-103691402D01*
X174849844Y-103695162D01*
X174847049Y-103699439D01*
X174847042Y-103699449D01*
X174762886Y-103828261D01*
X174726198Y-103884416D01*
X174724143Y-103889100D01*
X174724138Y-103889110D01*
X174649714Y-104058782D01*
X174635389Y-104091440D01*
X174634131Y-104096405D01*
X174634130Y-104096410D01*
X174581152Y-104305613D01*
X174581150Y-104305622D01*
X174579893Y-104310588D01*
X174579469Y-104315695D01*
X174579468Y-104315706D01*
X174571317Y-104414085D01*
X174561225Y-104535881D01*
X174561649Y-104540998D01*
X174579468Y-104756055D01*
X174579469Y-104756064D01*
X174579893Y-104761174D01*
X174581150Y-104766141D01*
X174581152Y-104766148D01*
X174627642Y-104949731D01*
X174635389Y-104980322D01*
X174637449Y-104985018D01*
X174724138Y-105182651D01*
X174724141Y-105182656D01*
X174726198Y-105187346D01*
X174732846Y-105197521D01*
X174847042Y-105372312D01*
X174847045Y-105372316D01*
X174849844Y-105376600D01*
X174853309Y-105380364D01*
X174853313Y-105380369D01*
X174923727Y-105456858D01*
X175002954Y-105542921D01*
X175181351Y-105681774D01*
X175380169Y-105789369D01*
X175593986Y-105862772D01*
X175816967Y-105899981D01*
X176037900Y-105899981D01*
X176043033Y-105899981D01*
X176266014Y-105862772D01*
X176479831Y-105789369D01*
X176678649Y-105681774D01*
X176857046Y-105542921D01*
X177010156Y-105376600D01*
X177133802Y-105187346D01*
X177224611Y-104980322D01*
X177280107Y-104761174D01*
X177298775Y-104535881D01*
X177280107Y-104310588D01*
X177224611Y-104091440D01*
X177138392Y-103894881D01*
X177135861Y-103889110D01*
X177135860Y-103889109D01*
X177133802Y-103884416D01*
X177010156Y-103695162D01*
X177006688Y-103691395D01*
X177006686Y-103691392D01*
X176860514Y-103532608D01*
X176860512Y-103532606D01*
X176857046Y-103528841D01*
X176678649Y-103389988D01*
X176674144Y-103387550D01*
X176674138Y-103387546D01*
X176650836Y-103374936D01*
X176603330Y-103329355D01*
X176585853Y-103265881D01*
X176603330Y-103202407D01*
X176650836Y-103156826D01*
X176668375Y-103147334D01*
X176678649Y-103141774D01*
X176857046Y-103002921D01*
X177010156Y-102836600D01*
X177133802Y-102647346D01*
X177224611Y-102440322D01*
X177280107Y-102221174D01*
X177298775Y-101995881D01*
X177280107Y-101770588D01*
X177224611Y-101551440D01*
X177133802Y-101344416D01*
X177010156Y-101155162D01*
X177006688Y-101151395D01*
X177006686Y-101151392D01*
X176860514Y-100992608D01*
X176860512Y-100992606D01*
X176857046Y-100988841D01*
X176837097Y-100973314D01*
X176682694Y-100853136D01*
X176682691Y-100853134D01*
X176678649Y-100849988D01*
X176674144Y-100847550D01*
X176674138Y-100847546D01*
X176650836Y-100834936D01*
X176603330Y-100789355D01*
X176585853Y-100725881D01*
X176603330Y-100662407D01*
X176650836Y-100616826D01*
X176674138Y-100604215D01*
X176678649Y-100601774D01*
X176857046Y-100462921D01*
X176860515Y-100459151D01*
X176860521Y-100459147D01*
X176947175Y-100365017D01*
X176988594Y-100335444D01*
X177038404Y-100325000D01*
X178400500Y-100325000D01*
X178462500Y-100341613D01*
X178507887Y-100387000D01*
X178524500Y-100449000D01*
X178524500Y-127390588D01*
X178515061Y-127438041D01*
X178488181Y-127478269D01*
X177028270Y-128938181D01*
X176988042Y-128965061D01*
X176940589Y-128974500D01*
X165936509Y-128974500D01*
X165933599Y-128974336D01*
X165923027Y-128970637D01*
X165909144Y-128972201D01*
X165895663Y-128973720D01*
X165886955Y-128974209D01*
X165884372Y-128974500D01*
X165877410Y-128974500D01*
X165870619Y-128976049D01*
X165868048Y-128976339D01*
X165859457Y-128977798D01*
X165845959Y-128979319D01*
X165845956Y-128979319D01*
X165832076Y-128980884D01*
X165822171Y-128987107D01*
X165810769Y-128989710D01*
X165799852Y-128998415D01*
X165799847Y-128998418D01*
X165789233Y-129006883D01*
X165782100Y-129011945D01*
X165780085Y-129013551D01*
X165774199Y-129017251D01*
X165769285Y-129022164D01*
X165767259Y-129023780D01*
X165760744Y-129029603D01*
X165750130Y-129038068D01*
X165750128Y-129038069D01*
X165739212Y-129046776D01*
X165734354Y-129056862D01*
X165732407Y-129059041D01*
X163303270Y-131488181D01*
X163263042Y-131515061D01*
X163215589Y-131524500D01*
X128959411Y-131524500D01*
X128911958Y-131515061D01*
X128871730Y-131488181D01*
X128832750Y-131449201D01*
X128832749Y-131449199D01*
X126442591Y-129059042D01*
X126440647Y-129056867D01*
X126439657Y-129054810D01*
X130949500Y-129054810D01*
X130950190Y-129059394D01*
X130950191Y-129059395D01*
X130989028Y-129317067D01*
X130989030Y-129317076D01*
X130989720Y-129321653D01*
X130991084Y-129326077D01*
X130991086Y-129326083D01*
X131067894Y-129575090D01*
X131067898Y-129575100D01*
X131069262Y-129579522D01*
X131071273Y-129583699D01*
X131071274Y-129583700D01*
X131071274Y-129583701D01*
X131186349Y-129822655D01*
X131338365Y-130045622D01*
X131521915Y-130243442D01*
X131732898Y-130411696D01*
X131966602Y-130546624D01*
X132217805Y-130645215D01*
X132480897Y-130705264D01*
X132682624Y-130720381D01*
X132815059Y-130720381D01*
X132817376Y-130720381D01*
X133019103Y-130705264D01*
X133282195Y-130645215D01*
X133533398Y-130546624D01*
X133767102Y-130411696D01*
X133978085Y-130243442D01*
X134161635Y-130045622D01*
X134241141Y-129929009D01*
X149416400Y-129929009D01*
X149417589Y-129941085D01*
X149428522Y-129996047D01*
X149437689Y-130018180D01*
X149479375Y-130080567D01*
X149496313Y-130097505D01*
X149558700Y-130139191D01*
X149580833Y-130148358D01*
X149635795Y-130159291D01*
X149647872Y-130160481D01*
X150138674Y-130160481D01*
X150151549Y-130157030D01*
X150155000Y-130144155D01*
X150155000Y-129438207D01*
X150151549Y-129425331D01*
X150138674Y-129421881D01*
X149432726Y-129421881D01*
X149419850Y-129425331D01*
X149416400Y-129438207D01*
X149416400Y-129929009D01*
X134241141Y-129929009D01*
X134313651Y-129822656D01*
X134430738Y-129579522D01*
X134510280Y-129321653D01*
X134550500Y-129054810D01*
X134550500Y-128784952D01*
X134510280Y-128518109D01*
X134430738Y-128260240D01*
X134313651Y-128017107D01*
X134161635Y-127794140D01*
X133978085Y-127596320D01*
X133767102Y-127428066D01*
X133533398Y-127293138D01*
X133358179Y-127224369D01*
X133286519Y-127196244D01*
X133286518Y-127196243D01*
X133282195Y-127194547D01*
X133277669Y-127193514D01*
X133277666Y-127193513D01*
X133023622Y-127135529D01*
X133023616Y-127135528D01*
X133019103Y-127134498D01*
X133014481Y-127134151D01*
X133014477Y-127134151D01*
X132819690Y-127119554D01*
X132819679Y-127119553D01*
X132817376Y-127119381D01*
X132682624Y-127119381D01*
X132680321Y-127119553D01*
X132680309Y-127119554D01*
X132485522Y-127134151D01*
X132485516Y-127134151D01*
X132480897Y-127134498D01*
X132476385Y-127135527D01*
X132476377Y-127135529D01*
X132222333Y-127193513D01*
X132222326Y-127193514D01*
X132217805Y-127194547D01*
X132213485Y-127196242D01*
X132213480Y-127196244D01*
X131970922Y-127291442D01*
X131970916Y-127291444D01*
X131966602Y-127293138D01*
X131962586Y-127295456D01*
X131962581Y-127295459D01*
X131798716Y-127390066D01*
X131732898Y-127428066D01*
X131729274Y-127430955D01*
X131729271Y-127430958D01*
X131525542Y-127593427D01*
X131525537Y-127593430D01*
X131521915Y-127596320D01*
X131518759Y-127599720D01*
X131518756Y-127599724D01*
X131341524Y-127790734D01*
X131341516Y-127790744D01*
X131338365Y-127794140D01*
X131335759Y-127797961D01*
X131335752Y-127797971D01*
X131188964Y-128013270D01*
X131188962Y-128013273D01*
X131186349Y-128017106D01*
X131184336Y-128021284D01*
X131184333Y-128021291D01*
X131071274Y-128256060D01*
X131071274Y-128256061D01*
X131069262Y-128260240D01*
X131067899Y-128264656D01*
X131067894Y-128264671D01*
X130991086Y-128513678D01*
X130991083Y-128513687D01*
X130989720Y-128518109D01*
X130989030Y-128522682D01*
X130989028Y-128522694D01*
X130950191Y-128780366D01*
X130949500Y-128784952D01*
X130949500Y-129054810D01*
X126439657Y-129054810D01*
X126435788Y-129046776D01*
X126414254Y-129029603D01*
X126414252Y-129029601D01*
X126407755Y-129023794D01*
X126405720Y-129022171D01*
X126400801Y-129017252D01*
X126394904Y-129013546D01*
X126392880Y-129011932D01*
X126385772Y-129006888D01*
X126375153Y-128998419D01*
X126375150Y-128998417D01*
X126364231Y-128989710D01*
X126352828Y-128987107D01*
X126342924Y-128980884D01*
X126329038Y-128979319D01*
X126329037Y-128979319D01*
X126315554Y-128977800D01*
X126306957Y-128976340D01*
X126304381Y-128976049D01*
X126297590Y-128974500D01*
X126290625Y-128974500D01*
X126288042Y-128974209D01*
X126279341Y-128973721D01*
X126265854Y-128972201D01*
X126265851Y-128972201D01*
X126251974Y-128970638D01*
X126241404Y-128974336D01*
X126238495Y-128974500D01*
X125199500Y-128974500D01*
X125137500Y-128957887D01*
X125092113Y-128912500D01*
X125075500Y-128850500D01*
X125075500Y-126379881D01*
X126301225Y-126379881D01*
X126301649Y-126384998D01*
X126319468Y-126600055D01*
X126319469Y-126600064D01*
X126319893Y-126605174D01*
X126321150Y-126610141D01*
X126321152Y-126610148D01*
X126352054Y-126732174D01*
X126375389Y-126824322D01*
X126377449Y-126829018D01*
X126464138Y-127026651D01*
X126464141Y-127026656D01*
X126466198Y-127031346D01*
X126523714Y-127119381D01*
X126587042Y-127216312D01*
X126587045Y-127216316D01*
X126589844Y-127220600D01*
X126593309Y-127224364D01*
X126593313Y-127224369D01*
X126702804Y-127343307D01*
X126742954Y-127386921D01*
X126921351Y-127525774D01*
X127120169Y-127633369D01*
X127333986Y-127706772D01*
X127556967Y-127743981D01*
X127777900Y-127743981D01*
X127783033Y-127743981D01*
X128006014Y-127706772D01*
X128219831Y-127633369D01*
X128418649Y-127525774D01*
X128597046Y-127386921D01*
X128750156Y-127220600D01*
X128873802Y-127031346D01*
X128964611Y-126824322D01*
X129020107Y-126605174D01*
X129028252Y-126506881D01*
X149161225Y-126506881D01*
X149161649Y-126511998D01*
X149179468Y-126727055D01*
X149179469Y-126727064D01*
X149179893Y-126732174D01*
X149181150Y-126737141D01*
X149181152Y-126737148D01*
X149201969Y-126819351D01*
X149235389Y-126951322D01*
X149237449Y-126956018D01*
X149324138Y-127153651D01*
X149324141Y-127153656D01*
X149326198Y-127158346D01*
X149350958Y-127196244D01*
X149447042Y-127343312D01*
X149447045Y-127343316D01*
X149449844Y-127347600D01*
X149453309Y-127351364D01*
X149453313Y-127351369D01*
X149591956Y-127501974D01*
X149602954Y-127513921D01*
X149606995Y-127517066D01*
X149766488Y-127641206D01*
X149781351Y-127652774D01*
X149785858Y-127655213D01*
X149785861Y-127655215D01*
X149869034Y-127700226D01*
X149916011Y-127744929D01*
X149934000Y-127807231D01*
X149918081Y-127870093D01*
X149872608Y-127916325D01*
X149810017Y-127933281D01*
X149647872Y-127933281D01*
X149635795Y-127934470D01*
X149580833Y-127945403D01*
X149558700Y-127954570D01*
X149496313Y-127996256D01*
X149479375Y-128013194D01*
X149437689Y-128075581D01*
X149428522Y-128097714D01*
X149417589Y-128152676D01*
X149416400Y-128164753D01*
X149416400Y-128655555D01*
X149419850Y-128668430D01*
X149432726Y-128671881D01*
X150781000Y-128671881D01*
X150843000Y-128688494D01*
X150888387Y-128733881D01*
X150905000Y-128795881D01*
X150905000Y-130144155D01*
X150908450Y-130157030D01*
X150921326Y-130160481D01*
X151412128Y-130160481D01*
X151424204Y-130159291D01*
X151479166Y-130148358D01*
X151501299Y-130139191D01*
X151563686Y-130097505D01*
X151580624Y-130080567D01*
X151622310Y-130018180D01*
X151631477Y-129996047D01*
X151642410Y-129941085D01*
X151643600Y-129929009D01*
X151643600Y-129774144D01*
X151659536Y-129713331D01*
X151703248Y-129668150D01*
X151763500Y-129650212D01*
X151824806Y-129664128D01*
X151871409Y-129706322D01*
X151987042Y-129883312D01*
X151987045Y-129883316D01*
X151989844Y-129887600D01*
X151993309Y-129891364D01*
X151993313Y-129891369D01*
X152139485Y-130050153D01*
X152142954Y-130053921D01*
X152321351Y-130192774D01*
X152520169Y-130300369D01*
X152733986Y-130373772D01*
X152956967Y-130410981D01*
X153177900Y-130410981D01*
X153183033Y-130410981D01*
X153406014Y-130373772D01*
X153619831Y-130300369D01*
X153818649Y-130192774D01*
X153997046Y-130053921D01*
X154150156Y-129887600D01*
X154236190Y-129755914D01*
X154280982Y-129714680D01*
X154340000Y-129699735D01*
X154399018Y-129714680D01*
X154443809Y-129755914D01*
X154527038Y-129883307D01*
X154527045Y-129883316D01*
X154529844Y-129887600D01*
X154533309Y-129891364D01*
X154533313Y-129891369D01*
X154679485Y-130050153D01*
X154682954Y-130053921D01*
X154861351Y-130192774D01*
X155060169Y-130300369D01*
X155273986Y-130373772D01*
X155496967Y-130410981D01*
X155717900Y-130410981D01*
X155723033Y-130410981D01*
X155946014Y-130373772D01*
X156159831Y-130300369D01*
X156358649Y-130192774D01*
X156537046Y-130053921D01*
X156690156Y-129887600D01*
X156813802Y-129698346D01*
X156904611Y-129491322D01*
X156960107Y-129272174D01*
X156978118Y-129054810D01*
X158889500Y-129054810D01*
X158890190Y-129059394D01*
X158890191Y-129059395D01*
X158929028Y-129317067D01*
X158929030Y-129317076D01*
X158929720Y-129321653D01*
X158931084Y-129326077D01*
X158931086Y-129326083D01*
X159007894Y-129575090D01*
X159007898Y-129575100D01*
X159009262Y-129579522D01*
X159011273Y-129583699D01*
X159011274Y-129583700D01*
X159011274Y-129583701D01*
X159126349Y-129822655D01*
X159278365Y-130045622D01*
X159461915Y-130243442D01*
X159672898Y-130411696D01*
X159906602Y-130546624D01*
X160157805Y-130645215D01*
X160420897Y-130705264D01*
X160622624Y-130720381D01*
X160755059Y-130720381D01*
X160757376Y-130720381D01*
X160959103Y-130705264D01*
X161222195Y-130645215D01*
X161473398Y-130546624D01*
X161707102Y-130411696D01*
X161918085Y-130243442D01*
X162101635Y-130045622D01*
X162253651Y-129822656D01*
X162370738Y-129579522D01*
X162450280Y-129321653D01*
X162490500Y-129054810D01*
X162490500Y-128784952D01*
X162450280Y-128518109D01*
X162370738Y-128260240D01*
X162253651Y-128017107D01*
X162101635Y-127794140D01*
X161918085Y-127596320D01*
X161707102Y-127428066D01*
X161473398Y-127293138D01*
X161298179Y-127224369D01*
X161226519Y-127196244D01*
X161226518Y-127196243D01*
X161222195Y-127194547D01*
X161217669Y-127193514D01*
X161217666Y-127193513D01*
X160963622Y-127135529D01*
X160963616Y-127135528D01*
X160959103Y-127134498D01*
X160954481Y-127134151D01*
X160954477Y-127134151D01*
X160759690Y-127119554D01*
X160759679Y-127119553D01*
X160757376Y-127119381D01*
X160622624Y-127119381D01*
X160620321Y-127119553D01*
X160620309Y-127119554D01*
X160425522Y-127134151D01*
X160425516Y-127134151D01*
X160420897Y-127134498D01*
X160416385Y-127135527D01*
X160416377Y-127135529D01*
X160162333Y-127193513D01*
X160162326Y-127193514D01*
X160157805Y-127194547D01*
X160153485Y-127196242D01*
X160153480Y-127196244D01*
X159910922Y-127291442D01*
X159910916Y-127291444D01*
X159906602Y-127293138D01*
X159902586Y-127295456D01*
X159902581Y-127295459D01*
X159738716Y-127390066D01*
X159672898Y-127428066D01*
X159669274Y-127430955D01*
X159669271Y-127430958D01*
X159465542Y-127593427D01*
X159465537Y-127593430D01*
X159461915Y-127596320D01*
X159458759Y-127599720D01*
X159458756Y-127599724D01*
X159281524Y-127790734D01*
X159281516Y-127790744D01*
X159278365Y-127794140D01*
X159275759Y-127797961D01*
X159275752Y-127797971D01*
X159128964Y-128013270D01*
X159128962Y-128013273D01*
X159126349Y-128017106D01*
X159124336Y-128021284D01*
X159124333Y-128021291D01*
X159011274Y-128256060D01*
X159011274Y-128256061D01*
X159009262Y-128260240D01*
X159007899Y-128264656D01*
X159007894Y-128264671D01*
X158931086Y-128513678D01*
X158931083Y-128513687D01*
X158929720Y-128518109D01*
X158929030Y-128522682D01*
X158929028Y-128522694D01*
X158890191Y-128780366D01*
X158889500Y-128784952D01*
X158889500Y-129054810D01*
X156978118Y-129054810D01*
X156978775Y-129046881D01*
X156960107Y-128821588D01*
X156904611Y-128602440D01*
X156813802Y-128395416D01*
X156690156Y-128206162D01*
X156686688Y-128202395D01*
X156686686Y-128202392D01*
X156540514Y-128043608D01*
X156540512Y-128043606D01*
X156537046Y-128039841D01*
X156502810Y-128013194D01*
X156362694Y-127904136D01*
X156362691Y-127904134D01*
X156358649Y-127900988D01*
X156354144Y-127898550D01*
X156354138Y-127898546D01*
X156330836Y-127885936D01*
X156283330Y-127840355D01*
X156265853Y-127776881D01*
X156283330Y-127713407D01*
X156330836Y-127667826D01*
X156354138Y-127655215D01*
X156358649Y-127652774D01*
X156537046Y-127513921D01*
X156690156Y-127347600D01*
X156813802Y-127158346D01*
X156904611Y-126951322D01*
X156960107Y-126732174D01*
X156978775Y-126506881D01*
X156968252Y-126379881D01*
X174561225Y-126379881D01*
X174561649Y-126384998D01*
X174579468Y-126600055D01*
X174579469Y-126600064D01*
X174579893Y-126605174D01*
X174581150Y-126610141D01*
X174581152Y-126610148D01*
X174612054Y-126732174D01*
X174635389Y-126824322D01*
X174637449Y-126829018D01*
X174724138Y-127026651D01*
X174724141Y-127026656D01*
X174726198Y-127031346D01*
X174783714Y-127119381D01*
X174847042Y-127216312D01*
X174847045Y-127216316D01*
X174849844Y-127220600D01*
X174853309Y-127224364D01*
X174853313Y-127224369D01*
X174962804Y-127343307D01*
X175002954Y-127386921D01*
X175181351Y-127525774D01*
X175380169Y-127633369D01*
X175593986Y-127706772D01*
X175816967Y-127743981D01*
X176037900Y-127743981D01*
X176043033Y-127743981D01*
X176266014Y-127706772D01*
X176479831Y-127633369D01*
X176678649Y-127525774D01*
X176857046Y-127386921D01*
X177010156Y-127220600D01*
X177133802Y-127031346D01*
X177224611Y-126824322D01*
X177280107Y-126605174D01*
X177298775Y-126379881D01*
X177280107Y-126154588D01*
X177224611Y-125935440D01*
X177133802Y-125728416D01*
X177010156Y-125539162D01*
X177006688Y-125535395D01*
X177006686Y-125535392D01*
X176860514Y-125376608D01*
X176860512Y-125376606D01*
X176857046Y-125372841D01*
X176837097Y-125357314D01*
X176682694Y-125237136D01*
X176682691Y-125237134D01*
X176678649Y-125233988D01*
X176674144Y-125231550D01*
X176674138Y-125231546D01*
X176650836Y-125218936D01*
X176603330Y-125173355D01*
X176585853Y-125109881D01*
X176603330Y-125046407D01*
X176650836Y-125000826D01*
X176674138Y-124988215D01*
X176678649Y-124985774D01*
X176857046Y-124846921D01*
X177010156Y-124680600D01*
X177133802Y-124491346D01*
X177224611Y-124284322D01*
X177280107Y-124065174D01*
X177298775Y-123839881D01*
X177280107Y-123614588D01*
X177224611Y-123395440D01*
X177133802Y-123188416D01*
X177010156Y-122999162D01*
X177006688Y-122995395D01*
X177006686Y-122995392D01*
X176860514Y-122836608D01*
X176860512Y-122836606D01*
X176857046Y-122832841D01*
X176713796Y-122721344D01*
X176682694Y-122697136D01*
X176682691Y-122697134D01*
X176678649Y-122693988D01*
X176674144Y-122691550D01*
X176674138Y-122691546D01*
X176650836Y-122678936D01*
X176603330Y-122633355D01*
X176585853Y-122569881D01*
X176603330Y-122506407D01*
X176650836Y-122460826D01*
X176664763Y-122453288D01*
X176678649Y-122445774D01*
X176857046Y-122306921D01*
X177010156Y-122140600D01*
X177133802Y-121951346D01*
X177224611Y-121744322D01*
X177280107Y-121525174D01*
X177298775Y-121299881D01*
X177280107Y-121074588D01*
X177224611Y-120855440D01*
X177133802Y-120648416D01*
X177010156Y-120459162D01*
X177006688Y-120455395D01*
X177006686Y-120455392D01*
X176860514Y-120296608D01*
X176860512Y-120296606D01*
X176857046Y-120292841D01*
X176727984Y-120192387D01*
X176682694Y-120157136D01*
X176682691Y-120157134D01*
X176678649Y-120153988D01*
X176674144Y-120151550D01*
X176674138Y-120151546D01*
X176650836Y-120138936D01*
X176603330Y-120093355D01*
X176585853Y-120029881D01*
X176603330Y-119966407D01*
X176650836Y-119920826D01*
X176674138Y-119908215D01*
X176678649Y-119905774D01*
X176857046Y-119766921D01*
X177010156Y-119600600D01*
X177133802Y-119411346D01*
X177224611Y-119204322D01*
X177280107Y-118985174D01*
X177298775Y-118759881D01*
X177280107Y-118534588D01*
X177224611Y-118315440D01*
X177133802Y-118108416D01*
X177010156Y-117919162D01*
X177006688Y-117915395D01*
X177006686Y-117915392D01*
X176860514Y-117756608D01*
X176860512Y-117756606D01*
X176857046Y-117752841D01*
X176723325Y-117648761D01*
X176682694Y-117617136D01*
X176682691Y-117617134D01*
X176678649Y-117613988D01*
X176674144Y-117611550D01*
X176674138Y-117611546D01*
X176650836Y-117598936D01*
X176603330Y-117553355D01*
X176585853Y-117489881D01*
X176603330Y-117426407D01*
X176650836Y-117380826D01*
X176674138Y-117368215D01*
X176678649Y-117365774D01*
X176857046Y-117226921D01*
X177010156Y-117060600D01*
X177133802Y-116871346D01*
X177224611Y-116664322D01*
X177280107Y-116445174D01*
X177298775Y-116219881D01*
X177280107Y-115994588D01*
X177224611Y-115775440D01*
X177133802Y-115568416D01*
X177010156Y-115379162D01*
X177006688Y-115375395D01*
X177006686Y-115375392D01*
X176860514Y-115216608D01*
X176860512Y-115216606D01*
X176857046Y-115212841D01*
X176824961Y-115187868D01*
X176682694Y-115077136D01*
X176682691Y-115077134D01*
X176678649Y-115073988D01*
X176674144Y-115071550D01*
X176674138Y-115071546D01*
X176650836Y-115058936D01*
X176603330Y-115013355D01*
X176585853Y-114949881D01*
X176603330Y-114886407D01*
X176650836Y-114840826D01*
X176674138Y-114828215D01*
X176678649Y-114825774D01*
X176857046Y-114686921D01*
X177010156Y-114520600D01*
X177133802Y-114331346D01*
X177224611Y-114124322D01*
X177280107Y-113905174D01*
X177298775Y-113679881D01*
X177280107Y-113454588D01*
X177224611Y-113235440D01*
X177133802Y-113028416D01*
X177010156Y-112839162D01*
X177006688Y-112835395D01*
X177006686Y-112835392D01*
X176860514Y-112676608D01*
X176860512Y-112676606D01*
X176857046Y-112672841D01*
X176824331Y-112647378D01*
X176682694Y-112537136D01*
X176682691Y-112537134D01*
X176678649Y-112533988D01*
X176674144Y-112531550D01*
X176674138Y-112531546D01*
X176650836Y-112518936D01*
X176603330Y-112473355D01*
X176585853Y-112409881D01*
X176603330Y-112346407D01*
X176650836Y-112300826D01*
X176674138Y-112288215D01*
X176678649Y-112285774D01*
X176857046Y-112146921D01*
X177010156Y-111980600D01*
X177133802Y-111791346D01*
X177224611Y-111584322D01*
X177280107Y-111365174D01*
X177298775Y-111139881D01*
X177280107Y-110914588D01*
X177224611Y-110695440D01*
X177138703Y-110499590D01*
X177135861Y-110493110D01*
X177135860Y-110493109D01*
X177133802Y-110488416D01*
X177010156Y-110299162D01*
X177006688Y-110295395D01*
X177006686Y-110295392D01*
X176860514Y-110136608D01*
X176860512Y-110136606D01*
X176857046Y-110132841D01*
X176833852Y-110114788D01*
X176682694Y-109997136D01*
X176682691Y-109997134D01*
X176678649Y-109993988D01*
X176674144Y-109991550D01*
X176674138Y-109991546D01*
X176650836Y-109978936D01*
X176603330Y-109933355D01*
X176585853Y-109869881D01*
X176603330Y-109806407D01*
X176650836Y-109760826D01*
X176674138Y-109748215D01*
X176678649Y-109745774D01*
X176857046Y-109606921D01*
X177010156Y-109440600D01*
X177133802Y-109251346D01*
X177224611Y-109044322D01*
X177280107Y-108825174D01*
X177298775Y-108599881D01*
X177280107Y-108374588D01*
X177224611Y-108155440D01*
X177133802Y-107948416D01*
X177010156Y-107759162D01*
X177006688Y-107755395D01*
X177006686Y-107755392D01*
X176860514Y-107596608D01*
X176860512Y-107596606D01*
X176857046Y-107592841D01*
X176728838Y-107493052D01*
X176682694Y-107457136D01*
X176682691Y-107457134D01*
X176678649Y-107453988D01*
X176608208Y-107415867D01*
X176484335Y-107348830D01*
X176484330Y-107348828D01*
X176479831Y-107346393D01*
X176474990Y-107344731D01*
X176474983Y-107344728D01*
X176270867Y-107274656D01*
X176270866Y-107274655D01*
X176266014Y-107272990D01*
X176260964Y-107272147D01*
X176260955Y-107272145D01*
X176048095Y-107236625D01*
X176048086Y-107236624D01*
X176043033Y-107235781D01*
X175816967Y-107235781D01*
X175811914Y-107236624D01*
X175811904Y-107236625D01*
X175599044Y-107272145D01*
X175599032Y-107272147D01*
X175593986Y-107272990D01*
X175589136Y-107274654D01*
X175589132Y-107274656D01*
X175385016Y-107344728D01*
X175385005Y-107344732D01*
X175380169Y-107346393D01*
X175375673Y-107348825D01*
X175375664Y-107348830D01*
X175185857Y-107451549D01*
X175185852Y-107451551D01*
X175181351Y-107453988D01*
X175177314Y-107457129D01*
X175177305Y-107457136D01*
X175006995Y-107589695D01*
X175006989Y-107589699D01*
X175002954Y-107592841D01*
X174999492Y-107596600D01*
X174999485Y-107596608D01*
X174853313Y-107755392D01*
X174853304Y-107755402D01*
X174849844Y-107759162D01*
X174847049Y-107763439D01*
X174847042Y-107763449D01*
X174729000Y-107944127D01*
X174726198Y-107948416D01*
X174724143Y-107953100D01*
X174724138Y-107953110D01*
X174637449Y-108150743D01*
X174635389Y-108155440D01*
X174634131Y-108160405D01*
X174634130Y-108160410D01*
X174581152Y-108369613D01*
X174581150Y-108369622D01*
X174579893Y-108374588D01*
X174579469Y-108379695D01*
X174579468Y-108379706D01*
X174568999Y-108506058D01*
X174561225Y-108599881D01*
X174561649Y-108604998D01*
X174579468Y-108820055D01*
X174579469Y-108820064D01*
X174579893Y-108825174D01*
X174581150Y-108830141D01*
X174581152Y-108830148D01*
X174634130Y-109039351D01*
X174635389Y-109044322D01*
X174637449Y-109049018D01*
X174724138Y-109246651D01*
X174724141Y-109246656D01*
X174726198Y-109251346D01*
X174752779Y-109292031D01*
X174847042Y-109436312D01*
X174847045Y-109436316D01*
X174849844Y-109440600D01*
X174853309Y-109444364D01*
X174853313Y-109444369D01*
X174908355Y-109504160D01*
X175002954Y-109606921D01*
X175006995Y-109610066D01*
X175151109Y-109722236D01*
X175181351Y-109745774D01*
X175185856Y-109748212D01*
X175185861Y-109748215D01*
X175209165Y-109760827D01*
X175256669Y-109806408D01*
X175274146Y-109869881D01*
X175256669Y-109933354D01*
X175209165Y-109978935D01*
X175185861Y-109991546D01*
X175185849Y-109991553D01*
X175181351Y-109993988D01*
X175177314Y-109997129D01*
X175177305Y-109997136D01*
X175006995Y-110129695D01*
X175006989Y-110129699D01*
X175002954Y-110132841D01*
X174999492Y-110136600D01*
X174999485Y-110136608D01*
X174853313Y-110295392D01*
X174853304Y-110295402D01*
X174849844Y-110299162D01*
X174847049Y-110303439D01*
X174847042Y-110303449D01*
X174775631Y-110412753D01*
X174726198Y-110488416D01*
X174724143Y-110493100D01*
X174724138Y-110493110D01*
X174637449Y-110690743D01*
X174635389Y-110695440D01*
X174634131Y-110700405D01*
X174634130Y-110700410D01*
X174581152Y-110909613D01*
X174581150Y-110909622D01*
X174579893Y-110914588D01*
X174579469Y-110919695D01*
X174579468Y-110919706D01*
X174566560Y-111075495D01*
X174561225Y-111139881D01*
X174561649Y-111144998D01*
X174579468Y-111360055D01*
X174579469Y-111360064D01*
X174579893Y-111365174D01*
X174581150Y-111370141D01*
X174581152Y-111370148D01*
X174627361Y-111552621D01*
X174635389Y-111584322D01*
X174637449Y-111589018D01*
X174724138Y-111786651D01*
X174724141Y-111786656D01*
X174726198Y-111791346D01*
X174732897Y-111801599D01*
X174847042Y-111976312D01*
X174847045Y-111976316D01*
X174849844Y-111980600D01*
X174853309Y-111984364D01*
X174853313Y-111984369D01*
X174954424Y-112094204D01*
X175002954Y-112146921D01*
X175006995Y-112150066D01*
X175137092Y-112251326D01*
X175181351Y-112285774D01*
X175185858Y-112288213D01*
X175185861Y-112288215D01*
X175209165Y-112300827D01*
X175256669Y-112346408D01*
X175274146Y-112409881D01*
X175256669Y-112473354D01*
X175209165Y-112518935D01*
X175185861Y-112531546D01*
X175185849Y-112531553D01*
X175181351Y-112533988D01*
X175177314Y-112537129D01*
X175177305Y-112537136D01*
X175006995Y-112669695D01*
X175006989Y-112669699D01*
X175002954Y-112672841D01*
X174999492Y-112676600D01*
X174999485Y-112676608D01*
X174853313Y-112835392D01*
X174853304Y-112835402D01*
X174849844Y-112839162D01*
X174847049Y-112843439D01*
X174847042Y-112843449D01*
X174731898Y-113019691D01*
X174726198Y-113028416D01*
X174724143Y-113033100D01*
X174724138Y-113033110D01*
X174667430Y-113162393D01*
X174635389Y-113235440D01*
X174634131Y-113240405D01*
X174634130Y-113240410D01*
X174581152Y-113449613D01*
X174581150Y-113449622D01*
X174579893Y-113454588D01*
X174579469Y-113459695D01*
X174579468Y-113459706D01*
X174564201Y-113643969D01*
X174561225Y-113679881D01*
X174561649Y-113684998D01*
X174579468Y-113900055D01*
X174579469Y-113900064D01*
X174579893Y-113905174D01*
X174581150Y-113910141D01*
X174581152Y-113910148D01*
X174598960Y-113980468D01*
X174635389Y-114124322D01*
X174637449Y-114129018D01*
X174724138Y-114326651D01*
X174724141Y-114326656D01*
X174726198Y-114331346D01*
X174788020Y-114425972D01*
X174847042Y-114516312D01*
X174847045Y-114516316D01*
X174849844Y-114520600D01*
X174853309Y-114524364D01*
X174853313Y-114524369D01*
X174931429Y-114609225D01*
X175002954Y-114686921D01*
X175181351Y-114825774D01*
X175185858Y-114828213D01*
X175185861Y-114828215D01*
X175209165Y-114840827D01*
X175256669Y-114886408D01*
X175274146Y-114949881D01*
X175256669Y-115013354D01*
X175209165Y-115058935D01*
X175185861Y-115071546D01*
X175185849Y-115071553D01*
X175181351Y-115073988D01*
X175177314Y-115077129D01*
X175177305Y-115077136D01*
X175006995Y-115209695D01*
X175006989Y-115209699D01*
X175002954Y-115212841D01*
X174999492Y-115216600D01*
X174999485Y-115216608D01*
X174853313Y-115375392D01*
X174853304Y-115375402D01*
X174849844Y-115379162D01*
X174847049Y-115383439D01*
X174847042Y-115383449D01*
X174729000Y-115564127D01*
X174726198Y-115568416D01*
X174724143Y-115573100D01*
X174724138Y-115573110D01*
X174637449Y-115770743D01*
X174635389Y-115775440D01*
X174634131Y-115780405D01*
X174634130Y-115780410D01*
X174581152Y-115989613D01*
X174581150Y-115989622D01*
X174579893Y-115994588D01*
X174579469Y-115999695D01*
X174579468Y-115999706D01*
X174567055Y-116149519D01*
X174561225Y-116219881D01*
X174561649Y-116224998D01*
X174579468Y-116440055D01*
X174579469Y-116440064D01*
X174579893Y-116445174D01*
X174581150Y-116450141D01*
X174581152Y-116450148D01*
X174634130Y-116659351D01*
X174635389Y-116664322D01*
X174637449Y-116669018D01*
X174724138Y-116866651D01*
X174724141Y-116866656D01*
X174726198Y-116871346D01*
X174788020Y-116965972D01*
X174847042Y-117056312D01*
X174847045Y-117056316D01*
X174849844Y-117060600D01*
X174853309Y-117064364D01*
X174853313Y-117064369D01*
X174998293Y-117221858D01*
X175002954Y-117226921D01*
X175006995Y-117230066D01*
X175140814Y-117334223D01*
X175181351Y-117365774D01*
X175185858Y-117368213D01*
X175185861Y-117368215D01*
X175209165Y-117380827D01*
X175256669Y-117426408D01*
X175274146Y-117489881D01*
X175256669Y-117553354D01*
X175209165Y-117598935D01*
X175185861Y-117611546D01*
X175185849Y-117611553D01*
X175181351Y-117613988D01*
X175177314Y-117617129D01*
X175177305Y-117617136D01*
X175006995Y-117749695D01*
X175006989Y-117749699D01*
X175002954Y-117752841D01*
X174999492Y-117756600D01*
X174999485Y-117756608D01*
X174853313Y-117915392D01*
X174853304Y-117915402D01*
X174849844Y-117919162D01*
X174847049Y-117923439D01*
X174847042Y-117923449D01*
X174777840Y-118029372D01*
X174726198Y-118108416D01*
X174724143Y-118113100D01*
X174724138Y-118113110D01*
X174656447Y-118267432D01*
X174635389Y-118315440D01*
X174634131Y-118320405D01*
X174634130Y-118320410D01*
X174581152Y-118529613D01*
X174581150Y-118529622D01*
X174579893Y-118534588D01*
X174579469Y-118539695D01*
X174579468Y-118539706D01*
X174568377Y-118673567D01*
X174561225Y-118759881D01*
X174561649Y-118764998D01*
X174579468Y-118980055D01*
X174579469Y-118980064D01*
X174579893Y-118985174D01*
X174581150Y-118990141D01*
X174581152Y-118990148D01*
X174606746Y-119091214D01*
X174635389Y-119204322D01*
X174637449Y-119209018D01*
X174724138Y-119406651D01*
X174724141Y-119406656D01*
X174726198Y-119411346D01*
X174758731Y-119461141D01*
X174847042Y-119596312D01*
X174847045Y-119596316D01*
X174849844Y-119600600D01*
X174853309Y-119604364D01*
X174853313Y-119604369D01*
X174966823Y-119727673D01*
X175002954Y-119766921D01*
X175055235Y-119807613D01*
X175167494Y-119894989D01*
X175181351Y-119905774D01*
X175185858Y-119908213D01*
X175185861Y-119908215D01*
X175209165Y-119920827D01*
X175256669Y-119966408D01*
X175274146Y-120029881D01*
X175256669Y-120093354D01*
X175209165Y-120138935D01*
X175185861Y-120151546D01*
X175185849Y-120151553D01*
X175181351Y-120153988D01*
X175177314Y-120157129D01*
X175177305Y-120157136D01*
X175006995Y-120289695D01*
X175006989Y-120289699D01*
X175002954Y-120292841D01*
X174999492Y-120296600D01*
X174999485Y-120296608D01*
X174853313Y-120455392D01*
X174853304Y-120455402D01*
X174849844Y-120459162D01*
X174847049Y-120463439D01*
X174847042Y-120463449D01*
X174746441Y-120617432D01*
X174726198Y-120648416D01*
X174724143Y-120653100D01*
X174724138Y-120653110D01*
X174637449Y-120850743D01*
X174635389Y-120855440D01*
X174634131Y-120860405D01*
X174634130Y-120860410D01*
X174581152Y-121069613D01*
X174581150Y-121069622D01*
X174579893Y-121074588D01*
X174579469Y-121079695D01*
X174579468Y-121079706D01*
X174567702Y-121221710D01*
X174561225Y-121299881D01*
X174561649Y-121304998D01*
X174579468Y-121520055D01*
X174579469Y-121520064D01*
X174579893Y-121525174D01*
X174581150Y-121530141D01*
X174581152Y-121530148D01*
X174607513Y-121634244D01*
X174635389Y-121744322D01*
X174637449Y-121749018D01*
X174724138Y-121946651D01*
X174724141Y-121946656D01*
X174726198Y-121951346D01*
X174785302Y-122041811D01*
X174847042Y-122136312D01*
X174847045Y-122136316D01*
X174849844Y-122140600D01*
X174853309Y-122144364D01*
X174853313Y-122144369D01*
X174977672Y-122279458D01*
X175002954Y-122306921D01*
X175059737Y-122351117D01*
X175162049Y-122430751D01*
X175181351Y-122445774D01*
X175185858Y-122448213D01*
X175185861Y-122448215D01*
X175209165Y-122460827D01*
X175256669Y-122506408D01*
X175274146Y-122569881D01*
X175256669Y-122633354D01*
X175209165Y-122678935D01*
X175185861Y-122691546D01*
X175185849Y-122691553D01*
X175181351Y-122693988D01*
X175177314Y-122697129D01*
X175177305Y-122697136D01*
X175006995Y-122829695D01*
X175006989Y-122829699D01*
X175002954Y-122832841D01*
X174999492Y-122836600D01*
X174999485Y-122836608D01*
X174853313Y-122995392D01*
X174853304Y-122995402D01*
X174849844Y-122999162D01*
X174847049Y-123003439D01*
X174847042Y-123003449D01*
X174765481Y-123128289D01*
X174726198Y-123188416D01*
X174724143Y-123193100D01*
X174724138Y-123193110D01*
X174640783Y-123383143D01*
X174635389Y-123395440D01*
X174634131Y-123400405D01*
X174634130Y-123400410D01*
X174581152Y-123609613D01*
X174581150Y-123609622D01*
X174579893Y-123614588D01*
X174579469Y-123619695D01*
X174579468Y-123619706D01*
X174570961Y-123722378D01*
X174561225Y-123839881D01*
X174561649Y-123844998D01*
X174579468Y-124060055D01*
X174579469Y-124060064D01*
X174579893Y-124065174D01*
X174581150Y-124070141D01*
X174581152Y-124070148D01*
X174612310Y-124193185D01*
X174635389Y-124284322D01*
X174637449Y-124289018D01*
X174724138Y-124486651D01*
X174724141Y-124486656D01*
X174726198Y-124491346D01*
X174788021Y-124585973D01*
X174847042Y-124676312D01*
X174847045Y-124676316D01*
X174849844Y-124680600D01*
X174853309Y-124684364D01*
X174853313Y-124684369D01*
X174933853Y-124771858D01*
X175002954Y-124846921D01*
X175181351Y-124985774D01*
X175185858Y-124988213D01*
X175185861Y-124988215D01*
X175209165Y-125000827D01*
X175256669Y-125046408D01*
X175274146Y-125109881D01*
X175256669Y-125173354D01*
X175209165Y-125218935D01*
X175185861Y-125231546D01*
X175185849Y-125231553D01*
X175181351Y-125233988D01*
X175177314Y-125237129D01*
X175177305Y-125237136D01*
X175006995Y-125369695D01*
X175006989Y-125369699D01*
X175002954Y-125372841D01*
X174999492Y-125376600D01*
X174999485Y-125376608D01*
X174853313Y-125535392D01*
X174853304Y-125535402D01*
X174849844Y-125539162D01*
X174847049Y-125543439D01*
X174847042Y-125543449D01*
X174755069Y-125684225D01*
X174726198Y-125728416D01*
X174724143Y-125733100D01*
X174724138Y-125733110D01*
X174637449Y-125930743D01*
X174635389Y-125935440D01*
X174634131Y-125940405D01*
X174634130Y-125940410D01*
X174581152Y-126149613D01*
X174581150Y-126149622D01*
X174579893Y-126154588D01*
X174579469Y-126159695D01*
X174579468Y-126159706D01*
X174561655Y-126374684D01*
X174561225Y-126379881D01*
X156968252Y-126379881D01*
X156960107Y-126281588D01*
X156904611Y-126062440D01*
X156813802Y-125855416D01*
X156693357Y-125671061D01*
X156692957Y-125670449D01*
X156692956Y-125670447D01*
X156690156Y-125666162D01*
X156686688Y-125662395D01*
X156686686Y-125662392D01*
X156540514Y-125503608D01*
X156540512Y-125503606D01*
X156537046Y-125499841D01*
X156517097Y-125484314D01*
X156362694Y-125364136D01*
X156362691Y-125364134D01*
X156358649Y-125360988D01*
X156328897Y-125344887D01*
X156164335Y-125255830D01*
X156164330Y-125255828D01*
X156159831Y-125253393D01*
X156154990Y-125251731D01*
X156154983Y-125251728D01*
X155950867Y-125181656D01*
X155950866Y-125181655D01*
X155946014Y-125179990D01*
X155940964Y-125179147D01*
X155940955Y-125179145D01*
X155728095Y-125143625D01*
X155728086Y-125143624D01*
X155723033Y-125142781D01*
X155496967Y-125142781D01*
X155491914Y-125143624D01*
X155491904Y-125143625D01*
X155279044Y-125179145D01*
X155279032Y-125179147D01*
X155273986Y-125179990D01*
X155269136Y-125181654D01*
X155269132Y-125181656D01*
X155065016Y-125251728D01*
X155065005Y-125251732D01*
X155060169Y-125253393D01*
X155055673Y-125255825D01*
X155055664Y-125255830D01*
X154865857Y-125358549D01*
X154865852Y-125358551D01*
X154861351Y-125360988D01*
X154857314Y-125364129D01*
X154857305Y-125364136D01*
X154686995Y-125496695D01*
X154686989Y-125496699D01*
X154682954Y-125499841D01*
X154679492Y-125503600D01*
X154679485Y-125503608D01*
X154533313Y-125662392D01*
X154533304Y-125662402D01*
X154529844Y-125666162D01*
X154527049Y-125670439D01*
X154527042Y-125670449D01*
X154443809Y-125797848D01*
X154399017Y-125839081D01*
X154340000Y-125854026D01*
X154280983Y-125839081D01*
X154236191Y-125797848D01*
X154152957Y-125670449D01*
X154152956Y-125670447D01*
X154150156Y-125666162D01*
X154146688Y-125662395D01*
X154146686Y-125662392D01*
X154000514Y-125503608D01*
X154000512Y-125503606D01*
X153997046Y-125499841D01*
X153977097Y-125484314D01*
X153822694Y-125364136D01*
X153822691Y-125364134D01*
X153818649Y-125360988D01*
X153788897Y-125344887D01*
X153624335Y-125255830D01*
X153624330Y-125255828D01*
X153619831Y-125253393D01*
X153614990Y-125251731D01*
X153614983Y-125251728D01*
X153410867Y-125181656D01*
X153410866Y-125181655D01*
X153406014Y-125179990D01*
X153400964Y-125179147D01*
X153400955Y-125179145D01*
X153188095Y-125143625D01*
X153188086Y-125143624D01*
X153183033Y-125142781D01*
X152956967Y-125142781D01*
X152951914Y-125143624D01*
X152951904Y-125143625D01*
X152739044Y-125179145D01*
X152739032Y-125179147D01*
X152733986Y-125179990D01*
X152729136Y-125181654D01*
X152729132Y-125181656D01*
X152525016Y-125251728D01*
X152525005Y-125251732D01*
X152520169Y-125253393D01*
X152515673Y-125255825D01*
X152515664Y-125255830D01*
X152325857Y-125358549D01*
X152325852Y-125358551D01*
X152321351Y-125360988D01*
X152317314Y-125364129D01*
X152317305Y-125364136D01*
X152146995Y-125496695D01*
X152146989Y-125496699D01*
X152142954Y-125499841D01*
X152139492Y-125503600D01*
X152139485Y-125503608D01*
X151993313Y-125662392D01*
X151993304Y-125662402D01*
X151989844Y-125666162D01*
X151987049Y-125670439D01*
X151987042Y-125670449D01*
X151903809Y-125797848D01*
X151859017Y-125839081D01*
X151800000Y-125854026D01*
X151740983Y-125839081D01*
X151696191Y-125797848D01*
X151612957Y-125670449D01*
X151612956Y-125670447D01*
X151610156Y-125666162D01*
X151606688Y-125662395D01*
X151606686Y-125662392D01*
X151460514Y-125503608D01*
X151460512Y-125503606D01*
X151457046Y-125499841D01*
X151437097Y-125484314D01*
X151282694Y-125364136D01*
X151282691Y-125364134D01*
X151278649Y-125360988D01*
X151248897Y-125344887D01*
X151084335Y-125255830D01*
X151084330Y-125255828D01*
X151079831Y-125253393D01*
X151074990Y-125251731D01*
X151074983Y-125251728D01*
X150870867Y-125181656D01*
X150870866Y-125181655D01*
X150866014Y-125179990D01*
X150860964Y-125179147D01*
X150860955Y-125179145D01*
X150648095Y-125143625D01*
X150648086Y-125143624D01*
X150643033Y-125142781D01*
X150416967Y-125142781D01*
X150411914Y-125143624D01*
X150411904Y-125143625D01*
X150199044Y-125179145D01*
X150199032Y-125179147D01*
X150193986Y-125179990D01*
X150189136Y-125181654D01*
X150189132Y-125181656D01*
X149985016Y-125251728D01*
X149985005Y-125251732D01*
X149980169Y-125253393D01*
X149975673Y-125255825D01*
X149975664Y-125255830D01*
X149785857Y-125358549D01*
X149785852Y-125358551D01*
X149781351Y-125360988D01*
X149777314Y-125364129D01*
X149777305Y-125364136D01*
X149606995Y-125496695D01*
X149606989Y-125496699D01*
X149602954Y-125499841D01*
X149599492Y-125503600D01*
X149599485Y-125503608D01*
X149453313Y-125662392D01*
X149453304Y-125662402D01*
X149449844Y-125666162D01*
X149447049Y-125670439D01*
X149447042Y-125670449D01*
X149363809Y-125797848D01*
X149326198Y-125855416D01*
X149324143Y-125860100D01*
X149324138Y-125860110D01*
X149265560Y-125993656D01*
X149235389Y-126062440D01*
X149234131Y-126067405D01*
X149234130Y-126067410D01*
X149181152Y-126276613D01*
X149181150Y-126276622D01*
X149179893Y-126281588D01*
X149179469Y-126286695D01*
X149179468Y-126286706D01*
X149172172Y-126374764D01*
X149161225Y-126506881D01*
X129028252Y-126506881D01*
X129038775Y-126379881D01*
X129020107Y-126154588D01*
X128964611Y-125935440D01*
X128873802Y-125728416D01*
X128750156Y-125539162D01*
X128746688Y-125535395D01*
X128746686Y-125535392D01*
X128600514Y-125376608D01*
X128600512Y-125376606D01*
X128597046Y-125372841D01*
X128577097Y-125357314D01*
X128422694Y-125237136D01*
X128422691Y-125237134D01*
X128418649Y-125233988D01*
X128414144Y-125231550D01*
X128414138Y-125231546D01*
X128390836Y-125218936D01*
X128343330Y-125173355D01*
X128325853Y-125109881D01*
X128343330Y-125046407D01*
X128390836Y-125000826D01*
X128414138Y-124988215D01*
X128418649Y-124985774D01*
X128597046Y-124846921D01*
X128750156Y-124680600D01*
X128873802Y-124491346D01*
X128964611Y-124284322D01*
X129020107Y-124065174D01*
X129038775Y-123839881D01*
X129020107Y-123614588D01*
X128964611Y-123395440D01*
X128880171Y-123202936D01*
X132841622Y-123202936D01*
X132844255Y-123214169D01*
X132889167Y-123298882D01*
X132896669Y-123309947D01*
X133007654Y-123440608D01*
X133017361Y-123449803D01*
X133153842Y-123553553D01*
X133165301Y-123560448D01*
X133320890Y-123632431D01*
X133333557Y-123636699D01*
X133486415Y-123670346D01*
X133497535Y-123670271D01*
X133500000Y-123659424D01*
X133500000Y-123651671D01*
X134250000Y-123651671D01*
X134253801Y-123664899D01*
X134267361Y-123667247D01*
X134327118Y-123660748D01*
X134340173Y-123657875D01*
X134502641Y-123603133D01*
X134514768Y-123597523D01*
X134661674Y-123509132D01*
X134672306Y-123501050D01*
X134796779Y-123383143D01*
X134805429Y-123372960D01*
X134901640Y-123231058D01*
X134907901Y-123219248D01*
X134909949Y-123214110D01*
X134911495Y-123202763D01*
X134900384Y-123200000D01*
X134266326Y-123200000D01*
X134253450Y-123203450D01*
X134250000Y-123216326D01*
X134250000Y-123651671D01*
X133500000Y-123651671D01*
X133500000Y-123216326D01*
X133496549Y-123203450D01*
X133483674Y-123200000D01*
X132852782Y-123200000D01*
X132841622Y-123202936D01*
X128880171Y-123202936D01*
X128873802Y-123188416D01*
X128830670Y-123122398D01*
X168270746Y-123122398D01*
X168271026Y-123128282D01*
X168271026Y-123128289D01*
X168275757Y-123227602D01*
X168280746Y-123332330D01*
X168282135Y-123338058D01*
X168282137Y-123338067D01*
X168321677Y-123501050D01*
X168330296Y-123536576D01*
X168332749Y-123541947D01*
X168385691Y-123657875D01*
X168417604Y-123727753D01*
X168421031Y-123732566D01*
X168421032Y-123732567D01*
X168480626Y-123816256D01*
X168539514Y-123898952D01*
X168543786Y-123903025D01*
X168543791Y-123903031D01*
X168642082Y-123996750D01*
X168672893Y-124043697D01*
X168679836Y-124099421D01*
X168661487Y-124152494D01*
X168621610Y-124192031D01*
X168562487Y-124228498D01*
X168562481Y-124228502D01*
X168556344Y-124232288D01*
X168551242Y-124237389D01*
X168551238Y-124237393D01*
X168437393Y-124351238D01*
X168437389Y-124351242D01*
X168432288Y-124356344D01*
X168428503Y-124362480D01*
X168428497Y-124362488D01*
X168343977Y-124499519D01*
X168340186Y-124505666D01*
X168285001Y-124672203D01*
X168284313Y-124678933D01*
X168284312Y-124678940D01*
X168274819Y-124771859D01*
X168274818Y-124771877D01*
X168274500Y-124774991D01*
X168274500Y-124778138D01*
X168274500Y-124778139D01*
X168274500Y-125571858D01*
X168274500Y-125571877D01*
X168274501Y-125575008D01*
X168274820Y-125578140D01*
X168274821Y-125578141D01*
X168284312Y-125671061D01*
X168284313Y-125671069D01*
X168285001Y-125677797D01*
X168287129Y-125684219D01*
X168287130Y-125684223D01*
X168303330Y-125733110D01*
X168340186Y-125844334D01*
X168343977Y-125850480D01*
X168428497Y-125987511D01*
X168428500Y-125987515D01*
X168432288Y-125993656D01*
X168556344Y-126117712D01*
X168562485Y-126121500D01*
X168562488Y-126121502D01*
X168608064Y-126149613D01*
X168705666Y-126209814D01*
X168872203Y-126264999D01*
X168974991Y-126275500D01*
X170325008Y-126275499D01*
X170427797Y-126264999D01*
X170594334Y-126209814D01*
X170743656Y-126117712D01*
X170867712Y-125993656D01*
X170959814Y-125844334D01*
X171014999Y-125677797D01*
X171025500Y-125575009D01*
X171025499Y-124774992D01*
X171014999Y-124672203D01*
X170959814Y-124505666D01*
X170867712Y-124356344D01*
X170743656Y-124232288D01*
X170680258Y-124193184D01*
X170638840Y-124151130D01*
X170621556Y-124094691D01*
X170632326Y-124036655D01*
X170668703Y-123990177D01*
X170687886Y-123975092D01*
X170825519Y-123816256D01*
X170930604Y-123634244D01*
X170999344Y-123435633D01*
X171029254Y-123227602D01*
X171019254Y-123017670D01*
X170969704Y-122813424D01*
X170882396Y-122622247D01*
X170760486Y-122451048D01*
X170608378Y-122306014D01*
X170603412Y-122302822D01*
X170603405Y-122302817D01*
X170567057Y-122279458D01*
X170526709Y-122237143D01*
X170510236Y-122181043D01*
X170521302Y-122123632D01*
X170557442Y-122077674D01*
X170687886Y-121975092D01*
X170825519Y-121816256D01*
X170930604Y-121634244D01*
X170999344Y-121435633D01*
X171029254Y-121227602D01*
X171019254Y-121017670D01*
X170969704Y-120813424D01*
X170882396Y-120622247D01*
X170760486Y-120451048D01*
X170680632Y-120374908D01*
X170612651Y-120310088D01*
X170612649Y-120310086D01*
X170608378Y-120306014D01*
X170509210Y-120242282D01*
X170436544Y-120195582D01*
X170436541Y-120195580D01*
X170431572Y-120192387D01*
X170426087Y-120190191D01*
X170426081Y-120190188D01*
X170333688Y-120153199D01*
X170279961Y-120111657D01*
X170256176Y-120048044D01*
X170269467Y-119981442D01*
X170315847Y-119931831D01*
X170436677Y-119859130D01*
X170447306Y-119851050D01*
X170571779Y-119733143D01*
X170580429Y-119722960D01*
X170676640Y-119581058D01*
X170682901Y-119569248D01*
X170684949Y-119564110D01*
X170686495Y-119552763D01*
X170675384Y-119550000D01*
X168627782Y-119550000D01*
X168616622Y-119552936D01*
X168619255Y-119564169D01*
X168664167Y-119648882D01*
X168671669Y-119659947D01*
X168782654Y-119790608D01*
X168792361Y-119799803D01*
X168928842Y-119903553D01*
X168940301Y-119910448D01*
X168967086Y-119922840D01*
X169012061Y-119958184D01*
X169036386Y-120009954D01*
X169034885Y-120067135D01*
X169007878Y-120117559D01*
X168964007Y-120148455D01*
X168964125Y-120148684D01*
X168962473Y-120149535D01*
X168962469Y-120149537D01*
X168958881Y-120151387D01*
X168958877Y-120151389D01*
X168782568Y-120242282D01*
X168782564Y-120242284D01*
X168777318Y-120244989D01*
X168772676Y-120248638D01*
X168772672Y-120248642D01*
X168616759Y-120371254D01*
X168616752Y-120371260D01*
X168612114Y-120374908D01*
X168608250Y-120379367D01*
X168608245Y-120379372D01*
X168478347Y-120529282D01*
X168474481Y-120533744D01*
X168471530Y-120538854D01*
X168471528Y-120538858D01*
X168372352Y-120710635D01*
X168372349Y-120710640D01*
X168369396Y-120715756D01*
X168367465Y-120721335D01*
X168367461Y-120721344D01*
X168302587Y-120908785D01*
X168302584Y-120908794D01*
X168300656Y-120914367D01*
X168299816Y-120920203D01*
X168299815Y-120920211D01*
X168271585Y-121116558D01*
X168271584Y-121116564D01*
X168270746Y-121122398D01*
X168271026Y-121128282D01*
X168271026Y-121128289D01*
X168279200Y-121299881D01*
X168280746Y-121332330D01*
X168282135Y-121338058D01*
X168282137Y-121338067D01*
X168328904Y-121530839D01*
X168330296Y-121536576D01*
X168417604Y-121727753D01*
X168421031Y-121732566D01*
X168421032Y-121732567D01*
X168503663Y-121848607D01*
X168539514Y-121898952D01*
X168543791Y-121903030D01*
X168664951Y-122018556D01*
X168691622Y-122043986D01*
X168732944Y-122070542D01*
X168773290Y-122112855D01*
X168789763Y-122168955D01*
X168778698Y-122226366D01*
X168742556Y-122272326D01*
X168642366Y-122351117D01*
X168612114Y-122374908D01*
X168608250Y-122379367D01*
X168608245Y-122379372D01*
X168478347Y-122529282D01*
X168474481Y-122533744D01*
X168471530Y-122538854D01*
X168471528Y-122538858D01*
X168372352Y-122710635D01*
X168372349Y-122710640D01*
X168369396Y-122715756D01*
X168367465Y-122721335D01*
X168367461Y-122721344D01*
X168302587Y-122908785D01*
X168302584Y-122908794D01*
X168300656Y-122914367D01*
X168299816Y-122920203D01*
X168299815Y-122920211D01*
X168271585Y-123116558D01*
X168271584Y-123116564D01*
X168270746Y-123122398D01*
X128830670Y-123122398D01*
X128750156Y-122999162D01*
X128746688Y-122995395D01*
X128746686Y-122995392D01*
X128600514Y-122836608D01*
X128600512Y-122836606D01*
X128597046Y-122832841D01*
X128453796Y-122721344D01*
X128422694Y-122697136D01*
X128422691Y-122697134D01*
X128418649Y-122693988D01*
X128414144Y-122691550D01*
X128414138Y-122691546D01*
X128390836Y-122678936D01*
X128343330Y-122633355D01*
X128325853Y-122569881D01*
X128343330Y-122506407D01*
X128390836Y-122460826D01*
X128404763Y-122453288D01*
X128418649Y-122445774D01*
X128597046Y-122306921D01*
X128750156Y-122140600D01*
X128873802Y-121951346D01*
X128964611Y-121744322D01*
X129020107Y-121525174D01*
X129038775Y-121299881D01*
X129020107Y-121074588D01*
X128964611Y-120855440D01*
X128928185Y-120772398D01*
X132495746Y-120772398D01*
X132496026Y-120778282D01*
X132496026Y-120778289D01*
X132502787Y-120920211D01*
X132505746Y-120982330D01*
X132507135Y-120988058D01*
X132507137Y-120988067D01*
X132553904Y-121180839D01*
X132555296Y-121186576D01*
X132642604Y-121377753D01*
X132646031Y-121382566D01*
X132646032Y-121382567D01*
X132743936Y-121520055D01*
X132764514Y-121548952D01*
X132916622Y-121693986D01*
X133093428Y-121807613D01*
X133098911Y-121809808D01*
X133098913Y-121809809D01*
X133191310Y-121846799D01*
X133245037Y-121888342D01*
X133268823Y-121951954D01*
X133255533Y-122018556D01*
X133209153Y-122068167D01*
X133088325Y-122140867D01*
X133077693Y-122148949D01*
X132953220Y-122266856D01*
X132944570Y-122277039D01*
X132848359Y-122418941D01*
X132842098Y-122430751D01*
X132840050Y-122435889D01*
X132838504Y-122447236D01*
X132849616Y-122450000D01*
X134897218Y-122450000D01*
X134908377Y-122447063D01*
X134905744Y-122435830D01*
X134860832Y-122351117D01*
X134853330Y-122340052D01*
X134742345Y-122209391D01*
X134732638Y-122200196D01*
X134596157Y-122096446D01*
X134584704Y-122089555D01*
X134557911Y-122077159D01*
X134512935Y-122041811D01*
X134488612Y-121990036D01*
X134490117Y-121932852D01*
X134517132Y-121882429D01*
X134560994Y-121851547D01*
X134560875Y-121851316D01*
X134560875Y-121851315D01*
X134747682Y-121755011D01*
X134912886Y-121625092D01*
X135050519Y-121466256D01*
X135155604Y-121284244D01*
X135224344Y-121085633D01*
X135254254Y-120877602D01*
X135244254Y-120667670D01*
X135194704Y-120463424D01*
X135107396Y-120272247D01*
X134985486Y-120101048D01*
X134901804Y-120021258D01*
X134837651Y-119960088D01*
X134837649Y-119960086D01*
X134833378Y-119956014D01*
X134828412Y-119952822D01*
X134828405Y-119952817D01*
X134792057Y-119929458D01*
X134751709Y-119887143D01*
X134735236Y-119831043D01*
X134746302Y-119773632D01*
X134782442Y-119727674D01*
X134912886Y-119625092D01*
X135050519Y-119466256D01*
X135155604Y-119284244D01*
X135224344Y-119085633D01*
X135254254Y-118877602D01*
X135250426Y-118797236D01*
X168613504Y-118797236D01*
X168624616Y-118800000D01*
X169258674Y-118800000D01*
X169271549Y-118796549D01*
X169275000Y-118783674D01*
X170025000Y-118783674D01*
X170028450Y-118796549D01*
X170041326Y-118800000D01*
X170672218Y-118800000D01*
X170683377Y-118797063D01*
X170680744Y-118785830D01*
X170635832Y-118701117D01*
X170628330Y-118690052D01*
X170517345Y-118559391D01*
X170507638Y-118550196D01*
X170371157Y-118446446D01*
X170359698Y-118439551D01*
X170204109Y-118367568D01*
X170191442Y-118363300D01*
X170038584Y-118329653D01*
X170027464Y-118329728D01*
X170025000Y-118340576D01*
X170025000Y-118783674D01*
X169275000Y-118783674D01*
X169275000Y-118348329D01*
X169271198Y-118335100D01*
X169257638Y-118332752D01*
X169197881Y-118339251D01*
X169184826Y-118342124D01*
X169022358Y-118396866D01*
X169010231Y-118402476D01*
X168863325Y-118490867D01*
X168852693Y-118498949D01*
X168728220Y-118616856D01*
X168719570Y-118627039D01*
X168623359Y-118768941D01*
X168617098Y-118780751D01*
X168615050Y-118785889D01*
X168613504Y-118797236D01*
X135250426Y-118797236D01*
X135244254Y-118667670D01*
X135194704Y-118463424D01*
X135107396Y-118272247D01*
X134985486Y-118101048D01*
X134981212Y-118096973D01*
X134981208Y-118096968D01*
X134882917Y-118003249D01*
X134852106Y-117956301D01*
X134845163Y-117900576D01*
X134863512Y-117847503D01*
X134903389Y-117807968D01*
X134968656Y-117767712D01*
X135092712Y-117643656D01*
X135184814Y-117494334D01*
X135239999Y-117327797D01*
X135250500Y-117225009D01*
X135250499Y-116424992D01*
X135239999Y-116322203D01*
X135184814Y-116155666D01*
X135092712Y-116006344D01*
X134968656Y-115882288D01*
X134962515Y-115878500D01*
X134962511Y-115878497D01*
X134825480Y-115793977D01*
X134819334Y-115790186D01*
X134652797Y-115735001D01*
X134646064Y-115734313D01*
X134646059Y-115734312D01*
X134553140Y-115724819D01*
X134553123Y-115724818D01*
X134550009Y-115724500D01*
X134546860Y-115724500D01*
X133203140Y-115724500D01*
X133203120Y-115724500D01*
X133199992Y-115724501D01*
X133196860Y-115724820D01*
X133196858Y-115724821D01*
X133103938Y-115734312D01*
X133103928Y-115734313D01*
X133097203Y-115735001D01*
X133090781Y-115737128D01*
X133090776Y-115737130D01*
X132937521Y-115787914D01*
X132937517Y-115787915D01*
X132930666Y-115790186D01*
X132924522Y-115793975D01*
X132924519Y-115793977D01*
X132787488Y-115878497D01*
X132787480Y-115878503D01*
X132781344Y-115882288D01*
X132776242Y-115887389D01*
X132776238Y-115887393D01*
X132662393Y-116001238D01*
X132662389Y-116001242D01*
X132657288Y-116006344D01*
X132653503Y-116012480D01*
X132653497Y-116012488D01*
X132568977Y-116149519D01*
X132565186Y-116155666D01*
X132562915Y-116162517D01*
X132562914Y-116162521D01*
X132512131Y-116315774D01*
X132510001Y-116322203D01*
X132509313Y-116328933D01*
X132509312Y-116328940D01*
X132499819Y-116421859D01*
X132499818Y-116421877D01*
X132499500Y-116424991D01*
X132499500Y-116428138D01*
X132499500Y-116428139D01*
X132499500Y-117221858D01*
X132499500Y-117221877D01*
X132499501Y-117225008D01*
X132499820Y-117228140D01*
X132499821Y-117228141D01*
X132509312Y-117321061D01*
X132509313Y-117321069D01*
X132510001Y-117327797D01*
X132512129Y-117334219D01*
X132512130Y-117334223D01*
X132558239Y-117473369D01*
X132565186Y-117494334D01*
X132568977Y-117500480D01*
X132653497Y-117637511D01*
X132653500Y-117637515D01*
X132657288Y-117643656D01*
X132781344Y-117767712D01*
X132844739Y-117806814D01*
X132886158Y-117848867D01*
X132903443Y-117905305D01*
X132892676Y-117963339D01*
X132856298Y-118009821D01*
X132841758Y-118021255D01*
X132841752Y-118021260D01*
X132837114Y-118024908D01*
X132833250Y-118029367D01*
X132833245Y-118029372D01*
X132703347Y-118179282D01*
X132699481Y-118183744D01*
X132696530Y-118188854D01*
X132696528Y-118188858D01*
X132597352Y-118360635D01*
X132597349Y-118360640D01*
X132594396Y-118365756D01*
X132592465Y-118371335D01*
X132592461Y-118371344D01*
X132527587Y-118558785D01*
X132527584Y-118558794D01*
X132525656Y-118564367D01*
X132524816Y-118570203D01*
X132524815Y-118570211D01*
X132496585Y-118766558D01*
X132496584Y-118766564D01*
X132495746Y-118772398D01*
X132496026Y-118778282D01*
X132496026Y-118778289D01*
X132500757Y-118877602D01*
X132505746Y-118982330D01*
X132507135Y-118988058D01*
X132507137Y-118988067D01*
X132529389Y-119079788D01*
X132555296Y-119186576D01*
X132642604Y-119377753D01*
X132646031Y-119382566D01*
X132646032Y-119382567D01*
X132705626Y-119466256D01*
X132764514Y-119548952D01*
X132916622Y-119693986D01*
X132957944Y-119720542D01*
X132998290Y-119762855D01*
X133014763Y-119818955D01*
X133003698Y-119876366D01*
X132967556Y-119922326D01*
X132911503Y-119966407D01*
X132837114Y-120024908D01*
X132833250Y-120029367D01*
X132833245Y-120029372D01*
X132722537Y-120157136D01*
X132699481Y-120183744D01*
X132696530Y-120188854D01*
X132696528Y-120188858D01*
X132597352Y-120360635D01*
X132597349Y-120360640D01*
X132594396Y-120365756D01*
X132592465Y-120371335D01*
X132592461Y-120371344D01*
X132527587Y-120558785D01*
X132527584Y-120558794D01*
X132525656Y-120564367D01*
X132524816Y-120570203D01*
X132524815Y-120570211D01*
X132496585Y-120766558D01*
X132496584Y-120766564D01*
X132495746Y-120772398D01*
X128928185Y-120772398D01*
X128873802Y-120648416D01*
X128750156Y-120459162D01*
X128746688Y-120455395D01*
X128746686Y-120455392D01*
X128600514Y-120296608D01*
X128600512Y-120296606D01*
X128597046Y-120292841D01*
X128467984Y-120192387D01*
X128422694Y-120157136D01*
X128422691Y-120157134D01*
X128418649Y-120153988D01*
X128414144Y-120151550D01*
X128414138Y-120151546D01*
X128390836Y-120138936D01*
X128343330Y-120093355D01*
X128325853Y-120029881D01*
X128343330Y-119966407D01*
X128390836Y-119920826D01*
X128414138Y-119908215D01*
X128418649Y-119905774D01*
X128597046Y-119766921D01*
X128750156Y-119600600D01*
X128873802Y-119411346D01*
X128964611Y-119204322D01*
X129020107Y-118985174D01*
X129038775Y-118759881D01*
X129020107Y-118534588D01*
X128964611Y-118315440D01*
X128873802Y-118108416D01*
X128750156Y-117919162D01*
X128746688Y-117915395D01*
X128746686Y-117915392D01*
X128600514Y-117756608D01*
X128600512Y-117756606D01*
X128597046Y-117752841D01*
X128463325Y-117648761D01*
X128422694Y-117617136D01*
X128422691Y-117617134D01*
X128418649Y-117613988D01*
X128414144Y-117611550D01*
X128414138Y-117611546D01*
X128390836Y-117598936D01*
X128343330Y-117553355D01*
X128325853Y-117489881D01*
X128343330Y-117426407D01*
X128390836Y-117380826D01*
X128414138Y-117368215D01*
X128418649Y-117365774D01*
X128597046Y-117226921D01*
X128750156Y-117060600D01*
X128873802Y-116871346D01*
X128964611Y-116664322D01*
X129020107Y-116445174D01*
X129038775Y-116219881D01*
X129020107Y-115994588D01*
X128964611Y-115775440D01*
X128873802Y-115568416D01*
X128750156Y-115379162D01*
X128746688Y-115375395D01*
X128746686Y-115375392D01*
X128600514Y-115216608D01*
X128600512Y-115216606D01*
X128597046Y-115212841D01*
X128564961Y-115187868D01*
X128422694Y-115077136D01*
X128422691Y-115077134D01*
X128418649Y-115073988D01*
X128414144Y-115071550D01*
X128414138Y-115071546D01*
X128390836Y-115058936D01*
X128343330Y-115013355D01*
X128325853Y-114949881D01*
X128343330Y-114886407D01*
X128390836Y-114840826D01*
X128414138Y-114828215D01*
X128418649Y-114825774D01*
X128597046Y-114686921D01*
X128750156Y-114520600D01*
X128873802Y-114331346D01*
X128964611Y-114124322D01*
X129020107Y-113905174D01*
X129038775Y-113679881D01*
X129020107Y-113454588D01*
X128964611Y-113235440D01*
X128884415Y-113052612D01*
X138150030Y-113052612D01*
X138150723Y-113063900D01*
X138153462Y-113072929D01*
X138158105Y-113084137D01*
X138249857Y-113255795D01*
X138256599Y-113265884D01*
X138380082Y-113416348D01*
X138388651Y-113424917D01*
X138539115Y-113548400D01*
X138549204Y-113555142D01*
X138720862Y-113646894D01*
X138732070Y-113651537D01*
X138741099Y-113654276D01*
X138752387Y-113654969D01*
X138755000Y-113643969D01*
X139505000Y-113643969D01*
X139507612Y-113654969D01*
X139518900Y-113654276D01*
X139527929Y-113651537D01*
X139539137Y-113646894D01*
X139710795Y-113555142D01*
X139720884Y-113548400D01*
X139871348Y-113424917D01*
X139879917Y-113416348D01*
X140003400Y-113265884D01*
X140010142Y-113255795D01*
X140101894Y-113084137D01*
X140106537Y-113072929D01*
X140109276Y-113063900D01*
X140109969Y-113052612D01*
X140098969Y-113050000D01*
X139521326Y-113050000D01*
X139508450Y-113053450D01*
X139505000Y-113066326D01*
X139505000Y-113643969D01*
X138755000Y-113643969D01*
X138755000Y-113066326D01*
X138751549Y-113053450D01*
X138738674Y-113050000D01*
X138161031Y-113050000D01*
X138150030Y-113052612D01*
X128884415Y-113052612D01*
X128873802Y-113028416D01*
X128750156Y-112839162D01*
X128746688Y-112835395D01*
X128746686Y-112835392D01*
X128600514Y-112676608D01*
X128600512Y-112676606D01*
X128597046Y-112672841D01*
X128564331Y-112647378D01*
X128422694Y-112537136D01*
X128422691Y-112537134D01*
X128418649Y-112533988D01*
X128327763Y-112484803D01*
X128224335Y-112428830D01*
X128224330Y-112428828D01*
X128219831Y-112426393D01*
X128214990Y-112424731D01*
X128214983Y-112424728D01*
X128010867Y-112354656D01*
X128010866Y-112354655D01*
X128006014Y-112352990D01*
X128000964Y-112352147D01*
X128000955Y-112352145D01*
X127788095Y-112316625D01*
X127788086Y-112316624D01*
X127783033Y-112315781D01*
X127556967Y-112315781D01*
X127551914Y-112316624D01*
X127551904Y-112316625D01*
X127339044Y-112352145D01*
X127339032Y-112352147D01*
X127333986Y-112352990D01*
X127329136Y-112354654D01*
X127329132Y-112354656D01*
X127125016Y-112424728D01*
X127125005Y-112424732D01*
X127120169Y-112426393D01*
X127115673Y-112428825D01*
X127115664Y-112428830D01*
X126925857Y-112531549D01*
X126925852Y-112531551D01*
X126921351Y-112533988D01*
X126917314Y-112537129D01*
X126917305Y-112537136D01*
X126746995Y-112669695D01*
X126746989Y-112669699D01*
X126742954Y-112672841D01*
X126739492Y-112676600D01*
X126739485Y-112676608D01*
X126593313Y-112835392D01*
X126593304Y-112835402D01*
X126589844Y-112839162D01*
X126587049Y-112843439D01*
X126587042Y-112843449D01*
X126471898Y-113019691D01*
X126466198Y-113028416D01*
X126464143Y-113033100D01*
X126464138Y-113033110D01*
X126407430Y-113162393D01*
X126375389Y-113235440D01*
X126374131Y-113240405D01*
X126374130Y-113240410D01*
X126321152Y-113449613D01*
X126321150Y-113449622D01*
X126319893Y-113454588D01*
X126319469Y-113459695D01*
X126319468Y-113459706D01*
X126304201Y-113643969D01*
X126301225Y-113679881D01*
X126301649Y-113684998D01*
X126319468Y-113900055D01*
X126319469Y-113900064D01*
X126319893Y-113905174D01*
X126321150Y-113910141D01*
X126321152Y-113910148D01*
X126338960Y-113980468D01*
X126375389Y-114124322D01*
X126377449Y-114129018D01*
X126464138Y-114326651D01*
X126464141Y-114326656D01*
X126466198Y-114331346D01*
X126528021Y-114425973D01*
X126587042Y-114516312D01*
X126587045Y-114516316D01*
X126589844Y-114520600D01*
X126593309Y-114524364D01*
X126593313Y-114524369D01*
X126671429Y-114609225D01*
X126742954Y-114686921D01*
X126921351Y-114825774D01*
X126925858Y-114828213D01*
X126925861Y-114828215D01*
X126949165Y-114840827D01*
X126996669Y-114886408D01*
X127014146Y-114949881D01*
X126996669Y-115013354D01*
X126949165Y-115058935D01*
X126925861Y-115071546D01*
X126925849Y-115071553D01*
X126921351Y-115073988D01*
X126917314Y-115077129D01*
X126917305Y-115077136D01*
X126746995Y-115209695D01*
X126746989Y-115209699D01*
X126742954Y-115212841D01*
X126739492Y-115216600D01*
X126739485Y-115216608D01*
X126593313Y-115375392D01*
X126593304Y-115375402D01*
X126589844Y-115379162D01*
X126587049Y-115383439D01*
X126587042Y-115383449D01*
X126469000Y-115564127D01*
X126466198Y-115568416D01*
X126464143Y-115573100D01*
X126464138Y-115573110D01*
X126377449Y-115770743D01*
X126375389Y-115775440D01*
X126374131Y-115780405D01*
X126374130Y-115780410D01*
X126321152Y-115989613D01*
X126321150Y-115989622D01*
X126319893Y-115994588D01*
X126319469Y-115999695D01*
X126319468Y-115999706D01*
X126307055Y-116149519D01*
X126301225Y-116219881D01*
X126301649Y-116224998D01*
X126319468Y-116440055D01*
X126319469Y-116440064D01*
X126319893Y-116445174D01*
X126321150Y-116450141D01*
X126321152Y-116450148D01*
X126374130Y-116659351D01*
X126375389Y-116664322D01*
X126377449Y-116669018D01*
X126464138Y-116866651D01*
X126464141Y-116866656D01*
X126466198Y-116871346D01*
X126528021Y-116965973D01*
X126587042Y-117056312D01*
X126587045Y-117056316D01*
X126589844Y-117060600D01*
X126593309Y-117064364D01*
X126593313Y-117064369D01*
X126738293Y-117221858D01*
X126742954Y-117226921D01*
X126746995Y-117230066D01*
X126880814Y-117334223D01*
X126921351Y-117365774D01*
X126925858Y-117368213D01*
X126925861Y-117368215D01*
X126949165Y-117380827D01*
X126996669Y-117426408D01*
X127014146Y-117489881D01*
X126996669Y-117553354D01*
X126949165Y-117598935D01*
X126925861Y-117611546D01*
X126925849Y-117611553D01*
X126921351Y-117613988D01*
X126917314Y-117617129D01*
X126917305Y-117617136D01*
X126746995Y-117749695D01*
X126746989Y-117749699D01*
X126742954Y-117752841D01*
X126739492Y-117756600D01*
X126739485Y-117756608D01*
X126593313Y-117915392D01*
X126593304Y-117915402D01*
X126589844Y-117919162D01*
X126587049Y-117923439D01*
X126587042Y-117923449D01*
X126517840Y-118029372D01*
X126466198Y-118108416D01*
X126464143Y-118113100D01*
X126464138Y-118113110D01*
X126396447Y-118267432D01*
X126375389Y-118315440D01*
X126374131Y-118320405D01*
X126374130Y-118320410D01*
X126321152Y-118529613D01*
X126321150Y-118529622D01*
X126319893Y-118534588D01*
X126319469Y-118539695D01*
X126319468Y-118539706D01*
X126308377Y-118673567D01*
X126301225Y-118759881D01*
X126301649Y-118764998D01*
X126319468Y-118980055D01*
X126319469Y-118980064D01*
X126319893Y-118985174D01*
X126321150Y-118990141D01*
X126321152Y-118990148D01*
X126346746Y-119091214D01*
X126375389Y-119204322D01*
X126377449Y-119209018D01*
X126464138Y-119406651D01*
X126464141Y-119406656D01*
X126466198Y-119411346D01*
X126498731Y-119461141D01*
X126587042Y-119596312D01*
X126587045Y-119596316D01*
X126589844Y-119600600D01*
X126593309Y-119604364D01*
X126593313Y-119604369D01*
X126706823Y-119727673D01*
X126742954Y-119766921D01*
X126795235Y-119807613D01*
X126907494Y-119894989D01*
X126921351Y-119905774D01*
X126925858Y-119908213D01*
X126925861Y-119908215D01*
X126949165Y-119920827D01*
X126996669Y-119966408D01*
X127014146Y-120029881D01*
X126996669Y-120093354D01*
X126949165Y-120138935D01*
X126925861Y-120151546D01*
X126925849Y-120151553D01*
X126921351Y-120153988D01*
X126917314Y-120157129D01*
X126917305Y-120157136D01*
X126746995Y-120289695D01*
X126746989Y-120289699D01*
X126742954Y-120292841D01*
X126739492Y-120296600D01*
X126739485Y-120296608D01*
X126593313Y-120455392D01*
X126593304Y-120455402D01*
X126589844Y-120459162D01*
X126587049Y-120463439D01*
X126587042Y-120463449D01*
X126486441Y-120617432D01*
X126466198Y-120648416D01*
X126464143Y-120653100D01*
X126464138Y-120653110D01*
X126377449Y-120850743D01*
X126375389Y-120855440D01*
X126374131Y-120860405D01*
X126374130Y-120860410D01*
X126321152Y-121069613D01*
X126321150Y-121069622D01*
X126319893Y-121074588D01*
X126319469Y-121079695D01*
X126319468Y-121079706D01*
X126307702Y-121221710D01*
X126301225Y-121299881D01*
X126301649Y-121304998D01*
X126319468Y-121520055D01*
X126319469Y-121520064D01*
X126319893Y-121525174D01*
X126321150Y-121530141D01*
X126321152Y-121530148D01*
X126347513Y-121634244D01*
X126375389Y-121744322D01*
X126377449Y-121749018D01*
X126464138Y-121946651D01*
X126464141Y-121946656D01*
X126466198Y-121951346D01*
X126525302Y-122041811D01*
X126587042Y-122136312D01*
X126587045Y-122136316D01*
X126589844Y-122140600D01*
X126593309Y-122144364D01*
X126593313Y-122144369D01*
X126717672Y-122279458D01*
X126742954Y-122306921D01*
X126799737Y-122351117D01*
X126902049Y-122430751D01*
X126921351Y-122445774D01*
X126925858Y-122448213D01*
X126925861Y-122448215D01*
X126949165Y-122460827D01*
X126996669Y-122506408D01*
X127014146Y-122569881D01*
X126996669Y-122633354D01*
X126949165Y-122678935D01*
X126925861Y-122691546D01*
X126925849Y-122691553D01*
X126921351Y-122693988D01*
X126917314Y-122697129D01*
X126917305Y-122697136D01*
X126746995Y-122829695D01*
X126746989Y-122829699D01*
X126742954Y-122832841D01*
X126739492Y-122836600D01*
X126739485Y-122836608D01*
X126593313Y-122995392D01*
X126593304Y-122995402D01*
X126589844Y-122999162D01*
X126587049Y-123003439D01*
X126587042Y-123003449D01*
X126505481Y-123128289D01*
X126466198Y-123188416D01*
X126464143Y-123193100D01*
X126464138Y-123193110D01*
X126380783Y-123383143D01*
X126375389Y-123395440D01*
X126374131Y-123400405D01*
X126374130Y-123400410D01*
X126321152Y-123609613D01*
X126321150Y-123609622D01*
X126319893Y-123614588D01*
X126319469Y-123619695D01*
X126319468Y-123619706D01*
X126310961Y-123722378D01*
X126301225Y-123839881D01*
X126301649Y-123844998D01*
X126319468Y-124060055D01*
X126319469Y-124060064D01*
X126319893Y-124065174D01*
X126321150Y-124070141D01*
X126321152Y-124070148D01*
X126352310Y-124193185D01*
X126375389Y-124284322D01*
X126377449Y-124289018D01*
X126464138Y-124486651D01*
X126464141Y-124486656D01*
X126466198Y-124491346D01*
X126528020Y-124585972D01*
X126587042Y-124676312D01*
X126587045Y-124676316D01*
X126589844Y-124680600D01*
X126593309Y-124684364D01*
X126593313Y-124684369D01*
X126673853Y-124771858D01*
X126742954Y-124846921D01*
X126921351Y-124985774D01*
X126925858Y-124988213D01*
X126925861Y-124988215D01*
X126949165Y-125000827D01*
X126996669Y-125046408D01*
X127014146Y-125109881D01*
X126996669Y-125173354D01*
X126949165Y-125218935D01*
X126925861Y-125231546D01*
X126925849Y-125231553D01*
X126921351Y-125233988D01*
X126917314Y-125237129D01*
X126917305Y-125237136D01*
X126746995Y-125369695D01*
X126746989Y-125369699D01*
X126742954Y-125372841D01*
X126739492Y-125376600D01*
X126739485Y-125376608D01*
X126593313Y-125535392D01*
X126593304Y-125535402D01*
X126589844Y-125539162D01*
X126587049Y-125543439D01*
X126587042Y-125543449D01*
X126495069Y-125684225D01*
X126466198Y-125728416D01*
X126464143Y-125733100D01*
X126464138Y-125733110D01*
X126377449Y-125930743D01*
X126375389Y-125935440D01*
X126374131Y-125940405D01*
X126374130Y-125940410D01*
X126321152Y-126149613D01*
X126321150Y-126149622D01*
X126319893Y-126154588D01*
X126319469Y-126159695D01*
X126319468Y-126159706D01*
X126301655Y-126374684D01*
X126301225Y-126379881D01*
X125075500Y-126379881D01*
X125075500Y-112237936D01*
X132841622Y-112237936D01*
X132844255Y-112249169D01*
X132889167Y-112333882D01*
X132896669Y-112344947D01*
X133007654Y-112475608D01*
X133017361Y-112484803D01*
X133153842Y-112588553D01*
X133165301Y-112595448D01*
X133320890Y-112667431D01*
X133333557Y-112671699D01*
X133486415Y-112705346D01*
X133497535Y-112705271D01*
X133500000Y-112694424D01*
X133500000Y-112686671D01*
X134250000Y-112686671D01*
X134253801Y-112699899D01*
X134267361Y-112702247D01*
X134327118Y-112695748D01*
X134340173Y-112692875D01*
X134393224Y-112675000D01*
X145444532Y-112675000D01*
X145445004Y-112680395D01*
X145457563Y-112823952D01*
X145464365Y-112901692D01*
X145465762Y-112906907D01*
X145465764Y-112906916D01*
X145521858Y-113116263D01*
X145521861Y-113116271D01*
X145523261Y-113121496D01*
X145619432Y-113327734D01*
X145749953Y-113514139D01*
X145910861Y-113675047D01*
X146097266Y-113805568D01*
X146303504Y-113901739D01*
X146308734Y-113903140D01*
X146308736Y-113903141D01*
X146334887Y-113910148D01*
X146523308Y-113960635D01*
X146750000Y-113980468D01*
X146976692Y-113960635D01*
X147196496Y-113901739D01*
X147402734Y-113805568D01*
X147589139Y-113675047D01*
X147750047Y-113514139D01*
X147880568Y-113327734D01*
X147976739Y-113121496D01*
X148035635Y-112901692D01*
X148055468Y-112675000D01*
X148035635Y-112448308D01*
X147995196Y-112297387D01*
X147978141Y-112233736D01*
X147978140Y-112233734D01*
X147976739Y-112228504D01*
X147892287Y-112047398D01*
X168270746Y-112047398D01*
X168271026Y-112053282D01*
X168271026Y-112053289D01*
X168275757Y-112152602D01*
X168280746Y-112257330D01*
X168282135Y-112263058D01*
X168282137Y-112263067D01*
X168327077Y-112448308D01*
X168330296Y-112461576D01*
X168356491Y-112518935D01*
X168391433Y-112595448D01*
X168417604Y-112652753D01*
X168421031Y-112657566D01*
X168421032Y-112657567D01*
X168480626Y-112741256D01*
X168539514Y-112823952D01*
X168543786Y-112828025D01*
X168543791Y-112828031D01*
X168642082Y-112921750D01*
X168672893Y-112968697D01*
X168679836Y-113024421D01*
X168661487Y-113077494D01*
X168621610Y-113117031D01*
X168562487Y-113153498D01*
X168562481Y-113153502D01*
X168556344Y-113157288D01*
X168551242Y-113162389D01*
X168551238Y-113162393D01*
X168437393Y-113276238D01*
X168437389Y-113276242D01*
X168432288Y-113281344D01*
X168428503Y-113287480D01*
X168428497Y-113287488D01*
X168349017Y-113416348D01*
X168340186Y-113430666D01*
X168337915Y-113437517D01*
X168337914Y-113437521D01*
X168287131Y-113590774D01*
X168285001Y-113597203D01*
X168284313Y-113603933D01*
X168284312Y-113603940D01*
X168274819Y-113696859D01*
X168274818Y-113696877D01*
X168274500Y-113699991D01*
X168274500Y-113703138D01*
X168274500Y-113703139D01*
X168274500Y-114496858D01*
X168274500Y-114496877D01*
X168274501Y-114500008D01*
X168274820Y-114503140D01*
X168274821Y-114503141D01*
X168284312Y-114596061D01*
X168284313Y-114596069D01*
X168285001Y-114602797D01*
X168340186Y-114769334D01*
X168343977Y-114775480D01*
X168428497Y-114912511D01*
X168428500Y-114912515D01*
X168432288Y-114918656D01*
X168556344Y-115042712D01*
X168562485Y-115046500D01*
X168562488Y-115046502D01*
X168619558Y-115081702D01*
X168705666Y-115134814D01*
X168872203Y-115189999D01*
X168974991Y-115200500D01*
X170325008Y-115200499D01*
X170427797Y-115189999D01*
X170594334Y-115134814D01*
X170743656Y-115042712D01*
X170867712Y-114918656D01*
X170959814Y-114769334D01*
X171014999Y-114602797D01*
X171025500Y-114500009D01*
X171025499Y-113699992D01*
X171014999Y-113597203D01*
X170959814Y-113430666D01*
X170899063Y-113332173D01*
X170871502Y-113287488D01*
X170871500Y-113287485D01*
X170867712Y-113281344D01*
X170743656Y-113157288D01*
X170680258Y-113118184D01*
X170638840Y-113076130D01*
X170621556Y-113019691D01*
X170632326Y-112961655D01*
X170668703Y-112915177D01*
X170687886Y-112900092D01*
X170825519Y-112741256D01*
X170930604Y-112559244D01*
X170999344Y-112360633D01*
X171029254Y-112152602D01*
X171019254Y-111942670D01*
X170969704Y-111738424D01*
X170882396Y-111547247D01*
X170760486Y-111376048D01*
X170647018Y-111267857D01*
X170612651Y-111235088D01*
X170612649Y-111235086D01*
X170608378Y-111231014D01*
X170509210Y-111167282D01*
X170436544Y-111120582D01*
X170436541Y-111120580D01*
X170431572Y-111117387D01*
X170426087Y-111115191D01*
X170426081Y-111115188D01*
X170333688Y-111078199D01*
X170279961Y-111036657D01*
X170256176Y-110973044D01*
X170269467Y-110906442D01*
X170315847Y-110856831D01*
X170436677Y-110784130D01*
X170447306Y-110776050D01*
X170571779Y-110658143D01*
X170580429Y-110647960D01*
X170676640Y-110506058D01*
X170682901Y-110494248D01*
X170684949Y-110489110D01*
X170686495Y-110477763D01*
X170675384Y-110475000D01*
X168627782Y-110475000D01*
X168616622Y-110477936D01*
X168619255Y-110489169D01*
X168664167Y-110573882D01*
X168671669Y-110584947D01*
X168782654Y-110715608D01*
X168792361Y-110724803D01*
X168928842Y-110828553D01*
X168940301Y-110835448D01*
X168967086Y-110847840D01*
X169012061Y-110883184D01*
X169036386Y-110934954D01*
X169034885Y-110992135D01*
X169007878Y-111042559D01*
X168964007Y-111073455D01*
X168964125Y-111073684D01*
X168962473Y-111074535D01*
X168962469Y-111074537D01*
X168958881Y-111076387D01*
X168958877Y-111076389D01*
X168782568Y-111167282D01*
X168782564Y-111167284D01*
X168777318Y-111169989D01*
X168772676Y-111173638D01*
X168772672Y-111173642D01*
X168616759Y-111296254D01*
X168616752Y-111296260D01*
X168612114Y-111299908D01*
X168608250Y-111304367D01*
X168608245Y-111304372D01*
X168478347Y-111454282D01*
X168474481Y-111458744D01*
X168471530Y-111463854D01*
X168471528Y-111463858D01*
X168372352Y-111635635D01*
X168372349Y-111635640D01*
X168369396Y-111640756D01*
X168367465Y-111646335D01*
X168367461Y-111646344D01*
X168302587Y-111833785D01*
X168302584Y-111833794D01*
X168300656Y-111839367D01*
X168299816Y-111845203D01*
X168299815Y-111845211D01*
X168271585Y-112041558D01*
X168271584Y-112041564D01*
X168270746Y-112047398D01*
X147892287Y-112047398D01*
X147880568Y-112022266D01*
X147750047Y-111835861D01*
X147589139Y-111674953D01*
X147402734Y-111544432D01*
X147344724Y-111517381D01*
X147292549Y-111471625D01*
X147273130Y-111405000D01*
X147292549Y-111338375D01*
X147344725Y-111292618D01*
X147402734Y-111265568D01*
X147589139Y-111135047D01*
X147750047Y-110974139D01*
X147880568Y-110787734D01*
X147976739Y-110581496D01*
X148035635Y-110361692D01*
X148055468Y-110135000D01*
X148035635Y-109908308D01*
X147996118Y-109760826D01*
X147985778Y-109722236D01*
X168613504Y-109722236D01*
X168624616Y-109725000D01*
X169258674Y-109725000D01*
X169271549Y-109721549D01*
X169275000Y-109708674D01*
X170025000Y-109708674D01*
X170028450Y-109721549D01*
X170041326Y-109725000D01*
X170672218Y-109725000D01*
X170683377Y-109722063D01*
X170680744Y-109710830D01*
X170635832Y-109626117D01*
X170628330Y-109615052D01*
X170517345Y-109484391D01*
X170507638Y-109475196D01*
X170371157Y-109371446D01*
X170359698Y-109364551D01*
X170204109Y-109292568D01*
X170191442Y-109288300D01*
X170038584Y-109254653D01*
X170027464Y-109254728D01*
X170025000Y-109265576D01*
X170025000Y-109708674D01*
X169275000Y-109708674D01*
X169275000Y-109273329D01*
X169271198Y-109260100D01*
X169257638Y-109257752D01*
X169197881Y-109264251D01*
X169184826Y-109267124D01*
X169022358Y-109321866D01*
X169010231Y-109327476D01*
X168863325Y-109415867D01*
X168852693Y-109423949D01*
X168728220Y-109541856D01*
X168719570Y-109552039D01*
X168623359Y-109693941D01*
X168617098Y-109705751D01*
X168615050Y-109710889D01*
X168613504Y-109722236D01*
X147985778Y-109722236D01*
X147978141Y-109693736D01*
X147978140Y-109693734D01*
X147976739Y-109688504D01*
X147880568Y-109482266D01*
X147750047Y-109295861D01*
X147589139Y-109134953D01*
X147402734Y-109004432D01*
X147344724Y-108977381D01*
X147292549Y-108931625D01*
X147273130Y-108865000D01*
X147292549Y-108798375D01*
X147344725Y-108752618D01*
X147402734Y-108725568D01*
X147589139Y-108595047D01*
X147706250Y-108477936D01*
X168616622Y-108477936D01*
X168619255Y-108489169D01*
X168664167Y-108573882D01*
X168671669Y-108584947D01*
X168782654Y-108715608D01*
X168792361Y-108724803D01*
X168928842Y-108828553D01*
X168940301Y-108835448D01*
X169095890Y-108907431D01*
X169108557Y-108911699D01*
X169261415Y-108945346D01*
X169272535Y-108945271D01*
X169275000Y-108934424D01*
X169275000Y-108926671D01*
X170025000Y-108926671D01*
X170028801Y-108939899D01*
X170042361Y-108942247D01*
X170102118Y-108935748D01*
X170115173Y-108932875D01*
X170277641Y-108878133D01*
X170289768Y-108872523D01*
X170436674Y-108784132D01*
X170447306Y-108776050D01*
X170571779Y-108658143D01*
X170580429Y-108647960D01*
X170676640Y-108506058D01*
X170682901Y-108494248D01*
X170684949Y-108489110D01*
X170686495Y-108477763D01*
X170675384Y-108475000D01*
X170041326Y-108475000D01*
X170028450Y-108478450D01*
X170025000Y-108491326D01*
X170025000Y-108926671D01*
X169275000Y-108926671D01*
X169275000Y-108491326D01*
X169271549Y-108478450D01*
X169258674Y-108475000D01*
X168627782Y-108475000D01*
X168616622Y-108477936D01*
X147706250Y-108477936D01*
X147750047Y-108434139D01*
X147880568Y-108247734D01*
X147976739Y-108041496D01*
X148035635Y-107821692D01*
X148044336Y-107722236D01*
X168613504Y-107722236D01*
X168624616Y-107725000D01*
X169258674Y-107725000D01*
X169271549Y-107721549D01*
X169275000Y-107708674D01*
X170025000Y-107708674D01*
X170028450Y-107721549D01*
X170041326Y-107725000D01*
X170672218Y-107725000D01*
X170683377Y-107722063D01*
X170680744Y-107710830D01*
X170635832Y-107626117D01*
X170628330Y-107615052D01*
X170517345Y-107484391D01*
X170507638Y-107475196D01*
X170371157Y-107371446D01*
X170359698Y-107364551D01*
X170204109Y-107292568D01*
X170191442Y-107288300D01*
X170038584Y-107254653D01*
X170027464Y-107254728D01*
X170025000Y-107265576D01*
X170025000Y-107708674D01*
X169275000Y-107708674D01*
X169275000Y-107273329D01*
X169271198Y-107260100D01*
X169257638Y-107257752D01*
X169197881Y-107264251D01*
X169184826Y-107267124D01*
X169022358Y-107321866D01*
X169010231Y-107327476D01*
X168863325Y-107415867D01*
X168852693Y-107423949D01*
X168728220Y-107541856D01*
X168719570Y-107552039D01*
X168623359Y-107693941D01*
X168617098Y-107705751D01*
X168615050Y-107710889D01*
X168613504Y-107722236D01*
X148044336Y-107722236D01*
X148055468Y-107595000D01*
X148035635Y-107368308D01*
X148006012Y-107257752D01*
X147978141Y-107153736D01*
X147978140Y-107153734D01*
X147976739Y-107148504D01*
X147880568Y-106942266D01*
X147750047Y-106755861D01*
X147589139Y-106594953D01*
X147402734Y-106464432D01*
X147344724Y-106437381D01*
X147292549Y-106391625D01*
X147273130Y-106325000D01*
X147292549Y-106258375D01*
X147344725Y-106212618D01*
X147402734Y-106185568D01*
X147589139Y-106055047D01*
X147750047Y-105894139D01*
X147880568Y-105707734D01*
X147976739Y-105501496D01*
X148035635Y-105281692D01*
X148055468Y-105055000D01*
X148035635Y-104828308D01*
X148034190Y-104822914D01*
X147978141Y-104613736D01*
X147978140Y-104613734D01*
X147976739Y-104608504D01*
X147880568Y-104402266D01*
X147750047Y-104215861D01*
X147589139Y-104054953D01*
X147402734Y-103924432D01*
X147196496Y-103828261D01*
X147191271Y-103826861D01*
X147191263Y-103826858D01*
X146981916Y-103770764D01*
X146981907Y-103770762D01*
X146976692Y-103769365D01*
X146971304Y-103768893D01*
X146971301Y-103768893D01*
X146755395Y-103750004D01*
X146750000Y-103749532D01*
X146744605Y-103750004D01*
X146528698Y-103768893D01*
X146528693Y-103768893D01*
X146523308Y-103769365D01*
X146518094Y-103770762D01*
X146518083Y-103770764D01*
X146308736Y-103826858D01*
X146308724Y-103826862D01*
X146303504Y-103828261D01*
X146298599Y-103830547D01*
X146298594Y-103830550D01*
X146102176Y-103922142D01*
X146102172Y-103922144D01*
X146097266Y-103924432D01*
X146092833Y-103927535D01*
X146092826Y-103927540D01*
X145915296Y-104051847D01*
X145915291Y-104051850D01*
X145910861Y-104054953D01*
X145907037Y-104058776D01*
X145907031Y-104058782D01*
X145753782Y-104212031D01*
X145753776Y-104212037D01*
X145749953Y-104215861D01*
X145746850Y-104220291D01*
X145746847Y-104220296D01*
X145622540Y-104397826D01*
X145622535Y-104397833D01*
X145619432Y-104402266D01*
X145617144Y-104407172D01*
X145617142Y-104407176D01*
X145525550Y-104603594D01*
X145525547Y-104603599D01*
X145523261Y-104608504D01*
X145521862Y-104613724D01*
X145521858Y-104613736D01*
X145465764Y-104823083D01*
X145465762Y-104823094D01*
X145464365Y-104828308D01*
X145463893Y-104833693D01*
X145463893Y-104833698D01*
X145453742Y-104949731D01*
X145444532Y-105055000D01*
X145445004Y-105060395D01*
X145455271Y-105177753D01*
X145464365Y-105281692D01*
X145465762Y-105286907D01*
X145465764Y-105286916D01*
X145521858Y-105496263D01*
X145521861Y-105496271D01*
X145523261Y-105501496D01*
X145619432Y-105707734D01*
X145749953Y-105894139D01*
X145910861Y-106055047D01*
X146097266Y-106185568D01*
X146102172Y-106187855D01*
X146102176Y-106187858D01*
X146155274Y-106212618D01*
X146207450Y-106258375D01*
X146226869Y-106325000D01*
X146207450Y-106391625D01*
X146155274Y-106437382D01*
X146102176Y-106462141D01*
X146102163Y-106462148D01*
X146097266Y-106464432D01*
X146092833Y-106467535D01*
X146092826Y-106467540D01*
X145915296Y-106591847D01*
X145915294Y-106591849D01*
X145910861Y-106594953D01*
X145907037Y-106598776D01*
X145907031Y-106598782D01*
X145753782Y-106752031D01*
X145753776Y-106752037D01*
X145749953Y-106755861D01*
X145746850Y-106760291D01*
X145746847Y-106760296D01*
X145622540Y-106937826D01*
X145622535Y-106937833D01*
X145619432Y-106942266D01*
X145617144Y-106947172D01*
X145617142Y-106947176D01*
X145525550Y-107143594D01*
X145525547Y-107143599D01*
X145523261Y-107148504D01*
X145521862Y-107153724D01*
X145521858Y-107153736D01*
X145465764Y-107363083D01*
X145465762Y-107363094D01*
X145464365Y-107368308D01*
X145463893Y-107373693D01*
X145463893Y-107373698D01*
X145448291Y-107552039D01*
X145444532Y-107595000D01*
X145445004Y-107600395D01*
X145463629Y-107813289D01*
X145464365Y-107821692D01*
X145465762Y-107826907D01*
X145465764Y-107826916D01*
X145521858Y-108036263D01*
X145521861Y-108036271D01*
X145523261Y-108041496D01*
X145619432Y-108247734D01*
X145749953Y-108434139D01*
X145910861Y-108595047D01*
X146097266Y-108725568D01*
X146102172Y-108727855D01*
X146102176Y-108727858D01*
X146155274Y-108752618D01*
X146207450Y-108798375D01*
X146226869Y-108865000D01*
X146207450Y-108931625D01*
X146155274Y-108977382D01*
X146102176Y-109002141D01*
X146102163Y-109002148D01*
X146097266Y-109004432D01*
X146092833Y-109007535D01*
X146092826Y-109007540D01*
X145915296Y-109131847D01*
X145915291Y-109131850D01*
X145910861Y-109134953D01*
X145907037Y-109138776D01*
X145907031Y-109138782D01*
X145753782Y-109292031D01*
X145753776Y-109292037D01*
X145749953Y-109295861D01*
X145746850Y-109300291D01*
X145746847Y-109300296D01*
X145622540Y-109477826D01*
X145622535Y-109477833D01*
X145619432Y-109482266D01*
X145617144Y-109487172D01*
X145617142Y-109487176D01*
X145525550Y-109683594D01*
X145525547Y-109683599D01*
X145523261Y-109688504D01*
X145521862Y-109693724D01*
X145521858Y-109693736D01*
X145465764Y-109903083D01*
X145465762Y-109903094D01*
X145464365Y-109908308D01*
X145463893Y-109913693D01*
X145463893Y-109913698D01*
X145455343Y-110011432D01*
X145444532Y-110135000D01*
X145445004Y-110140395D01*
X145451604Y-110215839D01*
X145464365Y-110361692D01*
X145465762Y-110366907D01*
X145465764Y-110366916D01*
X145521858Y-110576263D01*
X145521861Y-110576271D01*
X145523261Y-110581496D01*
X145619432Y-110787734D01*
X145622539Y-110792171D01*
X145622540Y-110792173D01*
X145652841Y-110835448D01*
X145749953Y-110974139D01*
X145910861Y-111135047D01*
X146097266Y-111265568D01*
X146102172Y-111267855D01*
X146102176Y-111267858D01*
X146155274Y-111292618D01*
X146207450Y-111338375D01*
X146226869Y-111405000D01*
X146207450Y-111471625D01*
X146155274Y-111517382D01*
X146102176Y-111542141D01*
X146102163Y-111542148D01*
X146097266Y-111544432D01*
X146092833Y-111547535D01*
X146092826Y-111547540D01*
X145915296Y-111671847D01*
X145915291Y-111671850D01*
X145910861Y-111674953D01*
X145907037Y-111678776D01*
X145907031Y-111678782D01*
X145753782Y-111832031D01*
X145753776Y-111832037D01*
X145749953Y-111835861D01*
X145746850Y-111840291D01*
X145746847Y-111840296D01*
X145622540Y-112017826D01*
X145622535Y-112017833D01*
X145619432Y-112022266D01*
X145617144Y-112027172D01*
X145617142Y-112027176D01*
X145525550Y-112223594D01*
X145525547Y-112223599D01*
X145523261Y-112228504D01*
X145521862Y-112233724D01*
X145521858Y-112233736D01*
X145465764Y-112443083D01*
X145465762Y-112443094D01*
X145464365Y-112448308D01*
X145463893Y-112453693D01*
X145463893Y-112453698D01*
X145455981Y-112544132D01*
X145444532Y-112675000D01*
X134393224Y-112675000D01*
X134502641Y-112638133D01*
X134514768Y-112632523D01*
X134661674Y-112544132D01*
X134672306Y-112536050D01*
X134796779Y-112418143D01*
X134805429Y-112407960D01*
X134901640Y-112266058D01*
X134907901Y-112254248D01*
X134909949Y-112249110D01*
X134911495Y-112237763D01*
X134900384Y-112235000D01*
X134266326Y-112235000D01*
X134253450Y-112238450D01*
X134250000Y-112251326D01*
X134250000Y-112686671D01*
X133500000Y-112686671D01*
X133500000Y-112251326D01*
X133496549Y-112238450D01*
X133483674Y-112235000D01*
X132852782Y-112235000D01*
X132841622Y-112237936D01*
X125075500Y-112237936D01*
X125075500Y-108599881D01*
X126301225Y-108599881D01*
X126301649Y-108604998D01*
X126319468Y-108820055D01*
X126319469Y-108820064D01*
X126319893Y-108825174D01*
X126321150Y-108830141D01*
X126321152Y-108830148D01*
X126374130Y-109039351D01*
X126375389Y-109044322D01*
X126377449Y-109049018D01*
X126464138Y-109246651D01*
X126464141Y-109246656D01*
X126466198Y-109251346D01*
X126492779Y-109292031D01*
X126587042Y-109436312D01*
X126587045Y-109436316D01*
X126589844Y-109440600D01*
X126593309Y-109444364D01*
X126593313Y-109444369D01*
X126648355Y-109504160D01*
X126742954Y-109606921D01*
X126746995Y-109610066D01*
X126891109Y-109722236D01*
X126921351Y-109745774D01*
X127120169Y-109853369D01*
X127333986Y-109926772D01*
X127556967Y-109963981D01*
X127777900Y-109963981D01*
X127783033Y-109963981D01*
X128006014Y-109926772D01*
X128219831Y-109853369D01*
X128304778Y-109807398D01*
X132495746Y-109807398D01*
X132496026Y-109813282D01*
X132496026Y-109813289D01*
X132501746Y-109933354D01*
X132505746Y-110017330D01*
X132507135Y-110023058D01*
X132507137Y-110023067D01*
X132553904Y-110215839D01*
X132555296Y-110221576D01*
X132642604Y-110412753D01*
X132646031Y-110417566D01*
X132646032Y-110417567D01*
X132705626Y-110501256D01*
X132764514Y-110583952D01*
X132916622Y-110728986D01*
X133093428Y-110842613D01*
X133098911Y-110844808D01*
X133098913Y-110844809D01*
X133191310Y-110881799D01*
X133245037Y-110923342D01*
X133268823Y-110986954D01*
X133255533Y-111053556D01*
X133209153Y-111103167D01*
X133088325Y-111175867D01*
X133077693Y-111183949D01*
X132953220Y-111301856D01*
X132944570Y-111312039D01*
X132848359Y-111453941D01*
X132842098Y-111465751D01*
X132840050Y-111470889D01*
X132838504Y-111482236D01*
X132849616Y-111485000D01*
X134897218Y-111485000D01*
X134908377Y-111482063D01*
X134905744Y-111470830D01*
X134860832Y-111386117D01*
X134853330Y-111375052D01*
X134742345Y-111244391D01*
X134732638Y-111235196D01*
X134596157Y-111131446D01*
X134584704Y-111124555D01*
X134557911Y-111112159D01*
X134512935Y-111076811D01*
X134488612Y-111025036D01*
X134490117Y-110967852D01*
X134517132Y-110917429D01*
X134560994Y-110886547D01*
X134560875Y-110886316D01*
X134560874Y-110886316D01*
X134747682Y-110790011D01*
X134912886Y-110660092D01*
X135050519Y-110501256D01*
X135155604Y-110319244D01*
X135219372Y-110135000D01*
X137824532Y-110135000D01*
X137825004Y-110140395D01*
X137831604Y-110215839D01*
X137844365Y-110361692D01*
X137845762Y-110366907D01*
X137845764Y-110366916D01*
X137901858Y-110576263D01*
X137901861Y-110576271D01*
X137903261Y-110581496D01*
X137999432Y-110787734D01*
X138002539Y-110792171D01*
X138002540Y-110792173D01*
X138032841Y-110835448D01*
X138129953Y-110974139D01*
X138290861Y-111135047D01*
X138477266Y-111265568D01*
X138683504Y-111361739D01*
X138688734Y-111363140D01*
X138688736Y-111363141D01*
X138714887Y-111370148D01*
X138879265Y-111414192D01*
X138934276Y-111445713D01*
X138966515Y-111500308D01*
X138967553Y-111563702D01*
X138937118Y-111619323D01*
X138883167Y-111652628D01*
X138732062Y-111698465D01*
X138720865Y-111703103D01*
X138549204Y-111794857D01*
X138539115Y-111801599D01*
X138388651Y-111925082D01*
X138380082Y-111933651D01*
X138256599Y-112084115D01*
X138249857Y-112094204D01*
X138158105Y-112265862D01*
X138153462Y-112277070D01*
X138150723Y-112286099D01*
X138150030Y-112297387D01*
X138161031Y-112300000D01*
X140098969Y-112300000D01*
X140109969Y-112297387D01*
X140109276Y-112286099D01*
X140106537Y-112277070D01*
X140101894Y-112265862D01*
X140010142Y-112094204D01*
X140003400Y-112084115D01*
X139879917Y-111933651D01*
X139871348Y-111925082D01*
X139720884Y-111801599D01*
X139710795Y-111794857D01*
X139539134Y-111703103D01*
X139527934Y-111698464D01*
X139376833Y-111652628D01*
X139322881Y-111619323D01*
X139292446Y-111563702D01*
X139293484Y-111500308D01*
X139325723Y-111445713D01*
X139380732Y-111414193D01*
X139576496Y-111361739D01*
X139782734Y-111265568D01*
X139969139Y-111135047D01*
X140130047Y-110974139D01*
X140260568Y-110787734D01*
X140356739Y-110581496D01*
X140415635Y-110361692D01*
X140435468Y-110135000D01*
X140415635Y-109908308D01*
X140376118Y-109760826D01*
X140358141Y-109693736D01*
X140358140Y-109693734D01*
X140356739Y-109688504D01*
X140260568Y-109482266D01*
X140130047Y-109295861D01*
X139969139Y-109134953D01*
X139782734Y-109004432D01*
X139724724Y-108977381D01*
X139672549Y-108931625D01*
X139653130Y-108865000D01*
X139672549Y-108798375D01*
X139724725Y-108752618D01*
X139782734Y-108725568D01*
X139969139Y-108595047D01*
X140130047Y-108434139D01*
X140260568Y-108247734D01*
X140356739Y-108041496D01*
X140415635Y-107821692D01*
X140435468Y-107595000D01*
X140415635Y-107368308D01*
X140386012Y-107257752D01*
X140358141Y-107153736D01*
X140358140Y-107153734D01*
X140356739Y-107148504D01*
X140260568Y-106942266D01*
X140130047Y-106755861D01*
X139969139Y-106594953D01*
X139944535Y-106577725D01*
X139905398Y-106532883D01*
X139891665Y-106474969D01*
X139906499Y-106417328D01*
X139946485Y-106373239D01*
X140002406Y-106352861D01*
X140037483Y-106349091D01*
X140172331Y-106298796D01*
X140287546Y-106212546D01*
X140373796Y-106097331D01*
X140424091Y-105962483D01*
X140430500Y-105902873D01*
X140430499Y-104207128D01*
X140424091Y-104147517D01*
X140373796Y-104012669D01*
X140287546Y-103897454D01*
X140270129Y-103884416D01*
X140179431Y-103816519D01*
X140179430Y-103816518D01*
X140172331Y-103811204D01*
X140060155Y-103769365D01*
X140044752Y-103763620D01*
X140044750Y-103763619D01*
X140037483Y-103760909D01*
X140029770Y-103760079D01*
X140029767Y-103760079D01*
X139981180Y-103754855D01*
X139981169Y-103754854D01*
X139977873Y-103754500D01*
X139974550Y-103754500D01*
X138285439Y-103754500D01*
X138285420Y-103754500D01*
X138282128Y-103754501D01*
X138278850Y-103754853D01*
X138278838Y-103754854D01*
X138230231Y-103760079D01*
X138230225Y-103760080D01*
X138222517Y-103760909D01*
X138215252Y-103763618D01*
X138215246Y-103763620D01*
X138095980Y-103808104D01*
X138095978Y-103808104D01*
X138087669Y-103811204D01*
X138080572Y-103816516D01*
X138080568Y-103816519D01*
X137979550Y-103892141D01*
X137979546Y-103892144D01*
X137972454Y-103897454D01*
X137967144Y-103904546D01*
X137967141Y-103904550D01*
X137891519Y-104005568D01*
X137891516Y-104005572D01*
X137886204Y-104012669D01*
X137883104Y-104020978D01*
X137883104Y-104020980D01*
X137838620Y-104140247D01*
X137838619Y-104140250D01*
X137835909Y-104147517D01*
X137835079Y-104155227D01*
X137835079Y-104155232D01*
X137829855Y-104203819D01*
X137829854Y-104203831D01*
X137829500Y-104207127D01*
X137829500Y-104210448D01*
X137829500Y-104210449D01*
X137829500Y-105899560D01*
X137829500Y-105899578D01*
X137829501Y-105902872D01*
X137829853Y-105906150D01*
X137829854Y-105906161D01*
X137835079Y-105954768D01*
X137835080Y-105954773D01*
X137835909Y-105962483D01*
X137838619Y-105969749D01*
X137838620Y-105969753D01*
X137869005Y-106051217D01*
X137886204Y-106097331D01*
X137891518Y-106104430D01*
X137891519Y-106104431D01*
X137953972Y-106187858D01*
X137972454Y-106212546D01*
X138087669Y-106298796D01*
X138222517Y-106349091D01*
X138257599Y-106352862D01*
X138313516Y-106373240D01*
X138353500Y-106417328D01*
X138368334Y-106474969D01*
X138354601Y-106532882D01*
X138315464Y-106577725D01*
X138290861Y-106594953D01*
X138287037Y-106598776D01*
X138287031Y-106598782D01*
X138133782Y-106752031D01*
X138133776Y-106752037D01*
X138129953Y-106755861D01*
X138126850Y-106760291D01*
X138126847Y-106760296D01*
X138002540Y-106937826D01*
X138002535Y-106937833D01*
X137999432Y-106942266D01*
X137997144Y-106947172D01*
X137997142Y-106947176D01*
X137905550Y-107143594D01*
X137905547Y-107143599D01*
X137903261Y-107148504D01*
X137901862Y-107153724D01*
X137901858Y-107153736D01*
X137845764Y-107363083D01*
X137845762Y-107363094D01*
X137844365Y-107368308D01*
X137843893Y-107373693D01*
X137843893Y-107373698D01*
X137828291Y-107552039D01*
X137824532Y-107595000D01*
X137825004Y-107600395D01*
X137843629Y-107813289D01*
X137844365Y-107821692D01*
X137845762Y-107826907D01*
X137845764Y-107826916D01*
X137901858Y-108036263D01*
X137901861Y-108036271D01*
X137903261Y-108041496D01*
X137999432Y-108247734D01*
X138129953Y-108434139D01*
X138290861Y-108595047D01*
X138477266Y-108725568D01*
X138482172Y-108727855D01*
X138482176Y-108727858D01*
X138535274Y-108752618D01*
X138587450Y-108798375D01*
X138606869Y-108865000D01*
X138587450Y-108931625D01*
X138535274Y-108977382D01*
X138482176Y-109002141D01*
X138482163Y-109002148D01*
X138477266Y-109004432D01*
X138472833Y-109007535D01*
X138472826Y-109007540D01*
X138295296Y-109131847D01*
X138295291Y-109131850D01*
X138290861Y-109134953D01*
X138287037Y-109138776D01*
X138287031Y-109138782D01*
X138133782Y-109292031D01*
X138133776Y-109292037D01*
X138129953Y-109295861D01*
X138126850Y-109300291D01*
X138126847Y-109300296D01*
X138002540Y-109477826D01*
X138002535Y-109477833D01*
X137999432Y-109482266D01*
X137997144Y-109487172D01*
X137997142Y-109487176D01*
X137905550Y-109683594D01*
X137905547Y-109683599D01*
X137903261Y-109688504D01*
X137901862Y-109693724D01*
X137901858Y-109693736D01*
X137845764Y-109903083D01*
X137845762Y-109903094D01*
X137844365Y-109908308D01*
X137843893Y-109913693D01*
X137843893Y-109913698D01*
X137835343Y-110011432D01*
X137824532Y-110135000D01*
X135219372Y-110135000D01*
X135224344Y-110120633D01*
X135254254Y-109912602D01*
X135244254Y-109702670D01*
X135194704Y-109498424D01*
X135107396Y-109307247D01*
X134985486Y-109136048D01*
X134850710Y-109007540D01*
X134837651Y-108995088D01*
X134837649Y-108995086D01*
X134833378Y-108991014D01*
X134828412Y-108987822D01*
X134828405Y-108987817D01*
X134792057Y-108964458D01*
X134751709Y-108922143D01*
X134735236Y-108866043D01*
X134746302Y-108808632D01*
X134782442Y-108762674D01*
X134912886Y-108660092D01*
X135050519Y-108501256D01*
X135155604Y-108319244D01*
X135224344Y-108120633D01*
X135254254Y-107912602D01*
X135244254Y-107702670D01*
X135194704Y-107498424D01*
X135107396Y-107307247D01*
X134985486Y-107136048D01*
X134981212Y-107131973D01*
X134981208Y-107131968D01*
X134882917Y-107038249D01*
X134852106Y-106991301D01*
X134845163Y-106935576D01*
X134863512Y-106882503D01*
X134903389Y-106842968D01*
X134968656Y-106802712D01*
X135092712Y-106678656D01*
X135184814Y-106529334D01*
X135239999Y-106362797D01*
X135250500Y-106260009D01*
X135250499Y-105459992D01*
X135239999Y-105357203D01*
X135184814Y-105190666D01*
X135101135Y-105055000D01*
X135096502Y-105047488D01*
X135096500Y-105047485D01*
X135092712Y-105041344D01*
X134968656Y-104917288D01*
X134962515Y-104913500D01*
X134962511Y-104913497D01*
X134825480Y-104828977D01*
X134819334Y-104825186D01*
X134652797Y-104770001D01*
X134646064Y-104769313D01*
X134646059Y-104769312D01*
X134553140Y-104759819D01*
X134553123Y-104759818D01*
X134550009Y-104759500D01*
X134546860Y-104759500D01*
X133203140Y-104759500D01*
X133203120Y-104759500D01*
X133199992Y-104759501D01*
X133196860Y-104759820D01*
X133196858Y-104759821D01*
X133103938Y-104769312D01*
X133103928Y-104769313D01*
X133097203Y-104770001D01*
X133090781Y-104772128D01*
X133090776Y-104772130D01*
X132937521Y-104822914D01*
X132937517Y-104822915D01*
X132930666Y-104825186D01*
X132924522Y-104828975D01*
X132924519Y-104828977D01*
X132787488Y-104913497D01*
X132787480Y-104913503D01*
X132781344Y-104917288D01*
X132776242Y-104922389D01*
X132776238Y-104922393D01*
X132662393Y-105036238D01*
X132662389Y-105036242D01*
X132657288Y-105041344D01*
X132653503Y-105047480D01*
X132653497Y-105047488D01*
X132568977Y-105184519D01*
X132565186Y-105190666D01*
X132562915Y-105197517D01*
X132562914Y-105197521D01*
X132512131Y-105350774D01*
X132510001Y-105357203D01*
X132509313Y-105363933D01*
X132509312Y-105363940D01*
X132499819Y-105456859D01*
X132499818Y-105456877D01*
X132499500Y-105459991D01*
X132499500Y-105463138D01*
X132499500Y-105463139D01*
X132499500Y-106256858D01*
X132499500Y-106256877D01*
X132499501Y-106260008D01*
X132499820Y-106263140D01*
X132499821Y-106263141D01*
X132509312Y-106356061D01*
X132509313Y-106356069D01*
X132510001Y-106362797D01*
X132512129Y-106369219D01*
X132512130Y-106369223D01*
X132544709Y-106467540D01*
X132565186Y-106529334D01*
X132568977Y-106535480D01*
X132653497Y-106672511D01*
X132653500Y-106672515D01*
X132657288Y-106678656D01*
X132781344Y-106802712D01*
X132844739Y-106841814D01*
X132886158Y-106883867D01*
X132903443Y-106940305D01*
X132892676Y-106998339D01*
X132856298Y-107044821D01*
X132841758Y-107056255D01*
X132841752Y-107056260D01*
X132837114Y-107059908D01*
X132833250Y-107064367D01*
X132833245Y-107064372D01*
X132724009Y-107190437D01*
X132699481Y-107218744D01*
X132696530Y-107223854D01*
X132696528Y-107223858D01*
X132597352Y-107395635D01*
X132597349Y-107395640D01*
X132594396Y-107400756D01*
X132592465Y-107406335D01*
X132592461Y-107406344D01*
X132527587Y-107593785D01*
X132527584Y-107593794D01*
X132525656Y-107599367D01*
X132524816Y-107605203D01*
X132524815Y-107605211D01*
X132496585Y-107801558D01*
X132496584Y-107801564D01*
X132495746Y-107807398D01*
X132496026Y-107813282D01*
X132496026Y-107813289D01*
X132500757Y-107912602D01*
X132505746Y-108017330D01*
X132507135Y-108023058D01*
X132507137Y-108023067D01*
X132529389Y-108114788D01*
X132555296Y-108221576D01*
X132557749Y-108226947D01*
X132625174Y-108374588D01*
X132642604Y-108412753D01*
X132646031Y-108417566D01*
X132646032Y-108417567D01*
X132705626Y-108501256D01*
X132764514Y-108583952D01*
X132768791Y-108588030D01*
X132909776Y-108722459D01*
X132916622Y-108728986D01*
X132957944Y-108755542D01*
X132998290Y-108797855D01*
X133014763Y-108853955D01*
X133003698Y-108911366D01*
X132967556Y-108957326D01*
X132841755Y-109056258D01*
X132837114Y-109059908D01*
X132833250Y-109064367D01*
X132833245Y-109064372D01*
X132703347Y-109214282D01*
X132699481Y-109218744D01*
X132696530Y-109223854D01*
X132696528Y-109223858D01*
X132597352Y-109395635D01*
X132597349Y-109395640D01*
X132594396Y-109400756D01*
X132592465Y-109406335D01*
X132592461Y-109406344D01*
X132527587Y-109593785D01*
X132527584Y-109593794D01*
X132525656Y-109599367D01*
X132524816Y-109605203D01*
X132524815Y-109605211D01*
X132496585Y-109801558D01*
X132496584Y-109801564D01*
X132495746Y-109807398D01*
X128304778Y-109807398D01*
X128418649Y-109745774D01*
X128597046Y-109606921D01*
X128750156Y-109440600D01*
X128873802Y-109251346D01*
X128964611Y-109044322D01*
X129020107Y-108825174D01*
X129038775Y-108599881D01*
X129020107Y-108374588D01*
X128964611Y-108155440D01*
X128873802Y-107948416D01*
X128750156Y-107759162D01*
X128746688Y-107755395D01*
X128746686Y-107755392D01*
X128600514Y-107596608D01*
X128600512Y-107596606D01*
X128597046Y-107592841D01*
X128468838Y-107493052D01*
X128422694Y-107457136D01*
X128422691Y-107457134D01*
X128418649Y-107453988D01*
X128414144Y-107451550D01*
X128414138Y-107451546D01*
X128330966Y-107406536D01*
X128283989Y-107361833D01*
X128266000Y-107299531D01*
X128281919Y-107236669D01*
X128327392Y-107190437D01*
X128389983Y-107173481D01*
X128552128Y-107173481D01*
X128564204Y-107172291D01*
X128619166Y-107161358D01*
X128641299Y-107152191D01*
X128703686Y-107110505D01*
X128720624Y-107093567D01*
X128762310Y-107031180D01*
X128771477Y-107009047D01*
X128782410Y-106954085D01*
X128783600Y-106942009D01*
X128783600Y-106451207D01*
X128780149Y-106438331D01*
X128767274Y-106434881D01*
X126572726Y-106434881D01*
X126559850Y-106438331D01*
X126556400Y-106451207D01*
X126556400Y-106942009D01*
X126557589Y-106954085D01*
X126568522Y-107009047D01*
X126577689Y-107031180D01*
X126619375Y-107093567D01*
X126636313Y-107110505D01*
X126698700Y-107152191D01*
X126720833Y-107161358D01*
X126775795Y-107172291D01*
X126787872Y-107173481D01*
X126950017Y-107173481D01*
X127012608Y-107190437D01*
X127058081Y-107236669D01*
X127074000Y-107299531D01*
X127056011Y-107361833D01*
X127009034Y-107406536D01*
X126925861Y-107451546D01*
X126925849Y-107451553D01*
X126921351Y-107453988D01*
X126917314Y-107457129D01*
X126917305Y-107457136D01*
X126746995Y-107589695D01*
X126746989Y-107589699D01*
X126742954Y-107592841D01*
X126739492Y-107596600D01*
X126739485Y-107596608D01*
X126593313Y-107755392D01*
X126593304Y-107755402D01*
X126589844Y-107759162D01*
X126587049Y-107763439D01*
X126587042Y-107763449D01*
X126469000Y-107944127D01*
X126466198Y-107948416D01*
X126464143Y-107953100D01*
X126464138Y-107953110D01*
X126377449Y-108150743D01*
X126375389Y-108155440D01*
X126374131Y-108160405D01*
X126374130Y-108160410D01*
X126321152Y-108369613D01*
X126321150Y-108369622D01*
X126319893Y-108374588D01*
X126319469Y-108379695D01*
X126319468Y-108379706D01*
X126308999Y-108506058D01*
X126301225Y-108599881D01*
X125075500Y-108599881D01*
X125075500Y-105668555D01*
X126556400Y-105668555D01*
X126559850Y-105681430D01*
X126572726Y-105684881D01*
X127278674Y-105684881D01*
X127291549Y-105681430D01*
X127295000Y-105668555D01*
X128045000Y-105668555D01*
X128048450Y-105681430D01*
X128061326Y-105684881D01*
X128767274Y-105684881D01*
X128780149Y-105681430D01*
X128783600Y-105668555D01*
X128783600Y-105177753D01*
X128782410Y-105165676D01*
X128771477Y-105110714D01*
X128762310Y-105088581D01*
X128720624Y-105026194D01*
X128703686Y-105009256D01*
X128641299Y-104967570D01*
X128619166Y-104958403D01*
X128564204Y-104947470D01*
X128552128Y-104946281D01*
X128061326Y-104946281D01*
X128048450Y-104949731D01*
X128045000Y-104962607D01*
X128045000Y-105668555D01*
X127295000Y-105668555D01*
X127295000Y-104962607D01*
X127291549Y-104949731D01*
X127278674Y-104946281D01*
X126787872Y-104946281D01*
X126775795Y-104947470D01*
X126720833Y-104958403D01*
X126698700Y-104967570D01*
X126636313Y-105009256D01*
X126619375Y-105026194D01*
X126577689Y-105088581D01*
X126568522Y-105110714D01*
X126557589Y-105165676D01*
X126556400Y-105177753D01*
X126556400Y-105668555D01*
X125075500Y-105668555D01*
X125075500Y-104402009D01*
X126556400Y-104402009D01*
X126557589Y-104414085D01*
X126568522Y-104469047D01*
X126577689Y-104491180D01*
X126619375Y-104553567D01*
X126636313Y-104570505D01*
X126698700Y-104612191D01*
X126720833Y-104621358D01*
X126775795Y-104632291D01*
X126787872Y-104633481D01*
X127278674Y-104633481D01*
X127291549Y-104630030D01*
X127295000Y-104617155D01*
X128045000Y-104617155D01*
X128048450Y-104630030D01*
X128061326Y-104633481D01*
X128552128Y-104633481D01*
X128564204Y-104632291D01*
X128619166Y-104621358D01*
X128641299Y-104612191D01*
X128703686Y-104570505D01*
X128720624Y-104553567D01*
X128762310Y-104491180D01*
X128771477Y-104469047D01*
X128782410Y-104414085D01*
X128783600Y-104402009D01*
X128783600Y-103911207D01*
X128780149Y-103898331D01*
X128767274Y-103894881D01*
X128061326Y-103894881D01*
X128048450Y-103898331D01*
X128045000Y-103911207D01*
X128045000Y-104617155D01*
X127295000Y-104617155D01*
X127295000Y-103911207D01*
X127291549Y-103898331D01*
X127278674Y-103894881D01*
X126572726Y-103894881D01*
X126559850Y-103898331D01*
X126556400Y-103911207D01*
X126556400Y-104402009D01*
X125075500Y-104402009D01*
X125075500Y-100449000D01*
X125092113Y-100387000D01*
X125137500Y-100341613D01*
X125199500Y-100325000D01*
X126277900Y-100325000D01*
X126336917Y-100339945D01*
G37*
G04 #@! TD.AperFunction*
M02*
