%TF.GenerationSoftware,KiCad,Pcbnew,7.0.0*%
%TF.CreationDate,2023-02-28T23:46:12-08:00*%
%TF.ProjectId,KYBERNETES-CHASSIS-SHIELD,4b594245-524e-4455-9445-532d43484153,rev?*%
%TF.SameCoordinates,Original*%
%TF.FileFunction,Drillmap*%
%TF.FilePolarity,Positive*%
%FSLAX45Y45*%
G04 Gerber Fmt 4.5, Leading zero omitted, Abs format (unit mm)*
G04 Created by KiCad (PCBNEW 7.0.0) date 2023-02-28 23:46:12*
%MOMM*%
%LPD*%
G01*
G04 APERTURE LIST*
%ADD10C,0.100000*%
%ADD11C,0.200000*%
%ADD12C,0.030000*%
%ADD13C,0.075000*%
%ADD14C,0.080000*%
%ADD15C,0.101600*%
G04 APERTURE END LIST*
D10*
X17872500Y-12752500D02*
X17707500Y-12917500D01*
X12867500Y-13157500D02*
X12627500Y-12917500D01*
X17872500Y-7325000D02*
X17872500Y-12752500D01*
X16335000Y-13172500D02*
X12882500Y-13172500D01*
X12487500Y-7325000D02*
X17872500Y-7325000D01*
X17707500Y-12917500D02*
X16590000Y-12917500D01*
X12882500Y-13172500D02*
X12867500Y-13157500D01*
X16590000Y-12917500D02*
X16335000Y-13172500D01*
X12627500Y-12917500D02*
X12487500Y-12917500D01*
X12487500Y-7325000D02*
X12487500Y-12917500D01*
D11*
D12*
X13297500Y-9292500D02*
X13327500Y-9322500D01*
X13327500Y-9292500D02*
X13297500Y-9322500D01*
X13340000Y-8412500D02*
X13370000Y-8442500D01*
X13370000Y-8412500D02*
X13340000Y-8442500D01*
X13370000Y-9057500D02*
X13400000Y-9087500D01*
X13400000Y-9057500D02*
X13370000Y-9087500D01*
X13382500Y-10065000D02*
X13412500Y-10095000D01*
X13412500Y-10065000D02*
X13382500Y-10095000D01*
X13787500Y-9217500D02*
X13817500Y-9247500D01*
X13817500Y-9217500D02*
X13787500Y-9247500D01*
X13787500Y-9380000D02*
X13817500Y-9410000D01*
X13817500Y-9380000D02*
X13787500Y-9410000D01*
X13790000Y-8700000D02*
X13820000Y-8730000D01*
X13820000Y-8700000D02*
X13790000Y-8730000D01*
X13910000Y-8910000D02*
X13940000Y-8940000D01*
X13940000Y-8910000D02*
X13910000Y-8940000D01*
X14072500Y-8795000D02*
X14102500Y-8825000D01*
X14102500Y-8795000D02*
X14072500Y-8825000D01*
X14087500Y-10147500D02*
X14117500Y-10177500D01*
X14117500Y-10147500D02*
X14087500Y-10177500D01*
X14490000Y-10067500D02*
X14520000Y-10097500D01*
X14520000Y-10067500D02*
X14490000Y-10097500D01*
X14522500Y-9060000D02*
X14552500Y-9090000D01*
X14552500Y-9060000D02*
X14522500Y-9090000D01*
X14605000Y-9290000D02*
X14635000Y-9320000D01*
X14635000Y-9290000D02*
X14605000Y-9320000D01*
X14817500Y-10067500D02*
X14847500Y-10097500D01*
X14847500Y-10067500D02*
X14817500Y-10097500D01*
X14875000Y-8945000D02*
X14905000Y-8975000D01*
X14905000Y-8945000D02*
X14875000Y-8975000D01*
X14975000Y-10652500D02*
X15005000Y-10682500D01*
X15005000Y-10652500D02*
X14975000Y-10682500D01*
X15017500Y-10065000D02*
X15047500Y-10095000D01*
X15047500Y-10065000D02*
X15017500Y-10095000D01*
X15232500Y-9290000D02*
X15262500Y-9320000D01*
X15262500Y-9290000D02*
X15232500Y-9320000D01*
X15232500Y-10215000D02*
X15262500Y-10245000D01*
X15262500Y-10215000D02*
X15232500Y-10245000D01*
X15595000Y-8080000D02*
X15625000Y-8110000D01*
X15625000Y-8080000D02*
X15595000Y-8110000D01*
X15805000Y-10067500D02*
X15835000Y-10097500D01*
X15835000Y-10067500D02*
X15805000Y-10097500D01*
X15845000Y-9057500D02*
X15875000Y-9087500D01*
X15875000Y-9057500D02*
X15845000Y-9087500D01*
X15910000Y-10282500D02*
X15940000Y-10312500D01*
X15940000Y-10282500D02*
X15910000Y-10312500D01*
X16810000Y-10147500D02*
X16840000Y-10177500D01*
X16840000Y-10147500D02*
X16810000Y-10177500D01*
X17137500Y-8950000D02*
X17167500Y-8980000D01*
X17167500Y-8950000D02*
X17137500Y-8980000D01*
X17207500Y-10067500D02*
X17237500Y-10097500D01*
X17237500Y-10067500D02*
X17207500Y-10097500D01*
D13*
X13425000Y-10586000D02*
G75*
G03*
X13425000Y-10586000I-37500J0D01*
G01*
X13425000Y-10786000D02*
G75*
G03*
X13425000Y-10786000I-37500J0D01*
G01*
X13425000Y-10986000D02*
G75*
G03*
X13425000Y-10986000I-37500J0D01*
G01*
X13425000Y-11186000D02*
G75*
G03*
X13425000Y-11186000I-37500J0D01*
G01*
X13425000Y-11682500D02*
G75*
G03*
X13425000Y-11682500I-37500J0D01*
G01*
X13425000Y-11882500D02*
G75*
G03*
X13425000Y-11882500I-37500J0D01*
G01*
X13425000Y-12082500D02*
G75*
G03*
X13425000Y-12082500I-37500J0D01*
G01*
X13425000Y-12282500D02*
G75*
G03*
X13425000Y-12282500I-37500J0D01*
G01*
X14815000Y-7795000D02*
G75*
G03*
X14815000Y-7795000I-37500J0D01*
G01*
X15015000Y-7795000D02*
G75*
G03*
X15015000Y-7795000I-37500J0D01*
G01*
X15015000Y-8545000D02*
G75*
G03*
X15015000Y-8545000I-37500J0D01*
G01*
X15215000Y-7795000D02*
G75*
G03*
X15215000Y-7795000I-37500J0D01*
G01*
X15215000Y-8545000D02*
G75*
G03*
X15215000Y-8545000I-37500J0D01*
G01*
X15415000Y-7795000D02*
G75*
G03*
X15415000Y-7795000I-37500J0D01*
G01*
X15615000Y-7795000D02*
G75*
G03*
X15615000Y-7795000I-37500J0D01*
G01*
X17002500Y-10810000D02*
G75*
G03*
X17002500Y-10810000I-37500J0D01*
G01*
X17002500Y-11010000D02*
G75*
G03*
X17002500Y-11010000I-37500J0D01*
G01*
X17002500Y-11210000D02*
G75*
G03*
X17002500Y-11210000I-37500J0D01*
G01*
X17002500Y-11410000D02*
G75*
G03*
X17002500Y-11410000I-37500J0D01*
G01*
X17002500Y-11917500D02*
G75*
G03*
X17002500Y-11917500I-37500J0D01*
G01*
X17002500Y-12117500D02*
G75*
G03*
X17002500Y-12117500I-37500J0D01*
G01*
X17002500Y-12317500D02*
G75*
G03*
X17002500Y-12317500I-37500J0D01*
G01*
X17002500Y-12517500D02*
G75*
G03*
X17002500Y-12517500I-37500J0D01*
G01*
D14*
X13913000Y-10465500D02*
X13913000Y-10545500D01*
X13873000Y-10505500D02*
X13953000Y-10505500D01*
X13913000Y-10719500D02*
X13913000Y-10799500D01*
X13873000Y-10759500D02*
X13953000Y-10759500D01*
X13913000Y-10973500D02*
X13913000Y-11053500D01*
X13873000Y-11013500D02*
X13953000Y-11013500D01*
X13913000Y-11227500D02*
X13913000Y-11307500D01*
X13873000Y-11267500D02*
X13953000Y-11267500D01*
X14675000Y-10465500D02*
X14675000Y-10545500D01*
X14635000Y-10505500D02*
X14715000Y-10505500D01*
X14675000Y-10719500D02*
X14675000Y-10799500D01*
X14635000Y-10759500D02*
X14715000Y-10759500D01*
X14675000Y-10973500D02*
X14675000Y-11053500D01*
X14635000Y-11013500D02*
X14715000Y-11013500D01*
X14675000Y-11227500D02*
X14675000Y-11307500D01*
X14635000Y-11267500D02*
X14715000Y-11267500D01*
D10*
X13344356Y-8162868D02*
X13344356Y-8092156D01*
X13273644Y-8092156D01*
X13273644Y-8162868D01*
X13344356Y-8162868D01*
X13598356Y-8162868D02*
X13598356Y-8092156D01*
X13527644Y-8092156D01*
X13527644Y-8162868D01*
X13598356Y-8162868D01*
X13852356Y-7792868D02*
X13852356Y-7722156D01*
X13781644Y-7722156D01*
X13781644Y-7792868D01*
X13852356Y-7792868D01*
X13852356Y-8162868D02*
X13852356Y-8092156D01*
X13781644Y-8092156D01*
X13781644Y-8162868D01*
X13852356Y-8162868D01*
X14106356Y-7792868D02*
X14106356Y-7722156D01*
X14035644Y-7722156D01*
X14035644Y-7792868D01*
X14106356Y-7792868D01*
X14106356Y-8162868D02*
X14106356Y-8092156D01*
X14035644Y-8092156D01*
X14035644Y-8162868D01*
X14106356Y-8162868D01*
X14360356Y-7792868D02*
X14360356Y-7722156D01*
X14289644Y-7722156D01*
X14289644Y-7792868D01*
X14360356Y-7792868D01*
X14360356Y-8162868D02*
X14360356Y-8092156D01*
X14289644Y-8092156D01*
X14289644Y-8162868D01*
X14360356Y-8162868D01*
X16066356Y-8160368D02*
X16066356Y-8089656D01*
X15995644Y-8089656D01*
X15995644Y-8160368D01*
X16066356Y-8160368D01*
X16320356Y-8160368D02*
X16320356Y-8089656D01*
X16249644Y-8089656D01*
X16249644Y-8160368D01*
X16320356Y-8160368D01*
X16573856Y-7790368D02*
X16573856Y-7719656D01*
X16503144Y-7719656D01*
X16503144Y-7790368D01*
X16573856Y-7790368D01*
X16574356Y-8160368D02*
X16574356Y-8089656D01*
X16503644Y-8089656D01*
X16503644Y-8160368D01*
X16574356Y-8160368D01*
X16827856Y-7790368D02*
X16827856Y-7719656D01*
X16757144Y-7719656D01*
X16757144Y-7790368D01*
X16827856Y-7790368D01*
X16828356Y-8160368D02*
X16828356Y-8089656D01*
X16757644Y-8089656D01*
X16757644Y-8160368D01*
X16828356Y-8160368D01*
X17081856Y-7790368D02*
X17081856Y-7719656D01*
X17011144Y-7719656D01*
X17011144Y-7790368D01*
X17081856Y-7790368D01*
X17082356Y-8160368D02*
X17082356Y-8089656D01*
X17011644Y-8089656D01*
X17011644Y-8160368D01*
X17082356Y-8160368D01*
D15*
X12767000Y-9132788D02*
X12817800Y-9081988D01*
X12767000Y-9031188D01*
X12716200Y-9081988D01*
X12767000Y-9132788D01*
X12767000Y-9386788D02*
X12817800Y-9335988D01*
X12767000Y-9285188D01*
X12716200Y-9335988D01*
X12767000Y-9386788D01*
X12767000Y-9640788D02*
X12817800Y-9589988D01*
X12767000Y-9539188D01*
X12716200Y-9589988D01*
X12767000Y-9640788D01*
X12767000Y-9894788D02*
X12817800Y-9843988D01*
X12767000Y-9793188D01*
X12716200Y-9843988D01*
X12767000Y-9894788D01*
X12767000Y-10148788D02*
X12817800Y-10097988D01*
X12767000Y-10047188D01*
X12716200Y-10097988D01*
X12767000Y-10148788D01*
X12767000Y-10402788D02*
X12817800Y-10351988D01*
X12767000Y-10301188D01*
X12716200Y-10351988D01*
X12767000Y-10402788D01*
X12767000Y-10656788D02*
X12817800Y-10605988D01*
X12767000Y-10555188D01*
X12716200Y-10605988D01*
X12767000Y-10656788D01*
X12767000Y-10910788D02*
X12817800Y-10859988D01*
X12767000Y-10809188D01*
X12716200Y-10859988D01*
X12767000Y-10910788D01*
X12767000Y-11418788D02*
X12817800Y-11367988D01*
X12767000Y-11317188D01*
X12716200Y-11367988D01*
X12767000Y-11418788D01*
X12767000Y-11672788D02*
X12817800Y-11621988D01*
X12767000Y-11571188D01*
X12716200Y-11621988D01*
X12767000Y-11672788D01*
X12767000Y-11926788D02*
X12817800Y-11875988D01*
X12767000Y-11825188D01*
X12716200Y-11875988D01*
X12767000Y-11926788D01*
X12767000Y-12180788D02*
X12817800Y-12129988D01*
X12767000Y-12079188D01*
X12716200Y-12129988D01*
X12767000Y-12180788D01*
X12767000Y-12434788D02*
X12817800Y-12383988D01*
X12767000Y-12333188D01*
X12716200Y-12383988D01*
X12767000Y-12434788D01*
X12767000Y-12688788D02*
X12817800Y-12637988D01*
X12767000Y-12587188D01*
X12716200Y-12637988D01*
X12767000Y-12688788D01*
X15053000Y-12701488D02*
X15103800Y-12650688D01*
X15053000Y-12599888D01*
X15002200Y-12650688D01*
X15053000Y-12701488D01*
X15053000Y-12955488D02*
X15103800Y-12904688D01*
X15053000Y-12853888D01*
X15002200Y-12904688D01*
X15053000Y-12955488D01*
X15307000Y-12701488D02*
X15357800Y-12650688D01*
X15307000Y-12599888D01*
X15256200Y-12650688D01*
X15307000Y-12701488D01*
X15307000Y-12955488D02*
X15357800Y-12904688D01*
X15307000Y-12853888D01*
X15256200Y-12904688D01*
X15307000Y-12955488D01*
X15561000Y-12701488D02*
X15611800Y-12650688D01*
X15561000Y-12599888D01*
X15510200Y-12650688D01*
X15561000Y-12701488D01*
X15561000Y-12955488D02*
X15611800Y-12904688D01*
X15561000Y-12853888D01*
X15510200Y-12904688D01*
X15561000Y-12955488D01*
X17593000Y-8218388D02*
X17643800Y-8167588D01*
X17593000Y-8116788D01*
X17542200Y-8167588D01*
X17593000Y-8218388D01*
X17593000Y-8472388D02*
X17643800Y-8421588D01*
X17593000Y-8370788D01*
X17542200Y-8421588D01*
X17593000Y-8472388D01*
X17593000Y-8726388D02*
X17643800Y-8675588D01*
X17593000Y-8624788D01*
X17542200Y-8675588D01*
X17593000Y-8726388D01*
X17593000Y-8980388D02*
X17643800Y-8929588D01*
X17593000Y-8878788D01*
X17542200Y-8929588D01*
X17593000Y-8980388D01*
X17593000Y-9234388D02*
X17643800Y-9183588D01*
X17593000Y-9132788D01*
X17542200Y-9183588D01*
X17593000Y-9234388D01*
X17593000Y-9488388D02*
X17643800Y-9437588D01*
X17593000Y-9386788D01*
X17542200Y-9437588D01*
X17593000Y-9488388D01*
X17593000Y-9742388D02*
X17643800Y-9691588D01*
X17593000Y-9640788D01*
X17542200Y-9691588D01*
X17593000Y-9742388D01*
X17593000Y-9996388D02*
X17643800Y-9945588D01*
X17593000Y-9894788D01*
X17542200Y-9945588D01*
X17593000Y-9996388D01*
X17593000Y-10250388D02*
X17643800Y-10199588D01*
X17593000Y-10148788D01*
X17542200Y-10199588D01*
X17593000Y-10250388D01*
X17593000Y-10504388D02*
X17643800Y-10453588D01*
X17593000Y-10402788D01*
X17542200Y-10453588D01*
X17593000Y-10504388D01*
X17593000Y-10910788D02*
X17643800Y-10859988D01*
X17593000Y-10809188D01*
X17542200Y-10859988D01*
X17593000Y-10910788D01*
X17593000Y-11164788D02*
X17643800Y-11113988D01*
X17593000Y-11063188D01*
X17542200Y-11113988D01*
X17593000Y-11164788D01*
X17593000Y-11418788D02*
X17643800Y-11367988D01*
X17593000Y-11317188D01*
X17542200Y-11367988D01*
X17593000Y-11418788D01*
X17593000Y-11672788D02*
X17643800Y-11621988D01*
X17593000Y-11571188D01*
X17542200Y-11621988D01*
X17593000Y-11672788D01*
X17593000Y-11926788D02*
X17643800Y-11875988D01*
X17593000Y-11825188D01*
X17542200Y-11875988D01*
X17593000Y-11926788D01*
X17593000Y-12180788D02*
X17643800Y-12129988D01*
X17593000Y-12079188D01*
X17542200Y-12129988D01*
X17593000Y-12180788D01*
X17593000Y-12434788D02*
X17643800Y-12383988D01*
X17593000Y-12333188D01*
X17542200Y-12383988D01*
X17593000Y-12434788D01*
X17593000Y-12688788D02*
X17643800Y-12637988D01*
X17593000Y-12587188D01*
X17542200Y-12637988D01*
X17593000Y-12688788D01*
D11*
X12730119Y-13470976D02*
X12730119Y-13270976D01*
X12730119Y-13270976D02*
X12777738Y-13270976D01*
X12777738Y-13270976D02*
X12806309Y-13280500D01*
X12806309Y-13280500D02*
X12825357Y-13299548D01*
X12825357Y-13299548D02*
X12834881Y-13318595D01*
X12834881Y-13318595D02*
X12844405Y-13356690D01*
X12844405Y-13356690D02*
X12844405Y-13385262D01*
X12844405Y-13385262D02*
X12834881Y-13423357D01*
X12834881Y-13423357D02*
X12825357Y-13442405D01*
X12825357Y-13442405D02*
X12806309Y-13461452D01*
X12806309Y-13461452D02*
X12777738Y-13470976D01*
X12777738Y-13470976D02*
X12730119Y-13470976D01*
X12930119Y-13470976D02*
X12930119Y-13337643D01*
X12930119Y-13375738D02*
X12939643Y-13356690D01*
X12939643Y-13356690D02*
X12949167Y-13347167D01*
X12949167Y-13347167D02*
X12968214Y-13337643D01*
X12968214Y-13337643D02*
X12987262Y-13337643D01*
X13053928Y-13470976D02*
X13053928Y-13337643D01*
X13053928Y-13270976D02*
X13044405Y-13280500D01*
X13044405Y-13280500D02*
X13053928Y-13290024D01*
X13053928Y-13290024D02*
X13063452Y-13280500D01*
X13063452Y-13280500D02*
X13053928Y-13270976D01*
X13053928Y-13270976D02*
X13053928Y-13290024D01*
X13177738Y-13470976D02*
X13158690Y-13461452D01*
X13158690Y-13461452D02*
X13149167Y-13442405D01*
X13149167Y-13442405D02*
X13149167Y-13270976D01*
X13282500Y-13470976D02*
X13263452Y-13461452D01*
X13263452Y-13461452D02*
X13253928Y-13442405D01*
X13253928Y-13442405D02*
X13253928Y-13270976D01*
X13478690Y-13470976D02*
X13478690Y-13270976D01*
X13478690Y-13270976D02*
X13545357Y-13413833D01*
X13545357Y-13413833D02*
X13612024Y-13270976D01*
X13612024Y-13270976D02*
X13612024Y-13470976D01*
X13792976Y-13470976D02*
X13792976Y-13366214D01*
X13792976Y-13366214D02*
X13783452Y-13347167D01*
X13783452Y-13347167D02*
X13764405Y-13337643D01*
X13764405Y-13337643D02*
X13726309Y-13337643D01*
X13726309Y-13337643D02*
X13707262Y-13347167D01*
X13792976Y-13461452D02*
X13773928Y-13470976D01*
X13773928Y-13470976D02*
X13726309Y-13470976D01*
X13726309Y-13470976D02*
X13707262Y-13461452D01*
X13707262Y-13461452D02*
X13697738Y-13442405D01*
X13697738Y-13442405D02*
X13697738Y-13423357D01*
X13697738Y-13423357D02*
X13707262Y-13404309D01*
X13707262Y-13404309D02*
X13726309Y-13394786D01*
X13726309Y-13394786D02*
X13773928Y-13394786D01*
X13773928Y-13394786D02*
X13792976Y-13385262D01*
X13888214Y-13337643D02*
X13888214Y-13537643D01*
X13888214Y-13347167D02*
X13907262Y-13337643D01*
X13907262Y-13337643D02*
X13945357Y-13337643D01*
X13945357Y-13337643D02*
X13964405Y-13347167D01*
X13964405Y-13347167D02*
X13973928Y-13356690D01*
X13973928Y-13356690D02*
X13983452Y-13375738D01*
X13983452Y-13375738D02*
X13983452Y-13432881D01*
X13983452Y-13432881D02*
X13973928Y-13451928D01*
X13973928Y-13451928D02*
X13964405Y-13461452D01*
X13964405Y-13461452D02*
X13945357Y-13470976D01*
X13945357Y-13470976D02*
X13907262Y-13470976D01*
X13907262Y-13470976D02*
X13888214Y-13461452D01*
X14069167Y-13451928D02*
X14078690Y-13461452D01*
X14078690Y-13461452D02*
X14069167Y-13470976D01*
X14069167Y-13470976D02*
X14059643Y-13461452D01*
X14059643Y-13461452D02*
X14069167Y-13451928D01*
X14069167Y-13451928D02*
X14069167Y-13470976D01*
X14069167Y-13347167D02*
X14078690Y-13356690D01*
X14078690Y-13356690D02*
X14069167Y-13366214D01*
X14069167Y-13366214D02*
X14059643Y-13356690D01*
X14059643Y-13356690D02*
X14069167Y-13347167D01*
X14069167Y-13347167D02*
X14069167Y-13366214D01*
D12*
X12452500Y-13802500D02*
X12482500Y-13832500D01*
X12482500Y-13802500D02*
X12452500Y-13832500D01*
D11*
X12768214Y-13690976D02*
X12787262Y-13690976D01*
X12787262Y-13690976D02*
X12806309Y-13700500D01*
X12806309Y-13700500D02*
X12815833Y-13710024D01*
X12815833Y-13710024D02*
X12825357Y-13729071D01*
X12825357Y-13729071D02*
X12834881Y-13767167D01*
X12834881Y-13767167D02*
X12834881Y-13814786D01*
X12834881Y-13814786D02*
X12825357Y-13852881D01*
X12825357Y-13852881D02*
X12815833Y-13871928D01*
X12815833Y-13871928D02*
X12806309Y-13881452D01*
X12806309Y-13881452D02*
X12787262Y-13890976D01*
X12787262Y-13890976D02*
X12768214Y-13890976D01*
X12768214Y-13890976D02*
X12749167Y-13881452D01*
X12749167Y-13881452D02*
X12739643Y-13871928D01*
X12739643Y-13871928D02*
X12730119Y-13852881D01*
X12730119Y-13852881D02*
X12720595Y-13814786D01*
X12720595Y-13814786D02*
X12720595Y-13767167D01*
X12720595Y-13767167D02*
X12730119Y-13729071D01*
X12730119Y-13729071D02*
X12739643Y-13710024D01*
X12739643Y-13710024D02*
X12749167Y-13700500D01*
X12749167Y-13700500D02*
X12768214Y-13690976D01*
X12920595Y-13871928D02*
X12930119Y-13881452D01*
X12930119Y-13881452D02*
X12920595Y-13890976D01*
X12920595Y-13890976D02*
X12911071Y-13881452D01*
X12911071Y-13881452D02*
X12920595Y-13871928D01*
X12920595Y-13871928D02*
X12920595Y-13890976D01*
X12996786Y-13690976D02*
X13120595Y-13690976D01*
X13120595Y-13690976D02*
X13053928Y-13767167D01*
X13053928Y-13767167D02*
X13082500Y-13767167D01*
X13082500Y-13767167D02*
X13101548Y-13776690D01*
X13101548Y-13776690D02*
X13111071Y-13786214D01*
X13111071Y-13786214D02*
X13120595Y-13805262D01*
X13120595Y-13805262D02*
X13120595Y-13852881D01*
X13120595Y-13852881D02*
X13111071Y-13871928D01*
X13111071Y-13871928D02*
X13101548Y-13881452D01*
X13101548Y-13881452D02*
X13082500Y-13890976D01*
X13082500Y-13890976D02*
X13025357Y-13890976D01*
X13025357Y-13890976D02*
X13006309Y-13881452D01*
X13006309Y-13881452D02*
X12996786Y-13871928D01*
X13244405Y-13690976D02*
X13263452Y-13690976D01*
X13263452Y-13690976D02*
X13282500Y-13700500D01*
X13282500Y-13700500D02*
X13292024Y-13710024D01*
X13292024Y-13710024D02*
X13301548Y-13729071D01*
X13301548Y-13729071D02*
X13311071Y-13767167D01*
X13311071Y-13767167D02*
X13311071Y-13814786D01*
X13311071Y-13814786D02*
X13301548Y-13852881D01*
X13301548Y-13852881D02*
X13292024Y-13871928D01*
X13292024Y-13871928D02*
X13282500Y-13881452D01*
X13282500Y-13881452D02*
X13263452Y-13890976D01*
X13263452Y-13890976D02*
X13244405Y-13890976D01*
X13244405Y-13890976D02*
X13225357Y-13881452D01*
X13225357Y-13881452D02*
X13215833Y-13871928D01*
X13215833Y-13871928D02*
X13206309Y-13852881D01*
X13206309Y-13852881D02*
X13196786Y-13814786D01*
X13196786Y-13814786D02*
X13196786Y-13767167D01*
X13196786Y-13767167D02*
X13206309Y-13729071D01*
X13206309Y-13729071D02*
X13215833Y-13710024D01*
X13215833Y-13710024D02*
X13225357Y-13700500D01*
X13225357Y-13700500D02*
X13244405Y-13690976D01*
X13434881Y-13690976D02*
X13453929Y-13690976D01*
X13453929Y-13690976D02*
X13472976Y-13700500D01*
X13472976Y-13700500D02*
X13482500Y-13710024D01*
X13482500Y-13710024D02*
X13492024Y-13729071D01*
X13492024Y-13729071D02*
X13501548Y-13767167D01*
X13501548Y-13767167D02*
X13501548Y-13814786D01*
X13501548Y-13814786D02*
X13492024Y-13852881D01*
X13492024Y-13852881D02*
X13482500Y-13871928D01*
X13482500Y-13871928D02*
X13472976Y-13881452D01*
X13472976Y-13881452D02*
X13453929Y-13890976D01*
X13453929Y-13890976D02*
X13434881Y-13890976D01*
X13434881Y-13890976D02*
X13415833Y-13881452D01*
X13415833Y-13881452D02*
X13406309Y-13871928D01*
X13406309Y-13871928D02*
X13396786Y-13852881D01*
X13396786Y-13852881D02*
X13387262Y-13814786D01*
X13387262Y-13814786D02*
X13387262Y-13767167D01*
X13387262Y-13767167D02*
X13396786Y-13729071D01*
X13396786Y-13729071D02*
X13406309Y-13710024D01*
X13406309Y-13710024D02*
X13415833Y-13700500D01*
X13415833Y-13700500D02*
X13434881Y-13690976D01*
X13587262Y-13890976D02*
X13587262Y-13757643D01*
X13587262Y-13776690D02*
X13596786Y-13767167D01*
X13596786Y-13767167D02*
X13615833Y-13757643D01*
X13615833Y-13757643D02*
X13644405Y-13757643D01*
X13644405Y-13757643D02*
X13663452Y-13767167D01*
X13663452Y-13767167D02*
X13672976Y-13786214D01*
X13672976Y-13786214D02*
X13672976Y-13890976D01*
X13672976Y-13786214D02*
X13682500Y-13767167D01*
X13682500Y-13767167D02*
X13701548Y-13757643D01*
X13701548Y-13757643D02*
X13730119Y-13757643D01*
X13730119Y-13757643D02*
X13749167Y-13767167D01*
X13749167Y-13767167D02*
X13758690Y-13786214D01*
X13758690Y-13786214D02*
X13758690Y-13890976D01*
X13853929Y-13890976D02*
X13853929Y-13757643D01*
X13853929Y-13776690D02*
X13863452Y-13767167D01*
X13863452Y-13767167D02*
X13882500Y-13757643D01*
X13882500Y-13757643D02*
X13911071Y-13757643D01*
X13911071Y-13757643D02*
X13930119Y-13767167D01*
X13930119Y-13767167D02*
X13939643Y-13786214D01*
X13939643Y-13786214D02*
X13939643Y-13890976D01*
X13939643Y-13786214D02*
X13949167Y-13767167D01*
X13949167Y-13767167D02*
X13968214Y-13757643D01*
X13968214Y-13757643D02*
X13996786Y-13757643D01*
X13996786Y-13757643D02*
X14015833Y-13767167D01*
X14015833Y-13767167D02*
X14025357Y-13786214D01*
X14025357Y-13786214D02*
X14025357Y-13890976D01*
X14383452Y-13681452D02*
X14212024Y-13938595D01*
X14608214Y-13690976D02*
X14627262Y-13690976D01*
X14627262Y-13690976D02*
X14646310Y-13700500D01*
X14646310Y-13700500D02*
X14655833Y-13710024D01*
X14655833Y-13710024D02*
X14665357Y-13729071D01*
X14665357Y-13729071D02*
X14674881Y-13767167D01*
X14674881Y-13767167D02*
X14674881Y-13814786D01*
X14674881Y-13814786D02*
X14665357Y-13852881D01*
X14665357Y-13852881D02*
X14655833Y-13871928D01*
X14655833Y-13871928D02*
X14646310Y-13881452D01*
X14646310Y-13881452D02*
X14627262Y-13890976D01*
X14627262Y-13890976D02*
X14608214Y-13890976D01*
X14608214Y-13890976D02*
X14589167Y-13881452D01*
X14589167Y-13881452D02*
X14579643Y-13871928D01*
X14579643Y-13871928D02*
X14570119Y-13852881D01*
X14570119Y-13852881D02*
X14560595Y-13814786D01*
X14560595Y-13814786D02*
X14560595Y-13767167D01*
X14560595Y-13767167D02*
X14570119Y-13729071D01*
X14570119Y-13729071D02*
X14579643Y-13710024D01*
X14579643Y-13710024D02*
X14589167Y-13700500D01*
X14589167Y-13700500D02*
X14608214Y-13690976D01*
X14760595Y-13871928D02*
X14770119Y-13881452D01*
X14770119Y-13881452D02*
X14760595Y-13890976D01*
X14760595Y-13890976D02*
X14751071Y-13881452D01*
X14751071Y-13881452D02*
X14760595Y-13871928D01*
X14760595Y-13871928D02*
X14760595Y-13890976D01*
X14893929Y-13690976D02*
X14912976Y-13690976D01*
X14912976Y-13690976D02*
X14932024Y-13700500D01*
X14932024Y-13700500D02*
X14941548Y-13710024D01*
X14941548Y-13710024D02*
X14951071Y-13729071D01*
X14951071Y-13729071D02*
X14960595Y-13767167D01*
X14960595Y-13767167D02*
X14960595Y-13814786D01*
X14960595Y-13814786D02*
X14951071Y-13852881D01*
X14951071Y-13852881D02*
X14941548Y-13871928D01*
X14941548Y-13871928D02*
X14932024Y-13881452D01*
X14932024Y-13881452D02*
X14912976Y-13890976D01*
X14912976Y-13890976D02*
X14893929Y-13890976D01*
X14893929Y-13890976D02*
X14874881Y-13881452D01*
X14874881Y-13881452D02*
X14865357Y-13871928D01*
X14865357Y-13871928D02*
X14855833Y-13852881D01*
X14855833Y-13852881D02*
X14846310Y-13814786D01*
X14846310Y-13814786D02*
X14846310Y-13767167D01*
X14846310Y-13767167D02*
X14855833Y-13729071D01*
X14855833Y-13729071D02*
X14865357Y-13710024D01*
X14865357Y-13710024D02*
X14874881Y-13700500D01*
X14874881Y-13700500D02*
X14893929Y-13690976D01*
X15151071Y-13890976D02*
X15036786Y-13890976D01*
X15093929Y-13890976D02*
X15093929Y-13690976D01*
X15093929Y-13690976D02*
X15074881Y-13719548D01*
X15074881Y-13719548D02*
X15055833Y-13738595D01*
X15055833Y-13738595D02*
X15036786Y-13748119D01*
X15341548Y-13890976D02*
X15227262Y-13890976D01*
X15284405Y-13890976D02*
X15284405Y-13690976D01*
X15284405Y-13690976D02*
X15265357Y-13719548D01*
X15265357Y-13719548D02*
X15246310Y-13738595D01*
X15246310Y-13738595D02*
X15227262Y-13748119D01*
X15455833Y-13776690D02*
X15436786Y-13767167D01*
X15436786Y-13767167D02*
X15427262Y-13757643D01*
X15427262Y-13757643D02*
X15417738Y-13738595D01*
X15417738Y-13738595D02*
X15417738Y-13729071D01*
X15417738Y-13729071D02*
X15427262Y-13710024D01*
X15427262Y-13710024D02*
X15436786Y-13700500D01*
X15436786Y-13700500D02*
X15455833Y-13690976D01*
X15455833Y-13690976D02*
X15493929Y-13690976D01*
X15493929Y-13690976D02*
X15512976Y-13700500D01*
X15512976Y-13700500D02*
X15522500Y-13710024D01*
X15522500Y-13710024D02*
X15532024Y-13729071D01*
X15532024Y-13729071D02*
X15532024Y-13738595D01*
X15532024Y-13738595D02*
X15522500Y-13757643D01*
X15522500Y-13757643D02*
X15512976Y-13767167D01*
X15512976Y-13767167D02*
X15493929Y-13776690D01*
X15493929Y-13776690D02*
X15455833Y-13776690D01*
X15455833Y-13776690D02*
X15436786Y-13786214D01*
X15436786Y-13786214D02*
X15427262Y-13795738D01*
X15427262Y-13795738D02*
X15417738Y-13814786D01*
X15417738Y-13814786D02*
X15417738Y-13852881D01*
X15417738Y-13852881D02*
X15427262Y-13871928D01*
X15427262Y-13871928D02*
X15436786Y-13881452D01*
X15436786Y-13881452D02*
X15455833Y-13890976D01*
X15455833Y-13890976D02*
X15493929Y-13890976D01*
X15493929Y-13890976D02*
X15512976Y-13881452D01*
X15512976Y-13881452D02*
X15522500Y-13871928D01*
X15522500Y-13871928D02*
X15532024Y-13852881D01*
X15532024Y-13852881D02*
X15532024Y-13814786D01*
X15532024Y-13814786D02*
X15522500Y-13795738D01*
X15522500Y-13795738D02*
X15512976Y-13786214D01*
X15512976Y-13786214D02*
X15493929Y-13776690D01*
X15608214Y-13690976D02*
X15608214Y-13729071D01*
X15684405Y-13690976D02*
X15684405Y-13729071D01*
X15947262Y-13967167D02*
X15937738Y-13957643D01*
X15937738Y-13957643D02*
X15918691Y-13929071D01*
X15918691Y-13929071D02*
X15909167Y-13910024D01*
X15909167Y-13910024D02*
X15899643Y-13881452D01*
X15899643Y-13881452D02*
X15890119Y-13833833D01*
X15890119Y-13833833D02*
X15890119Y-13795738D01*
X15890119Y-13795738D02*
X15899643Y-13748119D01*
X15899643Y-13748119D02*
X15909167Y-13719548D01*
X15909167Y-13719548D02*
X15918691Y-13700500D01*
X15918691Y-13700500D02*
X15937738Y-13671928D01*
X15937738Y-13671928D02*
X15947262Y-13662405D01*
X16013929Y-13710024D02*
X16023452Y-13700500D01*
X16023452Y-13700500D02*
X16042500Y-13690976D01*
X16042500Y-13690976D02*
X16090119Y-13690976D01*
X16090119Y-13690976D02*
X16109167Y-13700500D01*
X16109167Y-13700500D02*
X16118691Y-13710024D01*
X16118691Y-13710024D02*
X16128214Y-13729071D01*
X16128214Y-13729071D02*
X16128214Y-13748119D01*
X16128214Y-13748119D02*
X16118691Y-13776690D01*
X16118691Y-13776690D02*
X16004405Y-13890976D01*
X16004405Y-13890976D02*
X16128214Y-13890976D01*
X16299643Y-13690976D02*
X16261548Y-13690976D01*
X16261548Y-13690976D02*
X16242500Y-13700500D01*
X16242500Y-13700500D02*
X16232976Y-13710024D01*
X16232976Y-13710024D02*
X16213929Y-13738595D01*
X16213929Y-13738595D02*
X16204405Y-13776690D01*
X16204405Y-13776690D02*
X16204405Y-13852881D01*
X16204405Y-13852881D02*
X16213929Y-13871928D01*
X16213929Y-13871928D02*
X16223452Y-13881452D01*
X16223452Y-13881452D02*
X16242500Y-13890976D01*
X16242500Y-13890976D02*
X16280595Y-13890976D01*
X16280595Y-13890976D02*
X16299643Y-13881452D01*
X16299643Y-13881452D02*
X16309167Y-13871928D01*
X16309167Y-13871928D02*
X16318691Y-13852881D01*
X16318691Y-13852881D02*
X16318691Y-13805262D01*
X16318691Y-13805262D02*
X16309167Y-13786214D01*
X16309167Y-13786214D02*
X16299643Y-13776690D01*
X16299643Y-13776690D02*
X16280595Y-13767167D01*
X16280595Y-13767167D02*
X16242500Y-13767167D01*
X16242500Y-13767167D02*
X16223452Y-13776690D01*
X16223452Y-13776690D02*
X16213929Y-13786214D01*
X16213929Y-13786214D02*
X16204405Y-13805262D01*
X16524405Y-13890976D02*
X16524405Y-13690976D01*
X16610119Y-13890976D02*
X16610119Y-13786214D01*
X16610119Y-13786214D02*
X16600595Y-13767167D01*
X16600595Y-13767167D02*
X16581548Y-13757643D01*
X16581548Y-13757643D02*
X16552976Y-13757643D01*
X16552976Y-13757643D02*
X16533929Y-13767167D01*
X16533929Y-13767167D02*
X16524405Y-13776690D01*
X16733929Y-13890976D02*
X16714881Y-13881452D01*
X16714881Y-13881452D02*
X16705357Y-13871928D01*
X16705357Y-13871928D02*
X16695833Y-13852881D01*
X16695833Y-13852881D02*
X16695833Y-13795738D01*
X16695833Y-13795738D02*
X16705357Y-13776690D01*
X16705357Y-13776690D02*
X16714881Y-13767167D01*
X16714881Y-13767167D02*
X16733929Y-13757643D01*
X16733929Y-13757643D02*
X16762500Y-13757643D01*
X16762500Y-13757643D02*
X16781548Y-13767167D01*
X16781548Y-13767167D02*
X16791072Y-13776690D01*
X16791072Y-13776690D02*
X16800595Y-13795738D01*
X16800595Y-13795738D02*
X16800595Y-13852881D01*
X16800595Y-13852881D02*
X16791072Y-13871928D01*
X16791072Y-13871928D02*
X16781548Y-13881452D01*
X16781548Y-13881452D02*
X16762500Y-13890976D01*
X16762500Y-13890976D02*
X16733929Y-13890976D01*
X16914881Y-13890976D02*
X16895834Y-13881452D01*
X16895834Y-13881452D02*
X16886310Y-13862405D01*
X16886310Y-13862405D02*
X16886310Y-13690976D01*
X17067262Y-13881452D02*
X17048215Y-13890976D01*
X17048215Y-13890976D02*
X17010119Y-13890976D01*
X17010119Y-13890976D02*
X16991072Y-13881452D01*
X16991072Y-13881452D02*
X16981548Y-13862405D01*
X16981548Y-13862405D02*
X16981548Y-13786214D01*
X16981548Y-13786214D02*
X16991072Y-13767167D01*
X16991072Y-13767167D02*
X17010119Y-13757643D01*
X17010119Y-13757643D02*
X17048215Y-13757643D01*
X17048215Y-13757643D02*
X17067262Y-13767167D01*
X17067262Y-13767167D02*
X17076786Y-13786214D01*
X17076786Y-13786214D02*
X17076786Y-13805262D01*
X17076786Y-13805262D02*
X16981548Y-13824309D01*
X17152976Y-13881452D02*
X17172024Y-13890976D01*
X17172024Y-13890976D02*
X17210119Y-13890976D01*
X17210119Y-13890976D02*
X17229167Y-13881452D01*
X17229167Y-13881452D02*
X17238691Y-13862405D01*
X17238691Y-13862405D02*
X17238691Y-13852881D01*
X17238691Y-13852881D02*
X17229167Y-13833833D01*
X17229167Y-13833833D02*
X17210119Y-13824309D01*
X17210119Y-13824309D02*
X17181548Y-13824309D01*
X17181548Y-13824309D02*
X17162500Y-13814786D01*
X17162500Y-13814786D02*
X17152976Y-13795738D01*
X17152976Y-13795738D02*
X17152976Y-13786214D01*
X17152976Y-13786214D02*
X17162500Y-13767167D01*
X17162500Y-13767167D02*
X17181548Y-13757643D01*
X17181548Y-13757643D02*
X17210119Y-13757643D01*
X17210119Y-13757643D02*
X17229167Y-13767167D01*
X17305357Y-13967167D02*
X17314881Y-13957643D01*
X17314881Y-13957643D02*
X17333929Y-13929071D01*
X17333929Y-13929071D02*
X17343453Y-13910024D01*
X17343453Y-13910024D02*
X17352976Y-13881452D01*
X17352976Y-13881452D02*
X17362500Y-13833833D01*
X17362500Y-13833833D02*
X17362500Y-13795738D01*
X17362500Y-13795738D02*
X17352976Y-13748119D01*
X17352976Y-13748119D02*
X17343453Y-13719548D01*
X17343453Y-13719548D02*
X17333929Y-13700500D01*
X17333929Y-13700500D02*
X17314881Y-13671928D01*
X17314881Y-13671928D02*
X17305357Y-13662405D01*
D13*
X12482500Y-14081500D02*
G75*
G03*
X12482500Y-14081500I-37500J0D01*
G01*
D11*
X12768214Y-13954976D02*
X12787262Y-13954976D01*
X12787262Y-13954976D02*
X12806309Y-13964500D01*
X12806309Y-13964500D02*
X12815833Y-13974024D01*
X12815833Y-13974024D02*
X12825357Y-13993071D01*
X12825357Y-13993071D02*
X12834881Y-14031167D01*
X12834881Y-14031167D02*
X12834881Y-14078786D01*
X12834881Y-14078786D02*
X12825357Y-14116881D01*
X12825357Y-14116881D02*
X12815833Y-14135928D01*
X12815833Y-14135928D02*
X12806309Y-14145452D01*
X12806309Y-14145452D02*
X12787262Y-14154976D01*
X12787262Y-14154976D02*
X12768214Y-14154976D01*
X12768214Y-14154976D02*
X12749167Y-14145452D01*
X12749167Y-14145452D02*
X12739643Y-14135928D01*
X12739643Y-14135928D02*
X12730119Y-14116881D01*
X12730119Y-14116881D02*
X12720595Y-14078786D01*
X12720595Y-14078786D02*
X12720595Y-14031167D01*
X12720595Y-14031167D02*
X12730119Y-13993071D01*
X12730119Y-13993071D02*
X12739643Y-13974024D01*
X12739643Y-13974024D02*
X12749167Y-13964500D01*
X12749167Y-13964500D02*
X12768214Y-13954976D01*
X12920595Y-14135928D02*
X12930119Y-14145452D01*
X12930119Y-14145452D02*
X12920595Y-14154976D01*
X12920595Y-14154976D02*
X12911071Y-14145452D01*
X12911071Y-14145452D02*
X12920595Y-14135928D01*
X12920595Y-14135928D02*
X12920595Y-14154976D01*
X12996786Y-13954976D02*
X13130119Y-13954976D01*
X13130119Y-13954976D02*
X13044405Y-14154976D01*
X13301548Y-13954976D02*
X13206309Y-13954976D01*
X13206309Y-13954976D02*
X13196786Y-14050214D01*
X13196786Y-14050214D02*
X13206309Y-14040690D01*
X13206309Y-14040690D02*
X13225357Y-14031167D01*
X13225357Y-14031167D02*
X13272976Y-14031167D01*
X13272976Y-14031167D02*
X13292024Y-14040690D01*
X13292024Y-14040690D02*
X13301548Y-14050214D01*
X13301548Y-14050214D02*
X13311071Y-14069262D01*
X13311071Y-14069262D02*
X13311071Y-14116881D01*
X13311071Y-14116881D02*
X13301548Y-14135928D01*
X13301548Y-14135928D02*
X13292024Y-14145452D01*
X13292024Y-14145452D02*
X13272976Y-14154976D01*
X13272976Y-14154976D02*
X13225357Y-14154976D01*
X13225357Y-14154976D02*
X13206309Y-14145452D01*
X13206309Y-14145452D02*
X13196786Y-14135928D01*
X13434881Y-13954976D02*
X13453929Y-13954976D01*
X13453929Y-13954976D02*
X13472976Y-13964500D01*
X13472976Y-13964500D02*
X13482500Y-13974024D01*
X13482500Y-13974024D02*
X13492024Y-13993071D01*
X13492024Y-13993071D02*
X13501548Y-14031167D01*
X13501548Y-14031167D02*
X13501548Y-14078786D01*
X13501548Y-14078786D02*
X13492024Y-14116881D01*
X13492024Y-14116881D02*
X13482500Y-14135928D01*
X13482500Y-14135928D02*
X13472976Y-14145452D01*
X13472976Y-14145452D02*
X13453929Y-14154976D01*
X13453929Y-14154976D02*
X13434881Y-14154976D01*
X13434881Y-14154976D02*
X13415833Y-14145452D01*
X13415833Y-14145452D02*
X13406309Y-14135928D01*
X13406309Y-14135928D02*
X13396786Y-14116881D01*
X13396786Y-14116881D02*
X13387262Y-14078786D01*
X13387262Y-14078786D02*
X13387262Y-14031167D01*
X13387262Y-14031167D02*
X13396786Y-13993071D01*
X13396786Y-13993071D02*
X13406309Y-13974024D01*
X13406309Y-13974024D02*
X13415833Y-13964500D01*
X13415833Y-13964500D02*
X13434881Y-13954976D01*
X13587262Y-14154976D02*
X13587262Y-14021643D01*
X13587262Y-14040690D02*
X13596786Y-14031167D01*
X13596786Y-14031167D02*
X13615833Y-14021643D01*
X13615833Y-14021643D02*
X13644405Y-14021643D01*
X13644405Y-14021643D02*
X13663452Y-14031167D01*
X13663452Y-14031167D02*
X13672976Y-14050214D01*
X13672976Y-14050214D02*
X13672976Y-14154976D01*
X13672976Y-14050214D02*
X13682500Y-14031167D01*
X13682500Y-14031167D02*
X13701548Y-14021643D01*
X13701548Y-14021643D02*
X13730119Y-14021643D01*
X13730119Y-14021643D02*
X13749167Y-14031167D01*
X13749167Y-14031167D02*
X13758690Y-14050214D01*
X13758690Y-14050214D02*
X13758690Y-14154976D01*
X13853929Y-14154976D02*
X13853929Y-14021643D01*
X13853929Y-14040690D02*
X13863452Y-14031167D01*
X13863452Y-14031167D02*
X13882500Y-14021643D01*
X13882500Y-14021643D02*
X13911071Y-14021643D01*
X13911071Y-14021643D02*
X13930119Y-14031167D01*
X13930119Y-14031167D02*
X13939643Y-14050214D01*
X13939643Y-14050214D02*
X13939643Y-14154976D01*
X13939643Y-14050214D02*
X13949167Y-14031167D01*
X13949167Y-14031167D02*
X13968214Y-14021643D01*
X13968214Y-14021643D02*
X13996786Y-14021643D01*
X13996786Y-14021643D02*
X14015833Y-14031167D01*
X14015833Y-14031167D02*
X14025357Y-14050214D01*
X14025357Y-14050214D02*
X14025357Y-14154976D01*
X14383452Y-13945452D02*
X14212024Y-14202595D01*
X14608214Y-13954976D02*
X14627262Y-13954976D01*
X14627262Y-13954976D02*
X14646310Y-13964500D01*
X14646310Y-13964500D02*
X14655833Y-13974024D01*
X14655833Y-13974024D02*
X14665357Y-13993071D01*
X14665357Y-13993071D02*
X14674881Y-14031167D01*
X14674881Y-14031167D02*
X14674881Y-14078786D01*
X14674881Y-14078786D02*
X14665357Y-14116881D01*
X14665357Y-14116881D02*
X14655833Y-14135928D01*
X14655833Y-14135928D02*
X14646310Y-14145452D01*
X14646310Y-14145452D02*
X14627262Y-14154976D01*
X14627262Y-14154976D02*
X14608214Y-14154976D01*
X14608214Y-14154976D02*
X14589167Y-14145452D01*
X14589167Y-14145452D02*
X14579643Y-14135928D01*
X14579643Y-14135928D02*
X14570119Y-14116881D01*
X14570119Y-14116881D02*
X14560595Y-14078786D01*
X14560595Y-14078786D02*
X14560595Y-14031167D01*
X14560595Y-14031167D02*
X14570119Y-13993071D01*
X14570119Y-13993071D02*
X14579643Y-13974024D01*
X14579643Y-13974024D02*
X14589167Y-13964500D01*
X14589167Y-13964500D02*
X14608214Y-13954976D01*
X14760595Y-14135928D02*
X14770119Y-14145452D01*
X14770119Y-14145452D02*
X14760595Y-14154976D01*
X14760595Y-14154976D02*
X14751071Y-14145452D01*
X14751071Y-14145452D02*
X14760595Y-14135928D01*
X14760595Y-14135928D02*
X14760595Y-14154976D01*
X14893929Y-13954976D02*
X14912976Y-13954976D01*
X14912976Y-13954976D02*
X14932024Y-13964500D01*
X14932024Y-13964500D02*
X14941548Y-13974024D01*
X14941548Y-13974024D02*
X14951071Y-13993071D01*
X14951071Y-13993071D02*
X14960595Y-14031167D01*
X14960595Y-14031167D02*
X14960595Y-14078786D01*
X14960595Y-14078786D02*
X14951071Y-14116881D01*
X14951071Y-14116881D02*
X14941548Y-14135928D01*
X14941548Y-14135928D02*
X14932024Y-14145452D01*
X14932024Y-14145452D02*
X14912976Y-14154976D01*
X14912976Y-14154976D02*
X14893929Y-14154976D01*
X14893929Y-14154976D02*
X14874881Y-14145452D01*
X14874881Y-14145452D02*
X14865357Y-14135928D01*
X14865357Y-14135928D02*
X14855833Y-14116881D01*
X14855833Y-14116881D02*
X14846310Y-14078786D01*
X14846310Y-14078786D02*
X14846310Y-14031167D01*
X14846310Y-14031167D02*
X14855833Y-13993071D01*
X14855833Y-13993071D02*
X14865357Y-13974024D01*
X14865357Y-13974024D02*
X14874881Y-13964500D01*
X14874881Y-13964500D02*
X14893929Y-13954976D01*
X15036786Y-13974024D02*
X15046310Y-13964500D01*
X15046310Y-13964500D02*
X15065357Y-13954976D01*
X15065357Y-13954976D02*
X15112976Y-13954976D01*
X15112976Y-13954976D02*
X15132024Y-13964500D01*
X15132024Y-13964500D02*
X15141548Y-13974024D01*
X15141548Y-13974024D02*
X15151071Y-13993071D01*
X15151071Y-13993071D02*
X15151071Y-14012119D01*
X15151071Y-14012119D02*
X15141548Y-14040690D01*
X15141548Y-14040690D02*
X15027262Y-14154976D01*
X15027262Y-14154976D02*
X15151071Y-14154976D01*
X15246310Y-14154976D02*
X15284405Y-14154976D01*
X15284405Y-14154976D02*
X15303452Y-14145452D01*
X15303452Y-14145452D02*
X15312976Y-14135928D01*
X15312976Y-14135928D02*
X15332024Y-14107357D01*
X15332024Y-14107357D02*
X15341548Y-14069262D01*
X15341548Y-14069262D02*
X15341548Y-13993071D01*
X15341548Y-13993071D02*
X15332024Y-13974024D01*
X15332024Y-13974024D02*
X15322500Y-13964500D01*
X15322500Y-13964500D02*
X15303452Y-13954976D01*
X15303452Y-13954976D02*
X15265357Y-13954976D01*
X15265357Y-13954976D02*
X15246310Y-13964500D01*
X15246310Y-13964500D02*
X15236786Y-13974024D01*
X15236786Y-13974024D02*
X15227262Y-13993071D01*
X15227262Y-13993071D02*
X15227262Y-14040690D01*
X15227262Y-14040690D02*
X15236786Y-14059738D01*
X15236786Y-14059738D02*
X15246310Y-14069262D01*
X15246310Y-14069262D02*
X15265357Y-14078786D01*
X15265357Y-14078786D02*
X15303452Y-14078786D01*
X15303452Y-14078786D02*
X15322500Y-14069262D01*
X15322500Y-14069262D02*
X15332024Y-14059738D01*
X15332024Y-14059738D02*
X15341548Y-14040690D01*
X15522500Y-13954976D02*
X15427262Y-13954976D01*
X15427262Y-13954976D02*
X15417738Y-14050214D01*
X15417738Y-14050214D02*
X15427262Y-14040690D01*
X15427262Y-14040690D02*
X15446310Y-14031167D01*
X15446310Y-14031167D02*
X15493929Y-14031167D01*
X15493929Y-14031167D02*
X15512976Y-14040690D01*
X15512976Y-14040690D02*
X15522500Y-14050214D01*
X15522500Y-14050214D02*
X15532024Y-14069262D01*
X15532024Y-14069262D02*
X15532024Y-14116881D01*
X15532024Y-14116881D02*
X15522500Y-14135928D01*
X15522500Y-14135928D02*
X15512976Y-14145452D01*
X15512976Y-14145452D02*
X15493929Y-14154976D01*
X15493929Y-14154976D02*
X15446310Y-14154976D01*
X15446310Y-14154976D02*
X15427262Y-14145452D01*
X15427262Y-14145452D02*
X15417738Y-14135928D01*
X15608214Y-13954976D02*
X15608214Y-13993071D01*
X15684405Y-13954976D02*
X15684405Y-13993071D01*
X15947262Y-14231167D02*
X15937738Y-14221643D01*
X15937738Y-14221643D02*
X15918691Y-14193071D01*
X15918691Y-14193071D02*
X15909167Y-14174024D01*
X15909167Y-14174024D02*
X15899643Y-14145452D01*
X15899643Y-14145452D02*
X15890119Y-14097833D01*
X15890119Y-14097833D02*
X15890119Y-14059738D01*
X15890119Y-14059738D02*
X15899643Y-14012119D01*
X15899643Y-14012119D02*
X15909167Y-13983548D01*
X15909167Y-13983548D02*
X15918691Y-13964500D01*
X15918691Y-13964500D02*
X15937738Y-13935928D01*
X15937738Y-13935928D02*
X15947262Y-13926405D01*
X16013929Y-13974024D02*
X16023452Y-13964500D01*
X16023452Y-13964500D02*
X16042500Y-13954976D01*
X16042500Y-13954976D02*
X16090119Y-13954976D01*
X16090119Y-13954976D02*
X16109167Y-13964500D01*
X16109167Y-13964500D02*
X16118691Y-13974024D01*
X16118691Y-13974024D02*
X16128214Y-13993071D01*
X16128214Y-13993071D02*
X16128214Y-14012119D01*
X16128214Y-14012119D02*
X16118691Y-14040690D01*
X16118691Y-14040690D02*
X16004405Y-14154976D01*
X16004405Y-14154976D02*
X16128214Y-14154976D01*
X16194881Y-13954976D02*
X16318691Y-13954976D01*
X16318691Y-13954976D02*
X16252024Y-14031167D01*
X16252024Y-14031167D02*
X16280595Y-14031167D01*
X16280595Y-14031167D02*
X16299643Y-14040690D01*
X16299643Y-14040690D02*
X16309167Y-14050214D01*
X16309167Y-14050214D02*
X16318691Y-14069262D01*
X16318691Y-14069262D02*
X16318691Y-14116881D01*
X16318691Y-14116881D02*
X16309167Y-14135928D01*
X16309167Y-14135928D02*
X16299643Y-14145452D01*
X16299643Y-14145452D02*
X16280595Y-14154976D01*
X16280595Y-14154976D02*
X16223452Y-14154976D01*
X16223452Y-14154976D02*
X16204405Y-14145452D01*
X16204405Y-14145452D02*
X16194881Y-14135928D01*
X16524405Y-14154976D02*
X16524405Y-13954976D01*
X16610119Y-14154976D02*
X16610119Y-14050214D01*
X16610119Y-14050214D02*
X16600595Y-14031167D01*
X16600595Y-14031167D02*
X16581548Y-14021643D01*
X16581548Y-14021643D02*
X16552976Y-14021643D01*
X16552976Y-14021643D02*
X16533929Y-14031167D01*
X16533929Y-14031167D02*
X16524405Y-14040690D01*
X16733929Y-14154976D02*
X16714881Y-14145452D01*
X16714881Y-14145452D02*
X16705357Y-14135928D01*
X16705357Y-14135928D02*
X16695833Y-14116881D01*
X16695833Y-14116881D02*
X16695833Y-14059738D01*
X16695833Y-14059738D02*
X16705357Y-14040690D01*
X16705357Y-14040690D02*
X16714881Y-14031167D01*
X16714881Y-14031167D02*
X16733929Y-14021643D01*
X16733929Y-14021643D02*
X16762500Y-14021643D01*
X16762500Y-14021643D02*
X16781548Y-14031167D01*
X16781548Y-14031167D02*
X16791072Y-14040690D01*
X16791072Y-14040690D02*
X16800595Y-14059738D01*
X16800595Y-14059738D02*
X16800595Y-14116881D01*
X16800595Y-14116881D02*
X16791072Y-14135928D01*
X16791072Y-14135928D02*
X16781548Y-14145452D01*
X16781548Y-14145452D02*
X16762500Y-14154976D01*
X16762500Y-14154976D02*
X16733929Y-14154976D01*
X16914881Y-14154976D02*
X16895834Y-14145452D01*
X16895834Y-14145452D02*
X16886310Y-14126405D01*
X16886310Y-14126405D02*
X16886310Y-13954976D01*
X17067262Y-14145452D02*
X17048215Y-14154976D01*
X17048215Y-14154976D02*
X17010119Y-14154976D01*
X17010119Y-14154976D02*
X16991072Y-14145452D01*
X16991072Y-14145452D02*
X16981548Y-14126405D01*
X16981548Y-14126405D02*
X16981548Y-14050214D01*
X16981548Y-14050214D02*
X16991072Y-14031167D01*
X16991072Y-14031167D02*
X17010119Y-14021643D01*
X17010119Y-14021643D02*
X17048215Y-14021643D01*
X17048215Y-14021643D02*
X17067262Y-14031167D01*
X17067262Y-14031167D02*
X17076786Y-14050214D01*
X17076786Y-14050214D02*
X17076786Y-14069262D01*
X17076786Y-14069262D02*
X16981548Y-14088309D01*
X17152976Y-14145452D02*
X17172024Y-14154976D01*
X17172024Y-14154976D02*
X17210119Y-14154976D01*
X17210119Y-14154976D02*
X17229167Y-14145452D01*
X17229167Y-14145452D02*
X17238691Y-14126405D01*
X17238691Y-14126405D02*
X17238691Y-14116881D01*
X17238691Y-14116881D02*
X17229167Y-14097833D01*
X17229167Y-14097833D02*
X17210119Y-14088309D01*
X17210119Y-14088309D02*
X17181548Y-14088309D01*
X17181548Y-14088309D02*
X17162500Y-14078786D01*
X17162500Y-14078786D02*
X17152976Y-14059738D01*
X17152976Y-14059738D02*
X17152976Y-14050214D01*
X17152976Y-14050214D02*
X17162500Y-14031167D01*
X17162500Y-14031167D02*
X17181548Y-14021643D01*
X17181548Y-14021643D02*
X17210119Y-14021643D01*
X17210119Y-14021643D02*
X17229167Y-14031167D01*
X17305357Y-14231167D02*
X17314881Y-14221643D01*
X17314881Y-14221643D02*
X17333929Y-14193071D01*
X17333929Y-14193071D02*
X17343453Y-14174024D01*
X17343453Y-14174024D02*
X17352976Y-14145452D01*
X17352976Y-14145452D02*
X17362500Y-14097833D01*
X17362500Y-14097833D02*
X17362500Y-14059738D01*
X17362500Y-14059738D02*
X17352976Y-14012119D01*
X17352976Y-14012119D02*
X17343453Y-13983548D01*
X17343453Y-13983548D02*
X17333929Y-13964500D01*
X17333929Y-13964500D02*
X17314881Y-13935928D01*
X17314881Y-13935928D02*
X17305357Y-13926405D01*
D14*
X12442500Y-14305500D02*
X12442500Y-14385500D01*
X12402500Y-14345500D02*
X12482500Y-14345500D01*
D11*
X12768214Y-14218976D02*
X12787262Y-14218976D01*
X12787262Y-14218976D02*
X12806309Y-14228500D01*
X12806309Y-14228500D02*
X12815833Y-14238024D01*
X12815833Y-14238024D02*
X12825357Y-14257071D01*
X12825357Y-14257071D02*
X12834881Y-14295167D01*
X12834881Y-14295167D02*
X12834881Y-14342786D01*
X12834881Y-14342786D02*
X12825357Y-14380881D01*
X12825357Y-14380881D02*
X12815833Y-14399928D01*
X12815833Y-14399928D02*
X12806309Y-14409452D01*
X12806309Y-14409452D02*
X12787262Y-14418976D01*
X12787262Y-14418976D02*
X12768214Y-14418976D01*
X12768214Y-14418976D02*
X12749167Y-14409452D01*
X12749167Y-14409452D02*
X12739643Y-14399928D01*
X12739643Y-14399928D02*
X12730119Y-14380881D01*
X12730119Y-14380881D02*
X12720595Y-14342786D01*
X12720595Y-14342786D02*
X12720595Y-14295167D01*
X12720595Y-14295167D02*
X12730119Y-14257071D01*
X12730119Y-14257071D02*
X12739643Y-14238024D01*
X12739643Y-14238024D02*
X12749167Y-14228500D01*
X12749167Y-14228500D02*
X12768214Y-14218976D01*
X12920595Y-14399928D02*
X12930119Y-14409452D01*
X12930119Y-14409452D02*
X12920595Y-14418976D01*
X12920595Y-14418976D02*
X12911071Y-14409452D01*
X12911071Y-14409452D02*
X12920595Y-14399928D01*
X12920595Y-14399928D02*
X12920595Y-14418976D01*
X13044405Y-14304690D02*
X13025357Y-14295167D01*
X13025357Y-14295167D02*
X13015833Y-14285643D01*
X13015833Y-14285643D02*
X13006309Y-14266595D01*
X13006309Y-14266595D02*
X13006309Y-14257071D01*
X13006309Y-14257071D02*
X13015833Y-14238024D01*
X13015833Y-14238024D02*
X13025357Y-14228500D01*
X13025357Y-14228500D02*
X13044405Y-14218976D01*
X13044405Y-14218976D02*
X13082500Y-14218976D01*
X13082500Y-14218976D02*
X13101548Y-14228500D01*
X13101548Y-14228500D02*
X13111071Y-14238024D01*
X13111071Y-14238024D02*
X13120595Y-14257071D01*
X13120595Y-14257071D02*
X13120595Y-14266595D01*
X13120595Y-14266595D02*
X13111071Y-14285643D01*
X13111071Y-14285643D02*
X13101548Y-14295167D01*
X13101548Y-14295167D02*
X13082500Y-14304690D01*
X13082500Y-14304690D02*
X13044405Y-14304690D01*
X13044405Y-14304690D02*
X13025357Y-14314214D01*
X13025357Y-14314214D02*
X13015833Y-14323738D01*
X13015833Y-14323738D02*
X13006309Y-14342786D01*
X13006309Y-14342786D02*
X13006309Y-14380881D01*
X13006309Y-14380881D02*
X13015833Y-14399928D01*
X13015833Y-14399928D02*
X13025357Y-14409452D01*
X13025357Y-14409452D02*
X13044405Y-14418976D01*
X13044405Y-14418976D02*
X13082500Y-14418976D01*
X13082500Y-14418976D02*
X13101548Y-14409452D01*
X13101548Y-14409452D02*
X13111071Y-14399928D01*
X13111071Y-14399928D02*
X13120595Y-14380881D01*
X13120595Y-14380881D02*
X13120595Y-14342786D01*
X13120595Y-14342786D02*
X13111071Y-14323738D01*
X13111071Y-14323738D02*
X13101548Y-14314214D01*
X13101548Y-14314214D02*
X13082500Y-14304690D01*
X13244405Y-14218976D02*
X13263452Y-14218976D01*
X13263452Y-14218976D02*
X13282500Y-14228500D01*
X13282500Y-14228500D02*
X13292024Y-14238024D01*
X13292024Y-14238024D02*
X13301548Y-14257071D01*
X13301548Y-14257071D02*
X13311071Y-14295167D01*
X13311071Y-14295167D02*
X13311071Y-14342786D01*
X13311071Y-14342786D02*
X13301548Y-14380881D01*
X13301548Y-14380881D02*
X13292024Y-14399928D01*
X13292024Y-14399928D02*
X13282500Y-14409452D01*
X13282500Y-14409452D02*
X13263452Y-14418976D01*
X13263452Y-14418976D02*
X13244405Y-14418976D01*
X13244405Y-14418976D02*
X13225357Y-14409452D01*
X13225357Y-14409452D02*
X13215833Y-14399928D01*
X13215833Y-14399928D02*
X13206309Y-14380881D01*
X13206309Y-14380881D02*
X13196786Y-14342786D01*
X13196786Y-14342786D02*
X13196786Y-14295167D01*
X13196786Y-14295167D02*
X13206309Y-14257071D01*
X13206309Y-14257071D02*
X13215833Y-14238024D01*
X13215833Y-14238024D02*
X13225357Y-14228500D01*
X13225357Y-14228500D02*
X13244405Y-14218976D01*
X13434881Y-14218976D02*
X13453929Y-14218976D01*
X13453929Y-14218976D02*
X13472976Y-14228500D01*
X13472976Y-14228500D02*
X13482500Y-14238024D01*
X13482500Y-14238024D02*
X13492024Y-14257071D01*
X13492024Y-14257071D02*
X13501548Y-14295167D01*
X13501548Y-14295167D02*
X13501548Y-14342786D01*
X13501548Y-14342786D02*
X13492024Y-14380881D01*
X13492024Y-14380881D02*
X13482500Y-14399928D01*
X13482500Y-14399928D02*
X13472976Y-14409452D01*
X13472976Y-14409452D02*
X13453929Y-14418976D01*
X13453929Y-14418976D02*
X13434881Y-14418976D01*
X13434881Y-14418976D02*
X13415833Y-14409452D01*
X13415833Y-14409452D02*
X13406309Y-14399928D01*
X13406309Y-14399928D02*
X13396786Y-14380881D01*
X13396786Y-14380881D02*
X13387262Y-14342786D01*
X13387262Y-14342786D02*
X13387262Y-14295167D01*
X13387262Y-14295167D02*
X13396786Y-14257071D01*
X13396786Y-14257071D02*
X13406309Y-14238024D01*
X13406309Y-14238024D02*
X13415833Y-14228500D01*
X13415833Y-14228500D02*
X13434881Y-14218976D01*
X13587262Y-14418976D02*
X13587262Y-14285643D01*
X13587262Y-14304690D02*
X13596786Y-14295167D01*
X13596786Y-14295167D02*
X13615833Y-14285643D01*
X13615833Y-14285643D02*
X13644405Y-14285643D01*
X13644405Y-14285643D02*
X13663452Y-14295167D01*
X13663452Y-14295167D02*
X13672976Y-14314214D01*
X13672976Y-14314214D02*
X13672976Y-14418976D01*
X13672976Y-14314214D02*
X13682500Y-14295167D01*
X13682500Y-14295167D02*
X13701548Y-14285643D01*
X13701548Y-14285643D02*
X13730119Y-14285643D01*
X13730119Y-14285643D02*
X13749167Y-14295167D01*
X13749167Y-14295167D02*
X13758690Y-14314214D01*
X13758690Y-14314214D02*
X13758690Y-14418976D01*
X13853929Y-14418976D02*
X13853929Y-14285643D01*
X13853929Y-14304690D02*
X13863452Y-14295167D01*
X13863452Y-14295167D02*
X13882500Y-14285643D01*
X13882500Y-14285643D02*
X13911071Y-14285643D01*
X13911071Y-14285643D02*
X13930119Y-14295167D01*
X13930119Y-14295167D02*
X13939643Y-14314214D01*
X13939643Y-14314214D02*
X13939643Y-14418976D01*
X13939643Y-14314214D02*
X13949167Y-14295167D01*
X13949167Y-14295167D02*
X13968214Y-14285643D01*
X13968214Y-14285643D02*
X13996786Y-14285643D01*
X13996786Y-14285643D02*
X14015833Y-14295167D01*
X14015833Y-14295167D02*
X14025357Y-14314214D01*
X14025357Y-14314214D02*
X14025357Y-14418976D01*
X14383452Y-14209452D02*
X14212024Y-14466595D01*
X14608214Y-14218976D02*
X14627262Y-14218976D01*
X14627262Y-14218976D02*
X14646310Y-14228500D01*
X14646310Y-14228500D02*
X14655833Y-14238024D01*
X14655833Y-14238024D02*
X14665357Y-14257071D01*
X14665357Y-14257071D02*
X14674881Y-14295167D01*
X14674881Y-14295167D02*
X14674881Y-14342786D01*
X14674881Y-14342786D02*
X14665357Y-14380881D01*
X14665357Y-14380881D02*
X14655833Y-14399928D01*
X14655833Y-14399928D02*
X14646310Y-14409452D01*
X14646310Y-14409452D02*
X14627262Y-14418976D01*
X14627262Y-14418976D02*
X14608214Y-14418976D01*
X14608214Y-14418976D02*
X14589167Y-14409452D01*
X14589167Y-14409452D02*
X14579643Y-14399928D01*
X14579643Y-14399928D02*
X14570119Y-14380881D01*
X14570119Y-14380881D02*
X14560595Y-14342786D01*
X14560595Y-14342786D02*
X14560595Y-14295167D01*
X14560595Y-14295167D02*
X14570119Y-14257071D01*
X14570119Y-14257071D02*
X14579643Y-14238024D01*
X14579643Y-14238024D02*
X14589167Y-14228500D01*
X14589167Y-14228500D02*
X14608214Y-14218976D01*
X14760595Y-14399928D02*
X14770119Y-14409452D01*
X14770119Y-14409452D02*
X14760595Y-14418976D01*
X14760595Y-14418976D02*
X14751071Y-14409452D01*
X14751071Y-14409452D02*
X14760595Y-14399928D01*
X14760595Y-14399928D02*
X14760595Y-14418976D01*
X14893929Y-14218976D02*
X14912976Y-14218976D01*
X14912976Y-14218976D02*
X14932024Y-14228500D01*
X14932024Y-14228500D02*
X14941548Y-14238024D01*
X14941548Y-14238024D02*
X14951071Y-14257071D01*
X14951071Y-14257071D02*
X14960595Y-14295167D01*
X14960595Y-14295167D02*
X14960595Y-14342786D01*
X14960595Y-14342786D02*
X14951071Y-14380881D01*
X14951071Y-14380881D02*
X14941548Y-14399928D01*
X14941548Y-14399928D02*
X14932024Y-14409452D01*
X14932024Y-14409452D02*
X14912976Y-14418976D01*
X14912976Y-14418976D02*
X14893929Y-14418976D01*
X14893929Y-14418976D02*
X14874881Y-14409452D01*
X14874881Y-14409452D02*
X14865357Y-14399928D01*
X14865357Y-14399928D02*
X14855833Y-14380881D01*
X14855833Y-14380881D02*
X14846310Y-14342786D01*
X14846310Y-14342786D02*
X14846310Y-14295167D01*
X14846310Y-14295167D02*
X14855833Y-14257071D01*
X14855833Y-14257071D02*
X14865357Y-14238024D01*
X14865357Y-14238024D02*
X14874881Y-14228500D01*
X14874881Y-14228500D02*
X14893929Y-14218976D01*
X15027262Y-14218976D02*
X15151071Y-14218976D01*
X15151071Y-14218976D02*
X15084405Y-14295167D01*
X15084405Y-14295167D02*
X15112976Y-14295167D01*
X15112976Y-14295167D02*
X15132024Y-14304690D01*
X15132024Y-14304690D02*
X15141548Y-14314214D01*
X15141548Y-14314214D02*
X15151071Y-14333262D01*
X15151071Y-14333262D02*
X15151071Y-14380881D01*
X15151071Y-14380881D02*
X15141548Y-14399928D01*
X15141548Y-14399928D02*
X15132024Y-14409452D01*
X15132024Y-14409452D02*
X15112976Y-14418976D01*
X15112976Y-14418976D02*
X15055833Y-14418976D01*
X15055833Y-14418976D02*
X15036786Y-14409452D01*
X15036786Y-14409452D02*
X15027262Y-14399928D01*
X15341548Y-14418976D02*
X15227262Y-14418976D01*
X15284405Y-14418976D02*
X15284405Y-14218976D01*
X15284405Y-14218976D02*
X15265357Y-14247548D01*
X15265357Y-14247548D02*
X15246310Y-14266595D01*
X15246310Y-14266595D02*
X15227262Y-14276119D01*
X15522500Y-14218976D02*
X15427262Y-14218976D01*
X15427262Y-14218976D02*
X15417738Y-14314214D01*
X15417738Y-14314214D02*
X15427262Y-14304690D01*
X15427262Y-14304690D02*
X15446310Y-14295167D01*
X15446310Y-14295167D02*
X15493929Y-14295167D01*
X15493929Y-14295167D02*
X15512976Y-14304690D01*
X15512976Y-14304690D02*
X15522500Y-14314214D01*
X15522500Y-14314214D02*
X15532024Y-14333262D01*
X15532024Y-14333262D02*
X15532024Y-14380881D01*
X15532024Y-14380881D02*
X15522500Y-14399928D01*
X15522500Y-14399928D02*
X15512976Y-14409452D01*
X15512976Y-14409452D02*
X15493929Y-14418976D01*
X15493929Y-14418976D02*
X15446310Y-14418976D01*
X15446310Y-14418976D02*
X15427262Y-14409452D01*
X15427262Y-14409452D02*
X15417738Y-14399928D01*
X15608214Y-14218976D02*
X15608214Y-14257071D01*
X15684405Y-14218976D02*
X15684405Y-14257071D01*
X15947262Y-14495167D02*
X15937738Y-14485643D01*
X15937738Y-14485643D02*
X15918691Y-14457071D01*
X15918691Y-14457071D02*
X15909167Y-14438024D01*
X15909167Y-14438024D02*
X15899643Y-14409452D01*
X15899643Y-14409452D02*
X15890119Y-14361833D01*
X15890119Y-14361833D02*
X15890119Y-14323738D01*
X15890119Y-14323738D02*
X15899643Y-14276119D01*
X15899643Y-14276119D02*
X15909167Y-14247548D01*
X15909167Y-14247548D02*
X15918691Y-14228500D01*
X15918691Y-14228500D02*
X15937738Y-14199928D01*
X15937738Y-14199928D02*
X15947262Y-14190405D01*
X16052024Y-14304690D02*
X16032976Y-14295167D01*
X16032976Y-14295167D02*
X16023452Y-14285643D01*
X16023452Y-14285643D02*
X16013929Y-14266595D01*
X16013929Y-14266595D02*
X16013929Y-14257071D01*
X16013929Y-14257071D02*
X16023452Y-14238024D01*
X16023452Y-14238024D02*
X16032976Y-14228500D01*
X16032976Y-14228500D02*
X16052024Y-14218976D01*
X16052024Y-14218976D02*
X16090119Y-14218976D01*
X16090119Y-14218976D02*
X16109167Y-14228500D01*
X16109167Y-14228500D02*
X16118691Y-14238024D01*
X16118691Y-14238024D02*
X16128214Y-14257071D01*
X16128214Y-14257071D02*
X16128214Y-14266595D01*
X16128214Y-14266595D02*
X16118691Y-14285643D01*
X16118691Y-14285643D02*
X16109167Y-14295167D01*
X16109167Y-14295167D02*
X16090119Y-14304690D01*
X16090119Y-14304690D02*
X16052024Y-14304690D01*
X16052024Y-14304690D02*
X16032976Y-14314214D01*
X16032976Y-14314214D02*
X16023452Y-14323738D01*
X16023452Y-14323738D02*
X16013929Y-14342786D01*
X16013929Y-14342786D02*
X16013929Y-14380881D01*
X16013929Y-14380881D02*
X16023452Y-14399928D01*
X16023452Y-14399928D02*
X16032976Y-14409452D01*
X16032976Y-14409452D02*
X16052024Y-14418976D01*
X16052024Y-14418976D02*
X16090119Y-14418976D01*
X16090119Y-14418976D02*
X16109167Y-14409452D01*
X16109167Y-14409452D02*
X16118691Y-14399928D01*
X16118691Y-14399928D02*
X16128214Y-14380881D01*
X16128214Y-14380881D02*
X16128214Y-14342786D01*
X16128214Y-14342786D02*
X16118691Y-14323738D01*
X16118691Y-14323738D02*
X16109167Y-14314214D01*
X16109167Y-14314214D02*
X16090119Y-14304690D01*
X16333929Y-14418976D02*
X16333929Y-14218976D01*
X16419643Y-14418976D02*
X16419643Y-14314214D01*
X16419643Y-14314214D02*
X16410119Y-14295167D01*
X16410119Y-14295167D02*
X16391072Y-14285643D01*
X16391072Y-14285643D02*
X16362500Y-14285643D01*
X16362500Y-14285643D02*
X16343452Y-14295167D01*
X16343452Y-14295167D02*
X16333929Y-14304690D01*
X16543452Y-14418976D02*
X16524405Y-14409452D01*
X16524405Y-14409452D02*
X16514881Y-14399928D01*
X16514881Y-14399928D02*
X16505357Y-14380881D01*
X16505357Y-14380881D02*
X16505357Y-14323738D01*
X16505357Y-14323738D02*
X16514881Y-14304690D01*
X16514881Y-14304690D02*
X16524405Y-14295167D01*
X16524405Y-14295167D02*
X16543452Y-14285643D01*
X16543452Y-14285643D02*
X16572024Y-14285643D01*
X16572024Y-14285643D02*
X16591072Y-14295167D01*
X16591072Y-14295167D02*
X16600595Y-14304690D01*
X16600595Y-14304690D02*
X16610119Y-14323738D01*
X16610119Y-14323738D02*
X16610119Y-14380881D01*
X16610119Y-14380881D02*
X16600595Y-14399928D01*
X16600595Y-14399928D02*
X16591072Y-14409452D01*
X16591072Y-14409452D02*
X16572024Y-14418976D01*
X16572024Y-14418976D02*
X16543452Y-14418976D01*
X16724405Y-14418976D02*
X16705357Y-14409452D01*
X16705357Y-14409452D02*
X16695833Y-14390405D01*
X16695833Y-14390405D02*
X16695833Y-14218976D01*
X16876786Y-14409452D02*
X16857738Y-14418976D01*
X16857738Y-14418976D02*
X16819643Y-14418976D01*
X16819643Y-14418976D02*
X16800595Y-14409452D01*
X16800595Y-14409452D02*
X16791072Y-14390405D01*
X16791072Y-14390405D02*
X16791072Y-14314214D01*
X16791072Y-14314214D02*
X16800595Y-14295167D01*
X16800595Y-14295167D02*
X16819643Y-14285643D01*
X16819643Y-14285643D02*
X16857738Y-14285643D01*
X16857738Y-14285643D02*
X16876786Y-14295167D01*
X16876786Y-14295167D02*
X16886310Y-14314214D01*
X16886310Y-14314214D02*
X16886310Y-14333262D01*
X16886310Y-14333262D02*
X16791072Y-14352309D01*
X16962500Y-14409452D02*
X16981548Y-14418976D01*
X16981548Y-14418976D02*
X17019643Y-14418976D01*
X17019643Y-14418976D02*
X17038691Y-14409452D01*
X17038691Y-14409452D02*
X17048215Y-14390405D01*
X17048215Y-14390405D02*
X17048215Y-14380881D01*
X17048215Y-14380881D02*
X17038691Y-14361833D01*
X17038691Y-14361833D02*
X17019643Y-14352309D01*
X17019643Y-14352309D02*
X16991072Y-14352309D01*
X16991072Y-14352309D02*
X16972024Y-14342786D01*
X16972024Y-14342786D02*
X16962500Y-14323738D01*
X16962500Y-14323738D02*
X16962500Y-14314214D01*
X16962500Y-14314214D02*
X16972024Y-14295167D01*
X16972024Y-14295167D02*
X16991072Y-14285643D01*
X16991072Y-14285643D02*
X17019643Y-14285643D01*
X17019643Y-14285643D02*
X17038691Y-14295167D01*
X17114881Y-14495167D02*
X17124405Y-14485643D01*
X17124405Y-14485643D02*
X17143453Y-14457071D01*
X17143453Y-14457071D02*
X17152976Y-14438024D01*
X17152976Y-14438024D02*
X17162500Y-14409452D01*
X17162500Y-14409452D02*
X17172024Y-14361833D01*
X17172024Y-14361833D02*
X17172024Y-14323738D01*
X17172024Y-14323738D02*
X17162500Y-14276119D01*
X17162500Y-14276119D02*
X17152976Y-14247548D01*
X17152976Y-14247548D02*
X17143453Y-14228500D01*
X17143453Y-14228500D02*
X17124405Y-14199928D01*
X17124405Y-14199928D02*
X17114881Y-14190405D01*
D10*
X12467856Y-14644856D02*
X12467856Y-14574144D01*
X12397144Y-14574144D01*
X12397144Y-14644856D01*
X12467856Y-14644856D01*
D11*
X12834881Y-14682976D02*
X12720595Y-14682976D01*
X12777738Y-14682976D02*
X12777738Y-14482976D01*
X12777738Y-14482976D02*
X12758690Y-14511548D01*
X12758690Y-14511548D02*
X12739643Y-14530595D01*
X12739643Y-14530595D02*
X12720595Y-14540119D01*
X12920595Y-14663928D02*
X12930119Y-14673452D01*
X12930119Y-14673452D02*
X12920595Y-14682976D01*
X12920595Y-14682976D02*
X12911071Y-14673452D01*
X12911071Y-14673452D02*
X12920595Y-14663928D01*
X12920595Y-14663928D02*
X12920595Y-14682976D01*
X13053928Y-14482976D02*
X13072976Y-14482976D01*
X13072976Y-14482976D02*
X13092024Y-14492500D01*
X13092024Y-14492500D02*
X13101548Y-14502024D01*
X13101548Y-14502024D02*
X13111071Y-14521071D01*
X13111071Y-14521071D02*
X13120595Y-14559167D01*
X13120595Y-14559167D02*
X13120595Y-14606786D01*
X13120595Y-14606786D02*
X13111071Y-14644881D01*
X13111071Y-14644881D02*
X13101548Y-14663928D01*
X13101548Y-14663928D02*
X13092024Y-14673452D01*
X13092024Y-14673452D02*
X13072976Y-14682976D01*
X13072976Y-14682976D02*
X13053928Y-14682976D01*
X13053928Y-14682976D02*
X13034881Y-14673452D01*
X13034881Y-14673452D02*
X13025357Y-14663928D01*
X13025357Y-14663928D02*
X13015833Y-14644881D01*
X13015833Y-14644881D02*
X13006309Y-14606786D01*
X13006309Y-14606786D02*
X13006309Y-14559167D01*
X13006309Y-14559167D02*
X13015833Y-14521071D01*
X13015833Y-14521071D02*
X13025357Y-14502024D01*
X13025357Y-14502024D02*
X13034881Y-14492500D01*
X13034881Y-14492500D02*
X13053928Y-14482976D01*
X13244405Y-14482976D02*
X13263452Y-14482976D01*
X13263452Y-14482976D02*
X13282500Y-14492500D01*
X13282500Y-14492500D02*
X13292024Y-14502024D01*
X13292024Y-14502024D02*
X13301548Y-14521071D01*
X13301548Y-14521071D02*
X13311071Y-14559167D01*
X13311071Y-14559167D02*
X13311071Y-14606786D01*
X13311071Y-14606786D02*
X13301548Y-14644881D01*
X13301548Y-14644881D02*
X13292024Y-14663928D01*
X13292024Y-14663928D02*
X13282500Y-14673452D01*
X13282500Y-14673452D02*
X13263452Y-14682976D01*
X13263452Y-14682976D02*
X13244405Y-14682976D01*
X13244405Y-14682976D02*
X13225357Y-14673452D01*
X13225357Y-14673452D02*
X13215833Y-14663928D01*
X13215833Y-14663928D02*
X13206309Y-14644881D01*
X13206309Y-14644881D02*
X13196786Y-14606786D01*
X13196786Y-14606786D02*
X13196786Y-14559167D01*
X13196786Y-14559167D02*
X13206309Y-14521071D01*
X13206309Y-14521071D02*
X13215833Y-14502024D01*
X13215833Y-14502024D02*
X13225357Y-14492500D01*
X13225357Y-14492500D02*
X13244405Y-14482976D01*
X13434881Y-14482976D02*
X13453929Y-14482976D01*
X13453929Y-14482976D02*
X13472976Y-14492500D01*
X13472976Y-14492500D02*
X13482500Y-14502024D01*
X13482500Y-14502024D02*
X13492024Y-14521071D01*
X13492024Y-14521071D02*
X13501548Y-14559167D01*
X13501548Y-14559167D02*
X13501548Y-14606786D01*
X13501548Y-14606786D02*
X13492024Y-14644881D01*
X13492024Y-14644881D02*
X13482500Y-14663928D01*
X13482500Y-14663928D02*
X13472976Y-14673452D01*
X13472976Y-14673452D02*
X13453929Y-14682976D01*
X13453929Y-14682976D02*
X13434881Y-14682976D01*
X13434881Y-14682976D02*
X13415833Y-14673452D01*
X13415833Y-14673452D02*
X13406309Y-14663928D01*
X13406309Y-14663928D02*
X13396786Y-14644881D01*
X13396786Y-14644881D02*
X13387262Y-14606786D01*
X13387262Y-14606786D02*
X13387262Y-14559167D01*
X13387262Y-14559167D02*
X13396786Y-14521071D01*
X13396786Y-14521071D02*
X13406309Y-14502024D01*
X13406309Y-14502024D02*
X13415833Y-14492500D01*
X13415833Y-14492500D02*
X13434881Y-14482976D01*
X13587262Y-14682976D02*
X13587262Y-14549643D01*
X13587262Y-14568690D02*
X13596786Y-14559167D01*
X13596786Y-14559167D02*
X13615833Y-14549643D01*
X13615833Y-14549643D02*
X13644405Y-14549643D01*
X13644405Y-14549643D02*
X13663452Y-14559167D01*
X13663452Y-14559167D02*
X13672976Y-14578214D01*
X13672976Y-14578214D02*
X13672976Y-14682976D01*
X13672976Y-14578214D02*
X13682500Y-14559167D01*
X13682500Y-14559167D02*
X13701548Y-14549643D01*
X13701548Y-14549643D02*
X13730119Y-14549643D01*
X13730119Y-14549643D02*
X13749167Y-14559167D01*
X13749167Y-14559167D02*
X13758690Y-14578214D01*
X13758690Y-14578214D02*
X13758690Y-14682976D01*
X13853929Y-14682976D02*
X13853929Y-14549643D01*
X13853929Y-14568690D02*
X13863452Y-14559167D01*
X13863452Y-14559167D02*
X13882500Y-14549643D01*
X13882500Y-14549643D02*
X13911071Y-14549643D01*
X13911071Y-14549643D02*
X13930119Y-14559167D01*
X13930119Y-14559167D02*
X13939643Y-14578214D01*
X13939643Y-14578214D02*
X13939643Y-14682976D01*
X13939643Y-14578214D02*
X13949167Y-14559167D01*
X13949167Y-14559167D02*
X13968214Y-14549643D01*
X13968214Y-14549643D02*
X13996786Y-14549643D01*
X13996786Y-14549643D02*
X14015833Y-14559167D01*
X14015833Y-14559167D02*
X14025357Y-14578214D01*
X14025357Y-14578214D02*
X14025357Y-14682976D01*
X14383452Y-14473452D02*
X14212024Y-14730595D01*
X14608214Y-14482976D02*
X14627262Y-14482976D01*
X14627262Y-14482976D02*
X14646310Y-14492500D01*
X14646310Y-14492500D02*
X14655833Y-14502024D01*
X14655833Y-14502024D02*
X14665357Y-14521071D01*
X14665357Y-14521071D02*
X14674881Y-14559167D01*
X14674881Y-14559167D02*
X14674881Y-14606786D01*
X14674881Y-14606786D02*
X14665357Y-14644881D01*
X14665357Y-14644881D02*
X14655833Y-14663928D01*
X14655833Y-14663928D02*
X14646310Y-14673452D01*
X14646310Y-14673452D02*
X14627262Y-14682976D01*
X14627262Y-14682976D02*
X14608214Y-14682976D01*
X14608214Y-14682976D02*
X14589167Y-14673452D01*
X14589167Y-14673452D02*
X14579643Y-14663928D01*
X14579643Y-14663928D02*
X14570119Y-14644881D01*
X14570119Y-14644881D02*
X14560595Y-14606786D01*
X14560595Y-14606786D02*
X14560595Y-14559167D01*
X14560595Y-14559167D02*
X14570119Y-14521071D01*
X14570119Y-14521071D02*
X14579643Y-14502024D01*
X14579643Y-14502024D02*
X14589167Y-14492500D01*
X14589167Y-14492500D02*
X14608214Y-14482976D01*
X14760595Y-14663928D02*
X14770119Y-14673452D01*
X14770119Y-14673452D02*
X14760595Y-14682976D01*
X14760595Y-14682976D02*
X14751071Y-14673452D01*
X14751071Y-14673452D02*
X14760595Y-14663928D01*
X14760595Y-14663928D02*
X14760595Y-14682976D01*
X14893929Y-14482976D02*
X14912976Y-14482976D01*
X14912976Y-14482976D02*
X14932024Y-14492500D01*
X14932024Y-14492500D02*
X14941548Y-14502024D01*
X14941548Y-14502024D02*
X14951071Y-14521071D01*
X14951071Y-14521071D02*
X14960595Y-14559167D01*
X14960595Y-14559167D02*
X14960595Y-14606786D01*
X14960595Y-14606786D02*
X14951071Y-14644881D01*
X14951071Y-14644881D02*
X14941548Y-14663928D01*
X14941548Y-14663928D02*
X14932024Y-14673452D01*
X14932024Y-14673452D02*
X14912976Y-14682976D01*
X14912976Y-14682976D02*
X14893929Y-14682976D01*
X14893929Y-14682976D02*
X14874881Y-14673452D01*
X14874881Y-14673452D02*
X14865357Y-14663928D01*
X14865357Y-14663928D02*
X14855833Y-14644881D01*
X14855833Y-14644881D02*
X14846310Y-14606786D01*
X14846310Y-14606786D02*
X14846310Y-14559167D01*
X14846310Y-14559167D02*
X14855833Y-14521071D01*
X14855833Y-14521071D02*
X14865357Y-14502024D01*
X14865357Y-14502024D02*
X14874881Y-14492500D01*
X14874881Y-14492500D02*
X14893929Y-14482976D01*
X15027262Y-14482976D02*
X15151071Y-14482976D01*
X15151071Y-14482976D02*
X15084405Y-14559167D01*
X15084405Y-14559167D02*
X15112976Y-14559167D01*
X15112976Y-14559167D02*
X15132024Y-14568690D01*
X15132024Y-14568690D02*
X15141548Y-14578214D01*
X15141548Y-14578214D02*
X15151071Y-14597262D01*
X15151071Y-14597262D02*
X15151071Y-14644881D01*
X15151071Y-14644881D02*
X15141548Y-14663928D01*
X15141548Y-14663928D02*
X15132024Y-14673452D01*
X15132024Y-14673452D02*
X15112976Y-14682976D01*
X15112976Y-14682976D02*
X15055833Y-14682976D01*
X15055833Y-14682976D02*
X15036786Y-14673452D01*
X15036786Y-14673452D02*
X15027262Y-14663928D01*
X15246310Y-14682976D02*
X15284405Y-14682976D01*
X15284405Y-14682976D02*
X15303452Y-14673452D01*
X15303452Y-14673452D02*
X15312976Y-14663928D01*
X15312976Y-14663928D02*
X15332024Y-14635357D01*
X15332024Y-14635357D02*
X15341548Y-14597262D01*
X15341548Y-14597262D02*
X15341548Y-14521071D01*
X15341548Y-14521071D02*
X15332024Y-14502024D01*
X15332024Y-14502024D02*
X15322500Y-14492500D01*
X15322500Y-14492500D02*
X15303452Y-14482976D01*
X15303452Y-14482976D02*
X15265357Y-14482976D01*
X15265357Y-14482976D02*
X15246310Y-14492500D01*
X15246310Y-14492500D02*
X15236786Y-14502024D01*
X15236786Y-14502024D02*
X15227262Y-14521071D01*
X15227262Y-14521071D02*
X15227262Y-14568690D01*
X15227262Y-14568690D02*
X15236786Y-14587738D01*
X15236786Y-14587738D02*
X15246310Y-14597262D01*
X15246310Y-14597262D02*
X15265357Y-14606786D01*
X15265357Y-14606786D02*
X15303452Y-14606786D01*
X15303452Y-14606786D02*
X15322500Y-14597262D01*
X15322500Y-14597262D02*
X15332024Y-14587738D01*
X15332024Y-14587738D02*
X15341548Y-14568690D01*
X15512976Y-14549643D02*
X15512976Y-14682976D01*
X15465357Y-14473452D02*
X15417738Y-14616309D01*
X15417738Y-14616309D02*
X15541548Y-14616309D01*
X15608214Y-14482976D02*
X15608214Y-14521071D01*
X15684405Y-14482976D02*
X15684405Y-14521071D01*
X15947262Y-14759167D02*
X15937738Y-14749643D01*
X15937738Y-14749643D02*
X15918691Y-14721071D01*
X15918691Y-14721071D02*
X15909167Y-14702024D01*
X15909167Y-14702024D02*
X15899643Y-14673452D01*
X15899643Y-14673452D02*
X15890119Y-14625833D01*
X15890119Y-14625833D02*
X15890119Y-14587738D01*
X15890119Y-14587738D02*
X15899643Y-14540119D01*
X15899643Y-14540119D02*
X15909167Y-14511548D01*
X15909167Y-14511548D02*
X15918691Y-14492500D01*
X15918691Y-14492500D02*
X15937738Y-14463928D01*
X15937738Y-14463928D02*
X15947262Y-14454405D01*
X16128214Y-14682976D02*
X16013929Y-14682976D01*
X16071071Y-14682976D02*
X16071071Y-14482976D01*
X16071071Y-14482976D02*
X16052024Y-14511548D01*
X16052024Y-14511548D02*
X16032976Y-14530595D01*
X16032976Y-14530595D02*
X16013929Y-14540119D01*
X16299643Y-14482976D02*
X16261548Y-14482976D01*
X16261548Y-14482976D02*
X16242500Y-14492500D01*
X16242500Y-14492500D02*
X16232976Y-14502024D01*
X16232976Y-14502024D02*
X16213929Y-14530595D01*
X16213929Y-14530595D02*
X16204405Y-14568690D01*
X16204405Y-14568690D02*
X16204405Y-14644881D01*
X16204405Y-14644881D02*
X16213929Y-14663928D01*
X16213929Y-14663928D02*
X16223452Y-14673452D01*
X16223452Y-14673452D02*
X16242500Y-14682976D01*
X16242500Y-14682976D02*
X16280595Y-14682976D01*
X16280595Y-14682976D02*
X16299643Y-14673452D01*
X16299643Y-14673452D02*
X16309167Y-14663928D01*
X16309167Y-14663928D02*
X16318691Y-14644881D01*
X16318691Y-14644881D02*
X16318691Y-14597262D01*
X16318691Y-14597262D02*
X16309167Y-14578214D01*
X16309167Y-14578214D02*
X16299643Y-14568690D01*
X16299643Y-14568690D02*
X16280595Y-14559167D01*
X16280595Y-14559167D02*
X16242500Y-14559167D01*
X16242500Y-14559167D02*
X16223452Y-14568690D01*
X16223452Y-14568690D02*
X16213929Y-14578214D01*
X16213929Y-14578214D02*
X16204405Y-14597262D01*
X16524405Y-14682976D02*
X16524405Y-14482976D01*
X16610119Y-14682976D02*
X16610119Y-14578214D01*
X16610119Y-14578214D02*
X16600595Y-14559167D01*
X16600595Y-14559167D02*
X16581548Y-14549643D01*
X16581548Y-14549643D02*
X16552976Y-14549643D01*
X16552976Y-14549643D02*
X16533929Y-14559167D01*
X16533929Y-14559167D02*
X16524405Y-14568690D01*
X16733929Y-14682976D02*
X16714881Y-14673452D01*
X16714881Y-14673452D02*
X16705357Y-14663928D01*
X16705357Y-14663928D02*
X16695833Y-14644881D01*
X16695833Y-14644881D02*
X16695833Y-14587738D01*
X16695833Y-14587738D02*
X16705357Y-14568690D01*
X16705357Y-14568690D02*
X16714881Y-14559167D01*
X16714881Y-14559167D02*
X16733929Y-14549643D01*
X16733929Y-14549643D02*
X16762500Y-14549643D01*
X16762500Y-14549643D02*
X16781548Y-14559167D01*
X16781548Y-14559167D02*
X16791072Y-14568690D01*
X16791072Y-14568690D02*
X16800595Y-14587738D01*
X16800595Y-14587738D02*
X16800595Y-14644881D01*
X16800595Y-14644881D02*
X16791072Y-14663928D01*
X16791072Y-14663928D02*
X16781548Y-14673452D01*
X16781548Y-14673452D02*
X16762500Y-14682976D01*
X16762500Y-14682976D02*
X16733929Y-14682976D01*
X16914881Y-14682976D02*
X16895834Y-14673452D01*
X16895834Y-14673452D02*
X16886310Y-14654405D01*
X16886310Y-14654405D02*
X16886310Y-14482976D01*
X17067262Y-14673452D02*
X17048215Y-14682976D01*
X17048215Y-14682976D02*
X17010119Y-14682976D01*
X17010119Y-14682976D02*
X16991072Y-14673452D01*
X16991072Y-14673452D02*
X16981548Y-14654405D01*
X16981548Y-14654405D02*
X16981548Y-14578214D01*
X16981548Y-14578214D02*
X16991072Y-14559167D01*
X16991072Y-14559167D02*
X17010119Y-14549643D01*
X17010119Y-14549643D02*
X17048215Y-14549643D01*
X17048215Y-14549643D02*
X17067262Y-14559167D01*
X17067262Y-14559167D02*
X17076786Y-14578214D01*
X17076786Y-14578214D02*
X17076786Y-14597262D01*
X17076786Y-14597262D02*
X16981548Y-14616309D01*
X17152976Y-14673452D02*
X17172024Y-14682976D01*
X17172024Y-14682976D02*
X17210119Y-14682976D01*
X17210119Y-14682976D02*
X17229167Y-14673452D01*
X17229167Y-14673452D02*
X17238691Y-14654405D01*
X17238691Y-14654405D02*
X17238691Y-14644881D01*
X17238691Y-14644881D02*
X17229167Y-14625833D01*
X17229167Y-14625833D02*
X17210119Y-14616309D01*
X17210119Y-14616309D02*
X17181548Y-14616309D01*
X17181548Y-14616309D02*
X17162500Y-14606786D01*
X17162500Y-14606786D02*
X17152976Y-14587738D01*
X17152976Y-14587738D02*
X17152976Y-14578214D01*
X17152976Y-14578214D02*
X17162500Y-14559167D01*
X17162500Y-14559167D02*
X17181548Y-14549643D01*
X17181548Y-14549643D02*
X17210119Y-14549643D01*
X17210119Y-14549643D02*
X17229167Y-14559167D01*
X17305357Y-14759167D02*
X17314881Y-14749643D01*
X17314881Y-14749643D02*
X17333929Y-14721071D01*
X17333929Y-14721071D02*
X17343453Y-14702024D01*
X17343453Y-14702024D02*
X17352976Y-14673452D01*
X17352976Y-14673452D02*
X17362500Y-14625833D01*
X17362500Y-14625833D02*
X17362500Y-14587738D01*
X17362500Y-14587738D02*
X17352976Y-14540119D01*
X17352976Y-14540119D02*
X17343453Y-14511548D01*
X17343453Y-14511548D02*
X17333929Y-14492500D01*
X17333929Y-14492500D02*
X17314881Y-14463928D01*
X17314881Y-14463928D02*
X17305357Y-14454405D01*
D15*
X12431700Y-14924300D02*
X12482500Y-14873500D01*
X12431700Y-14822700D01*
X12380900Y-14873500D01*
X12431700Y-14924300D01*
D11*
X12834881Y-14946976D02*
X12720595Y-14946976D01*
X12777738Y-14946976D02*
X12777738Y-14746976D01*
X12777738Y-14746976D02*
X12758690Y-14775548D01*
X12758690Y-14775548D02*
X12739643Y-14794595D01*
X12739643Y-14794595D02*
X12720595Y-14804119D01*
X12920595Y-14927928D02*
X12930119Y-14937452D01*
X12930119Y-14937452D02*
X12920595Y-14946976D01*
X12920595Y-14946976D02*
X12911071Y-14937452D01*
X12911071Y-14937452D02*
X12920595Y-14927928D01*
X12920595Y-14927928D02*
X12920595Y-14946976D01*
X13053928Y-14746976D02*
X13072976Y-14746976D01*
X13072976Y-14746976D02*
X13092024Y-14756500D01*
X13092024Y-14756500D02*
X13101548Y-14766024D01*
X13101548Y-14766024D02*
X13111071Y-14785071D01*
X13111071Y-14785071D02*
X13120595Y-14823167D01*
X13120595Y-14823167D02*
X13120595Y-14870786D01*
X13120595Y-14870786D02*
X13111071Y-14908881D01*
X13111071Y-14908881D02*
X13101548Y-14927928D01*
X13101548Y-14927928D02*
X13092024Y-14937452D01*
X13092024Y-14937452D02*
X13072976Y-14946976D01*
X13072976Y-14946976D02*
X13053928Y-14946976D01*
X13053928Y-14946976D02*
X13034881Y-14937452D01*
X13034881Y-14937452D02*
X13025357Y-14927928D01*
X13025357Y-14927928D02*
X13015833Y-14908881D01*
X13015833Y-14908881D02*
X13006309Y-14870786D01*
X13006309Y-14870786D02*
X13006309Y-14823167D01*
X13006309Y-14823167D02*
X13015833Y-14785071D01*
X13015833Y-14785071D02*
X13025357Y-14766024D01*
X13025357Y-14766024D02*
X13034881Y-14756500D01*
X13034881Y-14756500D02*
X13053928Y-14746976D01*
X13311071Y-14946976D02*
X13196786Y-14946976D01*
X13253928Y-14946976D02*
X13253928Y-14746976D01*
X13253928Y-14746976D02*
X13234881Y-14775548D01*
X13234881Y-14775548D02*
X13215833Y-14794595D01*
X13215833Y-14794595D02*
X13196786Y-14804119D01*
X13482500Y-14746976D02*
X13444405Y-14746976D01*
X13444405Y-14746976D02*
X13425357Y-14756500D01*
X13425357Y-14756500D02*
X13415833Y-14766024D01*
X13415833Y-14766024D02*
X13396786Y-14794595D01*
X13396786Y-14794595D02*
X13387262Y-14832690D01*
X13387262Y-14832690D02*
X13387262Y-14908881D01*
X13387262Y-14908881D02*
X13396786Y-14927928D01*
X13396786Y-14927928D02*
X13406309Y-14937452D01*
X13406309Y-14937452D02*
X13425357Y-14946976D01*
X13425357Y-14946976D02*
X13463452Y-14946976D01*
X13463452Y-14946976D02*
X13482500Y-14937452D01*
X13482500Y-14937452D02*
X13492024Y-14927928D01*
X13492024Y-14927928D02*
X13501548Y-14908881D01*
X13501548Y-14908881D02*
X13501548Y-14861262D01*
X13501548Y-14861262D02*
X13492024Y-14842214D01*
X13492024Y-14842214D02*
X13482500Y-14832690D01*
X13482500Y-14832690D02*
X13463452Y-14823167D01*
X13463452Y-14823167D02*
X13425357Y-14823167D01*
X13425357Y-14823167D02*
X13406309Y-14832690D01*
X13406309Y-14832690D02*
X13396786Y-14842214D01*
X13396786Y-14842214D02*
X13387262Y-14861262D01*
X13587262Y-14946976D02*
X13587262Y-14813643D01*
X13587262Y-14832690D02*
X13596786Y-14823167D01*
X13596786Y-14823167D02*
X13615833Y-14813643D01*
X13615833Y-14813643D02*
X13644405Y-14813643D01*
X13644405Y-14813643D02*
X13663452Y-14823167D01*
X13663452Y-14823167D02*
X13672976Y-14842214D01*
X13672976Y-14842214D02*
X13672976Y-14946976D01*
X13672976Y-14842214D02*
X13682500Y-14823167D01*
X13682500Y-14823167D02*
X13701548Y-14813643D01*
X13701548Y-14813643D02*
X13730119Y-14813643D01*
X13730119Y-14813643D02*
X13749167Y-14823167D01*
X13749167Y-14823167D02*
X13758690Y-14842214D01*
X13758690Y-14842214D02*
X13758690Y-14946976D01*
X13853929Y-14946976D02*
X13853929Y-14813643D01*
X13853929Y-14832690D02*
X13863452Y-14823167D01*
X13863452Y-14823167D02*
X13882500Y-14813643D01*
X13882500Y-14813643D02*
X13911071Y-14813643D01*
X13911071Y-14813643D02*
X13930119Y-14823167D01*
X13930119Y-14823167D02*
X13939643Y-14842214D01*
X13939643Y-14842214D02*
X13939643Y-14946976D01*
X13939643Y-14842214D02*
X13949167Y-14823167D01*
X13949167Y-14823167D02*
X13968214Y-14813643D01*
X13968214Y-14813643D02*
X13996786Y-14813643D01*
X13996786Y-14813643D02*
X14015833Y-14823167D01*
X14015833Y-14823167D02*
X14025357Y-14842214D01*
X14025357Y-14842214D02*
X14025357Y-14946976D01*
X14383452Y-14737452D02*
X14212024Y-14994595D01*
X14608214Y-14746976D02*
X14627262Y-14746976D01*
X14627262Y-14746976D02*
X14646310Y-14756500D01*
X14646310Y-14756500D02*
X14655833Y-14766024D01*
X14655833Y-14766024D02*
X14665357Y-14785071D01*
X14665357Y-14785071D02*
X14674881Y-14823167D01*
X14674881Y-14823167D02*
X14674881Y-14870786D01*
X14674881Y-14870786D02*
X14665357Y-14908881D01*
X14665357Y-14908881D02*
X14655833Y-14927928D01*
X14655833Y-14927928D02*
X14646310Y-14937452D01*
X14646310Y-14937452D02*
X14627262Y-14946976D01*
X14627262Y-14946976D02*
X14608214Y-14946976D01*
X14608214Y-14946976D02*
X14589167Y-14937452D01*
X14589167Y-14937452D02*
X14579643Y-14927928D01*
X14579643Y-14927928D02*
X14570119Y-14908881D01*
X14570119Y-14908881D02*
X14560595Y-14870786D01*
X14560595Y-14870786D02*
X14560595Y-14823167D01*
X14560595Y-14823167D02*
X14570119Y-14785071D01*
X14570119Y-14785071D02*
X14579643Y-14766024D01*
X14579643Y-14766024D02*
X14589167Y-14756500D01*
X14589167Y-14756500D02*
X14608214Y-14746976D01*
X14760595Y-14927928D02*
X14770119Y-14937452D01*
X14770119Y-14937452D02*
X14760595Y-14946976D01*
X14760595Y-14946976D02*
X14751071Y-14937452D01*
X14751071Y-14937452D02*
X14760595Y-14927928D01*
X14760595Y-14927928D02*
X14760595Y-14946976D01*
X14893929Y-14746976D02*
X14912976Y-14746976D01*
X14912976Y-14746976D02*
X14932024Y-14756500D01*
X14932024Y-14756500D02*
X14941548Y-14766024D01*
X14941548Y-14766024D02*
X14951071Y-14785071D01*
X14951071Y-14785071D02*
X14960595Y-14823167D01*
X14960595Y-14823167D02*
X14960595Y-14870786D01*
X14960595Y-14870786D02*
X14951071Y-14908881D01*
X14951071Y-14908881D02*
X14941548Y-14927928D01*
X14941548Y-14927928D02*
X14932024Y-14937452D01*
X14932024Y-14937452D02*
X14912976Y-14946976D01*
X14912976Y-14946976D02*
X14893929Y-14946976D01*
X14893929Y-14946976D02*
X14874881Y-14937452D01*
X14874881Y-14937452D02*
X14865357Y-14927928D01*
X14865357Y-14927928D02*
X14855833Y-14908881D01*
X14855833Y-14908881D02*
X14846310Y-14870786D01*
X14846310Y-14870786D02*
X14846310Y-14823167D01*
X14846310Y-14823167D02*
X14855833Y-14785071D01*
X14855833Y-14785071D02*
X14865357Y-14766024D01*
X14865357Y-14766024D02*
X14874881Y-14756500D01*
X14874881Y-14756500D02*
X14893929Y-14746976D01*
X15132024Y-14813643D02*
X15132024Y-14946976D01*
X15084405Y-14737452D02*
X15036786Y-14880309D01*
X15036786Y-14880309D02*
X15160595Y-14880309D01*
X15274881Y-14746976D02*
X15293929Y-14746976D01*
X15293929Y-14746976D02*
X15312976Y-14756500D01*
X15312976Y-14756500D02*
X15322500Y-14766024D01*
X15322500Y-14766024D02*
X15332024Y-14785071D01*
X15332024Y-14785071D02*
X15341548Y-14823167D01*
X15341548Y-14823167D02*
X15341548Y-14870786D01*
X15341548Y-14870786D02*
X15332024Y-14908881D01*
X15332024Y-14908881D02*
X15322500Y-14927928D01*
X15322500Y-14927928D02*
X15312976Y-14937452D01*
X15312976Y-14937452D02*
X15293929Y-14946976D01*
X15293929Y-14946976D02*
X15274881Y-14946976D01*
X15274881Y-14946976D02*
X15255833Y-14937452D01*
X15255833Y-14937452D02*
X15246310Y-14927928D01*
X15246310Y-14927928D02*
X15236786Y-14908881D01*
X15236786Y-14908881D02*
X15227262Y-14870786D01*
X15227262Y-14870786D02*
X15227262Y-14823167D01*
X15227262Y-14823167D02*
X15236786Y-14785071D01*
X15236786Y-14785071D02*
X15246310Y-14766024D01*
X15246310Y-14766024D02*
X15255833Y-14756500D01*
X15255833Y-14756500D02*
X15274881Y-14746976D01*
X15465357Y-14746976D02*
X15484405Y-14746976D01*
X15484405Y-14746976D02*
X15503452Y-14756500D01*
X15503452Y-14756500D02*
X15512976Y-14766024D01*
X15512976Y-14766024D02*
X15522500Y-14785071D01*
X15522500Y-14785071D02*
X15532024Y-14823167D01*
X15532024Y-14823167D02*
X15532024Y-14870786D01*
X15532024Y-14870786D02*
X15522500Y-14908881D01*
X15522500Y-14908881D02*
X15512976Y-14927928D01*
X15512976Y-14927928D02*
X15503452Y-14937452D01*
X15503452Y-14937452D02*
X15484405Y-14946976D01*
X15484405Y-14946976D02*
X15465357Y-14946976D01*
X15465357Y-14946976D02*
X15446310Y-14937452D01*
X15446310Y-14937452D02*
X15436786Y-14927928D01*
X15436786Y-14927928D02*
X15427262Y-14908881D01*
X15427262Y-14908881D02*
X15417738Y-14870786D01*
X15417738Y-14870786D02*
X15417738Y-14823167D01*
X15417738Y-14823167D02*
X15427262Y-14785071D01*
X15427262Y-14785071D02*
X15436786Y-14766024D01*
X15436786Y-14766024D02*
X15446310Y-14756500D01*
X15446310Y-14756500D02*
X15465357Y-14746976D01*
X15608214Y-14746976D02*
X15608214Y-14785071D01*
X15684405Y-14746976D02*
X15684405Y-14785071D01*
X15947262Y-15023167D02*
X15937738Y-15013643D01*
X15937738Y-15013643D02*
X15918691Y-14985071D01*
X15918691Y-14985071D02*
X15909167Y-14966024D01*
X15909167Y-14966024D02*
X15899643Y-14937452D01*
X15899643Y-14937452D02*
X15890119Y-14889833D01*
X15890119Y-14889833D02*
X15890119Y-14851738D01*
X15890119Y-14851738D02*
X15899643Y-14804119D01*
X15899643Y-14804119D02*
X15909167Y-14775548D01*
X15909167Y-14775548D02*
X15918691Y-14756500D01*
X15918691Y-14756500D02*
X15937738Y-14727928D01*
X15937738Y-14727928D02*
X15947262Y-14718405D01*
X16004405Y-14746976D02*
X16128214Y-14746976D01*
X16128214Y-14746976D02*
X16061548Y-14823167D01*
X16061548Y-14823167D02*
X16090119Y-14823167D01*
X16090119Y-14823167D02*
X16109167Y-14832690D01*
X16109167Y-14832690D02*
X16118691Y-14842214D01*
X16118691Y-14842214D02*
X16128214Y-14861262D01*
X16128214Y-14861262D02*
X16128214Y-14908881D01*
X16128214Y-14908881D02*
X16118691Y-14927928D01*
X16118691Y-14927928D02*
X16109167Y-14937452D01*
X16109167Y-14937452D02*
X16090119Y-14946976D01*
X16090119Y-14946976D02*
X16032976Y-14946976D01*
X16032976Y-14946976D02*
X16013929Y-14937452D01*
X16013929Y-14937452D02*
X16004405Y-14927928D01*
X16242500Y-14832690D02*
X16223452Y-14823167D01*
X16223452Y-14823167D02*
X16213929Y-14813643D01*
X16213929Y-14813643D02*
X16204405Y-14794595D01*
X16204405Y-14794595D02*
X16204405Y-14785071D01*
X16204405Y-14785071D02*
X16213929Y-14766024D01*
X16213929Y-14766024D02*
X16223452Y-14756500D01*
X16223452Y-14756500D02*
X16242500Y-14746976D01*
X16242500Y-14746976D02*
X16280595Y-14746976D01*
X16280595Y-14746976D02*
X16299643Y-14756500D01*
X16299643Y-14756500D02*
X16309167Y-14766024D01*
X16309167Y-14766024D02*
X16318691Y-14785071D01*
X16318691Y-14785071D02*
X16318691Y-14794595D01*
X16318691Y-14794595D02*
X16309167Y-14813643D01*
X16309167Y-14813643D02*
X16299643Y-14823167D01*
X16299643Y-14823167D02*
X16280595Y-14832690D01*
X16280595Y-14832690D02*
X16242500Y-14832690D01*
X16242500Y-14832690D02*
X16223452Y-14842214D01*
X16223452Y-14842214D02*
X16213929Y-14851738D01*
X16213929Y-14851738D02*
X16204405Y-14870786D01*
X16204405Y-14870786D02*
X16204405Y-14908881D01*
X16204405Y-14908881D02*
X16213929Y-14927928D01*
X16213929Y-14927928D02*
X16223452Y-14937452D01*
X16223452Y-14937452D02*
X16242500Y-14946976D01*
X16242500Y-14946976D02*
X16280595Y-14946976D01*
X16280595Y-14946976D02*
X16299643Y-14937452D01*
X16299643Y-14937452D02*
X16309167Y-14927928D01*
X16309167Y-14927928D02*
X16318691Y-14908881D01*
X16318691Y-14908881D02*
X16318691Y-14870786D01*
X16318691Y-14870786D02*
X16309167Y-14851738D01*
X16309167Y-14851738D02*
X16299643Y-14842214D01*
X16299643Y-14842214D02*
X16280595Y-14832690D01*
X16524405Y-14946976D02*
X16524405Y-14746976D01*
X16610119Y-14946976D02*
X16610119Y-14842214D01*
X16610119Y-14842214D02*
X16600595Y-14823167D01*
X16600595Y-14823167D02*
X16581548Y-14813643D01*
X16581548Y-14813643D02*
X16552976Y-14813643D01*
X16552976Y-14813643D02*
X16533929Y-14823167D01*
X16533929Y-14823167D02*
X16524405Y-14832690D01*
X16733929Y-14946976D02*
X16714881Y-14937452D01*
X16714881Y-14937452D02*
X16705357Y-14927928D01*
X16705357Y-14927928D02*
X16695833Y-14908881D01*
X16695833Y-14908881D02*
X16695833Y-14851738D01*
X16695833Y-14851738D02*
X16705357Y-14832690D01*
X16705357Y-14832690D02*
X16714881Y-14823167D01*
X16714881Y-14823167D02*
X16733929Y-14813643D01*
X16733929Y-14813643D02*
X16762500Y-14813643D01*
X16762500Y-14813643D02*
X16781548Y-14823167D01*
X16781548Y-14823167D02*
X16791072Y-14832690D01*
X16791072Y-14832690D02*
X16800595Y-14851738D01*
X16800595Y-14851738D02*
X16800595Y-14908881D01*
X16800595Y-14908881D02*
X16791072Y-14927928D01*
X16791072Y-14927928D02*
X16781548Y-14937452D01*
X16781548Y-14937452D02*
X16762500Y-14946976D01*
X16762500Y-14946976D02*
X16733929Y-14946976D01*
X16914881Y-14946976D02*
X16895834Y-14937452D01*
X16895834Y-14937452D02*
X16886310Y-14918405D01*
X16886310Y-14918405D02*
X16886310Y-14746976D01*
X17067262Y-14937452D02*
X17048215Y-14946976D01*
X17048215Y-14946976D02*
X17010119Y-14946976D01*
X17010119Y-14946976D02*
X16991072Y-14937452D01*
X16991072Y-14937452D02*
X16981548Y-14918405D01*
X16981548Y-14918405D02*
X16981548Y-14842214D01*
X16981548Y-14842214D02*
X16991072Y-14823167D01*
X16991072Y-14823167D02*
X17010119Y-14813643D01*
X17010119Y-14813643D02*
X17048215Y-14813643D01*
X17048215Y-14813643D02*
X17067262Y-14823167D01*
X17067262Y-14823167D02*
X17076786Y-14842214D01*
X17076786Y-14842214D02*
X17076786Y-14861262D01*
X17076786Y-14861262D02*
X16981548Y-14880309D01*
X17152976Y-14937452D02*
X17172024Y-14946976D01*
X17172024Y-14946976D02*
X17210119Y-14946976D01*
X17210119Y-14946976D02*
X17229167Y-14937452D01*
X17229167Y-14937452D02*
X17238691Y-14918405D01*
X17238691Y-14918405D02*
X17238691Y-14908881D01*
X17238691Y-14908881D02*
X17229167Y-14889833D01*
X17229167Y-14889833D02*
X17210119Y-14880309D01*
X17210119Y-14880309D02*
X17181548Y-14880309D01*
X17181548Y-14880309D02*
X17162500Y-14870786D01*
X17162500Y-14870786D02*
X17152976Y-14851738D01*
X17152976Y-14851738D02*
X17152976Y-14842214D01*
X17152976Y-14842214D02*
X17162500Y-14823167D01*
X17162500Y-14823167D02*
X17181548Y-14813643D01*
X17181548Y-14813643D02*
X17210119Y-14813643D01*
X17210119Y-14813643D02*
X17229167Y-14823167D01*
X17305357Y-15023167D02*
X17314881Y-15013643D01*
X17314881Y-15013643D02*
X17333929Y-14985071D01*
X17333929Y-14985071D02*
X17343453Y-14966024D01*
X17343453Y-14966024D02*
X17352976Y-14937452D01*
X17352976Y-14937452D02*
X17362500Y-14889833D01*
X17362500Y-14889833D02*
X17362500Y-14851738D01*
X17362500Y-14851738D02*
X17352976Y-14804119D01*
X17352976Y-14804119D02*
X17343453Y-14775548D01*
X17343453Y-14775548D02*
X17333929Y-14756500D01*
X17333929Y-14756500D02*
X17314881Y-14727928D01*
X17314881Y-14727928D02*
X17305357Y-14718405D01*
M02*
