M48
; DRILL file {KiCad 7.0.0} date Tue 28 Feb 2023 11:46:05 PM PST
; FORMAT={-:-/ absolute / metric / decimal}
; #@! TF.CreationDate,2023-02-28T23:46:05-08:00
; #@! TF.GenerationSoftware,Kicad,Pcbnew,7.0.0
; #@! TF.FileFunction,Plated,1,4,PTH
FMAT,2
METRIC
; #@! TA.AperFunction,Plated,PTH,ViaDrill
T1C0.300
; #@! TA.AperFunction,Plated,PTH,ComponentDrill
T2C0.750
; #@! TA.AperFunction,Plated,PTH,ComponentDrill
T3C0.800
; #@! TA.AperFunction,Plated,PTH,ComponentDrill
T4C1.000
; #@! TA.AperFunction,Plated,PTH,ComponentDrill
T5C1.016
%
G90
G05
T1
X133.125Y-93.075
X133.55Y-84.275
X133.85Y-90.725
X133.975Y-100.8
X138.025Y-92.325
X138.025Y-93.95
X138.05Y-87.15
X139.25Y-89.25
X140.875Y-88.1
X141.025Y-101.625
X145.05Y-100.825
X145.375Y-90.75
X146.2Y-93.05
X148.325Y-100.825
X148.9Y-89.6
X149.9Y-106.675
X150.325Y-100.8
X152.475Y-93.05
X152.475Y-102.3
X156.1Y-80.95
X158.2Y-100.825
X158.6Y-90.725
X159.25Y-102.975
X168.25Y-101.625
X171.525Y-89.65
X172.225Y-100.825
T2
X133.875Y-105.86
X133.875Y-107.86
X133.875Y-109.86
X133.875Y-111.86
X133.875Y-116.825
X133.875Y-118.825
X133.875Y-120.825
X133.875Y-122.825
X147.775Y-77.95
X149.775Y-77.95
X149.775Y-85.45
X151.775Y-77.95
X151.775Y-85.45
X153.775Y-77.95
X155.775Y-77.95
X169.65Y-108.1
X169.65Y-110.1
X169.65Y-112.1
X169.65Y-114.1
X169.65Y-119.175
X169.65Y-121.175
X169.65Y-123.175
X169.65Y-125.175
T3
X139.13Y-105.055
X139.13Y-107.595
X139.13Y-110.135
X139.13Y-112.675
X146.75Y-105.055
X146.75Y-107.595
X146.75Y-110.135
X146.75Y-112.675
T4
X133.09Y-81.275
X135.63Y-81.275
X138.17Y-77.575
X138.17Y-81.275
X140.71Y-77.575
X140.71Y-81.275
X143.25Y-77.575
X143.25Y-81.275
X160.31Y-81.25
X162.85Y-81.25
X165.385Y-77.55
X165.39Y-81.25
X167.925Y-77.55
X167.93Y-81.25
X170.465Y-77.55
X170.47Y-81.25
T5
X127.67Y-90.82
X127.67Y-93.36
X127.67Y-95.9
X127.67Y-98.44
X127.67Y-100.98
X127.67Y-103.52
X127.67Y-106.06
X127.67Y-108.6
X127.67Y-113.68
X127.67Y-116.22
X127.67Y-118.76
X127.67Y-121.3
X127.67Y-123.84
X127.67Y-126.38
X150.53Y-126.507
X150.53Y-129.047
X153.07Y-126.507
X153.07Y-129.047
X155.61Y-126.507
X155.61Y-129.047
X175.93Y-81.676
X175.93Y-84.216
X175.93Y-86.756
X175.93Y-89.296
X175.93Y-91.836
X175.93Y-94.376
X175.93Y-96.916
X175.93Y-99.456
X175.93Y-101.996
X175.93Y-104.536
X175.93Y-108.6
X175.93Y-111.14
X175.93Y-113.68
X175.93Y-116.22
X175.93Y-118.76
X175.93Y-121.3
X175.93Y-123.84
X175.93Y-126.38
T0
M30
